<svg width="1500" height="1500" viewBox="0 0 1500 1500" fill="none" xmlns="http://www.w3.org/2000/svg">
<path fill-rule="evenodd" clip-rule="evenodd" d="M1229.26 0.100661C1268.27 0.100661 1299.97 31.7992 1299.97 70.7975V200.092H1429.28C1443.27 200.089 1456.94 204.233 1468.57 212.001C1480.2 219.769 1489.26 230.812 1494.62 243.732C1499.97 256.652 1501.37 270.869 1498.64 284.585C1495.91 298.301 1489.17 310.899 1479.28 320.786L1333.27 466.78C1311.95 488.049 1283.08 500.02 1252.97 500.078H1105.95L752.925 853.062C738.706 866.309 719.9 873.522 700.469 873.179C681.037 872.836 662.497 864.965 648.755 851.224C635.012 837.484 627.14 818.946 626.797 799.517C626.455 780.088 633.668 761.284 646.917 747.067L999.945 394.083V247.089C999.945 216.991 1011.95 188.092 1033.25 166.693L1179.26 20.6997C1185.8 14.1041 1193.59 8.87708 1202.18 5.32331C1210.76 1.76954 1219.97 -0.0398382 1229.26 0.000665262M149.877 800.065C149.866 718.522 167.99 637.997 202.937 564.321C237.884 490.644 288.778 425.659 351.936 374.071C415.093 322.483 488.934 285.583 568.11 266.043C647.287 246.502 729.818 244.81 809.73 261.089C829.123 264.789 849.194 260.694 865.588 249.692C881.982 238.69 893.376 221.669 897.298 202.322C901.221 182.974 897.356 162.86 886.542 146.343C875.727 129.826 858.836 118.239 839.532 114.095C692.087 84.1222 538.907 102.445 402.694 166.349C266.481 230.252 154.484 336.335 83.3008 468.877C12.1177 601.418 -14.4631 753.364 7.49778 902.196C29.4587 1051.03 98.7925 1188.82 205.224 1295.16C311.655 1401.5 449.52 1470.73 598.386 1492.58C747.252 1514.43 899.198 1487.74 1031.7 1416.47C1164.21 1345.2 1270.22 1233.13 1334.04 1096.89C1397.85 960.65 1416.06 807.475 1385.98 660.071C1382.01 640.578 1370.46 623.459 1353.87 612.479C1337.29 601.5 1317.01 597.559 1297.52 601.523C1278.02 605.488 1260.9 617.034 1249.92 633.621C1238.94 650.208 1235 670.477 1238.96 689.969C1246.23 725.501 1249.9 762.2 1249.96 800.065C1249.96 945.927 1192.01 1085.82 1088.86 1188.96C985.707 1292.1 845.802 1350.04 699.921 1350.04C554.04 1350.04 414.134 1292.1 310.981 1188.96C207.828 1085.82 149.877 945.927 149.877 800.065ZM686.32 550.476C706.186 549.415 724.817 540.507 738.115 525.711C751.412 510.915 758.286 491.443 757.225 471.579C756.164 451.716 747.255 433.087 732.457 419.791C717.659 406.495 698.185 399.622 678.319 400.683C601.505 404.822 527.514 431.017 465.211 476.131C402.908 521.245 354.935 583.364 327.041 655.044C299.146 726.725 292.514 804.927 307.937 880.281C323.36 955.634 360.186 1024.94 414.001 1079.9C467.816 1134.86 536.338 1173.14 611.358 1190.16C686.377 1207.17 764.712 1202.2 836.976 1175.83C909.24 1149.47 972.369 1102.82 1018.8 1041.5C1065.23 980.173 1092.99 906.762 1098.75 830.063C1100.22 810.226 1093.76 790.616 1080.77 775.548C1067.78 760.481 1049.34 751.189 1029.5 749.717C1009.66 748.245 990.045 754.714 974.976 767.7C959.906 780.686 950.613 799.126 949.141 818.964C945.493 866.876 928.113 912.721 899.08 951.012C870.048 989.303 830.594 1018.42 785.442 1034.87C740.29 1051.32 691.353 1054.41 644.489 1043.77C597.625 1033.13 554.82 1009.22 521.199 974.885C487.578 940.552 464.564 897.258 454.915 850.186C445.265 803.114 449.387 754.259 466.788 709.469C484.189 664.679 514.131 625.852 553.029 597.637C591.928 569.422 638.136 553.013 686.12 550.376" fill="#212121"/>
</svg>
