<svg width="1500" height="1500" viewBox="0 0 1500 1500" fill="none" xmlns="http://www.w3.org/2000/svg">
<path d="M75 225C75 185.218 90.8035 147.064 118.934 118.934C147.064 90.8035 185.218 75 225 75H1275C1314.78 75 1352.94 90.8035 1381.07 118.934C1409.2 147.064 1425 185.218 1425 225V1275C1425 1314.78 1409.2 1352.94 1381.07 1381.07C1352.94 1409.2 1314.78 1425 1275 1425H225C185.218 1425 147.064 1409.2 118.934 1381.07C90.8035 1352.94 75 1314.78 75 1275V225Z" stroke="#212121" stroke-width="150" stroke-linecap="round" stroke-linejoin="round"/>
<path d="M487.51 524.687C508.22 524.687 525.01 507.898 525.01 487.187C525.01 466.477 508.22 449.688 487.51 449.688C466.799 449.688 450.01 466.477 450.01 487.187C450.01 507.898 466.799 524.687 487.51 524.687Z" fill="#212121" stroke="#212121" stroke-width="150" stroke-linecap="round" stroke-linejoin="round"/>
<path d="M1012.41 524.687C1033.12 524.687 1049.91 507.898 1049.91 487.187C1049.91 466.477 1033.12 449.688 1012.41 449.688C991.701 449.688 974.912 466.477 974.912 487.187C974.912 507.898 991.701 524.687 1012.41 524.687Z" fill="#212121" stroke="#212121" stroke-width="150" stroke-linecap="round" stroke-linejoin="round"/>
<path d="M1012.41 1049.65C1033.12 1049.65 1049.91 1032.86 1049.91 1012.15C1049.91 991.438 1033.12 974.648 1012.41 974.648C991.701 974.648 974.912 991.438 974.912 1012.15C974.912 1032.86 991.701 1049.65 1012.41 1049.65Z" fill="#212121" stroke="#212121" stroke-width="150" stroke-linecap="round" stroke-linejoin="round"/>
<path d="M487.51 1049.65C508.22 1049.65 525.01 1032.86 525.01 1012.15C525.01 991.438 508.22 974.648 487.51 974.648C466.799 974.648 450.01 991.438 450.01 1012.15C450.01 1032.86 466.799 1049.65 487.51 1049.65Z" fill="#212121" stroke="#212121" stroke-width="150" stroke-linecap="round" stroke-linejoin="round"/>
</svg>
