<svg width="5601" height="600" viewBox="0 0 5601 600" fill="none" xmlns="http://www.w3.org/2000/svg">
<rect x="0.5" width="5600" height="600" rx="75" fill="#131313"/>
<path d="M1083.36 204.128H1052.48L1052.31 188.024H1078.79C1083.33 188.024 1087.12 187.388 1090.16 186.115C1093.21 184.842 1095.5 182.989 1097.05 180.554C1098.66 178.119 1099.46 175.158 1099.46 171.672C1099.46 167.798 1098.71 164.644 1097.22 162.209C1095.78 159.774 1093.51 158.003 1090.41 156.896C1087.31 155.734 1083.38 155.153 1078.62 155.153H1059.87V258H1037.04V137.141H1078.62C1085.49 137.141 1091.6 137.805 1096.97 139.133C1102.39 140.406 1106.99 142.398 1110.75 145.109C1114.51 147.821 1117.36 151.224 1119.3 155.319C1121.29 159.414 1122.29 164.284 1122.29 169.929C1122.29 174.909 1121.12 179.502 1118.8 183.708C1116.53 187.858 1113.02 191.234 1108.26 193.835C1103.56 196.436 1097.58 197.93 1090.33 198.317L1083.36 204.128ZM1082.36 258H1045.75L1055.3 240.07H1082.36C1086.9 240.07 1090.63 239.323 1093.57 237.829C1096.55 236.335 1098.77 234.287 1100.21 231.687C1101.7 229.03 1102.45 225.987 1102.45 222.556C1102.45 218.793 1101.78 215.528 1100.46 212.761C1099.18 209.994 1097.14 207.863 1094.31 206.369C1091.55 204.875 1087.89 204.128 1083.36 204.128H1059.62L1059.78 188.024H1090L1095.23 194.25C1102.2 194.305 1107.87 195.689 1112.24 198.4C1116.67 201.112 1119.94 204.598 1122.04 208.859C1124.14 213.12 1125.19 217.714 1125.19 222.639C1125.19 230.386 1123.5 236.888 1120.13 242.146C1116.81 247.403 1111.94 251.359 1105.52 254.016C1099.16 256.672 1091.44 258 1082.36 258ZM1139.39 214.006V212.263C1139.39 205.677 1140.33 199.618 1142.21 194.084C1144.09 188.495 1146.83 183.653 1150.43 179.558C1154.02 175.463 1158.42 172.281 1163.62 170.012C1168.83 167.688 1174.75 166.525 1181.39 166.525C1188.14 166.525 1194.12 167.688 1199.32 170.012C1204.58 172.281 1209 175.463 1212.6 179.558C1216.2 183.653 1218.94 188.495 1220.82 194.084C1222.7 199.618 1223.64 205.677 1223.64 212.263V214.006C1223.64 220.536 1222.7 226.595 1220.82 232.185C1218.94 237.718 1216.2 242.561 1212.6 246.711C1209 250.806 1204.6 253.988 1199.4 256.257C1194.2 258.526 1188.25 259.66 1181.55 259.66C1174.91 259.66 1168.97 258.526 1163.71 256.257C1158.45 253.988 1154.02 250.806 1150.43 246.711C1146.83 242.561 1144.09 237.718 1142.21 232.185C1140.33 226.595 1139.39 220.536 1139.39 214.006ZM1161.3 212.263V214.006C1161.3 217.935 1161.69 221.615 1162.46 225.046C1163.24 228.477 1164.43 231.493 1166.03 234.094C1167.64 236.695 1169.71 238.742 1172.26 240.236C1174.86 241.675 1177.96 242.395 1181.55 242.395C1185.1 242.395 1188.14 241.675 1190.69 240.236C1193.23 238.742 1195.31 236.695 1196.91 234.094C1198.57 231.493 1199.79 228.477 1200.56 225.046C1201.34 221.615 1201.73 217.935 1201.73 214.006V212.263C1201.73 208.389 1201.34 204.764 1200.56 201.389C1199.79 197.958 1198.57 194.942 1196.91 192.341C1195.31 189.685 1193.2 187.609 1190.6 186.115C1188.06 184.566 1184.99 183.791 1181.39 183.791C1177.85 183.791 1174.8 184.566 1172.26 186.115C1169.71 187.609 1167.64 189.685 1166.03 192.341C1164.43 194.942 1163.24 197.958 1162.46 201.389C1161.69 204.764 1161.3 208.389 1161.3 212.263ZM1278.09 215.168H1260.58V204.709H1273.94C1277.21 204.709 1279.81 204.266 1281.75 203.381C1283.74 202.495 1285.15 201.25 1285.98 199.646C1286.86 198.041 1287.31 196.187 1287.31 194.084C1287.31 192.202 1286.89 190.432 1286.06 188.771C1285.23 187.056 1283.85 185.673 1281.91 184.621C1279.97 183.514 1277.29 182.961 1273.86 182.961C1271.04 182.961 1268.52 183.404 1266.31 184.289C1264.09 185.174 1262.35 186.42 1261.08 188.024C1259.8 189.629 1259.17 191.538 1259.17 193.752H1237.17C1237.17 188.107 1238.77 183.265 1241.98 179.226C1245.25 175.186 1249.59 172.087 1255.02 169.929C1260.44 167.715 1266.39 166.608 1272.86 166.608C1278.45 166.608 1283.49 167.189 1287.97 168.352C1292.45 169.458 1296.27 171.118 1299.43 173.332C1302.58 175.546 1305.01 178.285 1306.73 181.55C1308.45 184.759 1309.3 188.495 1309.3 192.756C1309.3 195.799 1308.58 198.677 1307.15 201.389C1305.71 204.1 1303.63 206.507 1300.92 208.61C1298.21 210.658 1294.92 212.263 1291.04 213.425C1287.22 214.587 1282.91 215.168 1278.09 215.168ZM1260.58 209.191H1278.09C1283.46 209.191 1288.16 209.717 1292.2 210.769C1296.3 211.765 1299.73 213.259 1302.5 215.251C1305.26 217.243 1307.34 219.706 1308.72 222.639C1310.16 225.516 1310.88 228.837 1310.88 232.6C1310.88 236.861 1309.94 240.679 1308.06 244.055C1306.23 247.375 1303.63 250.197 1300.26 252.521C1296.88 254.846 1292.87 256.617 1288.22 257.834C1283.57 259.051 1278.45 259.66 1272.86 259.66C1266.83 259.66 1260.97 258.664 1255.27 256.672C1249.62 254.68 1244.94 251.608 1241.24 247.458C1237.58 243.308 1235.76 237.967 1235.76 231.438H1257.76C1257.76 233.54 1258.39 235.505 1259.67 237.331C1260.94 239.157 1262.76 240.624 1265.14 241.73C1267.58 242.782 1270.51 243.308 1273.94 243.308C1277.43 243.308 1280.28 242.754 1282.49 241.647C1284.71 240.541 1286.31 239.074 1287.31 237.248C1288.36 235.367 1288.88 233.402 1288.88 231.354C1288.88 228.532 1288.33 226.263 1287.22 224.548C1286.17 222.777 1284.51 221.477 1282.24 220.646C1280.03 219.816 1277.26 219.401 1273.94 219.401H1260.58V209.191ZM1388.08 205.041V222.224H1342.01V205.041H1388.08ZM1348.9 168.186V258H1326.9V168.186H1348.9ZM1403.43 168.186V258H1381.35V168.186H1403.43ZM1445.52 226.706L1478.22 168.186H1500.22V258H1478.22V199.396L1445.52 258H1423.52V168.186H1445.52V226.706ZM1543.55 168.186V258H1521.64V168.186H1543.55ZM1602.07 168.186L1562.48 223.303H1539.15L1536.41 203.215H1552.6L1574.43 168.186H1602.07ZM1575.76 258L1551.19 219.484L1569.45 208.029L1604.89 258H1575.76ZM1675.29 168.186V185.534H1631.29V168.186H1675.29ZM1691.8 168.186V258H1669.89V168.186H1691.8ZM1625.81 168.186H1647.48L1645.07 213.01C1644.68 219.595 1643.99 225.378 1643 230.358C1642 235.284 1640.67 239.517 1639.01 243.059C1637.35 246.545 1635.33 249.395 1632.95 251.608C1630.57 253.822 1627.8 255.454 1624.65 256.506C1621.55 257.502 1618.07 258 1614.19 258H1607.47L1607.22 240.319L1610.37 240.07C1612.31 239.904 1613.97 239.379 1615.35 238.493C1616.79 237.608 1618.01 236.335 1619.01 234.675C1620.06 233.015 1620.92 230.884 1621.58 228.283C1622.3 225.627 1622.85 222.528 1623.24 218.986C1623.68 215.389 1623.99 211.239 1624.15 206.535L1625.81 168.186ZM1761.36 238.908V197.487C1761.36 194.444 1760.84 191.815 1759.79 189.602C1758.74 187.388 1757.13 185.673 1754.97 184.455C1752.81 183.238 1750.08 182.629 1746.75 182.629C1743.82 182.629 1741.25 183.127 1739.04 184.123C1736.88 185.119 1735.22 186.53 1734.05 188.356C1732.89 190.127 1732.31 192.175 1732.31 194.499H1710.31C1710.31 190.791 1711.2 187.277 1712.97 183.957C1714.74 180.581 1717.26 177.593 1720.52 174.992C1723.84 172.336 1727.8 170.261 1732.39 168.767C1737.04 167.272 1742.24 166.525 1748 166.525C1754.81 166.525 1760.87 167.688 1766.18 170.012C1771.55 172.281 1775.75 175.712 1778.8 180.305C1781.89 184.898 1783.44 190.681 1783.44 197.653V236.833C1783.44 241.315 1783.72 245.161 1784.27 248.371C1784.88 251.525 1785.77 254.265 1786.93 256.589V258H1764.6C1763.55 255.731 1762.75 252.854 1762.19 249.367C1761.64 245.826 1761.36 242.339 1761.36 238.908ZM1764.44 203.298L1764.6 216.33H1750.74C1747.31 216.33 1744.29 216.69 1741.69 217.409C1739.09 218.073 1736.96 219.069 1735.3 220.397C1733.64 221.67 1732.39 223.22 1731.56 225.046C1730.73 226.817 1730.32 228.837 1730.32 231.105C1730.32 233.319 1730.82 235.311 1731.81 237.082C1732.86 238.853 1734.36 240.264 1736.3 241.315C1738.29 242.312 1740.61 242.81 1743.27 242.81C1747.14 242.81 1750.52 242.035 1753.4 240.485C1756.27 238.881 1758.51 236.944 1760.12 234.675C1761.72 232.406 1762.58 230.248 1762.69 228.2L1769 237.663C1768.23 239.932 1767.06 242.339 1765.51 244.885C1763.97 247.43 1761.97 249.81 1759.54 252.023C1757.1 254.237 1754.17 256.063 1750.74 257.502C1747.31 258.941 1743.32 259.66 1738.79 259.66C1732.98 259.66 1727.77 258.498 1723.18 256.174C1718.59 253.85 1714.96 250.668 1712.31 246.628C1709.65 242.588 1708.32 237.995 1708.32 232.849C1708.32 228.09 1709.21 223.884 1710.98 220.231C1712.75 216.579 1715.38 213.508 1718.86 211.018C1722.35 208.472 1726.67 206.563 1731.81 205.29C1737.02 203.962 1742.96 203.298 1749.66 203.298H1764.44ZM1906.88 205.041V222.224H1860.81V205.041H1906.88ZM1867.7 168.186V258H1845.7V168.186H1867.7ZM1922.23 168.186V258H1900.15V168.186H1922.23ZM1982.5 259.66C1975.69 259.66 1969.58 258.553 1964.15 256.34C1958.73 254.126 1954.11 251.055 1950.29 247.126C1946.53 243.142 1943.62 238.521 1941.57 233.264C1939.58 227.951 1938.59 222.251 1938.59 216.164V212.844C1938.59 205.926 1939.58 199.646 1941.57 194.001C1943.57 188.301 1946.39 183.404 1950.04 179.309C1953.69 175.214 1958.07 172.059 1963.16 169.846C1968.25 167.632 1973.86 166.525 1980.01 166.525C1986.37 166.525 1991.99 167.604 1996.86 169.763C2001.73 171.866 2005.79 174.854 2009.06 178.728C2012.32 182.601 2014.79 187.25 2016.45 192.673C2018.11 198.041 2018.94 203.99 2018.94 210.52V219.733H1948.55V204.626H1997.36V202.966C1997.24 199.479 1996.58 196.298 1995.36 193.42C1994.15 190.487 1992.26 188.163 1989.72 186.447C1987.17 184.676 1983.88 183.791 1979.84 183.791C1976.58 183.791 1973.73 184.51 1971.29 185.949C1968.91 187.333 1966.92 189.325 1965.31 191.926C1963.76 194.471 1962.6 197.515 1961.83 201.057C1961.05 204.598 1960.67 208.527 1960.67 212.844V216.164C1960.67 219.927 1961.16 223.413 1962.16 226.623C1963.21 229.833 1964.73 232.627 1966.73 235.007C1968.77 237.331 1971.21 239.157 1974.03 240.485C1976.91 241.758 1980.17 242.395 1983.83 242.395C1988.42 242.395 1992.57 241.509 1996.28 239.738C2000.04 237.912 2003.3 235.228 2006.07 231.687L2017.11 243.142C2015.23 245.909 2012.68 248.565 2009.47 251.11C2006.32 253.656 2002.5 255.731 1998.02 257.336C1993.54 258.885 1988.36 259.66 1982.5 259.66ZM2093.89 168.186V185.534H2049.98V168.186H2093.89ZM2055.79 168.186V258H2033.8V168.186H2055.79ZM2110.5 168.186V258H2088.42V168.186H2110.5ZM2152.33 185.451V292.531H2130.33V168.186H2150.67L2152.33 185.451ZM2210.02 212.18V213.923C2210.02 220.453 2209.25 226.512 2207.7 232.102C2206.2 237.635 2203.99 242.478 2201.06 246.628C2198.12 250.723 2194.47 253.933 2190.1 256.257C2185.78 258.526 2180.8 259.66 2175.16 259.66C2169.62 259.66 2164.81 258.609 2160.71 256.506C2156.62 254.348 2153.16 251.304 2150.34 247.375C2147.52 243.446 2145.25 238.881 2143.53 233.679C2141.87 228.422 2140.63 222.694 2139.8 216.496V210.935C2140.63 204.349 2141.87 198.373 2143.53 193.005C2145.25 187.582 2147.52 182.906 2150.34 178.977C2153.16 174.992 2156.59 171.921 2160.63 169.763C2164.73 167.604 2169.51 166.525 2174.99 166.525C2180.69 166.525 2185.7 167.604 2190.02 169.763C2194.39 171.921 2198.07 175.02 2201.06 179.06C2204.04 183.099 2206.29 187.914 2207.78 193.503C2209.27 199.092 2210.02 205.318 2210.02 212.18ZM2188.02 213.923V212.18C2188.02 208.195 2187.66 204.515 2186.95 201.14C2186.23 197.709 2185.12 194.72 2183.62 192.175C2182.13 189.574 2180.19 187.554 2177.81 186.115C2175.43 184.676 2172.56 183.957 2169.18 183.957C2165.81 183.957 2162.9 184.51 2160.47 185.617C2158.03 186.724 2156.04 188.301 2154.49 190.349C2152.94 192.396 2151.72 194.831 2150.84 197.653C2150.01 200.42 2149.45 203.492 2149.18 206.867V220.646C2149.67 224.742 2150.64 228.422 2152.08 231.687C2153.52 234.951 2155.62 237.552 2158.39 239.489C2161.21 241.426 2164.87 242.395 2169.35 242.395C2172.72 242.395 2175.6 241.647 2177.98 240.153C2180.36 238.659 2182.3 236.612 2183.79 234.011C2185.29 231.354 2186.36 228.311 2187.03 224.88C2187.69 221.449 2188.02 217.797 2188.02 213.923ZM2266.38 259.66C2259.58 259.66 2253.46 258.553 2248.04 256.34C2242.62 254.126 2238 251.055 2234.18 247.126C2230.41 243.142 2227.51 238.521 2225.46 233.264C2223.47 227.951 2222.47 222.251 2222.47 216.164V212.844C2222.47 205.926 2223.47 199.646 2225.46 194.001C2227.45 188.301 2230.28 183.404 2233.93 179.309C2237.58 175.214 2241.95 172.059 2247.04 169.846C2252.13 167.632 2257.75 166.525 2263.89 166.525C2270.26 166.525 2275.87 167.604 2280.74 169.763C2285.61 171.866 2289.68 174.854 2292.95 178.728C2296.21 182.601 2298.67 187.25 2300.33 192.673C2301.99 198.041 2302.82 203.99 2302.82 210.52V219.733H2232.43V204.626H2281.24V202.966C2281.13 199.479 2280.47 196.298 2279.25 193.42C2278.03 190.487 2276.15 188.163 2273.61 186.447C2271.06 184.676 2267.77 183.791 2263.73 183.791C2260.46 183.791 2257.61 184.51 2255.18 185.949C2252.8 187.333 2250.81 189.325 2249.2 191.926C2247.65 194.471 2246.49 197.515 2245.71 201.057C2244.94 204.598 2244.55 208.527 2244.55 212.844V216.164C2244.55 219.927 2245.05 223.413 2246.05 226.623C2247.1 229.833 2248.62 232.627 2250.61 235.007C2252.66 237.331 2255.09 239.157 2257.92 240.485C2260.79 241.758 2264.06 242.395 2267.71 242.395C2272.31 242.395 2276.46 241.509 2280.16 239.738C2283.93 237.912 2287.19 235.228 2289.96 231.687L2301 243.142C2299.12 245.909 2296.57 248.565 2293.36 251.11C2290.21 253.656 2286.39 255.731 2281.91 257.336C2277.42 258.885 2272.25 259.66 2266.38 259.66ZM2333.7 168.186H2355.62L2354.79 199.064C2354.51 208.417 2353.4 216.496 2351.47 223.303C2349.59 230.054 2347.07 235.726 2343.91 240.319C2340.81 244.912 2337.27 248.62 2333.29 251.442C2329.36 254.265 2325.24 256.451 2320.92 258H2315.69L2315.61 240.9L2318.18 240.734C2320.78 237.967 2322.97 235.256 2324.74 232.6C2326.56 229.888 2328.03 226.983 2329.14 223.884C2330.24 220.785 2331.07 217.243 2331.63 213.259C2332.24 209.219 2332.62 204.488 2332.79 199.064L2333.7 168.186ZM2339.6 168.186H2397.79V258H2375.87V186.198H2339.6V168.186ZM2310.71 240.734H2410.32V284.895H2388.41V258H2333.04V284.895H2310.63L2310.71 240.734ZM2467.93 219.982H2439.46L2439.29 205.124H2462.7C2466.18 205.124 2469.03 204.764 2471.25 204.045C2473.46 203.326 2475.09 202.246 2476.14 200.808C2477.25 199.369 2477.8 197.626 2477.8 195.578C2477.8 193.807 2477.47 192.285 2476.81 191.013C2476.14 189.685 2475.15 188.605 2473.82 187.775C2472.55 186.945 2470.92 186.337 2468.92 185.949C2466.99 185.507 2464.72 185.285 2462.12 185.285H2447.26V258H2425.26V168.186H2462.12C2467.93 168.186 2473.16 168.711 2477.8 169.763C2482.45 170.759 2486.41 172.281 2489.67 174.328C2492.94 176.376 2495.43 178.977 2497.15 182.131C2498.92 185.23 2499.8 188.882 2499.8 193.088C2499.8 195.855 2499.19 198.456 2497.98 200.891C2496.76 203.326 2494.96 205.484 2492.58 207.365C2490.2 209.247 2487.27 210.796 2483.78 212.014C2480.29 213.176 2476.31 213.895 2471.83 214.172L2467.93 219.982ZM2467.93 258H2433.56L2441.7 240.9H2467.93C2471.14 240.9 2473.79 240.513 2475.9 239.738C2478 238.908 2479.55 237.718 2480.54 236.169C2481.6 234.619 2482.12 232.738 2482.12 230.524C2482.12 228.366 2481.62 226.512 2480.63 224.963C2479.69 223.358 2478.16 222.141 2476.06 221.311C2474.01 220.425 2471.3 219.982 2467.93 219.982H2445.27L2445.43 205.124H2471.75L2477.56 211.018C2483.53 211.405 2488.49 212.622 2492.41 214.67C2496.34 216.662 2499.28 219.208 2501.21 222.307C2503.15 225.35 2504.12 228.698 2504.12 232.351C2504.12 236.612 2503.32 240.347 2501.71 243.557C2500.11 246.766 2497.75 249.45 2494.66 251.608C2491.56 253.711 2487.77 255.316 2483.28 256.423C2478.8 257.474 2473.68 258 2467.93 258ZM2542.22 226.706L2574.92 168.186H2596.92V258H2574.92V199.396L2542.22 258H2520.22V168.186H2542.22V226.706ZM2633.03 168.186H2654.94L2654.11 199.064C2653.84 208.417 2652.73 216.496 2650.79 223.303C2648.91 230.054 2646.39 235.726 2643.24 240.319C2640.14 244.912 2636.6 248.62 2632.61 251.442C2628.69 254.265 2624.56 256.451 2620.25 258H2615.02L2614.93 240.9L2617.51 240.734C2620.11 237.967 2622.29 235.256 2624.06 232.6C2625.89 229.888 2627.36 226.983 2628.46 223.884C2629.57 220.785 2630.4 217.243 2630.95 213.259C2631.56 209.219 2631.95 204.488 2632.12 199.064L2633.03 168.186ZM2638.92 168.186H2697.11V258H2675.2V186.198H2638.92V168.186ZM2610.04 240.734H2709.65V284.895H2687.73V258H2632.37V284.895H2609.95L2610.04 240.734ZM2763.43 259.66C2756.63 259.66 2750.51 258.553 2745.09 256.34C2739.67 254.126 2735.05 251.055 2731.23 247.126C2727.46 243.142 2724.56 238.521 2722.51 233.264C2720.52 227.951 2719.52 222.251 2719.52 216.164V212.844C2719.52 205.926 2720.52 199.646 2722.51 194.001C2724.5 188.301 2727.33 183.404 2730.98 179.309C2734.63 175.214 2739 172.059 2744.09 169.846C2749.18 167.632 2754.8 166.525 2760.94 166.525C2767.31 166.525 2772.93 167.604 2777.79 169.763C2782.66 171.866 2786.73 174.854 2790 178.728C2793.26 182.601 2795.72 187.25 2797.38 192.673C2799.04 198.041 2799.88 203.99 2799.88 210.52V219.733H2729.48V204.626H2778.29V202.966C2778.18 199.479 2777.52 196.298 2776.3 193.42C2775.08 190.487 2773.2 188.163 2770.66 186.447C2768.11 184.676 2764.82 183.791 2760.78 183.791C2757.51 183.791 2754.66 184.51 2752.23 185.949C2749.85 187.333 2747.86 189.325 2746.25 191.926C2744.7 194.471 2743.54 197.515 2742.77 201.057C2741.99 204.598 2741.6 208.527 2741.6 212.844V216.164C2741.6 219.927 2742.1 223.413 2743.1 226.623C2744.15 229.833 2745.67 232.627 2747.66 235.007C2749.71 237.331 2752.15 239.157 2754.97 240.485C2757.85 241.758 2761.11 242.395 2764.76 242.395C2769.36 242.395 2773.51 241.509 2777.21 239.738C2780.98 237.912 2784.24 235.228 2787.01 231.687L2798.05 243.142C2796.17 245.909 2793.62 248.565 2790.41 251.11C2787.26 253.656 2783.44 255.731 2778.96 257.336C2774.47 258.885 2769.3 259.66 2763.43 259.66ZM2875.91 205.041V222.224H2829.84V205.041H2875.91ZM2836.73 168.186V258H2814.73V168.186H2836.73ZM2891.27 168.186V258H2869.19V168.186H2891.27ZM2972.53 205.041V222.224H2926.46V205.041H2972.53ZM2933.35 168.186V258H2911.35V168.186H2933.35ZM2987.89 168.186V258H2965.81V168.186H2987.89ZM3057.28 238.908V197.487C3057.28 194.444 3056.76 191.815 3055.71 189.602C3054.65 187.388 3053.05 185.673 3050.89 184.455C3048.73 183.238 3045.99 182.629 3042.67 182.629C3039.74 182.629 3037.17 183.127 3034.95 184.123C3032.79 185.119 3031.13 186.53 3029.97 188.356C3028.81 190.127 3028.23 192.175 3028.23 194.499H3006.23C3006.23 190.791 3007.12 187.277 3008.89 183.957C3010.66 180.581 3013.18 177.593 3016.44 174.992C3019.76 172.336 3023.72 170.261 3028.31 168.767C3032.96 167.272 3038.16 166.525 3043.92 166.525C3050.72 166.525 3056.78 167.688 3062.1 170.012C3067.46 172.281 3071.67 175.712 3074.71 180.305C3077.81 184.898 3079.36 190.681 3079.36 197.653V236.833C3079.36 241.315 3079.64 245.161 3080.19 248.371C3080.8 251.525 3081.69 254.265 3082.85 256.589V258H3060.52C3059.47 255.731 3058.67 252.854 3058.11 249.367C3057.56 245.826 3057.28 242.339 3057.28 238.908ZM3060.35 203.298L3060.52 216.33H3046.66C3043.23 216.33 3040.21 216.69 3037.61 217.409C3035.01 218.073 3032.88 219.069 3031.22 220.397C3029.56 221.67 3028.31 223.22 3027.48 225.046C3026.65 226.817 3026.24 228.837 3026.24 231.105C3026.24 233.319 3026.74 235.311 3027.73 237.082C3028.78 238.853 3030.28 240.264 3032.21 241.315C3034.21 242.312 3036.53 242.81 3039.19 242.81C3043.06 242.81 3046.44 242.035 3049.31 240.485C3052.19 238.881 3054.43 236.944 3056.04 234.675C3057.64 232.406 3058.5 230.248 3058.61 228.2L3064.92 237.663C3064.14 239.932 3062.98 242.339 3061.43 244.885C3059.88 247.43 3057.89 249.81 3055.46 252.023C3053.02 254.237 3050.09 256.063 3046.66 257.502C3043.23 258.941 3039.24 259.66 3034.7 259.66C3028.89 259.66 3023.69 258.498 3019.1 256.174C3014.51 253.85 3010.88 250.668 3008.22 246.628C3005.57 242.588 3004.24 237.995 3004.24 232.849C3004.24 228.09 3005.13 223.884 3006.9 220.231C3008.67 216.579 3011.3 213.508 3014.78 211.018C3018.27 208.472 3022.58 206.563 3027.73 205.29C3032.93 203.962 3038.88 203.298 3045.58 203.298H3060.35ZM3118.21 213.674H3140.71L3115.47 258H3092.98L3118.21 213.674ZM3133.48 168.186H3172.5V258H3150.58V185.285H3133.48C3130 185.285 3127.09 185.922 3124.77 187.194C3122.5 188.467 3120.81 190.1 3119.7 192.092C3118.6 194.029 3118.04 196.021 3118.04 198.068C3118.04 200.061 3118.57 201.997 3119.62 203.879C3120.67 205.76 3122.28 207.31 3124.44 208.527C3126.65 209.745 3129.42 210.354 3132.74 210.354H3158.39V225.793H3132.74C3127.04 225.793 3121.92 225.101 3117.38 223.718C3112.9 222.279 3109.05 220.287 3105.84 217.741C3102.69 215.196 3100.28 212.207 3098.62 208.776C3096.96 205.29 3096.13 201.499 3096.13 197.404C3096.13 193.199 3096.96 189.325 3098.62 185.783C3100.34 182.242 3102.8 179.143 3106.01 176.486C3109.27 173.83 3113.2 171.783 3117.79 170.344C3122.44 168.905 3127.67 168.186 3133.48 168.186ZM3232.35 214.006V212.263C3232.35 205.677 3233.29 199.618 3235.17 194.084C3237.05 188.495 3239.79 183.653 3243.39 179.558C3246.98 175.463 3251.38 172.281 3256.58 170.012C3261.79 167.688 3267.71 166.525 3274.35 166.525C3281.1 166.525 3287.08 167.688 3292.28 170.012C3297.53 172.281 3301.96 175.463 3305.56 179.558C3309.16 183.653 3311.89 188.495 3313.78 194.084C3315.66 199.618 3316.6 205.677 3316.6 212.263V214.006C3316.6 220.536 3315.66 226.595 3313.78 232.185C3311.89 237.718 3309.16 242.561 3305.56 246.711C3301.96 250.806 3297.56 253.988 3292.36 256.257C3287.16 258.526 3281.21 259.66 3274.51 259.66C3267.87 259.66 3261.92 258.526 3256.67 256.257C3251.41 253.988 3246.98 250.806 3243.39 246.711C3239.79 242.561 3237.05 237.718 3235.17 232.185C3233.29 226.595 3232.35 220.536 3232.35 214.006ZM3254.26 212.263V214.006C3254.26 217.935 3254.65 221.615 3255.42 225.046C3256.2 228.477 3257.39 231.493 3258.99 234.094C3260.6 236.695 3262.67 238.742 3265.22 240.236C3267.82 241.675 3270.92 242.395 3274.51 242.395C3278.06 242.395 3281.1 241.675 3283.64 240.236C3286.19 238.742 3288.27 236.695 3289.87 234.094C3291.53 231.493 3292.75 228.477 3293.52 225.046C3294.3 221.615 3294.68 217.935 3294.68 214.006V212.263C3294.68 208.389 3294.3 204.764 3293.52 201.389C3292.75 197.958 3291.53 194.942 3289.87 192.341C3288.27 189.685 3286.16 187.609 3283.56 186.115C3281.02 184.566 3277.94 183.791 3274.35 183.791C3270.81 183.791 3267.76 184.566 3265.22 186.115C3262.67 187.609 3260.6 189.685 3258.99 192.341C3257.39 194.942 3256.2 197.958 3255.42 201.389C3254.65 204.764 3254.26 208.389 3254.26 212.263ZM3332.7 168.186H3354.7V240.734H3381.34V168.186H3403.42V240.734H3430.07V168.186H3451.98V258H3332.7V168.186ZM3494.65 226.706L3527.36 168.186H3549.35V258H3527.36V199.396L3494.65 258H3472.65V168.186H3494.65V226.706ZM3624.89 128.757H3642.65C3642.65 133.461 3642.04 137.417 3640.83 140.627C3639.61 143.781 3637.73 146.438 3635.18 148.596C3632.64 150.699 3629.37 152.442 3625.39 153.825C3621.4 155.209 3616.64 156.426 3611.11 157.478C3606.46 158.418 3602.37 159.968 3598.83 162.126C3595.28 164.284 3592.32 167.245 3589.94 171.008C3587.62 174.771 3585.93 179.558 3584.88 185.368C3583.83 191.179 3583.5 198.179 3583.88 206.369V211.184L3566.7 213.176V208.361C3566.7 197.681 3567.67 188.384 3569.61 180.471C3571.54 172.502 3574.28 165.806 3577.82 160.383C3581.37 154.904 3585.6 150.56 3590.52 147.351C3595.5 144.086 3601.07 141.789 3607.21 140.461C3611.3 139.631 3614.65 138.773 3617.25 137.888C3619.91 137.002 3621.85 135.868 3623.06 134.484C3624.28 133.046 3624.89 131.136 3624.89 128.757ZM3612.6 173.249C3618.64 173.249 3623.98 174.3 3628.62 176.403C3633.33 178.451 3637.29 181.356 3640.5 185.119C3643.7 188.827 3646.14 193.226 3647.8 198.317C3649.52 203.353 3650.37 208.859 3650.37 214.836V216.579C3650.37 222.777 3649.43 228.505 3647.55 233.762C3645.72 239.019 3643.04 243.584 3639.5 247.458C3635.96 251.332 3631.59 254.348 3626.38 256.506C3621.18 258.664 3615.23 259.743 3608.54 259.743C3601.9 259.743 3595.98 258.609 3590.77 256.34C3585.57 254.016 3581.17 250.806 3577.58 246.711C3573.98 242.616 3571.27 237.801 3569.44 232.268C3567.61 226.678 3566.7 220.591 3566.7 214.006V212.263C3566.65 211.156 3567.01 210.104 3567.78 209.108C3568.56 208.112 3569.47 207.006 3570.52 205.788C3571.63 204.571 3572.62 203.104 3573.51 201.389C3576.55 195.523 3579.98 190.487 3583.8 186.281C3587.67 182.076 3591.99 178.866 3596.75 176.652C3601.51 174.383 3606.79 173.249 3612.6 173.249ZM3608.37 190.515C3603.67 190.515 3599.85 191.649 3596.92 193.918C3594.04 196.132 3591.94 199.092 3590.61 202.8C3589.28 206.452 3588.62 210.464 3588.62 214.836V216.579C3588.62 220.121 3588.97 223.469 3589.69 226.623C3590.47 229.722 3591.63 232.461 3593.18 234.841C3594.73 237.22 3596.78 239.102 3599.32 240.485C3601.87 241.813 3604.94 242.478 3608.54 242.478C3612.13 242.478 3615.18 241.813 3617.67 240.485C3620.21 239.102 3622.26 237.22 3623.81 234.841C3625.36 232.461 3626.49 229.722 3627.21 226.623C3627.99 223.469 3628.38 220.121 3628.38 216.579V214.836C3628.38 211.571 3627.99 208.472 3627.21 205.539C3626.49 202.606 3625.36 200.033 3623.81 197.819C3622.26 195.55 3620.19 193.78 3617.58 192.507C3615.04 191.179 3611.97 190.515 3608.37 190.515ZM3687.48 168.186V258H3665.56V168.186H3687.48ZM3746 168.186L3706.4 223.303H3683.08L3680.34 203.215H3696.53L3718.36 168.186H3746ZM3719.68 258L3695.11 219.484L3713.38 208.029L3748.82 258H3719.68ZM3808.34 238.908V197.487C3808.34 194.444 3807.81 191.815 3806.76 189.602C3805.71 187.388 3804.1 185.673 3801.95 184.455C3799.79 183.238 3797.05 182.629 3793.73 182.629C3790.79 182.629 3788.22 183.127 3786.01 184.123C3783.85 185.119 3782.19 186.53 3781.03 188.356C3779.87 190.127 3779.28 192.175 3779.28 194.499H3757.29C3757.29 190.791 3758.17 187.277 3759.94 183.957C3761.71 180.581 3764.23 177.593 3767.5 174.992C3770.82 172.336 3774.77 170.261 3779.37 168.767C3784.02 167.272 3789.22 166.525 3794.97 166.525C3801.78 166.525 3807.84 167.688 3813.15 170.012C3818.52 172.281 3822.72 175.712 3825.77 180.305C3828.87 184.898 3830.42 190.681 3830.42 197.653V236.833C3830.42 241.315 3830.69 245.161 3831.25 248.371C3831.86 251.525 3832.74 254.265 3833.9 256.589V258H3811.57C3810.52 255.731 3809.72 252.854 3809.17 249.367C3808.61 245.826 3808.34 242.339 3808.34 238.908ZM3811.41 203.298L3811.57 216.33H3797.71C3794.28 216.33 3791.26 216.69 3788.66 217.409C3786.06 218.073 3783.93 219.069 3782.27 220.397C3780.61 221.67 3779.37 223.22 3778.54 225.046C3777.71 226.817 3777.29 228.837 3777.29 231.105C3777.29 233.319 3777.79 235.311 3778.79 237.082C3779.84 238.853 3781.33 240.264 3783.27 241.315C3785.26 242.312 3787.58 242.81 3790.24 242.81C3794.11 242.81 3797.49 242.035 3800.37 240.485C3803.25 238.881 3805.49 236.944 3807.09 234.675C3808.7 232.406 3809.55 230.248 3809.67 228.2L3815.97 237.663C3815.2 239.932 3814.04 242.339 3812.49 244.885C3810.94 247.43 3808.95 249.81 3806.51 252.023C3804.08 254.237 3801.14 256.063 3797.71 257.502C3794.28 258.941 3790.3 259.66 3785.76 259.66C3779.95 259.66 3774.75 258.498 3770.15 256.174C3765.56 253.85 3761.94 250.668 3759.28 246.628C3756.62 242.588 3755.29 237.995 3755.29 232.849C3755.29 228.09 3756.18 223.884 3757.95 220.231C3759.72 216.579 3762.35 213.508 3765.84 211.018C3769.32 208.472 3773.64 206.563 3778.79 205.29C3783.99 203.962 3789.94 203.298 3796.63 203.298H3811.41ZM1134.07 336.141V457H1111.25V354.153H1060.11V457H1037.29V336.141H1134.07ZM1152 413.006V411.263C1152 404.677 1152.94 398.618 1154.83 393.084C1156.71 387.495 1159.45 382.653 1163.04 378.558C1166.64 374.463 1171.04 371.281 1176.24 369.012C1181.44 366.688 1187.37 365.525 1194.01 365.525C1200.76 365.525 1206.73 366.688 1211.94 369.012C1217.19 371.281 1221.62 374.463 1225.22 378.558C1228.81 382.653 1231.55 387.495 1233.43 393.084C1235.32 398.618 1236.26 404.677 1236.26 411.263V413.006C1236.26 419.536 1235.32 425.595 1233.43 431.185C1231.55 436.718 1228.81 441.561 1225.22 445.711C1221.62 449.806 1217.22 452.988 1212.02 455.257C1206.82 457.526 1200.87 458.66 1194.17 458.66C1187.53 458.66 1181.58 457.526 1176.33 455.257C1171.07 452.988 1166.64 449.806 1163.04 445.711C1159.45 441.561 1156.71 436.718 1154.83 431.185C1152.94 425.595 1152 419.536 1152 413.006ZM1173.92 411.263V413.006C1173.92 416.935 1174.31 420.615 1175.08 424.046C1175.85 427.477 1177.04 430.493 1178.65 433.094C1180.25 435.695 1182.33 437.742 1184.88 439.236C1187.48 440.675 1190.57 441.395 1194.17 441.395C1197.71 441.395 1200.76 440.675 1203.3 439.236C1205.85 437.742 1207.92 435.695 1209.53 433.094C1211.19 430.493 1212.41 427.477 1213.18 424.046C1213.96 420.615 1214.34 416.935 1214.34 413.006V411.263C1214.34 407.389 1213.96 403.764 1213.18 400.389C1212.41 396.958 1211.19 393.942 1209.53 391.341C1207.92 388.685 1205.82 386.609 1203.22 385.115C1200.67 383.566 1197.6 382.791 1194.01 382.791C1190.46 382.791 1187.42 383.566 1184.88 385.115C1182.33 386.609 1180.25 388.685 1178.65 391.341C1177.04 393.942 1175.85 396.958 1175.08 400.389C1174.31 403.764 1173.92 407.389 1173.92 411.263ZM1281 421.971L1244.47 367.186H1271.54L1291.54 401.8H1308.89L1306.15 421.971H1281ZM1291.96 418.484L1270.21 457H1243.56L1274.69 407.029L1291.96 418.484ZM1322.67 367.186V457H1300.75V367.186H1322.67ZM1379.2 367.186L1342.59 421.971H1317.44L1314.7 401.8H1332.05L1352.05 367.186H1379.2ZM1353.38 457L1331.63 418.484L1349.48 407.029L1380.52 457H1353.38ZM1442.12 437.908V396.487C1442.12 393.444 1441.59 390.815 1440.54 388.602C1439.49 386.388 1437.88 384.673 1435.72 383.455C1433.57 382.238 1430.83 381.629 1427.51 381.629C1424.57 381.629 1422 382.127 1419.79 383.123C1417.63 384.119 1415.97 385.53 1414.81 387.356C1413.64 389.127 1413.06 391.175 1413.06 393.499H1391.07C1391.07 389.791 1391.95 386.277 1393.72 382.957C1395.49 379.581 1398.01 376.593 1401.28 373.992C1404.6 371.336 1408.55 369.261 1413.15 367.767C1417.79 366.272 1423 365.525 1428.75 365.525C1435.56 365.525 1441.62 366.688 1446.93 369.012C1452.3 371.281 1456.5 374.712 1459.55 379.305C1462.65 383.898 1464.2 389.681 1464.2 396.653V435.833C1464.2 440.315 1464.47 444.161 1465.03 447.371C1465.64 450.525 1466.52 453.265 1467.68 455.589V457H1445.35C1444.3 454.731 1443.5 451.854 1442.95 448.367C1442.39 444.826 1442.12 441.339 1442.12 437.908ZM1445.19 402.298L1445.35 415.33H1431.49C1428.06 415.33 1425.04 415.69 1422.44 416.409C1419.84 417.073 1417.71 418.069 1416.05 419.397C1414.39 420.67 1413.15 422.22 1412.32 424.046C1411.49 425.817 1411.07 427.837 1411.07 430.105C1411.07 432.319 1411.57 434.311 1412.57 436.082C1413.62 437.853 1415.11 439.264 1417.05 440.315C1419.04 441.312 1421.36 441.81 1424.02 441.81C1427.89 441.81 1431.27 441.035 1434.15 439.485C1437.03 437.881 1439.27 435.944 1440.87 433.675C1442.48 431.406 1443.33 429.248 1443.44 427.2L1449.75 436.663C1448.98 438.932 1447.82 441.339 1446.27 443.885C1444.72 446.43 1442.72 448.81 1440.29 451.023C1437.86 453.237 1434.92 455.063 1431.49 456.502C1428.06 457.941 1424.08 458.66 1419.54 458.66C1413.73 458.66 1408.53 457.498 1403.93 455.174C1399.34 452.85 1395.71 449.668 1393.06 445.628C1390.4 441.588 1389.07 436.995 1389.07 431.849C1389.07 427.09 1389.96 422.884 1391.73 419.231C1393.5 415.579 1396.13 412.508 1399.62 410.018C1403.1 407.472 1407.42 405.563 1412.57 404.29C1417.77 402.962 1423.72 402.298 1430.41 402.298H1445.19ZM1544.3 367.186V384.534H1500.3V367.186H1544.3ZM1560.82 367.186V457H1538.9V367.186H1560.82ZM1494.83 367.186H1516.49L1514.08 412.01C1513.7 418.595 1513 424.378 1512.01 429.358C1511.01 434.284 1509.68 438.517 1508.02 442.059C1506.36 445.545 1504.34 448.395 1501.96 450.608C1499.59 452.822 1496.82 454.454 1493.66 455.506C1490.57 456.502 1487.08 457 1483.21 457H1476.48L1476.23 439.319L1479.39 439.07C1481.32 438.904 1482.98 438.379 1484.37 437.493C1485.81 436.608 1487.02 435.335 1488.02 433.675C1489.07 432.015 1489.93 429.884 1490.59 427.283C1491.31 424.627 1491.87 421.528 1492.25 417.986C1492.7 414.389 1493 410.239 1493.17 405.535L1494.83 367.186ZM1607.22 447.039L1631.29 367.186H1654.78L1618.76 470.613C1617.93 472.827 1616.85 475.234 1615.52 477.835C1614.25 480.436 1612.53 482.898 1610.37 485.223C1608.21 487.602 1605.5 489.539 1602.24 491.033C1599.03 492.527 1595.13 493.274 1590.53 493.274C1588.54 493.274 1586.77 493.136 1585.22 492.859C1583.67 492.583 1582.04 492.223 1580.32 491.78V475.345C1580.88 475.4 1581.51 475.428 1582.23 475.428C1583.01 475.483 1583.67 475.511 1584.23 475.511C1587.44 475.511 1590.09 475.123 1592.19 474.349C1594.3 473.629 1595.99 472.439 1597.26 470.779C1598.59 469.174 1599.69 467.072 1600.58 464.471L1607.22 447.039ZM1595.35 367.186L1615.69 433.343L1619.25 456.502L1604.15 459.241L1571.69 367.186H1595.35ZM1687.57 425.706L1720.28 367.186H1742.27V457H1720.28V398.396L1687.57 457H1665.57V367.186H1687.57V425.706ZM1716.21 331.907H1732.15C1732.15 336.556 1731.01 340.678 1728.74 344.275C1726.47 347.872 1723.24 350.695 1719.03 352.742C1714.88 354.734 1709.95 355.73 1704.25 355.73C1695.68 355.73 1688.87 353.517 1683.83 349.09C1678.8 344.663 1676.28 338.935 1676.28 331.907H1692.22C1692.22 334.84 1693.13 337.469 1694.96 339.793C1696.78 342.117 1699.88 343.279 1704.25 343.279C1708.63 343.279 1711.7 342.117 1713.47 339.793C1715.29 337.469 1716.21 334.84 1716.21 331.907ZM1799.05 441.395C1802.15 441.395 1804.92 440.786 1807.35 439.568C1809.79 438.351 1811.72 436.635 1813.16 434.422C1814.66 432.208 1815.46 429.635 1815.57 426.702H1836.24C1836.13 432.789 1834.41 438.24 1831.09 443.055C1827.77 447.869 1823.34 451.688 1817.81 454.51C1812.33 457.277 1806.19 458.66 1799.38 458.66C1792.46 458.66 1786.43 457.498 1781.29 455.174C1776.14 452.85 1771.85 449.612 1768.42 445.462C1765.04 441.312 1762.5 436.497 1760.78 431.019C1759.12 425.54 1758.29 419.674 1758.29 413.421V410.765C1758.29 404.511 1759.12 398.646 1760.78 393.167C1762.5 387.688 1765.04 382.874 1768.42 378.724C1771.85 374.573 1776.14 371.336 1781.29 369.012C1786.43 366.688 1792.44 365.525 1799.3 365.525C1806.55 365.525 1812.91 366.937 1818.39 369.759C1823.92 372.581 1828.24 376.565 1831.34 381.712C1834.49 386.858 1836.13 392.918 1836.24 399.891H1815.57C1815.46 396.681 1814.74 393.803 1813.41 391.258C1812.08 388.712 1810.2 386.665 1807.77 385.115C1805.33 383.566 1802.37 382.791 1798.88 382.791C1795.18 382.791 1792.08 383.566 1789.59 385.115C1787.15 386.665 1785.24 388.795 1783.86 391.507C1782.53 394.163 1781.59 397.151 1781.04 400.472C1780.54 403.737 1780.29 407.168 1780.29 410.765V413.421C1780.29 417.073 1780.54 420.56 1781.04 423.88C1781.59 427.2 1782.53 430.188 1783.86 432.845C1785.24 435.446 1787.15 437.521 1789.59 439.07C1792.08 440.62 1795.23 441.395 1799.05 441.395ZM1894.43 367.186V457H1872.43V367.186H1894.43ZM1923.64 367.186V384.285H1843.71V367.186H1923.64ZM1984.66 437.908V396.487C1984.66 393.444 1984.13 390.815 1983.08 388.602C1982.03 386.388 1980.42 384.673 1978.26 383.455C1976.11 382.238 1973.37 381.629 1970.05 381.629C1967.11 381.629 1964.54 382.127 1962.33 383.123C1960.17 384.119 1958.51 385.53 1957.35 387.356C1956.18 389.127 1955.6 391.175 1955.6 393.499H1933.61C1933.61 389.791 1934.49 386.277 1936.26 382.957C1938.03 379.581 1940.55 376.593 1943.82 373.992C1947.14 371.336 1951.09 369.261 1955.69 367.767C1960.33 366.272 1965.54 365.525 1971.29 365.525C1978.1 365.525 1984.16 366.688 1989.47 369.012C1994.84 371.281 1999.04 374.712 2002.09 379.305C2005.19 383.898 2006.74 389.681 2006.74 396.653V435.833C2006.74 440.315 2007.01 444.161 2007.57 447.371C2008.17 450.525 2009.06 453.265 2010.22 455.589V457H1987.89C1986.84 454.731 1986.04 451.854 1985.49 448.367C1984.93 444.826 1984.66 441.339 1984.66 437.908ZM1987.73 402.298L1987.89 415.33H1974.03C1970.6 415.33 1967.58 415.69 1964.98 416.409C1962.38 417.073 1960.25 418.069 1958.59 419.397C1956.93 420.67 1955.69 422.22 1954.86 424.046C1954.03 425.817 1953.61 427.837 1953.61 430.105C1953.61 432.319 1954.11 434.311 1955.1 436.082C1956.16 437.853 1957.65 439.264 1959.59 440.315C1961.58 441.312 1963.9 441.81 1966.56 441.81C1970.43 441.81 1973.81 441.035 1976.69 439.485C1979.56 437.881 1981.81 435.944 1983.41 433.675C1985.01 431.406 1985.87 429.248 1985.98 427.2L1992.29 436.663C1991.52 438.932 1990.36 441.339 1988.81 443.885C1987.26 446.43 1985.26 448.81 1982.83 451.023C1980.39 453.237 1977.46 455.063 1974.03 456.502C1970.6 457.941 1966.61 458.66 1962.08 458.66C1956.27 458.66 1951.06 457.498 1946.47 455.174C1941.88 452.85 1938.25 449.668 1935.6 445.628C1932.94 441.588 1931.61 436.995 1931.61 431.849C1931.61 427.09 1932.5 422.884 1934.27 419.231C1936.04 415.579 1938.67 412.508 1942.16 410.018C1945.64 407.472 1949.96 405.563 1955.1 404.29C1960.31 402.962 1966.26 402.298 1972.95 402.298H1987.73ZM2047.16 437.244L2046.99 452.435C2046.99 458.356 2045.53 464.36 2042.59 470.447C2039.66 476.535 2035.87 481.57 2031.22 485.555L2019.6 479.163C2021.1 476.673 2022.48 474.155 2023.75 471.609C2025.08 469.064 2026.13 466.297 2026.91 463.309C2027.74 460.376 2028.15 457.083 2028.15 453.431V437.244H2047.16ZM2169.1 367.186V384.534H2125.19V367.186H2169.1ZM2131 367.186V457H2109V367.186H2131ZM2185.7 367.186V457H2163.62V367.186H2185.7ZM2245.96 458.66C2239.16 458.66 2233.04 457.553 2227.62 455.34C2222.2 453.126 2217.58 450.055 2213.76 446.126C2209.99 442.142 2207.09 437.521 2205.04 432.264C2203.05 426.951 2202.05 421.251 2202.05 415.164V411.844C2202.05 404.926 2203.05 398.646 2205.04 393.001C2207.03 387.301 2209.86 382.404 2213.51 378.309C2217.16 374.214 2221.53 371.059 2226.62 368.846C2231.71 366.632 2237.33 365.525 2243.47 365.525C2249.84 365.525 2255.45 366.604 2260.32 368.763C2265.19 370.866 2269.26 373.854 2272.53 377.728C2275.79 381.601 2278.25 386.25 2279.91 391.673C2281.57 397.041 2282.4 402.99 2282.4 409.52V418.733H2212.01V403.626H2260.82V401.966C2260.71 398.479 2260.05 395.298 2258.83 392.42C2257.61 389.487 2255.73 387.163 2253.19 385.447C2250.64 383.676 2247.35 382.791 2243.31 382.791C2240.04 382.791 2237.19 383.51 2234.76 384.949C2232.38 386.333 2230.39 388.325 2228.78 390.926C2227.23 393.471 2226.07 396.515 2225.29 400.057C2224.52 403.598 2224.13 407.527 2224.13 411.844V415.164C2224.13 418.927 2224.63 422.413 2225.63 425.623C2226.68 428.833 2228.2 431.627 2230.19 434.007C2232.24 436.331 2234.67 438.157 2237.5 439.485C2240.37 440.758 2243.64 441.395 2247.29 441.395C2251.89 441.395 2256.04 440.509 2259.74 438.738C2263.51 436.912 2266.77 434.228 2269.54 430.687L2280.58 442.142C2278.7 444.909 2276.15 447.565 2272.94 450.11C2269.79 452.656 2265.97 454.731 2261.49 456.336C2257 457.885 2251.83 458.66 2245.96 458.66ZM2319.01 384.451V491.531H2297.01V367.186H2317.35L2319.01 384.451ZM2376.7 411.18V412.923C2376.7 419.453 2375.93 425.512 2374.38 431.102C2372.88 436.635 2370.67 441.478 2367.74 445.628C2364.8 449.723 2361.15 452.933 2356.78 455.257C2352.46 457.526 2347.48 458.66 2341.84 458.66C2336.3 458.66 2331.49 457.609 2327.39 455.506C2323.3 453.348 2319.84 450.304 2317.02 446.375C2314.2 442.446 2311.93 437.881 2310.21 432.679C2308.55 427.422 2307.31 421.694 2306.48 415.496V409.935C2307.31 403.349 2308.55 397.373 2310.21 392.005C2311.93 386.582 2314.2 381.906 2317.02 377.977C2319.84 373.992 2323.27 370.921 2327.31 368.763C2331.41 366.604 2336.19 365.525 2341.67 365.525C2347.37 365.525 2352.38 366.604 2356.7 368.763C2361.07 370.921 2364.75 374.02 2367.74 378.06C2370.72 382.099 2372.97 386.914 2374.46 392.503C2375.95 398.092 2376.7 404.318 2376.7 411.18ZM2354.7 412.923V411.18C2354.7 407.195 2354.34 403.515 2353.62 400.14C2352.91 396.709 2351.8 393.72 2350.3 391.175C2348.81 388.574 2346.87 386.554 2344.49 385.115C2342.11 383.676 2339.24 382.957 2335.86 382.957C2332.49 382.957 2329.58 383.51 2327.15 384.617C2324.71 385.724 2322.72 387.301 2321.17 389.349C2319.62 391.396 2318.4 393.831 2317.52 396.653C2316.69 399.42 2316.13 402.492 2315.86 405.867V419.646C2316.35 423.742 2317.32 427.422 2318.76 430.687C2320.2 433.951 2322.3 436.552 2325.07 438.489C2327.89 440.426 2331.54 441.395 2336.03 441.395C2339.4 441.395 2342.28 440.647 2344.66 439.153C2347.04 437.659 2348.98 435.612 2350.47 433.011C2351.96 430.354 2353.04 427.311 2353.71 423.88C2354.37 420.449 2354.7 416.797 2354.7 412.923ZM2433.06 458.66C2426.26 458.66 2420.14 457.553 2414.72 455.34C2409.3 453.126 2404.67 450.055 2400.86 446.126C2397.09 442.142 2394.19 437.521 2392.14 432.264C2390.15 426.951 2389.15 421.251 2389.15 415.164V411.844C2389.15 404.926 2390.15 398.646 2392.14 393.001C2394.13 387.301 2396.96 382.404 2400.61 378.309C2404.26 374.214 2408.63 371.059 2413.72 368.846C2418.81 366.632 2424.43 365.525 2430.57 365.525C2436.94 365.525 2442.55 366.604 2447.42 368.763C2452.29 370.866 2456.36 373.854 2459.63 377.728C2462.89 381.601 2465.35 386.25 2467.01 391.673C2468.67 397.041 2469.5 402.99 2469.5 409.52V418.733H2399.11V403.626H2447.92V401.966C2447.81 398.479 2447.15 395.298 2445.93 392.42C2444.71 389.487 2442.83 387.163 2440.29 385.447C2437.74 383.676 2434.45 382.791 2430.41 382.791C2427.14 382.791 2424.29 383.51 2421.86 384.949C2419.48 386.333 2417.49 388.325 2415.88 390.926C2414.33 393.471 2413.17 396.515 2412.39 400.057C2411.62 403.598 2411.23 407.527 2411.23 411.844V415.164C2411.23 418.927 2411.73 422.413 2412.73 425.623C2413.78 428.833 2415.3 431.627 2417.29 434.007C2419.34 436.331 2421.77 438.157 2424.6 439.485C2427.47 440.758 2430.74 441.395 2434.39 441.395C2438.98 441.395 2443.14 440.509 2446.84 438.738C2450.61 436.912 2453.87 434.228 2456.64 430.687L2467.68 442.142C2465.8 444.909 2463.25 447.565 2460.04 450.11C2456.89 452.656 2453.07 454.731 2448.59 456.336C2444.1 457.885 2438.93 458.66 2433.06 458.66ZM2522.71 414.168H2505.2V403.709H2518.56C2521.83 403.709 2524.43 403.266 2526.36 402.381C2528.36 401.495 2529.77 400.25 2530.6 398.646C2531.48 397.041 2531.93 395.187 2531.93 393.084C2531.93 391.202 2531.51 389.432 2530.68 387.771C2529.85 386.056 2528.47 384.673 2526.53 383.621C2524.59 382.514 2521.91 381.961 2518.48 381.961C2515.66 381.961 2513.14 382.404 2510.92 383.289C2508.71 384.174 2506.97 385.42 2505.7 387.024C2504.42 388.629 2503.79 390.538 2503.79 392.752H2481.79C2481.79 387.107 2483.39 382.265 2486.6 378.226C2489.87 374.186 2494.21 371.087 2499.64 368.929C2505.06 366.715 2511.01 365.608 2517.48 365.608C2523.07 365.608 2528.11 366.189 2532.59 367.352C2537.07 368.458 2540.89 370.118 2544.04 372.332C2547.2 374.546 2549.63 377.285 2551.35 380.55C2553.07 383.759 2553.92 387.495 2553.92 391.756C2553.92 394.799 2553.2 397.677 2551.76 400.389C2550.33 403.1 2548.25 405.507 2545.54 407.61C2542.83 409.658 2539.53 411.263 2535.66 412.425C2531.84 413.587 2527.53 414.168 2522.71 414.168ZM2505.2 408.191H2522.71C2528.08 408.191 2532.78 408.717 2536.82 409.769C2540.92 410.765 2544.35 412.259 2547.12 414.251C2549.88 416.243 2551.96 418.706 2553.34 421.639C2554.78 424.516 2555.5 427.837 2555.5 431.6C2555.5 435.861 2554.56 439.679 2552.68 443.055C2550.85 446.375 2548.25 449.197 2544.88 451.521C2541.5 453.846 2537.49 455.617 2532.84 456.834C2528.19 458.051 2523.07 458.66 2517.48 458.66C2511.45 458.66 2505.58 457.664 2499.88 455.672C2494.24 453.68 2489.56 450.608 2485.86 446.458C2482.2 442.308 2480.38 436.967 2480.38 430.438H2502.38C2502.38 432.54 2503.01 434.505 2504.28 436.331C2505.56 438.157 2507.38 439.624 2509.76 440.73C2512.2 441.782 2515.13 442.308 2518.56 442.308C2522.05 442.308 2524.9 441.754 2527.11 440.647C2529.32 439.541 2530.93 438.074 2531.93 436.248C2532.98 434.367 2533.5 432.402 2533.5 430.354C2533.5 427.532 2532.95 425.263 2531.84 423.548C2530.79 421.777 2529.13 420.477 2526.86 419.646C2524.65 418.816 2521.88 418.401 2518.56 418.401H2505.2V408.191ZM2620.83 437.908V396.487C2620.83 393.444 2620.3 390.815 2619.25 388.602C2618.2 386.388 2616.59 384.673 2614.44 383.455C2612.28 382.238 2609.54 381.629 2606.22 381.629C2603.28 381.629 2600.71 382.127 2598.5 383.123C2596.34 384.119 2594.68 385.53 2593.52 387.356C2592.36 389.127 2591.77 391.175 2591.77 393.499H2569.78C2569.78 389.791 2570.66 386.277 2572.43 382.957C2574.2 379.581 2576.72 376.593 2579.99 373.992C2583.31 371.336 2587.26 369.261 2591.86 367.767C2596.51 366.272 2601.71 365.525 2607.46 365.525C2614.27 365.525 2620.33 366.688 2625.64 369.012C2631.01 371.281 2635.22 374.712 2638.26 379.305C2641.36 383.898 2642.91 389.681 2642.91 396.653V435.833C2642.91 440.315 2643.18 444.161 2643.74 447.371C2644.35 450.525 2645.23 453.265 2646.39 455.589V457H2624.06C2623.01 454.731 2622.21 451.854 2621.66 448.367C2621.1 444.826 2620.83 441.339 2620.83 437.908ZM2623.9 402.298L2624.06 415.33H2610.2C2606.77 415.33 2603.76 415.69 2601.15 416.409C2598.55 417.073 2596.42 418.069 2594.76 419.397C2593.1 420.67 2591.86 422.22 2591.03 424.046C2590.2 425.817 2589.78 427.837 2589.78 430.105C2589.78 432.319 2590.28 434.311 2591.28 436.082C2592.33 437.853 2593.82 439.264 2595.76 440.315C2597.75 441.312 2600.08 441.81 2602.73 441.81C2606.61 441.81 2609.98 441.035 2612.86 439.485C2615.74 437.881 2617.98 435.944 2619.58 433.675C2621.19 431.406 2622.04 429.248 2622.16 427.2L2628.46 436.663C2627.69 438.932 2626.53 441.339 2624.98 443.885C2623.43 446.43 2621.44 448.81 2619 451.023C2616.57 453.237 2613.63 455.063 2610.2 456.502C2606.77 457.941 2602.79 458.66 2598.25 458.66C2592.44 458.66 2587.24 457.498 2582.64 455.174C2578.05 452.85 2574.43 449.668 2571.77 445.628C2569.11 441.588 2567.79 436.995 2567.79 431.849C2567.79 427.09 2568.67 422.884 2570.44 419.231C2572.21 415.579 2574.84 412.508 2578.33 410.018C2581.81 407.472 2586.13 405.563 2591.28 404.29C2596.48 402.962 2602.43 402.298 2609.12 402.298H2623.9ZM2684.83 425.706L2717.53 367.186H2739.53V457H2717.53V398.396L2684.83 457H2662.83V367.186H2684.83V425.706ZM2713.46 331.907H2729.4C2729.4 336.556 2728.27 340.678 2726 344.275C2723.73 347.872 2720.49 350.695 2716.29 352.742C2712.14 354.734 2707.21 355.73 2701.51 355.73C2692.93 355.73 2686.13 353.517 2681.09 349.09C2676.06 344.663 2673.54 338.935 2673.54 331.907H2689.47C2689.47 334.84 2690.39 337.469 2692.21 339.793C2694.04 342.117 2697.14 343.279 2701.51 343.279C2705.88 343.279 2708.95 342.117 2710.72 339.793C2712.55 337.469 2713.46 334.84 2713.46 331.907ZM2775.64 367.186H2797.55L2796.72 398.064C2796.44 407.417 2795.34 415.496 2793.4 422.303C2791.52 429.054 2789 434.726 2785.85 439.319C2782.75 443.912 2779.21 447.62 2775.22 450.442C2771.29 453.265 2767.17 455.451 2762.85 457H2757.62L2757.54 439.9L2760.11 439.734C2762.72 436.967 2764.9 434.256 2766.67 431.6C2768.5 428.888 2769.96 425.983 2771.07 422.884C2772.18 419.785 2773.01 416.243 2773.56 412.259C2774.17 408.219 2774.56 403.488 2774.72 398.064L2775.64 367.186ZM2781.53 367.186H2839.72V457H2817.8V385.198H2781.53V367.186ZM2752.64 439.734H2852.25V483.895H2830.34V457H2774.97V483.895H2752.56L2752.64 439.734ZM2887.03 425.706L2919.74 367.186H2941.74V457H2919.74V398.396L2887.03 457H2865.04V367.186H2887.03V425.706ZM3005.24 367.186V457H2983.24V367.186H3005.24ZM3034.46 367.186V384.285H2954.52V367.186H3034.46ZM3081.69 458.66C3074.88 458.66 3068.76 457.553 3063.34 455.34C3057.92 453.126 3053.3 450.055 3049.48 446.126C3045.72 442.142 3042.81 437.521 3040.76 432.264C3038.77 426.951 3037.78 421.251 3037.78 415.164V411.844C3037.78 404.926 3038.77 398.646 3040.76 393.001C3042.76 387.301 3045.58 382.404 3049.23 378.309C3052.88 374.214 3057.25 371.059 3062.35 368.846C3067.44 366.632 3073.05 365.525 3079.2 365.525C3085.56 365.525 3091.18 366.604 3096.05 368.763C3100.92 370.866 3104.98 373.854 3108.25 377.728C3111.51 381.601 3113.98 386.25 3115.64 391.673C3117.3 397.041 3118.13 402.99 3118.13 409.52V418.733H3047.74V403.626H3096.54V401.966C3096.43 398.479 3095.77 395.298 3094.55 392.42C3093.34 389.487 3091.45 387.163 3088.91 385.447C3086.36 383.676 3083.07 382.791 3079.03 382.791C3075.77 382.791 3072.92 383.51 3070.48 384.949C3068.1 386.333 3066.11 388.325 3064.5 390.926C3062.95 393.471 3061.79 396.515 3061.02 400.057C3060.24 403.598 3059.86 407.527 3059.86 411.844V415.164C3059.86 418.927 3060.35 422.413 3061.35 425.623C3062.4 428.833 3063.92 431.627 3065.92 434.007C3067.96 436.331 3070.4 438.157 3073.22 439.485C3076.1 440.758 3079.36 441.395 3083.01 441.395C3087.61 441.395 3091.76 440.509 3095.47 438.738C3099.23 436.912 3102.49 434.228 3105.26 430.687L3116.3 442.142C3114.42 444.909 3111.87 447.565 3108.66 450.11C3105.51 452.656 3101.69 454.731 3097.21 456.336C3092.73 457.885 3087.55 458.66 3081.69 458.66ZM3219.31 418.982H3190.84L3190.68 404.124H3214.08C3217.57 404.124 3220.42 403.764 3222.63 403.045C3224.85 402.326 3226.48 401.246 3227.53 399.808C3228.64 398.369 3229.19 396.626 3229.19 394.578C3229.19 392.807 3228.86 391.285 3228.2 390.013C3227.53 388.685 3226.54 387.605 3225.21 386.775C3223.93 385.945 3222.3 385.337 3220.31 384.949C3218.37 384.507 3216.1 384.285 3213.5 384.285H3198.64V457H3176.65V367.186H3213.5C3219.31 367.186 3224.54 367.711 3229.19 368.763C3233.84 369.759 3237.8 371.281 3241.06 373.328C3244.33 375.376 3246.82 377.977 3248.53 381.131C3250.3 384.23 3251.19 387.882 3251.19 392.088C3251.19 394.855 3250.58 397.456 3249.36 399.891C3248.14 402.326 3246.35 404.484 3243.97 406.365C3241.59 408.247 3238.65 409.796 3235.17 411.014C3231.68 412.176 3227.7 412.895 3223.21 413.172L3219.31 418.982ZM3219.31 457H3184.95L3193.08 439.9H3219.31C3222.52 439.9 3225.18 439.513 3227.28 438.738C3229.39 437.908 3230.93 436.718 3231.93 435.169C3232.98 433.619 3233.51 431.738 3233.51 429.524C3233.51 427.366 3233.01 425.512 3232.01 423.963C3231.07 422.358 3229.55 421.141 3227.45 420.311C3225.4 419.425 3222.69 418.982 3219.31 418.982H3196.65L3196.82 404.124H3223.13L3228.94 410.018C3234.92 410.405 3239.87 411.622 3243.8 413.67C3247.73 415.662 3250.66 418.208 3252.6 421.307C3254.54 424.35 3255.5 427.698 3255.5 431.351C3255.5 435.612 3254.7 439.347 3253.1 442.557C3251.49 445.766 3249.14 448.45 3246.04 450.608C3242.94 452.711 3239.15 454.316 3234.67 455.423C3230.19 456.474 3225.07 457 3219.31 457ZM3374.04 367.186V384.534H3330.13V367.186H3374.04ZM3335.94 367.186V457H3313.94V367.186H3335.94ZM3390.64 367.186V457H3368.56V367.186H3390.64ZM3432.48 384.451V491.531H3410.48V367.186H3430.82L3432.48 384.451ZM3490.17 411.18V412.923C3490.17 419.453 3489.39 425.512 3487.84 431.102C3486.35 436.635 3484.14 441.478 3481.2 445.628C3478.27 449.723 3474.62 452.933 3470.25 455.257C3465.93 457.526 3460.95 458.66 3455.3 458.66C3449.77 458.66 3444.96 457.609 3440.86 455.506C3436.77 453.348 3433.31 450.304 3430.49 446.375C3427.66 442.446 3425.39 437.881 3423.68 432.679C3422.02 427.422 3420.77 421.694 3419.94 415.496V409.935C3420.77 403.349 3422.02 397.373 3423.68 392.005C3425.39 386.582 3427.66 381.906 3430.49 377.977C3433.31 373.992 3436.74 370.921 3440.78 368.763C3444.87 366.604 3449.66 365.525 3455.14 365.525C3460.84 365.525 3465.85 366.604 3470.16 368.763C3474.53 370.921 3478.21 374.02 3481.2 378.06C3484.19 382.099 3486.43 386.914 3487.93 392.503C3489.42 398.092 3490.17 404.318 3490.17 411.18ZM3468.17 412.923V411.18C3468.17 407.195 3467.81 403.515 3467.09 400.14C3466.37 396.709 3465.27 393.72 3463.77 391.175C3462.28 388.574 3460.34 386.554 3457.96 385.115C3455.58 383.676 3452.7 382.957 3449.33 382.957C3445.95 382.957 3443.05 383.51 3440.61 384.617C3438.18 385.724 3436.19 387.301 3434.64 389.349C3433.09 391.396 3431.87 393.831 3430.98 396.653C3430.15 399.42 3429.6 402.492 3429.32 405.867V419.646C3429.82 423.742 3430.79 427.422 3432.23 430.687C3433.67 433.951 3435.77 436.552 3438.54 438.489C3441.36 440.426 3445.01 441.395 3449.49 441.395C3452.87 441.395 3455.75 440.647 3458.13 439.153C3460.51 437.659 3462.44 435.612 3463.94 433.011C3465.43 430.354 3466.51 427.311 3467.17 423.88C3467.84 420.449 3468.17 416.797 3468.17 412.923ZM3528.35 425.706L3561.06 367.186H3583.05V457H3561.06V398.396L3528.35 457H3506.35V367.186H3528.35V425.706ZM3663.32 367.186V384.534H3619.33V367.186H3663.32ZM3679.84 367.186V457H3657.93V367.186H3679.84ZM3613.85 367.186H3635.51L3633.11 412.01C3632.72 418.595 3632.03 424.378 3631.03 429.358C3630.04 434.284 3628.71 438.517 3627.05 442.059C3625.39 445.545 3623.37 448.395 3620.99 450.608C3618.61 452.822 3615.84 454.454 3612.69 455.506C3609.59 456.502 3606.1 457 3602.23 457H3595.5L3595.26 439.319L3598.41 439.07C3600.35 438.904 3602.01 438.379 3603.39 437.493C3604.83 436.608 3606.05 435.335 3607.04 433.675C3608.09 432.015 3608.95 429.884 3609.62 427.283C3610.34 424.627 3610.89 421.528 3611.28 417.986C3611.72 414.389 3612.02 410.239 3612.19 405.535L3613.85 367.186ZM3696.03 413.006V411.263C3696.03 404.677 3696.97 398.618 3698.85 393.084C3700.73 387.495 3703.47 382.653 3707.07 378.558C3710.66 374.463 3715.06 371.281 3720.27 369.012C3725.47 366.688 3731.39 365.525 3738.03 365.525C3744.78 365.525 3750.76 366.688 3755.96 369.012C3761.22 371.281 3765.64 374.463 3769.24 378.558C3772.84 382.653 3775.58 387.495 3777.46 393.084C3779.34 398.618 3780.28 404.677 3780.28 411.263V413.006C3780.28 419.536 3779.34 425.595 3777.46 431.185C3775.58 436.718 3772.84 441.561 3769.24 445.711C3765.64 449.806 3761.24 452.988 3756.04 455.257C3750.84 457.526 3744.89 458.66 3738.2 458.66C3731.55 458.66 3725.61 457.526 3720.35 455.257C3715.09 452.988 3710.66 449.806 3707.07 445.711C3703.47 441.561 3700.73 436.718 3698.85 431.185C3696.97 425.595 3696.03 419.536 3696.03 413.006ZM3717.94 411.263V413.006C3717.94 416.935 3718.33 420.615 3719.1 424.046C3719.88 427.477 3721.07 430.493 3722.67 433.094C3724.28 435.695 3726.35 437.742 3728.9 439.236C3731.5 440.675 3734.6 441.395 3738.2 441.395C3741.74 441.395 3744.78 440.675 3747.33 439.236C3749.87 437.742 3751.95 435.695 3753.55 433.094C3755.21 430.493 3756.43 427.477 3757.2 424.046C3757.98 420.615 3758.37 416.935 3758.37 413.006V411.263C3758.37 407.389 3757.98 403.764 3757.2 400.389C3756.43 396.958 3755.21 393.942 3753.55 391.341C3751.95 388.685 3749.84 386.609 3747.24 385.115C3744.7 383.566 3741.63 382.791 3738.03 382.791C3734.49 382.791 3731.44 383.566 3728.9 385.115C3726.35 386.609 3724.28 388.685 3722.67 391.341C3721.07 393.942 3719.88 396.958 3719.1 400.389C3718.33 403.764 3717.94 407.389 3717.94 411.263ZM3825.02 421.971L3788.5 367.186H3815.56L3835.56 401.8H3852.91L3850.17 421.971H3825.02ZM3835.98 418.484L3814.23 457H3787.58L3818.71 407.029L3835.98 418.484ZM3866.69 367.186V457H3844.78V367.186H3866.69ZM3923.22 367.186L3886.61 421.971H3861.46L3858.72 401.8H3876.07L3896.08 367.186H3923.22ZM3897.4 457L3875.66 418.484L3893.5 407.029L3924.55 457H3897.4ZM3975.35 458.66C3968.54 458.66 3962.43 457.553 3957 455.34C3951.58 453.126 3946.96 450.055 3943.14 446.126C3939.38 442.142 3936.47 437.521 3934.43 432.264C3932.43 426.951 3931.44 421.251 3931.44 415.164V411.844C3931.44 404.926 3932.43 398.646 3934.43 393.001C3936.42 387.301 3939.24 382.404 3942.89 378.309C3946.54 374.214 3950.92 371.059 3956.01 368.846C3961.1 366.632 3966.72 365.525 3972.86 365.525C3979.22 365.525 3984.84 366.604 3989.71 368.763C3994.58 370.866 3998.65 373.854 4001.91 377.728C4005.18 381.601 4007.64 386.25 4009.3 391.673C4010.96 397.041 4011.79 402.99 4011.79 409.52V418.733H3941.4V403.626H3990.21V401.966C3990.1 398.479 3989.43 395.298 3988.21 392.42C3987 389.487 3985.12 387.163 3982.57 385.447C3980.02 383.676 3976.73 382.791 3972.69 382.791C3969.43 382.791 3966.58 383.51 3964.14 384.949C3961.76 386.333 3959.77 388.325 3958.17 390.926C3956.62 393.471 3955.45 396.515 3954.68 400.057C3953.9 403.598 3953.52 407.527 3953.52 411.844V415.164C3953.52 418.927 3954.02 422.413 3955.01 425.623C3956.06 428.833 3957.58 431.627 3959.58 434.007C3961.62 436.331 3964.06 438.157 3966.88 439.485C3969.76 440.758 3973.02 441.395 3976.68 441.395C3981.27 441.395 3985.42 440.509 3989.13 438.738C3992.89 436.912 3996.16 434.228 3998.92 430.687L4009.96 442.142C4008.08 444.909 4005.54 447.565 4002.33 450.11C3999.17 452.656 3995.35 454.731 3990.87 456.336C3986.39 457.885 3981.21 458.66 3975.35 458.66ZM4087.82 404.041V421.224H4041.75V404.041H4087.82ZM4048.64 367.186V457H4026.65V367.186H4048.64ZM4103.18 367.186V457H4081.1V367.186H4103.18ZM4145.27 425.706L4177.97 367.186H4199.97V457H4177.97V398.396L4145.27 457H4123.27V367.186H4145.27V425.706ZM4260.23 458.66C4253.42 458.66 4247.31 457.553 4241.89 455.34C4236.46 453.126 4231.84 450.055 4228.02 446.126C4224.26 442.142 4221.36 437.521 4219.31 432.264C4217.32 426.951 4216.32 421.251 4216.32 415.164V411.844C4216.32 404.926 4217.32 398.646 4219.31 393.001C4221.3 387.301 4224.12 382.404 4227.78 378.309C4231.43 374.214 4235.8 371.059 4240.89 368.846C4245.98 366.632 4251.6 365.525 4257.74 365.525C4264.11 365.525 4269.72 366.604 4274.59 368.763C4279.46 370.866 4283.53 373.854 4286.79 377.728C4290.06 381.601 4292.52 386.25 4294.18 391.673C4295.84 397.041 4296.67 402.99 4296.67 409.52V418.733H4226.28V403.626H4275.09V401.966C4274.98 398.479 4274.32 395.298 4273.1 392.42C4271.88 389.487 4270 387.163 4267.45 385.447C4264.91 383.676 4261.61 382.791 4257.58 382.791C4254.31 382.791 4251.46 383.51 4249.03 384.949C4246.65 386.333 4244.65 388.325 4243.05 390.926C4241.5 393.471 4240.34 396.515 4239.56 400.057C4238.79 403.598 4238.4 407.527 4238.4 411.844V415.164C4238.4 418.927 4238.9 422.413 4239.89 425.623C4240.95 428.833 4242.47 431.627 4244.46 434.007C4246.51 436.331 4248.94 438.157 4251.76 439.485C4254.64 440.758 4257.91 441.395 4261.56 441.395C4266.15 441.395 4270.3 440.509 4274.01 438.738C4277.77 436.912 4281.04 434.228 4283.81 430.687L4294.85 442.142C4292.96 444.909 4290.42 447.565 4287.21 450.11C4284.05 452.656 4280.24 454.731 4275.75 456.336C4271.27 457.885 4266.1 458.66 4260.23 458.66ZM4336.35 336.141L4333.94 420.726H4315.43L4313.02 336.141H4336.35ZM4312.36 446.79C4312.36 443.525 4313.47 440.786 4315.68 438.572C4317.95 436.303 4320.99 435.169 4324.81 435.169C4328.63 435.169 4331.65 436.303 4333.86 438.572C4336.13 440.786 4337.26 443.525 4337.26 446.79C4337.26 450 4336.13 452.711 4333.86 454.925C4331.65 457.138 4328.63 458.245 4324.81 458.245C4320.99 458.245 4317.95 457.138 4315.68 454.925C4313.47 452.711 4312.36 450 4312.36 446.79Z" fill="white"/>
<path d="M4834.19 371.953C4826.38 371.953 4819.32 370.684 4813 368.145C4806.75 365.54 4801.41 361.927 4796.98 357.305C4792.62 352.682 4789.27 347.246 4786.93 340.996C4784.58 334.746 4783.41 328.008 4783.41 320.781V316.875C4783.41 308.607 4784.61 301.12 4787.02 294.414C4789.43 287.708 4792.79 281.979 4797.08 277.227C4801.38 272.409 4806.46 268.73 4812.32 266.191C4818.18 263.652 4824.52 262.383 4831.36 262.383C4838.91 262.383 4845.52 263.652 4851.18 266.191C4856.85 268.73 4861.54 272.311 4865.25 276.934C4869.02 281.491 4871.82 286.927 4873.64 293.242C4875.53 299.557 4876.48 306.523 4876.48 314.141V324.199H4794.84V307.305H4853.23V305.449C4853.1 301.217 4852.26 297.246 4850.7 293.535C4849.2 289.824 4846.89 286.829 4843.76 284.551C4840.64 282.272 4836.47 281.133 4831.26 281.133C4827.36 281.133 4823.87 281.979 4820.81 283.672C4817.82 285.299 4815.31 287.676 4813.29 290.801C4811.27 293.926 4809.71 297.702 4808.61 302.129C4807.56 306.491 4807.04 311.406 4807.04 316.875V320.781C4807.04 325.404 4807.66 329.701 4808.9 333.672C4810.2 337.578 4812.09 340.996 4814.56 343.926C4817.04 346.855 4820.03 349.167 4823.55 350.859C4827.06 352.487 4831.07 353.301 4835.56 353.301C4841.22 353.301 4846.27 352.161 4850.7 349.883C4855.12 347.604 4858.96 344.382 4862.22 340.215L4874.62 352.227C4872.34 355.547 4869.38 358.737 4865.73 361.797C4862.09 364.792 4857.63 367.233 4852.36 369.121C4847.15 371.009 4841.09 371.953 4834.19 371.953ZM4918.47 284.453V370H4894.93V264.336H4917.39L4918.47 284.453ZM4950.79 263.652L4950.6 285.527C4949.17 285.267 4947.6 285.072 4945.91 284.941C4944.28 284.811 4942.65 284.746 4941.03 284.746C4936.99 284.746 4933.44 285.332 4930.38 286.504C4927.32 287.611 4924.75 289.238 4922.67 291.387C4920.65 293.47 4919.09 296.009 4917.98 299.004C4916.87 301.999 4916.22 305.352 4916.03 309.062L4910.66 309.453C4910.66 302.812 4911.31 296.66 4912.61 290.996C4913.91 285.332 4915.86 280.352 4918.47 276.055C4921.14 271.758 4924.46 268.405 4928.43 265.996C4932.47 263.587 4937.12 262.383 4942.39 262.383C4943.83 262.383 4945.36 262.513 4946.98 262.773C4948.68 263.034 4949.95 263.327 4950.79 263.652ZM5062.12 319.316V338.066H4959.58L4958.8 323.906L5020.13 227.812H5038.98L5018.57 262.773L4983.31 319.316H5062.12ZM5044.35 227.812V370H5020.81V227.812H5044.35ZM5170.52 286.992V310.234C5170.52 321.367 5169.41 330.872 5167.2 338.75C5165.05 346.562 5161.93 352.91 5157.82 357.793C5153.72 362.676 5148.81 366.257 5143.08 368.535C5137.41 370.814 5131.07 371.953 5124.04 371.953C5118.44 371.953 5113.23 371.237 5108.41 369.805C5103.66 368.372 5099.36 366.126 5095.52 363.066C5091.68 360.007 5088.39 356.068 5085.66 351.25C5082.99 346.367 5080.9 340.54 5079.41 333.77C5077.97 326.999 5077.26 319.154 5077.26 310.234V286.992C5077.26 275.794 5078.36 266.354 5080.58 258.672C5082.79 250.924 5085.95 244.642 5090.05 239.824C5094.15 234.941 5099.04 231.393 5104.7 229.18C5110.43 226.966 5116.81 225.859 5123.84 225.859C5129.5 225.859 5134.71 226.576 5139.46 228.008C5144.28 229.375 5148.58 231.556 5152.36 234.551C5156.2 237.546 5159.45 241.452 5162.12 246.27C5164.86 251.022 5166.94 256.784 5168.37 263.555C5169.8 270.26 5170.52 278.073 5170.52 286.992ZM5146.98 313.555V283.477C5146.98 277.812 5146.66 272.832 5146.01 268.535C5145.36 264.173 5144.38 260.495 5143.08 257.5C5141.84 254.44 5140.28 251.966 5138.39 250.078C5136.5 248.125 5134.35 246.725 5131.95 245.879C5129.54 244.967 5126.83 244.512 5123.84 244.512C5120.19 244.512 5116.94 245.228 5114.07 246.66C5111.21 248.027 5108.8 250.241 5106.85 253.301C5104.89 256.361 5103.4 260.397 5102.36 265.41C5101.38 270.358 5100.89 276.38 5100.89 283.477V313.555C5100.89 319.284 5101.22 324.329 5101.87 328.691C5102.52 333.053 5103.49 336.797 5104.8 339.922C5106.1 342.982 5107.66 345.521 5109.48 347.539C5111.37 349.492 5113.52 350.924 5115.93 351.836C5118.4 352.747 5121.11 353.203 5124.04 353.203C5127.75 353.203 5131.03 352.487 5133.9 351.055C5136.76 349.622 5139.17 347.344 5141.12 344.219C5143.08 341.029 5144.54 336.895 5145.52 331.816C5146.5 326.738 5146.98 320.651 5146.98 313.555ZM5289.46 319.316V338.066H5186.93L5186.14 323.906L5247.47 227.812H5266.32L5245.91 262.773L5210.66 319.316H5289.46ZM5271.69 227.812V370H5248.16V227.812H5271.69ZM5307.53 358.281C5307.53 354.635 5308.77 351.576 5311.24 349.102C5313.72 346.562 5317.07 345.293 5321.3 345.293C5325.6 345.293 5328.95 346.562 5331.36 349.102C5333.83 351.576 5335.07 354.635 5335.07 358.281C5335.07 361.927 5333.83 364.987 5331.36 367.461C5328.95 369.935 5325.6 371.172 5321.3 371.172C5317.07 371.172 5313.72 369.935 5311.24 367.461C5308.77 364.987 5307.53 361.927 5307.53 358.281Z" fill="#7666C4"/>
<path fill-rule="evenodd" clip-rule="evenodd" d="M620.5 300C620.5 197.825 537.675 115 435.5 115C333.325 115 250.5 197.825 250.5 300C250.5 402.175 333.325 485 435.5 485C537.675 485 620.5 402.175 620.5 300ZM435.5 207.5C440.407 207.5 445.112 209.449 448.581 212.919C452.051 216.388 454 221.093 454 226V318.5C454 323.407 452.051 328.112 448.581 331.581C445.112 335.051 440.407 337 435.5 337C430.593 337 425.888 335.051 422.419 331.581C418.949 328.112 417 323.407 417 318.5V226C417 221.093 418.949 216.388 422.419 212.919C425.888 209.449 430.593 207.5 435.5 207.5ZM417 374C417 369.093 418.949 364.388 422.419 360.919C425.888 357.449 430.593 355.5 435.5 355.5H435.648C440.555 355.5 445.26 357.449 448.729 360.919C452.199 364.388 454.148 369.093 454.148 374C454.148 378.907 452.199 383.612 448.729 387.081C445.26 390.551 440.555 392.5 435.648 392.5H435.5C430.593 392.5 425.888 390.551 422.419 387.081C418.949 383.612 417 378.907 417 374Z" fill="#E6E6E6"/>
</svg>
