<svg width="5601" height="600" viewBox="0 0 5601 600" fill="none" xmlns="http://www.w3.org/2000/svg">
<rect x="0.5" width="5600" height="600" rx="75" fill="#131313"/>
<path d="M1083.52 313.923H1052.39V295.993H1083.52C1088.61 295.993 1092.74 295.163 1095.89 293.503C1099.1 291.787 1101.45 289.463 1102.95 286.53C1104.44 283.542 1105.19 280.139 1105.19 276.32C1105.19 272.613 1104.44 269.154 1102.95 265.944C1101.45 262.735 1099.1 260.134 1095.89 258.142C1092.74 256.149 1088.61 255.153 1083.52 255.153H1059.87V358H1037.04V237.141H1083.52C1092.93 237.141 1100.95 238.828 1107.59 242.204C1114.29 245.524 1119.38 250.145 1122.87 256.066C1126.41 261.932 1128.18 268.628 1128.18 276.154C1128.18 283.957 1126.41 290.681 1122.87 296.325C1119.38 301.97 1114.29 306.314 1107.59 309.357C1100.95 312.401 1092.93 313.923 1083.52 313.923ZM1192.93 338.908V297.487C1192.93 294.444 1192.4 291.815 1191.35 289.602C1190.3 287.388 1188.69 285.673 1186.54 284.455C1184.38 283.238 1181.64 282.629 1178.32 282.629C1175.38 282.629 1172.81 283.127 1170.6 284.123C1168.44 285.119 1166.78 286.53 1165.62 288.356C1164.46 290.127 1163.87 292.175 1163.87 294.499H1141.88C1141.88 290.791 1142.76 287.277 1144.53 283.957C1146.3 280.581 1148.82 277.593 1152.09 274.992C1155.41 272.336 1159.36 270.261 1163.96 268.767C1168.61 267.272 1173.81 266.525 1179.56 266.525C1186.37 266.525 1192.43 267.688 1197.74 270.012C1203.11 272.281 1207.31 275.712 1210.36 280.305C1213.46 284.898 1215.01 290.681 1215.01 297.653V336.833C1215.01 341.315 1215.28 345.161 1215.84 348.371C1216.45 351.525 1217.33 354.265 1218.49 356.589V358H1196.16C1195.11 355.731 1194.31 352.854 1193.76 349.367C1193.2 345.826 1192.93 342.339 1192.93 338.908ZM1196 303.298L1196.16 316.33H1182.3C1178.87 316.33 1175.85 316.69 1173.25 317.409C1170.65 318.073 1168.52 319.069 1166.86 320.397C1165.2 321.67 1163.96 323.22 1163.13 325.046C1162.3 326.817 1161.88 328.837 1161.88 331.105C1161.88 333.319 1162.38 335.311 1163.38 337.082C1164.43 338.853 1165.92 340.264 1167.86 341.315C1169.85 342.312 1172.17 342.81 1174.83 342.81C1178.7 342.81 1182.08 342.035 1184.96 340.485C1187.84 338.881 1190.08 336.944 1191.68 334.675C1193.29 332.406 1194.14 330.248 1194.25 328.2L1200.56 337.663C1199.79 339.932 1198.63 342.339 1197.08 344.885C1195.53 347.43 1193.54 349.81 1191.1 352.023C1188.67 354.237 1185.73 356.063 1182.3 357.502C1178.87 358.941 1174.89 359.66 1170.35 359.66C1164.54 359.66 1159.34 358.498 1154.74 356.174C1150.15 353.85 1146.53 350.668 1143.87 346.628C1141.21 342.588 1139.88 337.995 1139.88 332.849C1139.88 328.09 1140.77 323.884 1142.54 320.231C1144.31 316.579 1146.94 313.508 1150.43 311.018C1153.91 308.472 1158.23 306.563 1163.38 305.29C1168.58 303.962 1174.53 303.298 1181.22 303.298H1196ZM1273.28 315.168H1255.76V304.709H1269.13C1272.39 304.709 1274.99 304.266 1276.93 303.381C1278.92 302.495 1280.33 301.25 1281.16 299.646C1282.05 298.041 1282.49 296.187 1282.49 294.084C1282.49 292.202 1282.08 290.432 1281.25 288.771C1280.42 287.056 1279.03 285.673 1277.1 284.621C1275.16 283.514 1272.48 282.961 1269.04 282.961C1266.22 282.961 1263.7 283.404 1261.49 284.289C1259.28 285.174 1257.53 286.42 1256.26 288.024C1254.99 289.629 1254.35 291.538 1254.35 293.752H1232.36C1232.36 288.107 1233.96 283.265 1237.17 279.226C1240.43 275.186 1244.78 272.087 1250.2 269.929C1255.63 267.715 1261.57 266.608 1268.05 266.608C1273.64 266.608 1278.67 267.189 1283.16 268.352C1287.64 269.458 1291.46 271.118 1294.61 273.332C1297.77 275.546 1300.2 278.285 1301.92 281.55C1303.63 284.759 1304.49 288.495 1304.49 292.756C1304.49 295.799 1303.77 298.677 1302.33 301.389C1300.89 304.1 1298.82 306.507 1296.11 308.61C1293.39 310.658 1290.1 312.263 1286.23 313.425C1282.41 314.587 1278.09 315.168 1273.28 315.168ZM1255.76 309.191H1273.28C1278.65 309.191 1283.35 309.717 1287.39 310.769C1291.48 311.765 1294.92 313.259 1297.68 315.251C1300.45 317.243 1302.52 319.706 1303.91 322.639C1305.35 325.516 1306.07 328.837 1306.07 332.6C1306.07 336.861 1305.13 340.679 1303.24 344.055C1301.42 347.375 1298.82 350.197 1295.44 352.521C1292.07 354.846 1288.05 356.617 1283.41 357.834C1278.76 359.051 1273.64 359.66 1268.05 359.66C1262.02 359.66 1256.15 358.664 1250.45 356.672C1244.81 354.68 1240.13 351.608 1236.42 347.458C1232.77 343.308 1230.94 337.967 1230.94 331.438H1252.94C1252.94 333.54 1253.58 335.505 1254.85 337.331C1256.12 339.157 1257.95 340.624 1260.33 341.73C1262.76 342.782 1265.7 343.308 1269.13 343.308C1272.61 343.308 1275.46 342.754 1277.68 341.647C1279.89 340.541 1281.5 339.074 1282.49 337.248C1283.54 335.367 1284.07 333.402 1284.07 331.354C1284.07 328.532 1283.52 326.263 1282.41 324.548C1281.36 322.777 1279.7 321.477 1277.43 320.646C1275.22 319.816 1272.45 319.401 1269.13 319.401H1255.76V309.191ZM1338.11 268.186H1360.02L1359.19 299.064C1358.91 308.417 1357.81 316.496 1355.87 323.303C1353.99 330.054 1351.47 335.726 1348.32 340.319C1345.22 344.912 1341.68 348.62 1337.69 351.442C1333.76 354.265 1329.64 356.451 1325.32 358H1320.09L1320.01 340.9L1322.58 340.734C1325.19 337.967 1327.37 335.256 1329.14 332.6C1330.97 329.888 1332.44 326.983 1333.54 323.884C1334.65 320.785 1335.48 317.243 1336.03 313.259C1336.64 309.219 1337.03 304.488 1337.19 299.064L1338.11 268.186ZM1344 268.186H1402.19V358H1380.28V286.198H1344V268.186ZM1315.11 340.734H1414.72V384.895H1392.81V358H1337.44V384.895H1315.03L1315.11 340.734ZM1468.51 359.66C1461.71 359.66 1455.59 358.553 1450.17 356.34C1444.74 354.126 1440.12 351.055 1436.31 347.126C1432.54 343.142 1429.64 338.521 1427.59 333.264C1425.6 327.951 1424.6 322.251 1424.6 316.164V312.844C1424.6 305.926 1425.6 299.646 1427.59 294.001C1429.58 288.301 1432.4 283.404 1436.06 279.309C1439.71 275.214 1444.08 272.059 1449.17 269.846C1454.26 267.632 1459.88 266.525 1466.02 266.525C1472.39 266.525 1478 267.604 1482.87 269.763C1487.74 271.866 1491.81 274.854 1495.08 278.728C1498.34 282.601 1500.8 287.25 1502.46 292.673C1504.12 298.041 1504.95 303.99 1504.95 310.52V319.733H1434.56V304.626H1483.37V302.966C1483.26 299.479 1482.6 296.298 1481.38 293.42C1480.16 290.487 1478.28 288.163 1475.73 286.447C1473.19 284.676 1469.9 283.791 1465.86 283.791C1462.59 283.791 1459.74 284.51 1457.31 285.949C1454.93 287.333 1452.93 289.325 1451.33 291.926C1449.78 294.471 1448.62 297.515 1447.84 301.057C1447.07 304.598 1446.68 308.527 1446.68 312.844V316.164C1446.68 319.927 1447.18 323.413 1448.18 326.623C1449.23 329.833 1450.75 332.627 1452.74 335.007C1454.79 337.331 1457.22 339.157 1460.05 340.485C1462.92 341.758 1466.19 342.395 1469.84 342.395C1474.43 342.395 1478.58 341.509 1482.29 339.738C1486.06 337.912 1489.32 335.228 1492.09 331.687L1503.13 343.142C1501.25 345.909 1498.7 348.565 1495.49 351.11C1492.34 353.656 1488.52 355.731 1484.04 357.336C1479.55 358.885 1474.38 359.66 1468.51 359.66ZM1579.99 268.186V285.534H1536V268.186H1579.99ZM1596.51 268.186V358H1574.6V268.186H1596.51ZM1530.52 268.186H1552.18L1549.78 313.01C1549.39 319.595 1548.7 325.378 1547.7 330.358C1546.71 335.284 1545.38 339.517 1543.72 343.059C1542.06 346.545 1540.04 349.395 1537.66 351.608C1535.28 353.822 1532.51 355.454 1529.36 356.506C1526.26 357.502 1522.77 358 1518.9 358H1512.17L1511.93 340.319L1515.08 340.07C1517.02 339.904 1518.68 339.379 1520.06 338.493C1521.5 337.608 1522.72 336.335 1523.71 334.675C1524.76 333.015 1525.62 330.884 1526.29 328.283C1527.01 325.627 1527.56 322.528 1527.95 318.986C1528.39 315.389 1528.69 311.239 1528.86 306.535L1530.52 268.186ZM1683.42 237.141V358H1660.59V237.141H1683.42ZM1732.15 289.353V307.365H1677.44V289.353H1732.15ZM1738.54 237.141V255.153H1677.44V237.141H1738.54ZM1787.01 255.485L1752.57 358H1728.41L1773.57 237.141H1789.01L1787.01 255.485ZM1815.82 358L1781.2 255.485L1779.13 237.141H1794.65L1840.06 358H1815.82ZM1814.24 313.093V331.105H1749.41V313.093H1814.24ZM1915.84 340.983L1948.05 366.55L1933.44 379.25L1901.73 353.85L1915.84 340.983ZM1948.63 294.499V300.725C1948.63 309.855 1947.41 318.073 1944.98 325.378C1942.54 332.627 1939.06 338.798 1934.52 343.889C1930.04 348.98 1924.7 352.881 1918.5 355.593C1912.3 358.304 1905.44 359.66 1897.91 359.66C1890.44 359.66 1883.58 358.304 1877.33 355.593C1871.13 352.881 1865.76 348.98 1861.22 343.889C1856.68 338.798 1853.17 332.627 1850.68 325.378C1848.19 318.073 1846.95 309.855 1846.95 300.725V294.499C1846.95 285.313 1848.16 277.095 1850.6 269.846C1853.09 262.596 1856.57 256.426 1861.06 251.335C1865.59 246.188 1870.96 242.259 1877.16 239.548C1883.41 236.836 1890.28 235.48 1897.75 235.48C1905.27 235.48 1912.13 236.836 1918.33 239.548C1924.59 242.259 1929.95 246.188 1934.44 251.335C1938.97 256.426 1942.46 262.596 1944.89 269.846C1947.38 277.095 1948.63 285.313 1948.63 294.499ZM1925.55 300.725V294.333C1925.55 287.748 1924.94 281.965 1923.73 276.984C1922.51 271.949 1920.68 267.715 1918.25 264.284C1915.87 260.853 1912.96 258.28 1909.53 256.564C1906.1 254.794 1902.17 253.908 1897.75 253.908C1893.37 253.908 1889.47 254.794 1886.04 256.564C1882.61 258.28 1879.71 260.853 1877.33 264.284C1874.95 267.715 1873.12 271.949 1871.85 276.984C1870.63 281.965 1870.02 287.748 1870.02 294.333V300.725C1870.02 307.255 1870.63 313.037 1871.85 318.073C1873.12 323.109 1874.95 327.37 1877.33 330.856C1879.76 334.287 1882.69 336.888 1886.12 338.659C1889.61 340.43 1893.54 341.315 1897.91 341.315C1902.34 341.315 1906.27 340.43 1909.7 338.659C1913.13 336.888 1916.01 334.287 1918.33 330.856C1920.71 327.37 1922.51 323.109 1923.73 318.073C1924.94 313.037 1925.55 307.255 1925.55 300.725ZM2053.05 319.982H2024.58L2024.42 305.124H2047.82C2051.31 305.124 2054.16 304.764 2056.37 304.045C2058.59 303.326 2060.22 302.246 2061.27 300.808C2062.38 299.369 2062.93 297.626 2062.93 295.578C2062.93 293.807 2062.6 292.285 2061.94 291.013C2061.27 289.685 2060.28 288.605 2058.95 287.775C2057.67 286.945 2056.04 286.337 2054.05 285.949C2052.11 285.507 2049.84 285.285 2047.24 285.285H2032.38V358H2010.39V268.186H2047.24C2053.05 268.186 2058.28 268.711 2062.93 269.763C2067.58 270.759 2071.54 272.281 2074.8 274.328C2078.07 276.376 2080.56 278.977 2082.27 282.131C2084.04 285.23 2084.93 288.882 2084.93 293.088C2084.93 295.855 2084.32 298.456 2083.1 300.891C2081.89 303.326 2080.09 305.484 2077.71 307.365C2075.33 309.247 2072.39 310.796 2068.91 312.014C2065.42 313.176 2061.44 313.895 2056.96 314.172L2053.05 319.982ZM2053.05 358H2018.69L2026.82 340.9H2053.05C2056.26 340.9 2058.92 340.513 2061.02 339.738C2063.13 338.908 2064.67 337.718 2065.67 336.169C2066.72 334.619 2067.25 332.738 2067.25 330.524C2067.25 328.366 2066.75 326.512 2065.75 324.963C2064.81 323.358 2063.29 322.141 2061.19 321.311C2059.14 320.425 2056.43 319.982 2053.05 319.982H2030.39L2030.56 305.124H2056.87L2062.68 311.018C2068.66 311.405 2073.61 312.622 2077.54 314.67C2081.47 316.662 2084.4 319.208 2086.34 322.307C2088.28 325.35 2089.25 328.698 2089.25 332.351C2089.25 336.612 2088.44 340.347 2086.84 343.557C2085.23 346.766 2082.88 349.45 2079.78 351.608C2076.68 353.711 2072.89 355.316 2068.41 356.423C2063.93 357.474 2058.81 358 2053.05 358ZM2127.1 285.451V392.531H2105.1V268.186H2125.44L2127.1 285.451ZM2184.79 312.18V313.923C2184.79 320.453 2184.01 326.512 2182.46 332.102C2180.97 337.635 2178.76 342.478 2175.82 346.628C2172.89 350.723 2169.24 353.933 2164.87 356.257C2160.55 358.526 2155.57 359.66 2149.92 359.66C2144.39 359.66 2139.58 358.609 2135.48 356.506C2131.39 354.348 2127.93 351.304 2125.1 347.375C2122.28 343.446 2120.01 338.881 2118.3 333.679C2116.64 328.422 2115.39 322.694 2114.56 316.496V310.935C2115.39 304.349 2116.64 298.373 2118.3 293.005C2120.01 287.582 2122.28 282.906 2125.1 278.977C2127.93 274.992 2131.36 271.921 2135.4 269.763C2139.49 267.604 2144.28 266.525 2149.76 266.525C2155.46 266.525 2160.47 267.604 2164.78 269.763C2169.15 271.921 2172.83 275.02 2175.82 279.06C2178.81 283.099 2181.05 287.914 2182.55 293.503C2184.04 299.092 2184.79 305.318 2184.79 312.18ZM2162.79 313.923V312.18C2162.79 308.195 2162.43 304.515 2161.71 301.14C2160.99 297.709 2159.88 294.72 2158.39 292.175C2156.9 289.574 2154.96 287.554 2152.58 286.115C2150.2 284.676 2147.32 283.957 2143.95 283.957C2140.57 283.957 2137.67 284.51 2135.23 285.617C2132.8 286.724 2130.8 288.301 2129.25 290.349C2127.71 292.396 2126.49 294.831 2125.6 297.653C2124.77 300.42 2124.22 303.492 2123.94 306.867V320.646C2124.44 324.742 2125.41 328.422 2126.85 331.687C2128.29 334.951 2130.39 337.552 2133.16 339.489C2135.98 341.426 2139.63 342.395 2144.11 342.395C2147.49 342.395 2150.37 341.647 2152.75 340.153C2155.13 338.659 2157.06 336.612 2158.56 334.011C2160.05 331.354 2161.13 328.311 2161.79 324.88C2162.46 321.449 2162.79 317.797 2162.79 313.923ZM2241.15 359.66C2234.34 359.66 2228.23 358.553 2222.8 356.34C2217.38 354.126 2212.76 351.055 2208.94 347.126C2205.18 343.142 2202.27 338.521 2200.23 333.264C2198.23 327.951 2197.24 322.251 2197.24 316.164V312.844C2197.24 305.926 2198.23 299.646 2200.23 294.001C2202.22 288.301 2205.04 283.404 2208.69 279.309C2212.35 275.214 2216.72 272.059 2221.81 269.846C2226.9 267.632 2232.52 266.525 2238.66 266.525C2245.02 266.525 2250.64 267.604 2255.51 269.763C2260.38 271.866 2264.45 274.854 2267.71 278.728C2270.98 282.601 2273.44 287.25 2275.1 292.673C2276.76 298.041 2277.59 303.99 2277.59 310.52V319.733H2207.2V304.626H2256.01V302.966C2255.9 299.479 2255.23 296.298 2254.02 293.42C2252.8 290.487 2250.92 288.163 2248.37 286.447C2245.83 284.676 2242.53 283.791 2238.49 283.791C2235.23 283.791 2232.38 284.51 2229.94 285.949C2227.56 287.333 2225.57 289.325 2223.97 291.926C2222.42 294.471 2221.26 297.515 2220.48 301.057C2219.71 304.598 2219.32 308.527 2219.32 312.844V316.164C2219.32 319.927 2219.82 323.413 2220.81 326.623C2221.86 329.833 2223.39 332.627 2225.38 335.007C2227.43 337.331 2229.86 339.157 2232.68 340.485C2235.56 341.758 2238.83 342.395 2242.48 342.395C2247.07 342.395 2251.22 341.509 2254.93 339.738C2258.69 337.912 2261.96 335.228 2264.72 331.687L2275.76 343.142C2273.88 345.909 2271.34 348.565 2268.13 351.11C2264.97 353.656 2261.15 355.731 2256.67 357.336C2252.19 358.885 2247.02 359.66 2241.15 359.66ZM2346.15 332.102L2371.39 268.186H2389.73L2353.62 358H2338.77L2302.74 268.186H2321.17L2346.15 332.102ZM2315.77 268.186V358H2293.78V268.186H2315.77ZM2376.95 358V268.186H2398.95V358H2376.95ZM2461.12 359.66C2454.31 359.66 2448.2 358.553 2442.78 356.34C2437.35 354.126 2432.73 351.055 2428.91 347.126C2425.15 343.142 2422.24 338.521 2420.2 333.264C2418.21 327.951 2417.21 322.251 2417.21 316.164V312.844C2417.21 305.926 2418.21 299.646 2420.2 294.001C2422.19 288.301 2425.01 283.404 2428.66 279.309C2432.32 275.214 2436.69 272.059 2441.78 269.846C2446.87 267.632 2452.49 266.525 2458.63 266.525C2464.99 266.525 2470.61 267.604 2475.48 269.763C2480.35 271.866 2484.42 274.854 2487.68 278.728C2490.95 282.601 2493.41 287.25 2495.07 292.673C2496.73 298.041 2497.56 303.99 2497.56 310.52V319.733H2427.17V304.626H2475.98V302.966C2475.87 299.479 2475.2 296.298 2473.99 293.42C2472.77 290.487 2470.89 288.163 2468.34 286.447C2465.8 284.676 2462.5 283.791 2458.46 283.791C2455.2 283.791 2452.35 284.51 2449.91 285.949C2447.53 287.333 2445.54 289.325 2443.94 291.926C2442.39 294.471 2441.23 297.515 2440.45 301.057C2439.68 304.598 2439.29 308.527 2439.29 312.844V316.164C2439.29 319.927 2439.79 323.413 2440.78 326.623C2441.83 329.833 2443.36 332.627 2445.35 335.007C2447.4 337.331 2449.83 339.157 2452.65 340.485C2455.53 341.758 2458.8 342.395 2462.45 342.395C2467.04 342.395 2471.19 341.509 2474.9 339.738C2478.66 337.912 2481.93 335.228 2484.69 331.687L2495.73 343.142C2493.85 345.909 2491.31 348.565 2488.1 351.11C2484.94 353.656 2481.12 355.731 2476.64 357.336C2472.16 358.885 2466.99 359.66 2461.12 359.66ZM2573.6 305.041V322.224H2527.53V305.041H2573.6ZM2534.42 268.186V358H2512.42V268.186H2534.42ZM2588.95 268.186V358H2566.87V268.186H2588.95ZM2670.22 305.041V322.224H2624.15V305.041H2670.22ZM2631.04 268.186V358H2609.04V268.186H2631.04ZM2685.57 268.186V358H2663.49V268.186H2685.57ZM2701.59 314.006V312.263C2701.59 305.677 2702.53 299.618 2704.42 294.084C2706.3 288.495 2709.04 283.653 2712.63 279.558C2716.23 275.463 2720.63 272.281 2725.83 270.012C2731.03 267.688 2736.96 266.525 2743.6 266.525C2750.35 266.525 2756.32 267.688 2761.53 270.012C2766.78 272.281 2771.21 275.463 2774.81 279.558C2778.4 283.653 2781.14 288.495 2783.02 294.084C2784.91 299.618 2785.85 305.677 2785.85 312.263V314.006C2785.85 320.536 2784.91 326.595 2783.02 332.185C2781.14 337.718 2778.4 342.561 2774.81 346.711C2771.21 350.806 2766.81 353.988 2761.61 356.257C2756.41 358.526 2750.46 359.66 2743.76 359.66C2737.12 359.66 2731.17 358.526 2725.92 356.257C2720.66 353.988 2716.23 350.806 2712.63 346.711C2709.04 342.561 2706.3 337.718 2704.42 332.185C2702.53 326.595 2701.59 320.536 2701.59 314.006ZM2723.51 312.263V314.006C2723.51 317.935 2723.9 321.615 2724.67 325.046C2725.44 328.477 2726.63 331.493 2728.24 334.094C2729.84 336.695 2731.92 338.742 2734.46 340.236C2737.07 341.675 2740.16 342.395 2743.76 342.395C2747.3 342.395 2750.35 341.675 2752.89 340.236C2755.44 338.742 2757.51 336.695 2759.12 334.094C2760.78 331.493 2762 328.477 2762.77 325.046C2763.55 321.615 2763.93 317.935 2763.93 314.006V312.263C2763.93 308.389 2763.55 304.764 2762.77 301.389C2762 297.958 2760.78 294.942 2759.12 292.341C2757.51 289.685 2755.41 287.609 2752.81 286.115C2750.26 284.566 2747.19 283.791 2743.6 283.791C2740.05 283.791 2737.01 284.566 2734.46 286.115C2731.92 287.609 2729.84 289.685 2728.24 292.341C2726.63 294.942 2725.44 297.958 2724.67 301.389C2723.9 304.764 2723.51 308.389 2723.51 312.263ZM2905.46 305.041V322.224H2859.39V305.041H2905.46ZM2866.28 268.186V358H2844.28V268.186H2866.28ZM2920.82 268.186V358H2898.74V268.186H2920.82ZM2981.08 359.66C2974.27 359.66 2968.16 358.553 2962.74 356.34C2957.31 354.126 2952.69 351.055 2948.87 347.126C2945.11 343.142 2942.21 338.521 2940.16 333.264C2938.17 327.951 2937.17 322.251 2937.17 316.164V312.844C2937.17 305.926 2938.17 299.646 2940.16 294.001C2942.15 288.301 2944.97 283.404 2948.62 279.309C2952.28 275.214 2956.65 272.059 2961.74 269.846C2966.83 267.632 2972.45 266.525 2978.59 266.525C2984.95 266.525 2990.57 267.604 2995.44 269.763C3000.31 271.866 3004.38 274.854 3007.64 278.728C3010.91 282.601 3013.37 287.25 3015.03 292.673C3016.69 298.041 3017.52 303.99 3017.52 310.52V319.733H2947.13V304.626H2995.94V302.966C2995.83 299.479 2995.16 296.298 2993.95 293.42C2992.73 290.487 2990.85 288.163 2988.3 286.447C2985.76 284.676 2982.46 283.791 2978.42 283.791C2975.16 283.791 2972.31 284.51 2969.88 285.949C2967.5 287.333 2965.5 289.325 2963.9 291.926C2962.35 294.471 2961.19 297.515 2960.41 301.057C2959.64 304.598 2959.25 308.527 2959.25 312.844V316.164C2959.25 319.927 2959.75 323.413 2960.74 326.623C2961.8 329.833 2963.32 332.627 2965.31 335.007C2967.36 337.331 2969.79 339.157 2972.61 340.485C2975.49 341.758 2978.76 342.395 2982.41 342.395C2987 342.395 2991.15 341.509 2994.86 339.738C2998.62 337.912 3001.89 335.228 3004.66 331.687L3015.7 343.142C3013.81 345.909 3011.27 348.565 3008.06 351.11C3004.9 353.656 3001.09 355.731 2996.6 357.336C2992.12 358.885 2986.95 359.66 2981.08 359.66ZM3048.4 268.186H3070.31L3069.48 299.064C3069.21 308.417 3068.1 316.496 3066.16 323.303C3064.28 330.054 3061.76 335.726 3058.61 340.319C3055.51 344.912 3051.97 348.62 3047.99 351.442C3044.06 354.265 3039.93 356.451 3035.62 358H3030.39L3030.3 340.9L3032.88 340.734C3035.48 337.967 3037.66 335.256 3039.44 332.6C3041.26 329.888 3042.73 326.983 3043.83 323.884C3044.94 320.785 3045.77 317.243 3046.33 313.259C3046.93 309.219 3047.32 304.488 3047.49 299.064L3048.4 268.186ZM3054.29 268.186H3112.48V358H3090.57V286.198H3054.29V268.186ZM3025.41 340.734H3125.02V384.895H3103.1V358H3047.74V384.895H3025.32L3025.41 340.734ZM3134.56 314.006V312.263C3134.56 305.677 3135.5 299.618 3137.38 294.084C3139.27 288.495 3142.01 283.653 3145.6 279.558C3149.2 275.463 3153.6 272.281 3158.8 270.012C3164 267.688 3169.92 266.525 3176.56 266.525C3183.32 266.525 3189.29 267.688 3194.49 270.012C3199.75 272.281 3204.18 275.463 3207.78 279.558C3211.37 283.653 3214.11 288.495 3215.99 294.084C3217.87 299.618 3218.82 305.677 3218.82 312.263V314.006C3218.82 320.536 3217.87 326.595 3215.99 332.185C3214.11 337.718 3211.37 342.561 3207.78 346.711C3204.18 350.806 3199.78 353.988 3194.58 356.257C3189.38 358.526 3183.43 359.66 3176.73 359.66C3170.09 359.66 3164.14 358.526 3158.88 356.257C3153.63 353.988 3149.2 350.806 3145.6 346.711C3142.01 342.561 3139.27 337.718 3137.38 332.185C3135.5 326.595 3134.56 320.536 3134.56 314.006ZM3156.48 312.263V314.006C3156.48 317.935 3156.86 321.615 3157.64 325.046C3158.41 328.477 3159.6 331.493 3161.21 334.094C3162.81 336.695 3164.89 338.742 3167.43 340.236C3170.03 341.675 3173.13 342.395 3176.73 342.395C3180.27 342.395 3183.32 341.675 3185.86 340.236C3188.41 338.742 3190.48 336.695 3192.09 334.094C3193.75 331.493 3194.96 328.477 3195.74 325.046C3196.51 321.615 3196.9 317.935 3196.9 314.006V312.263C3196.9 308.389 3196.51 304.764 3195.74 301.389C3194.96 297.958 3193.75 294.942 3192.09 292.341C3190.48 289.685 3188.38 287.609 3185.78 286.115C3183.23 284.566 3180.16 283.791 3176.56 283.791C3173.02 283.791 3169.98 284.566 3167.43 286.115C3164.89 287.609 3162.81 289.685 3161.21 292.341C3159.6 294.942 3158.41 297.958 3157.64 301.389C3156.86 304.764 3156.48 308.389 3156.48 312.263ZM3271.61 342.395C3274.71 342.395 3277.47 341.786 3279.91 340.568C3282.34 339.351 3284.28 337.635 3285.72 335.422C3287.21 333.208 3288.02 330.635 3288.13 327.702H3308.8C3308.69 333.789 3306.97 339.24 3303.65 344.055C3300.33 348.869 3295.9 352.688 3290.37 355.51C3284.89 358.277 3278.75 359.66 3271.94 359.66C3265.02 359.66 3258.99 358.498 3253.84 356.174C3248.7 353.85 3244.41 350.612 3240.98 346.462C3237.6 342.312 3235.06 337.497 3233.34 332.019C3231.68 326.54 3230.85 320.674 3230.85 314.421V311.765C3230.85 305.511 3231.68 299.646 3233.34 294.167C3235.06 288.688 3237.6 283.874 3240.98 279.724C3244.41 275.573 3248.7 272.336 3253.84 270.012C3258.99 267.688 3265 266.525 3271.86 266.525C3279.11 266.525 3285.47 267.937 3290.95 270.759C3296.48 273.581 3300.8 277.565 3303.9 282.712C3307.05 287.858 3308.69 293.918 3308.8 300.891H3288.13C3288.02 297.681 3287.3 294.803 3285.97 292.258C3284.64 289.712 3282.76 287.665 3280.32 286.115C3277.89 284.566 3274.93 283.791 3271.44 283.791C3267.73 283.791 3264.64 284.566 3262.15 286.115C3259.71 287.665 3257.8 289.795 3256.42 292.507C3255.09 295.163 3254.15 298.151 3253.6 301.472C3253.1 304.737 3252.85 308.168 3252.85 311.765V314.421C3252.85 318.073 3253.1 321.56 3253.6 324.88C3254.15 328.2 3255.09 331.188 3256.42 333.845C3257.8 336.446 3259.71 338.521 3262.15 340.07C3264.64 341.62 3267.79 342.395 3271.61 342.395ZM3366.98 268.186V358H3344.99V268.186H3366.98ZM3396.2 268.186V285.285H3316.27V268.186H3396.2ZM3436.38 348.039L3460.45 268.186H3483.94L3447.92 371.613C3447.09 373.827 3446.01 376.234 3444.68 378.835C3443.41 381.436 3441.69 383.898 3439.53 386.223C3437.38 388.602 3434.66 390.539 3431.4 392.033C3428.19 393.527 3424.29 394.274 3419.69 394.274C3417.7 394.274 3415.93 394.136 3414.38 393.859C3412.83 393.583 3411.2 393.223 3409.48 392.78V376.345C3410.04 376.4 3410.67 376.428 3411.39 376.428C3412.17 376.483 3412.83 376.511 3413.39 376.511C3416.6 376.511 3419.25 376.123 3421.35 375.349C3423.46 374.629 3425.15 373.439 3426.42 371.779C3427.75 370.174 3428.85 368.072 3429.74 365.471L3436.38 348.039ZM3424.51 268.186L3444.85 334.343L3448.42 357.502L3433.31 360.241L3400.85 268.186H3424.51ZM3554.83 268.186V285.534H3510.92V268.186H3554.83ZM3516.73 268.186V358H3494.73V268.186H3516.73ZM3571.43 268.186V358H3549.35V268.186H3571.43ZM3631.7 359.66C3624.89 359.66 3618.77 358.553 3613.35 356.34C3607.93 354.126 3603.31 351.055 3599.49 347.126C3595.73 343.142 3592.82 338.521 3590.77 333.264C3588.78 327.951 3587.79 322.251 3587.79 316.164V312.844C3587.79 305.926 3588.78 299.646 3590.77 294.001C3592.77 288.301 3595.59 283.404 3599.24 279.309C3602.89 275.214 3607.26 272.059 3612.36 269.846C3617.45 267.632 3623.06 266.525 3629.21 266.525C3635.57 266.525 3641.19 267.604 3646.06 269.763C3650.93 271.866 3654.99 274.854 3658.26 278.728C3661.52 282.601 3663.99 287.25 3665.65 292.673C3667.31 298.041 3668.14 303.99 3668.14 310.52V319.733H3597.75V304.626H3646.55V302.966C3646.44 299.479 3645.78 296.298 3644.56 293.42C3643.35 290.487 3641.46 288.163 3638.92 286.447C3636.37 284.676 3633.08 283.791 3629.04 283.791C3625.78 283.791 3622.93 284.51 3620.49 285.949C3618.11 287.333 3616.12 289.325 3614.51 291.926C3612.96 294.471 3611.8 297.515 3611.03 301.057C3610.25 304.598 3609.87 308.527 3609.87 312.844V316.164C3609.87 319.927 3610.36 323.413 3611.36 326.623C3612.41 329.833 3613.93 332.627 3615.92 335.007C3617.97 337.331 3620.41 339.157 3623.23 340.485C3626.11 341.758 3629.37 342.395 3633.02 342.395C3637.62 342.395 3641.77 341.509 3645.48 339.738C3649.24 337.912 3652.5 335.228 3655.27 331.687L3666.31 343.142C3664.43 345.909 3661.88 348.565 3658.67 351.11C3655.52 353.656 3651.7 355.731 3647.22 357.336C3642.74 358.885 3637.56 359.66 3631.7 359.66ZM3744.17 305.041V322.224H3698.1V305.041H3744.17ZM3704.99 268.186V358H3683V268.186H3704.99ZM3759.53 268.186V358H3737.45V268.186H3759.53Z" fill="white"/>
<path d="M4834.19 371.953C4826.38 371.953 4819.32 370.684 4813 368.145C4806.75 365.54 4801.41 361.927 4796.98 357.305C4792.62 352.682 4789.27 347.246 4786.93 340.996C4784.58 334.746 4783.41 328.008 4783.41 320.781V316.875C4783.41 308.607 4784.61 301.12 4787.02 294.414C4789.43 287.708 4792.79 281.979 4797.08 277.227C4801.38 272.409 4806.46 268.73 4812.32 266.191C4818.18 263.652 4824.52 262.383 4831.36 262.383C4838.91 262.383 4845.52 263.652 4851.18 266.191C4856.85 268.73 4861.54 272.311 4865.25 276.934C4869.02 281.491 4871.82 286.927 4873.64 293.242C4875.53 299.557 4876.48 306.523 4876.48 314.141V324.199H4794.84V307.305H4853.23V305.449C4853.1 301.217 4852.26 297.246 4850.7 293.535C4849.2 289.824 4846.89 286.829 4843.76 284.551C4840.64 282.272 4836.47 281.133 4831.26 281.133C4827.36 281.133 4823.87 281.979 4820.81 283.672C4817.82 285.299 4815.31 287.676 4813.29 290.801C4811.27 293.926 4809.71 297.702 4808.61 302.129C4807.56 306.491 4807.04 311.406 4807.04 316.875V320.781C4807.04 325.404 4807.66 329.701 4808.9 333.672C4810.2 337.578 4812.09 340.996 4814.56 343.926C4817.04 346.855 4820.03 349.167 4823.55 350.859C4827.06 352.487 4831.07 353.301 4835.56 353.301C4841.22 353.301 4846.27 352.161 4850.7 349.883C4855.12 347.604 4858.96 344.382 4862.22 340.215L4874.62 352.227C4872.34 355.547 4869.38 358.737 4865.73 361.797C4862.09 364.792 4857.63 367.233 4852.36 369.121C4847.15 371.009 4841.09 371.953 4834.19 371.953ZM4918.47 284.453V370H4894.93V264.336H4917.39L4918.47 284.453ZM4950.79 263.652L4950.6 285.527C4949.17 285.267 4947.6 285.072 4945.91 284.941C4944.28 284.811 4942.65 284.746 4941.03 284.746C4936.99 284.746 4933.44 285.332 4930.38 286.504C4927.32 287.611 4924.75 289.238 4922.67 291.387C4920.65 293.47 4919.09 296.009 4917.98 299.004C4916.87 301.999 4916.22 305.352 4916.03 309.062L4910.66 309.453C4910.66 302.812 4911.31 296.66 4912.61 290.996C4913.91 285.332 4915.86 280.352 4918.47 276.055C4921.14 271.758 4924.46 268.405 4928.43 265.996C4932.47 263.587 4937.12 262.383 4942.39 262.383C4943.83 262.383 4945.36 262.513 4946.98 262.773C4948.68 263.034 4949.95 263.327 4950.79 263.652ZM5059.48 351.25V370H4964.17V353.887L5010.46 303.398C5015.54 297.669 5019.54 292.721 5022.47 288.555C5025.4 284.388 5027.45 280.645 5028.62 277.324C5029.86 273.939 5030.48 270.651 5030.48 267.461C5030.48 262.969 5029.63 259.03 5027.94 255.645C5026.31 252.194 5023.9 249.492 5020.71 247.539C5017.52 245.521 5013.65 244.512 5009.09 244.512C5003.82 244.512 4999.39 245.651 4995.81 247.93C4992.23 250.208 4989.53 253.366 4987.71 257.402C4985.88 261.374 4984.97 265.931 4984.97 271.074H4961.44C4961.44 262.806 4963.33 255.254 4967.1 248.418C4970.88 241.517 4976.35 236.048 4983.51 232.012C4990.67 227.91 4999.3 225.859 5009.39 225.859C5018.89 225.859 5026.96 227.454 5033.61 230.645C5040.25 233.835 5045.29 238.359 5048.74 244.219C5052.26 250.078 5054.02 257.012 5054.02 265.02C5054.02 269.447 5053.3 273.841 5051.87 278.203C5050.43 282.565 5048.38 286.927 5045.71 291.289C5043.11 295.586 5040.02 299.915 5036.44 304.277C5032.86 308.574 5028.92 312.936 5024.62 317.363L4993.86 351.25H5059.48ZM5170.52 286.992V310.234C5170.52 321.367 5169.41 330.872 5167.2 338.75C5165.05 346.562 5161.93 352.91 5157.82 357.793C5153.72 362.676 5148.81 366.257 5143.08 368.535C5137.41 370.814 5131.07 371.953 5124.04 371.953C5118.44 371.953 5113.23 371.237 5108.41 369.805C5103.66 368.372 5099.36 366.126 5095.52 363.066C5091.68 360.007 5088.39 356.068 5085.66 351.25C5082.99 346.367 5080.9 340.54 5079.41 333.77C5077.97 326.999 5077.26 319.154 5077.26 310.234V286.992C5077.26 275.794 5078.36 266.354 5080.58 258.672C5082.79 250.924 5085.95 244.642 5090.05 239.824C5094.15 234.941 5099.04 231.393 5104.7 229.18C5110.43 226.966 5116.81 225.859 5123.84 225.859C5129.5 225.859 5134.71 226.576 5139.46 228.008C5144.28 229.375 5148.58 231.556 5152.36 234.551C5156.2 237.546 5159.45 241.452 5162.12 246.27C5164.86 251.022 5166.94 256.784 5168.37 263.555C5169.8 270.26 5170.52 278.073 5170.52 286.992ZM5146.98 313.555V283.477C5146.98 277.812 5146.66 272.832 5146.01 268.535C5145.36 264.173 5144.38 260.495 5143.08 257.5C5141.84 254.44 5140.28 251.966 5138.39 250.078C5136.5 248.125 5134.35 246.725 5131.95 245.879C5129.54 244.967 5126.83 244.512 5123.84 244.512C5120.19 244.512 5116.94 245.228 5114.07 246.66C5111.21 248.027 5108.8 250.241 5106.85 253.301C5104.89 256.361 5103.4 260.397 5102.36 265.41C5101.38 270.358 5100.89 276.38 5100.89 283.477V313.555C5100.89 319.284 5101.22 324.329 5101.87 328.691C5102.52 333.053 5103.49 336.797 5104.8 339.922C5106.1 342.982 5107.66 345.521 5109.48 347.539C5111.37 349.492 5113.52 350.924 5115.93 351.836C5118.4 352.747 5121.11 353.203 5124.04 353.203C5127.75 353.203 5131.03 352.487 5133.9 351.055C5136.76 349.622 5139.17 347.344 5141.12 344.219C5143.08 341.029 5144.54 336.895 5145.52 331.816C5146.5 326.738 5146.98 320.651 5146.98 313.555ZM5255.77 227.324V370H5232.24V255.254L5197.38 267.07V247.637L5252.94 227.324H5255.77ZM5307.53 358.281C5307.53 354.635 5308.77 351.576 5311.24 349.102C5313.72 346.562 5317.07 345.293 5321.3 345.293C5325.6 345.293 5328.95 346.562 5331.36 349.102C5333.83 351.576 5335.07 354.635 5335.07 358.281C5335.07 361.927 5333.83 364.987 5331.36 367.461C5328.95 369.935 5325.6 371.172 5321.3 371.172C5317.07 371.172 5313.72 369.935 5311.24 367.461C5308.77 364.987 5307.53 361.927 5307.53 358.281Z" fill="#7666C4"/>
<path fill-rule="evenodd" clip-rule="evenodd" d="M620.5 300C620.5 197.825 537.675 115 435.5 115C333.325 115 250.5 197.825 250.5 300C250.5 402.175 333.325 485 435.5 485C537.675 485 620.5 402.175 620.5 300ZM435.5 207.5C440.407 207.5 445.112 209.449 448.581 212.919C452.051 216.388 454 221.093 454 226V318.5C454 323.407 452.051 328.112 448.581 331.581C445.112 335.051 440.407 337 435.5 337C430.593 337 425.888 335.051 422.419 331.581C418.949 328.112 417 323.407 417 318.5V226C417 221.093 418.949 216.388 422.419 212.919C425.888 209.449 430.593 207.5 435.5 207.5ZM417 374C417 369.093 418.949 364.388 422.419 360.919C425.888 357.449 430.593 355.5 435.5 355.5H435.648C440.555 355.5 445.26 357.449 448.729 360.919C452.199 364.388 454.148 369.093 454.148 374C454.148 378.907 452.199 383.612 448.729 387.081C445.26 390.551 440.555 392.5 435.648 392.5H435.5C430.593 392.5 425.888 390.551 422.419 387.081C418.949 383.612 417 378.907 417 374Z" fill="#E6E6E6"/>
</svg>
