<svg width="5601" height="600" viewBox="0 0 5601 600" fill="none" xmlns="http://www.w3.org/2000/svg">
<rect x="0.5" width="5600" height="600" rx="75" fill="#131313"/>
<path d="M1117.14 240.07V258H1052.89V240.07H1117.14ZM1059.87 137.141V258H1037.04V137.141H1059.87ZM1108.76 187.028V204.543H1052.89V187.028H1108.76ZM1116.89 137.141V155.153H1052.89V137.141H1116.89ZM1166.53 242.395C1169.63 242.395 1172.4 241.786 1174.83 240.568C1177.27 239.351 1179.2 237.635 1180.64 235.422C1182.14 233.208 1182.94 230.635 1183.05 227.702H1203.72C1203.61 233.789 1201.89 239.24 1198.57 244.055C1195.25 248.869 1190.82 252.688 1185.29 255.51C1179.81 258.277 1173.67 259.66 1166.86 259.66C1159.94 259.66 1153.91 258.498 1148.77 256.174C1143.62 253.85 1139.33 250.612 1135.9 246.462C1132.52 242.312 1129.98 237.497 1128.26 232.019C1126.6 226.54 1125.77 220.674 1125.77 214.421V211.765C1125.77 205.511 1126.6 199.646 1128.26 194.167C1129.98 188.688 1132.52 183.874 1135.9 179.724C1139.33 175.573 1143.62 172.336 1148.77 170.012C1153.91 167.688 1159.92 166.525 1166.78 166.525C1174.03 166.525 1180.39 167.937 1185.87 170.759C1191.4 173.581 1195.72 177.565 1198.82 182.712C1201.97 187.858 1203.61 193.918 1203.72 200.891H1183.05C1182.94 197.681 1182.22 194.803 1180.89 192.258C1179.56 189.712 1177.68 187.665 1175.25 186.115C1172.81 184.566 1169.85 183.791 1166.36 183.791C1162.66 183.791 1159.56 184.566 1157.07 186.115C1154.63 187.665 1152.72 189.795 1151.34 192.507C1150.01 195.163 1149.07 198.151 1148.52 201.472C1148.02 204.737 1147.77 208.168 1147.77 211.765V214.421C1147.77 218.073 1148.02 221.56 1148.52 224.88C1149.07 228.2 1150.01 231.188 1151.34 233.845C1152.72 236.446 1154.63 238.521 1157.07 240.07C1159.56 241.62 1162.71 242.395 1166.53 242.395ZM1278.67 168.186V185.534H1234.68V168.186H1278.67ZM1295.19 168.186V258H1273.28V168.186H1295.19ZM1229.2 168.186H1250.87L1248.46 213.01C1248.07 219.595 1247.38 225.378 1246.38 230.358C1245.39 235.284 1244.06 239.517 1242.4 243.059C1240.74 246.545 1238.72 249.395 1236.34 251.608C1233.96 253.822 1231.19 255.454 1228.04 256.506C1224.94 257.502 1221.45 258 1217.58 258H1210.86L1210.61 240.319L1213.76 240.07C1215.7 239.904 1217.36 239.379 1218.74 238.493C1220.18 237.608 1221.4 236.335 1222.39 234.675C1223.45 233.015 1224.3 230.884 1224.97 228.283C1225.69 225.627 1226.24 222.528 1226.63 218.986C1227.07 215.389 1227.38 211.239 1227.54 206.535L1229.2 168.186ZM1337.44 226.706L1370.15 168.186H1392.15V258H1370.15V199.396L1337.44 258H1315.45V168.186H1337.44V226.706ZM1514.67 168.186V185.534H1470.75V168.186H1514.67ZM1476.56 168.186V258H1454.57V168.186H1476.56ZM1531.27 168.186V258H1509.19V168.186H1531.27ZM1573.1 185.451V292.531H1551.11V168.186H1571.44L1573.1 185.451ZM1630.79 212.18V213.923C1630.79 220.453 1630.02 226.512 1628.47 232.102C1626.97 237.635 1624.76 242.478 1621.83 246.628C1618.9 250.723 1615.24 253.933 1610.87 256.257C1606.55 258.526 1601.57 259.66 1595.93 259.66C1590.4 259.66 1585.58 258.609 1581.49 256.506C1577.39 254.348 1573.93 251.304 1571.11 247.375C1568.29 243.446 1566.02 238.881 1564.3 233.679C1562.64 228.422 1561.4 222.694 1560.57 216.496V210.935C1561.4 204.349 1562.64 198.373 1564.3 193.005C1566.02 187.582 1568.29 182.906 1571.11 178.977C1573.93 174.992 1577.36 171.921 1581.4 169.763C1585.5 167.604 1590.29 166.525 1595.76 166.525C1601.46 166.525 1606.47 167.604 1610.79 169.763C1615.16 171.921 1618.84 175.02 1621.83 179.06C1624.82 183.099 1627.06 187.914 1628.55 193.503C1630.05 199.092 1630.79 205.318 1630.79 212.18ZM1608.8 213.923V212.18C1608.8 208.195 1608.44 204.515 1607.72 201.14C1607 197.709 1605.89 194.72 1604.4 192.175C1602.9 189.574 1600.97 187.554 1598.59 186.115C1596.21 184.676 1593.33 183.957 1589.95 183.957C1586.58 183.957 1583.67 184.51 1581.24 185.617C1578.8 186.724 1576.81 188.301 1575.26 190.349C1573.71 192.396 1572.49 194.831 1571.61 197.653C1570.78 200.42 1570.22 203.492 1569.95 206.867V220.646C1570.45 224.742 1571.41 228.422 1572.85 231.687C1574.29 234.951 1576.4 237.552 1579.16 239.489C1581.98 241.426 1585.64 242.395 1590.12 242.395C1593.49 242.395 1596.37 241.647 1598.75 240.153C1601.13 238.659 1603.07 236.612 1604.56 234.011C1606.06 231.354 1607.14 228.311 1607.8 224.88C1608.46 221.449 1608.8 217.797 1608.8 213.923ZM1668.98 226.706L1701.68 168.186H1723.68V258H1701.68V199.396L1668.98 258H1646.98V168.186H1668.98V226.706ZM1803.95 168.186V185.534H1759.95V168.186H1803.95ZM1820.47 168.186V258H1798.55V168.186H1820.47ZM1754.47 168.186H1776.14L1773.73 213.01C1773.35 219.595 1772.65 225.378 1771.66 230.358C1770.66 235.284 1769.33 239.517 1767.67 243.059C1766.01 246.545 1763.99 249.395 1761.61 251.608C1759.23 253.822 1756.47 255.454 1753.31 256.506C1750.21 257.502 1746.73 258 1742.85 258H1736.13L1735.88 240.319L1739.04 240.07C1740.97 239.904 1742.63 239.379 1744.02 238.493C1745.45 237.608 1746.67 236.335 1747.67 234.675C1748.72 233.015 1749.58 230.884 1750.24 228.283C1750.96 225.627 1751.51 222.528 1751.9 218.986C1752.34 215.389 1752.65 211.239 1752.81 206.535L1754.47 168.186ZM1836.65 214.006V212.263C1836.65 205.677 1837.59 199.618 1839.47 194.084C1841.36 188.495 1844.1 183.653 1847.69 179.558C1851.29 175.463 1855.69 172.281 1860.89 170.012C1866.09 167.688 1872.01 166.525 1878.65 166.525C1885.41 166.525 1891.38 167.688 1896.58 170.012C1901.84 172.281 1906.27 175.463 1909.87 179.558C1913.46 183.653 1916.2 188.495 1918.08 194.084C1919.96 199.618 1920.91 205.677 1920.91 212.263V214.006C1920.91 220.536 1919.96 226.595 1918.08 232.185C1916.2 237.718 1913.46 242.561 1909.87 246.711C1906.27 250.806 1901.87 253.988 1896.67 256.257C1891.47 258.526 1885.52 259.66 1878.82 259.66C1872.18 259.66 1866.23 258.526 1860.97 256.257C1855.72 253.988 1851.29 250.806 1847.69 246.711C1844.1 242.561 1841.36 237.718 1839.47 232.185C1837.59 226.595 1836.65 220.536 1836.65 214.006ZM1858.57 212.263V214.006C1858.57 217.935 1858.95 221.615 1859.73 225.046C1860.5 228.477 1861.69 231.493 1863.3 234.094C1864.9 236.695 1866.98 238.742 1869.52 240.236C1872.12 241.675 1875.22 242.395 1878.82 242.395C1882.36 242.395 1885.41 241.675 1887.95 240.236C1890.5 238.742 1892.57 236.695 1894.18 234.094C1895.84 231.493 1897.05 228.477 1897.83 225.046C1898.6 221.615 1898.99 217.935 1898.99 214.006V212.263C1898.99 208.389 1898.6 204.764 1897.83 201.389C1897.05 197.958 1895.84 194.942 1894.18 192.341C1892.57 189.685 1890.47 187.609 1887.87 186.115C1885.32 184.566 1882.25 183.791 1878.65 183.791C1875.11 183.791 1872.07 184.566 1869.52 186.115C1866.98 187.609 1864.9 189.685 1863.3 192.341C1861.69 194.942 1860.5 197.958 1859.73 201.389C1858.95 204.764 1858.57 208.389 1858.57 212.263ZM1965.65 222.971L1929.12 168.186H1956.18L1976.19 202.8H1993.54L1990.8 222.971H1965.65ZM1976.6 219.484L1954.86 258H1928.21L1959.34 208.029L1976.6 219.484ZM2007.32 168.186V258H1985.4V168.186H2007.32ZM2063.84 168.186L2027.24 222.971H2002.09L1999.35 202.8H2016.7L2036.7 168.186H2063.84ZM2038.03 258L2016.28 219.484L2034.13 208.029L2065.17 258H2038.03ZM2115.97 259.66C2109.17 259.66 2103.05 258.553 2097.63 256.34C2092.21 254.126 2087.58 251.055 2083.77 247.126C2080 243.142 2077.1 238.521 2075.05 233.264C2073.06 227.951 2072.06 222.251 2072.06 216.164V212.844C2072.06 205.926 2073.06 199.646 2075.05 194.001C2077.04 188.301 2079.87 183.404 2083.52 179.309C2087.17 175.214 2091.54 172.059 2096.63 169.846C2101.72 167.632 2107.34 166.525 2113.48 166.525C2119.85 166.525 2125.46 167.604 2130.33 169.763C2135.2 171.866 2139.27 174.854 2142.54 178.728C2145.8 182.601 2148.26 187.25 2149.92 192.673C2151.58 198.041 2152.41 203.99 2152.41 210.52V219.733H2082.02V204.626H2130.83V202.966C2130.72 199.479 2130.06 196.298 2128.84 193.42C2127.62 190.487 2125.74 188.163 2123.2 186.447C2120.65 184.676 2117.36 183.791 2113.32 183.791C2110.05 183.791 2107.2 184.51 2104.77 185.949C2102.39 187.333 2100.4 189.325 2098.79 191.926C2097.24 194.471 2096.08 197.515 2095.3 201.057C2094.53 204.598 2094.14 208.527 2094.14 212.844V216.164C2094.14 219.927 2094.64 223.413 2095.64 226.623C2096.69 229.833 2098.21 232.627 2100.2 235.007C2102.25 237.331 2104.68 239.157 2107.51 240.485C2110.38 241.758 2113.65 242.395 2117.3 242.395C2121.89 242.395 2126.05 241.509 2129.75 239.738C2133.52 237.912 2136.78 235.228 2139.55 231.687L2150.59 243.142C2148.71 245.909 2146.16 248.565 2142.95 251.11C2139.8 253.656 2135.98 255.731 2131.5 257.336C2127.01 258.885 2121.84 259.66 2115.97 259.66ZM2228.45 205.041V222.224H2182.38V205.041H2228.45ZM2189.27 168.186V258H2167.27V168.186H2189.27ZM2243.81 168.186V258H2221.73V168.186H2243.81ZM2285.89 226.706L2318.6 168.186H2340.59V258H2318.6V199.396L2285.89 258H2263.89V168.186H2285.89V226.706ZM2400.86 259.66C2394.05 259.66 2387.93 258.553 2382.51 256.34C2377.09 254.126 2372.47 251.055 2368.65 247.126C2364.89 243.142 2361.98 238.521 2359.93 233.264C2357.94 227.951 2356.95 222.251 2356.95 216.164V212.844C2356.95 205.926 2357.94 199.646 2359.93 194.001C2361.93 188.301 2364.75 183.404 2368.4 179.309C2372.05 175.214 2376.42 172.059 2381.52 169.846C2386.61 167.632 2392.22 166.525 2398.37 166.525C2404.73 166.525 2410.35 167.604 2415.22 169.763C2420.09 171.866 2424.15 174.854 2427.42 178.728C2430.68 182.601 2433.15 187.25 2434.81 192.673C2436.47 198.041 2437.3 203.99 2437.3 210.52V219.733H2366.91V204.626H2415.71V202.966C2415.6 199.479 2414.94 196.298 2413.72 193.42C2412.51 190.487 2410.62 188.163 2408.08 186.447C2405.53 184.676 2402.24 183.791 2398.2 183.791C2394.94 183.791 2392.09 184.51 2389.65 185.949C2387.27 187.333 2385.28 189.325 2383.67 191.926C2382.12 194.471 2380.96 197.515 2380.19 201.057C2379.41 204.598 2379.03 208.527 2379.03 212.844V216.164C2379.03 219.927 2379.52 223.413 2380.52 226.623C2381.57 229.833 2383.09 232.627 2385.08 235.007C2387.13 237.331 2389.57 239.157 2392.39 240.485C2395.27 241.758 2398.53 242.395 2402.18 242.395C2406.78 242.395 2410.93 241.509 2414.64 239.738C2418.4 237.912 2421.66 235.228 2424.43 231.687L2435.47 243.142C2433.59 245.909 2431.04 248.565 2427.83 251.11C2424.68 253.656 2420.86 255.731 2416.38 257.336C2411.9 258.885 2406.72 259.66 2400.86 259.66ZM2555.67 205.041V222.224H2509.6V205.041H2555.67ZM2516.49 168.186V258H2494.49V168.186H2516.49ZM2571.02 168.186V258H2548.94V168.186H2571.02ZM2631.29 259.66C2624.48 259.66 2618.36 258.553 2612.94 256.34C2607.52 254.126 2602.9 251.055 2599.08 247.126C2595.32 243.142 2592.41 238.521 2590.36 233.264C2588.37 227.951 2587.38 222.251 2587.38 216.164V212.844C2587.38 205.926 2588.37 199.646 2590.36 194.001C2592.36 188.301 2595.18 183.404 2598.83 179.309C2602.48 175.214 2606.85 172.059 2611.95 169.846C2617.04 167.632 2622.65 166.525 2628.8 166.525C2635.16 166.525 2640.78 167.604 2645.65 169.763C2650.52 171.866 2654.58 174.854 2657.85 178.728C2661.11 182.601 2663.58 187.25 2665.24 192.673C2666.9 198.041 2667.73 203.99 2667.73 210.52V219.733H2597.34V204.626H2646.14V202.966C2646.03 199.479 2645.37 196.298 2644.15 193.42C2642.93 190.487 2641.05 188.163 2638.51 186.447C2635.96 184.676 2632.67 183.791 2628.63 183.791C2625.36 183.791 2622.51 184.51 2620.08 185.949C2617.7 187.333 2615.71 189.325 2614.1 191.926C2612.55 194.471 2611.39 197.515 2610.62 201.057C2609.84 204.598 2609.46 208.527 2609.46 212.844V216.164C2609.46 219.927 2609.95 223.413 2610.95 226.623C2612 229.833 2613.52 232.627 2615.51 235.007C2617.56 237.331 2620 239.157 2622.82 240.485C2625.7 241.758 2628.96 242.395 2632.61 242.395C2637.21 242.395 2641.36 241.509 2645.07 239.738C2648.83 237.912 2652.09 235.228 2654.86 231.687L2665.9 243.142C2664.02 245.909 2661.47 248.565 2658.26 251.11C2655.11 253.656 2651.29 255.731 2646.81 257.336C2642.33 258.885 2637.15 259.66 2631.29 259.66ZM2761.61 242.395C2764.71 242.395 2767.47 241.786 2769.91 240.568C2772.34 239.351 2774.28 237.635 2775.72 235.422C2777.21 233.208 2778.02 230.635 2778.13 227.702H2798.8C2798.69 233.789 2796.97 239.24 2793.65 244.055C2790.33 248.869 2785.9 252.688 2780.37 255.51C2774.89 258.277 2768.75 259.66 2761.94 259.66C2755.02 259.66 2748.99 258.498 2743.84 256.174C2738.7 253.85 2734.41 250.612 2730.98 246.462C2727.6 242.312 2725.06 237.497 2723.34 232.019C2721.68 226.54 2720.85 220.674 2720.85 214.421V211.765C2720.85 205.511 2721.68 199.646 2723.34 194.167C2725.06 188.688 2727.6 183.874 2730.98 179.724C2734.41 175.573 2738.7 172.336 2743.84 170.012C2748.99 167.688 2755 166.525 2761.86 166.525C2769.11 166.525 2775.47 167.937 2780.95 170.759C2786.48 173.581 2790.8 177.565 2793.9 182.712C2797.05 187.858 2798.69 193.918 2798.8 200.891H2778.13C2778.02 197.681 2777.3 194.803 2775.97 192.258C2774.64 189.712 2772.76 187.665 2770.32 186.115C2767.89 184.566 2764.93 183.791 2761.44 183.791C2757.73 183.791 2754.64 184.566 2752.15 186.115C2749.71 187.665 2747.8 189.795 2746.42 192.507C2745.09 195.163 2744.15 198.151 2743.6 201.472C2743.1 204.737 2742.85 208.168 2742.85 211.765V214.421C2742.85 218.073 2743.1 221.56 2743.6 224.88C2744.15 228.2 2745.09 231.188 2746.42 233.845C2747.8 236.446 2749.71 238.521 2752.15 240.07C2754.64 241.62 2757.79 242.395 2761.61 242.395ZM2857.57 219.982H2829.09L2828.93 205.124H2852.34C2855.82 205.124 2858.67 204.764 2860.89 204.045C2863.1 203.326 2864.73 202.246 2865.78 200.808C2866.89 199.369 2867.44 197.626 2867.44 195.578C2867.44 193.807 2867.11 192.285 2866.45 191.013C2865.78 189.685 2864.79 188.605 2863.46 187.775C2862.19 186.945 2860.55 186.337 2858.56 185.949C2856.62 185.507 2854.36 185.285 2851.75 185.285H2836.9V258H2814.9V168.186H2851.75C2857.57 168.186 2862.79 168.711 2867.44 169.763C2872.09 170.759 2876.05 172.281 2879.31 174.328C2882.58 176.376 2885.07 178.977 2886.78 182.131C2888.56 185.23 2889.44 188.882 2889.44 193.088C2889.44 195.855 2888.83 198.456 2887.61 200.891C2886.4 203.326 2884.6 205.484 2882.22 207.365C2879.84 209.247 2876.91 210.796 2873.42 212.014C2869.93 213.176 2865.95 213.895 2861.47 214.172L2857.57 219.982ZM2857.57 258H2823.2L2831.33 240.9H2857.57C2860.78 240.9 2863.43 240.513 2865.53 239.738C2867.64 238.908 2869.19 237.718 2870.18 236.169C2871.23 234.619 2871.76 232.738 2871.76 230.524C2871.76 228.366 2871.26 226.512 2870.27 224.963C2869.32 223.358 2867.8 222.141 2865.7 221.311C2863.65 220.425 2860.94 219.982 2857.57 219.982H2834.9L2835.07 205.124H2861.38L2867.19 211.018C2873.17 211.405 2878.12 212.622 2882.05 214.67C2885.98 216.662 2888.91 219.208 2890.85 222.307C2892.79 225.35 2893.76 228.698 2893.76 232.351C2893.76 236.612 2892.95 240.347 2891.35 243.557C2889.74 246.766 2887.39 249.45 2884.29 251.608C2881.19 253.711 2877.4 255.316 2872.92 256.423C2868.44 257.474 2863.32 258 2857.57 258ZM2950.04 259.66C2943.23 259.66 2937.11 258.553 2931.69 256.34C2926.27 254.126 2921.65 251.055 2917.83 247.126C2914.07 243.142 2911.16 238.521 2909.11 233.264C2907.12 227.951 2906.12 222.251 2906.12 216.164V212.844C2906.12 205.926 2907.12 199.646 2909.11 194.001C2911.11 188.301 2913.93 183.404 2917.58 179.309C2921.23 175.214 2925.6 172.059 2930.7 169.846C2935.79 167.632 2941.4 166.525 2947.55 166.525C2953.91 166.525 2959.53 167.604 2964.4 169.763C2969.27 171.866 2973.33 174.854 2976.6 178.728C2979.86 182.601 2982.33 187.25 2983.99 192.673C2985.65 198.041 2986.48 203.99 2986.48 210.52V219.733H2916.09V204.626H2964.89V202.966C2964.78 199.479 2964.12 196.298 2962.9 193.42C2961.68 190.487 2959.8 188.163 2957.26 186.447C2954.71 184.676 2951.42 183.791 2947.38 183.791C2944.11 183.791 2941.26 184.51 2938.83 185.949C2936.45 187.333 2934.46 189.325 2932.85 191.926C2931.3 194.471 2930.14 197.515 2929.37 201.057C2928.59 204.598 2928.21 208.527 2928.21 212.844V216.164C2928.21 219.927 2928.7 223.413 2929.7 226.623C2930.75 229.833 2932.27 232.627 2934.26 235.007C2936.31 237.331 2938.75 239.157 2941.57 240.485C2944.45 241.758 2947.71 242.395 2951.36 242.395C2955.96 242.395 2960.11 241.509 2963.82 239.738C2967.58 237.912 2970.84 235.228 2973.61 231.687L2984.65 243.142C2982.77 245.909 2980.22 248.565 2977.01 251.11C2973.86 253.656 2970.04 255.731 2965.56 257.336C2961.08 258.885 2955.9 259.66 2950.04 259.66ZM3023.08 185.451V292.531H3001.09V168.186H3021.42L3023.08 185.451ZM3080.77 212.18V213.923C3080.77 220.453 3080 226.512 3078.45 232.102C3076.96 237.635 3074.74 242.478 3071.81 246.628C3068.88 250.723 3065.22 253.933 3060.85 256.257C3056.54 258.526 3051.55 259.66 3045.91 259.66C3040.38 259.66 3035.56 258.609 3031.47 256.506C3027.37 254.348 3023.91 251.304 3021.09 247.375C3018.27 243.446 3016 238.881 3014.28 233.679C3012.62 228.422 3011.38 222.694 3010.55 216.496V210.935C3011.38 204.349 3012.62 198.373 3014.28 193.005C3016 187.582 3018.27 182.906 3021.09 178.977C3023.91 174.992 3027.34 171.921 3031.38 169.763C3035.48 167.604 3040.27 166.525 3045.74 166.525C3051.44 166.525 3056.45 167.604 3060.77 169.763C3065.14 171.921 3068.82 175.02 3071.81 179.06C3074.8 183.099 3077.04 187.914 3078.53 193.503C3080.03 199.092 3080.77 205.318 3080.77 212.18ZM3058.78 213.923V212.18C3058.78 208.195 3058.42 204.515 3057.7 201.14C3056.98 197.709 3055.87 194.72 3054.38 192.175C3052.88 189.574 3050.95 187.554 3048.57 186.115C3046.19 184.676 3043.31 183.957 3039.93 183.957C3036.56 183.957 3033.65 184.51 3031.22 185.617C3028.78 186.724 3026.79 188.301 3025.24 190.349C3023.69 192.396 3022.47 194.831 3021.59 197.653C3020.76 200.42 3020.21 203.492 3019.93 206.867V220.646C3020.43 224.742 3021.4 228.422 3022.83 231.687C3024.27 234.951 3026.38 237.552 3029.14 239.489C3031.96 241.426 3035.62 242.395 3040.1 242.395C3043.48 242.395 3046.35 241.647 3048.73 240.153C3051.11 238.659 3053.05 236.612 3054.54 234.011C3056.04 231.354 3057.12 228.311 3057.78 224.88C3058.44 221.449 3058.78 217.797 3058.78 213.923ZM3158.14 205.041V222.224H3112.07V205.041H3158.14ZM3118.96 168.186V258H3096.96V168.186H3118.96ZM3173.49 168.186V258H3151.41V168.186H3173.49ZM3219.73 248.039L3243.8 168.186H3267.29L3231.27 271.613C3230.44 273.827 3229.36 276.234 3228.03 278.835C3226.76 281.436 3225.04 283.898 3222.88 286.223C3220.72 288.602 3218.01 290.539 3214.75 292.033C3211.54 293.527 3207.64 294.274 3203.04 294.274C3201.05 294.274 3199.28 294.136 3197.73 293.859C3196.18 293.583 3194.55 293.223 3192.83 292.78V276.345C3193.39 276.4 3194.02 276.428 3194.74 276.428C3195.52 276.483 3196.18 276.511 3196.74 276.511C3199.94 276.511 3202.6 276.123 3204.7 275.349C3206.81 274.629 3208.49 273.439 3209.77 271.779C3211.1 270.174 3212.2 268.072 3213.09 265.471L3219.73 248.039ZM3207.86 168.186L3228.2 234.343L3231.76 257.502L3216.66 260.241L3184.2 168.186H3207.86ZM3334.78 168.186V185.534H3290.78V168.186H3334.78ZM3351.3 168.186V258H3329.38V168.186H3351.3ZM3285.3 168.186H3306.97L3304.56 213.01C3304.18 219.595 3303.48 225.378 3302.49 230.358C3301.49 235.284 3300.16 239.517 3298.5 243.059C3296.84 246.545 3294.82 249.395 3292.44 251.608C3290.06 253.822 3287.3 255.454 3284.14 256.506C3281.04 257.502 3277.56 258 3273.68 258H3266.96L3266.71 240.319L3269.87 240.07C3271.8 239.904 3273.46 239.379 3274.85 238.493C3276.28 237.608 3277.5 236.335 3278.5 234.675C3279.55 233.015 3280.41 230.884 3281.07 228.283C3281.79 225.627 3282.34 222.528 3282.73 218.986C3283.17 215.389 3283.48 211.239 3283.64 206.535L3285.3 168.186ZM3367.48 214.006V212.263C3367.48 205.677 3368.42 199.618 3370.3 194.084C3372.19 188.495 3374.93 183.653 3378.52 179.558C3382.12 175.463 3386.52 172.281 3391.72 170.012C3396.92 167.688 3402.84 166.525 3409.48 166.525C3416.24 166.525 3422.21 167.688 3427.41 170.012C3432.67 172.281 3437.1 175.463 3440.7 179.558C3444.29 183.653 3447.03 188.495 3448.91 194.084C3450.79 199.618 3451.74 205.677 3451.74 212.263V214.006C3451.74 220.536 3450.79 226.595 3448.91 232.185C3447.03 237.718 3444.29 242.561 3440.7 246.711C3437.1 250.806 3432.7 253.988 3427.5 256.257C3422.3 258.526 3416.35 259.66 3409.65 259.66C3403.01 259.66 3397.06 258.526 3391.8 256.257C3386.55 253.988 3382.12 250.806 3378.52 246.711C3374.93 242.561 3372.19 237.718 3370.3 232.185C3368.42 226.595 3367.48 220.536 3367.48 214.006ZM3389.4 212.263V214.006C3389.4 217.935 3389.78 221.615 3390.56 225.046C3391.33 228.477 3392.52 231.493 3394.13 234.094C3395.73 236.695 3397.81 238.742 3400.35 240.236C3402.95 241.675 3406.05 242.395 3409.65 242.395C3413.19 242.395 3416.24 241.675 3418.78 240.236C3421.33 238.742 3423.4 236.695 3425.01 234.094C3426.67 231.493 3427.88 228.477 3428.66 225.046C3429.43 221.615 3429.82 217.935 3429.82 214.006V212.263C3429.82 208.389 3429.43 204.764 3428.66 201.389C3427.88 197.958 3426.67 194.942 3425.01 192.341C3423.4 189.685 3421.3 187.609 3418.7 186.115C3416.15 184.566 3413.08 183.791 3409.48 183.791C3405.94 183.791 3402.9 184.566 3400.35 186.115C3397.81 187.609 3395.73 189.685 3394.13 192.341C3392.52 194.942 3391.33 197.958 3390.56 201.389C3389.78 204.764 3389.4 208.389 3389.4 212.263ZM3504.53 242.395C3507.63 242.395 3510.39 241.786 3512.83 240.568C3515.26 239.351 3517.2 237.635 3518.64 235.422C3520.13 233.208 3520.94 230.635 3521.05 227.702H3541.72C3541.61 233.789 3539.89 239.24 3536.57 244.055C3533.25 248.869 3528.82 252.688 3523.29 255.51C3517.81 258.277 3511.67 259.66 3504.86 259.66C3497.94 259.66 3491.91 258.498 3486.76 256.174C3481.62 253.85 3477.33 250.612 3473.9 246.462C3470.52 242.312 3467.98 237.497 3466.26 232.019C3464.6 226.54 3463.77 220.674 3463.77 214.421V211.765C3463.77 205.511 3464.6 199.646 3466.26 194.167C3467.98 188.688 3470.52 183.874 3473.9 179.724C3477.33 175.573 3481.62 172.336 3486.76 170.012C3491.91 167.688 3497.92 166.525 3504.78 166.525C3512.03 166.525 3518.39 167.937 3523.87 170.759C3529.4 173.581 3533.72 177.565 3536.82 182.712C3539.97 187.858 3541.61 193.918 3541.72 200.891H3521.05C3520.94 197.681 3520.22 194.803 3518.89 192.258C3517.56 189.712 3515.68 187.665 3513.24 186.115C3510.81 184.566 3507.85 183.791 3504.36 183.791C3500.65 183.791 3497.56 184.566 3495.07 186.115C3492.63 187.665 3490.72 189.795 3489.34 192.507C3488.01 195.163 3487.07 198.151 3486.52 201.472C3486.02 204.737 3485.77 208.168 3485.77 211.765V214.421C3485.77 218.073 3486.02 221.56 3486.52 224.88C3487.07 228.2 3488.01 231.188 3489.34 233.845C3490.72 236.446 3492.63 238.521 3495.07 240.07C3497.56 241.62 3500.71 242.395 3504.53 242.395ZM3571.93 195.827H3598.16C3606.13 195.827 3612.91 197.155 3618.5 199.812C3624.14 202.412 3628.43 206.065 3631.36 210.769C3634.35 215.417 3635.85 220.812 3635.85 226.955C3635.85 231.382 3634.99 235.505 3633.27 239.323C3631.61 243.086 3629.18 246.379 3625.97 249.201C3622.76 251.968 3618.8 254.126 3614.1 255.676C3609.45 257.225 3604.14 258 3598.16 258H3557.82V168.186H3579.82V240.817H3598.16C3601.98 240.817 3605.02 240.181 3607.29 238.908C3609.62 237.58 3611.28 235.892 3612.27 233.845C3613.32 231.742 3613.85 229.501 3613.85 227.121C3613.85 224.686 3613.32 222.417 3612.27 220.314C3611.28 218.156 3609.62 216.413 3607.29 215.085C3605.02 213.757 3601.98 213.093 3598.16 213.093H3571.93V195.827ZM3671.29 238.244L3671.12 253.435C3671.12 259.356 3669.66 265.36 3666.73 271.447C3663.79 277.535 3660 282.57 3655.35 286.555L3643.73 280.163C3645.23 277.673 3646.61 275.155 3647.88 272.609C3649.21 270.064 3650.26 267.297 3651.04 264.309C3651.87 261.376 3652.28 258.083 3652.28 254.431V238.244H3671.29ZM1095.64 367.186V384.534H1051.73V367.186H1095.64ZM1057.54 367.186V457H1035.54V367.186H1057.54ZM1112.24 367.186V457H1090.16V367.186H1112.24ZM1128.26 413.006V411.263C1128.26 404.677 1129.2 398.618 1131.09 393.084C1132.97 387.495 1135.71 382.653 1139.3 378.558C1142.9 374.463 1147.3 371.281 1152.5 369.012C1157.7 366.688 1163.62 365.525 1170.27 365.525C1177.02 365.525 1182.99 366.688 1188.2 369.012C1193.45 371.281 1197.88 374.463 1201.48 378.558C1205.07 382.653 1207.81 387.495 1209.69 393.084C1211.58 398.618 1212.52 404.677 1212.52 411.263V413.006C1212.52 419.536 1211.58 425.595 1209.69 431.185C1207.81 436.718 1205.07 441.561 1201.48 445.711C1197.88 449.806 1193.48 452.988 1188.28 455.257C1183.08 457.526 1177.13 458.66 1170.43 458.66C1163.79 458.66 1157.84 457.526 1152.58 455.257C1147.33 452.988 1142.9 449.806 1139.3 445.711C1135.71 441.561 1132.97 436.718 1131.09 431.185C1129.2 425.595 1128.26 419.536 1128.26 413.006ZM1150.18 411.263V413.006C1150.18 416.935 1150.57 420.615 1151.34 424.046C1152.11 427.477 1153.3 430.493 1154.91 433.094C1156.51 435.695 1158.59 437.742 1161.13 439.236C1163.74 440.675 1166.83 441.395 1170.43 441.395C1173.97 441.395 1177.02 440.675 1179.56 439.236C1182.11 437.742 1184.18 435.695 1185.79 433.094C1187.45 430.493 1188.67 427.477 1189.44 424.046C1190.22 420.615 1190.6 416.935 1190.6 413.006V411.263C1190.6 407.389 1190.22 403.764 1189.44 400.389C1188.67 396.958 1187.45 393.942 1185.79 391.341C1184.18 388.685 1182.08 386.609 1179.48 385.115C1176.93 383.566 1173.86 382.791 1170.27 382.791C1166.72 382.791 1163.68 383.566 1161.13 385.115C1158.59 386.609 1156.51 388.685 1154.91 391.341C1153.3 393.942 1152.11 396.958 1151.34 400.389C1150.57 403.764 1150.18 407.389 1150.18 411.263ZM1257.26 421.971L1220.73 367.186H1247.79L1267.8 401.8H1285.15L1282.41 421.971H1257.26ZM1268.21 418.484L1246.47 457H1219.82L1250.95 407.029L1268.21 418.484ZM1298.93 367.186V457H1277.01V367.186H1298.93ZM1355.46 367.186L1318.85 421.971H1293.7L1290.96 401.8H1308.31L1328.31 367.186H1355.46ZM1329.64 457L1307.89 418.484L1325.74 407.029L1356.78 457H1329.64ZM1418.38 437.908V396.487C1418.38 393.444 1417.85 390.815 1416.8 388.602C1415.75 386.388 1414.14 384.673 1411.98 383.455C1409.83 382.238 1407.09 381.629 1403.77 381.629C1400.83 381.629 1398.26 382.127 1396.05 383.123C1393.89 384.119 1392.23 385.53 1391.07 387.356C1389.9 389.127 1389.32 391.175 1389.32 393.499H1367.33C1367.33 389.791 1368.21 386.277 1369.98 382.957C1371.75 379.581 1374.27 376.593 1377.54 373.992C1380.86 371.336 1384.81 369.261 1389.41 367.767C1394.05 366.272 1399.26 365.525 1405.01 365.525C1411.82 365.525 1417.88 366.688 1423.19 369.012C1428.56 371.281 1432.76 374.712 1435.81 379.305C1438.91 383.898 1440.46 389.681 1440.46 396.653V435.833C1440.46 440.315 1440.73 444.161 1441.29 447.371C1441.89 450.525 1442.78 453.265 1443.94 455.589V457H1421.61C1420.56 454.731 1419.76 451.854 1419.21 448.367C1418.65 444.826 1418.38 441.339 1418.38 437.908ZM1421.45 402.298L1421.61 415.33H1407.75C1404.32 415.33 1401.3 415.69 1398.7 416.409C1396.1 417.073 1393.97 418.069 1392.31 419.397C1390.65 420.67 1389.41 422.22 1388.58 424.046C1387.75 425.817 1387.33 427.837 1387.33 430.105C1387.33 432.319 1387.83 434.311 1388.83 436.082C1389.88 437.853 1391.37 439.264 1393.31 440.315C1395.3 441.312 1397.62 441.81 1400.28 441.81C1404.15 441.81 1407.53 441.035 1410.41 439.485C1413.28 437.881 1415.53 435.944 1417.13 433.675C1418.74 431.406 1419.59 429.248 1419.7 427.2L1426.01 436.663C1425.24 438.932 1424.08 441.339 1422.53 443.885C1420.98 446.43 1418.98 448.81 1416.55 451.023C1414.11 453.237 1411.18 455.063 1407.75 456.502C1404.32 457.941 1400.34 458.66 1395.8 458.66C1389.99 458.66 1384.79 457.498 1380.19 455.174C1375.6 452.85 1371.97 449.668 1369.32 445.628C1366.66 441.588 1365.33 436.995 1365.33 431.849C1365.33 427.09 1366.22 422.884 1367.99 419.231C1369.76 415.579 1372.39 412.508 1375.88 410.018C1379.36 407.472 1383.68 405.563 1388.83 404.29C1394.03 402.962 1399.98 402.298 1406.67 402.298H1421.45ZM1520.56 367.186V384.534H1476.56V367.186H1520.56ZM1537.08 367.186V457H1515.16V367.186H1537.08ZM1471.09 367.186H1492.75L1490.34 412.01C1489.96 418.595 1489.26 424.378 1488.27 429.358C1487.27 434.284 1485.94 438.517 1484.28 442.059C1482.62 445.545 1480.6 448.395 1478.22 450.608C1475.85 452.822 1473.08 454.454 1469.92 455.506C1466.82 456.502 1463.34 457 1459.46 457H1452.74L1452.49 439.319L1455.65 439.07C1457.58 438.904 1459.24 438.379 1460.63 437.493C1462.07 436.608 1463.28 435.335 1464.28 433.675C1465.33 432.015 1466.19 429.884 1466.85 427.283C1467.57 424.627 1468.13 421.528 1468.51 417.986C1468.96 414.389 1469.26 410.239 1469.43 405.535L1471.09 367.186ZM1583.48 447.039L1607.55 367.186H1631.04L1595.02 470.613C1594.19 472.827 1593.11 475.234 1591.78 477.835C1590.51 480.436 1588.79 482.898 1586.63 485.223C1584.47 487.602 1581.76 489.539 1578.5 491.033C1575.29 492.527 1571.39 493.274 1566.79 493.274C1564.8 493.274 1563.03 493.136 1561.48 492.859C1559.93 492.583 1558.3 492.223 1556.58 491.78V475.345C1557.14 475.4 1557.77 475.428 1558.49 475.428C1559.27 475.483 1559.93 475.511 1560.49 475.511C1563.69 475.511 1566.35 475.123 1568.45 474.349C1570.56 473.629 1572.24 472.439 1573.52 470.779C1574.85 469.174 1575.95 467.072 1576.84 464.471L1583.48 447.039ZM1571.61 367.186L1591.95 433.343L1595.51 456.502L1580.41 459.241L1547.95 367.186H1571.61ZM1663.83 425.706L1696.54 367.186H1718.53V457H1696.54V398.396L1663.83 457H1641.83V367.186H1663.83V425.706ZM1692.47 331.907H1708.41C1708.41 336.556 1707.27 340.678 1705 344.275C1702.73 347.872 1699.5 350.695 1695.29 352.742C1691.14 354.734 1686.21 355.73 1680.51 355.73C1671.94 355.73 1665.13 353.517 1660.09 349.09C1655.06 344.663 1652.54 338.935 1652.54 331.907H1668.48C1668.48 334.84 1669.39 337.469 1671.22 339.793C1673.04 342.117 1676.14 343.279 1680.51 343.279C1684.89 343.279 1687.96 342.117 1689.73 339.793C1691.55 337.469 1692.47 334.84 1692.47 331.907ZM1775.31 441.395C1778.41 441.395 1781.18 440.786 1783.61 439.568C1786.05 438.351 1787.98 436.635 1789.42 434.422C1790.92 432.208 1791.72 429.635 1791.83 426.702H1812.5C1812.39 432.789 1810.67 438.24 1807.35 443.055C1804.03 447.869 1799.6 451.688 1794.07 454.51C1788.59 457.277 1782.45 458.66 1775.64 458.66C1768.72 458.66 1762.69 457.498 1757.55 455.174C1752.4 452.85 1748.11 449.612 1744.68 445.462C1741.3 441.312 1738.76 436.497 1737.04 431.019C1735.38 425.54 1734.55 419.674 1734.55 413.421V410.765C1734.55 404.511 1735.38 398.646 1737.04 393.167C1738.76 387.688 1741.3 382.874 1744.68 378.724C1748.11 374.573 1752.4 371.336 1757.55 369.012C1762.69 366.688 1768.7 365.525 1775.56 365.525C1782.81 365.525 1789.17 366.937 1794.65 369.759C1800.18 372.581 1804.5 376.565 1807.6 381.712C1810.75 386.858 1812.39 392.918 1812.5 399.891H1791.83C1791.72 396.681 1791 393.803 1789.67 391.258C1788.34 388.712 1786.46 386.665 1784.03 385.115C1781.59 383.566 1778.63 382.791 1775.14 382.791C1771.44 382.791 1768.34 383.566 1765.85 385.115C1763.41 386.665 1761.5 388.795 1760.12 391.507C1758.79 394.163 1757.85 397.151 1757.3 400.472C1756.8 403.737 1756.55 407.168 1756.55 410.765V413.421C1756.55 417.073 1756.8 420.56 1757.3 423.88C1757.85 427.2 1758.79 430.188 1760.12 432.845C1761.5 435.446 1763.41 437.521 1765.85 439.07C1768.34 440.62 1771.49 441.395 1775.31 441.395ZM1870.69 367.186V457H1848.69V367.186H1870.69ZM1899.9 367.186V384.285H1819.97V367.186H1899.9ZM1960.92 437.908V396.487C1960.92 393.444 1960.39 390.815 1959.34 388.602C1958.29 386.388 1956.68 384.673 1954.52 383.455C1952.37 382.238 1949.63 381.629 1946.31 381.629C1943.37 381.629 1940.8 382.127 1938.59 383.123C1936.43 384.119 1934.77 385.53 1933.61 387.356C1932.44 389.127 1931.86 391.175 1931.86 393.499H1909.87C1909.87 389.791 1910.75 386.277 1912.52 382.957C1914.29 379.581 1916.81 376.593 1920.08 373.992C1923.4 371.336 1927.35 369.261 1931.95 367.767C1936.59 366.272 1941.8 365.525 1947.55 365.525C1954.36 365.525 1960.42 366.688 1965.73 369.012C1971.1 371.281 1975.3 374.712 1978.35 379.305C1981.45 383.898 1983 389.681 1983 396.653V435.833C1983 440.315 1983.27 444.161 1983.83 447.371C1984.43 450.525 1985.32 453.265 1986.48 455.589V457H1964.15C1963.1 454.731 1962.3 451.854 1961.75 448.367C1961.19 444.826 1960.92 441.339 1960.92 437.908ZM1963.99 402.298L1964.15 415.33H1950.29C1946.86 415.33 1943.84 415.69 1941.24 416.409C1938.64 417.073 1936.51 418.069 1934.85 419.397C1933.19 420.67 1931.95 422.22 1931.12 424.046C1930.29 425.817 1929.87 427.837 1929.87 430.105C1929.87 432.319 1930.37 434.311 1931.36 436.082C1932.42 437.853 1933.91 439.264 1935.85 440.315C1937.84 441.312 1940.16 441.81 1942.82 441.81C1946.69 441.81 1950.07 441.035 1952.95 439.485C1955.82 437.881 1958.07 435.944 1959.67 433.675C1961.27 431.406 1962.13 429.248 1962.24 427.2L1968.55 436.663C1967.78 438.932 1966.61 441.339 1965.07 443.885C1963.52 446.43 1961.52 448.81 1959.09 451.023C1956.65 453.237 1953.72 455.063 1950.29 456.502C1946.86 457.941 1942.87 458.66 1938.34 458.66C1932.53 458.66 1927.32 457.498 1922.73 455.174C1918.14 452.85 1914.51 449.668 1911.86 445.628C1909.2 441.588 1907.87 436.995 1907.87 431.849C1907.87 427.09 1908.76 422.884 1910.53 419.231C1912.3 415.579 1914.93 412.508 1918.42 410.018C1921.9 407.472 1926.22 405.563 1931.36 404.29C1936.57 402.962 1942.51 402.298 1949.21 402.298H1963.99ZM2081.94 441.395C2085.04 441.395 2087.81 440.786 2090.24 439.568C2092.68 438.351 2094.61 436.635 2096.05 434.422C2097.55 432.208 2098.35 429.635 2098.46 426.702H2119.13C2119.02 432.789 2117.3 438.24 2113.98 443.055C2110.66 447.869 2106.23 451.688 2100.7 454.51C2095.22 457.277 2089.08 458.66 2082.27 458.66C2075.36 458.66 2069.32 457.498 2064.18 455.174C2059.03 452.85 2054.74 449.612 2051.31 445.462C2047.93 441.312 2045.39 436.497 2043.67 431.019C2042.01 425.54 2041.18 419.674 2041.18 413.421V410.765C2041.18 404.511 2042.01 398.646 2043.67 393.167C2045.39 387.688 2047.93 382.874 2051.31 378.724C2054.74 374.573 2059.03 371.336 2064.18 369.012C2069.32 366.688 2075.33 365.525 2082.19 365.525C2089.44 365.525 2095.8 366.937 2101.28 369.759C2106.82 372.581 2111.13 376.565 2114.23 381.712C2117.38 386.858 2119.02 392.918 2119.13 399.891H2098.46C2098.35 396.681 2097.63 393.803 2096.3 391.258C2094.97 388.712 2093.09 386.665 2090.66 385.115C2088.22 383.566 2085.26 382.791 2081.77 382.791C2078.07 382.791 2074.97 383.566 2072.48 385.115C2070.04 386.665 2068.13 388.795 2066.75 391.507C2065.42 394.163 2064.48 397.151 2063.93 400.472C2063.43 403.737 2063.18 407.168 2063.18 410.765V413.421C2063.18 417.073 2063.43 420.56 2063.93 423.88C2064.48 427.2 2065.42 430.188 2066.75 432.845C2068.13 435.446 2070.04 437.521 2072.48 439.07C2074.97 440.62 2078.12 441.395 2081.94 441.395ZM2177.9 418.982H2149.43L2149.26 404.124H2172.67C2176.15 404.124 2179 403.764 2181.22 403.045C2183.43 402.326 2185.06 401.246 2186.12 399.808C2187.22 398.369 2187.78 396.626 2187.78 394.578C2187.78 392.807 2187.44 391.285 2186.78 390.013C2186.12 388.685 2185.12 387.605 2183.79 386.775C2182.52 385.945 2180.89 385.337 2178.89 384.949C2176.96 384.507 2174.69 384.285 2172.09 384.285H2157.23V457H2135.23V367.186H2172.09C2177.9 367.186 2183.13 367.711 2187.78 368.763C2192.42 369.759 2196.38 371.281 2199.65 373.328C2202.91 375.376 2205.4 377.977 2207.12 381.131C2208.89 384.23 2209.77 387.882 2209.77 392.088C2209.77 394.855 2209.16 397.456 2207.95 399.891C2206.73 402.326 2204.93 404.484 2202.55 406.365C2200.17 408.247 2197.24 409.796 2193.75 411.014C2190.27 412.176 2186.28 412.895 2181.8 413.172L2177.9 418.982ZM2177.9 457H2143.53L2151.67 439.9H2177.9C2181.11 439.9 2183.76 439.513 2185.87 438.738C2187.97 437.908 2189.52 436.718 2190.51 435.169C2191.57 433.619 2192.09 431.738 2192.09 429.524C2192.09 427.366 2191.59 425.512 2190.6 423.963C2189.66 422.358 2188.14 421.141 2186.03 420.311C2183.98 419.425 2181.27 418.982 2177.9 418.982H2155.24L2155.4 404.124H2181.72L2187.53 410.018C2193.5 410.405 2198.46 411.622 2202.38 413.67C2206.31 415.662 2209.25 418.208 2211.18 421.307C2213.12 424.35 2214.09 427.698 2214.09 431.351C2214.09 435.612 2213.29 439.347 2211.68 442.557C2210.08 445.766 2207.72 448.45 2204.63 450.608C2201.53 452.711 2197.74 454.316 2193.25 455.423C2188.77 456.474 2183.65 457 2177.9 457ZM2270.37 458.66C2263.56 458.66 2257.45 457.553 2252.02 455.34C2246.6 453.126 2241.98 450.055 2238.16 446.126C2234.4 442.142 2231.49 437.521 2229.45 432.264C2227.45 426.951 2226.46 421.251 2226.46 415.164V411.844C2226.46 404.926 2227.45 398.646 2229.45 393.001C2231.44 387.301 2234.26 382.404 2237.91 378.309C2241.56 374.214 2245.94 371.059 2251.03 368.846C2256.12 366.632 2261.74 365.525 2267.88 365.525C2274.24 365.525 2279.86 366.604 2284.73 368.763C2289.6 370.866 2293.67 373.854 2296.93 377.728C2300.2 381.601 2302.66 386.25 2304.32 391.673C2305.98 397.041 2306.81 402.99 2306.81 409.52V418.733H2236.42V403.626H2285.23V401.966C2285.12 398.479 2284.45 395.298 2283.23 392.42C2282.02 389.487 2280.14 387.163 2277.59 385.447C2275.04 383.676 2271.75 382.791 2267.71 382.791C2264.45 382.791 2261.6 383.51 2259.16 384.949C2256.78 386.333 2254.79 388.325 2253.19 390.926C2251.64 393.471 2250.47 396.515 2249.7 400.057C2248.92 403.598 2248.54 407.527 2248.54 411.844V415.164C2248.54 418.927 2249.04 422.413 2250.03 425.623C2251.08 428.833 2252.6 431.627 2254.6 434.007C2256.64 436.331 2259.08 438.157 2261.9 439.485C2264.78 440.758 2268.04 441.395 2271.7 441.395C2276.29 441.395 2280.44 440.509 2284.15 438.738C2287.91 436.912 2291.18 434.228 2293.94 430.687L2304.98 442.142C2303.1 444.909 2300.56 447.565 2297.35 450.11C2294.19 452.656 2290.37 454.731 2285.89 456.336C2281.41 457.885 2276.23 458.66 2270.37 458.66ZM2343.42 384.451V491.531H2321.42V367.186H2341.75L2343.42 384.451ZM2401.11 411.18V412.923C2401.11 419.453 2400.33 425.512 2398.78 431.102C2397.29 436.635 2395.07 441.478 2392.14 445.628C2389.21 449.723 2385.56 452.933 2381.18 455.257C2376.87 457.526 2371.89 458.66 2366.24 458.66C2360.71 458.66 2355.89 457.609 2351.8 455.506C2347.7 453.348 2344.25 450.304 2341.42 446.375C2338.6 442.446 2336.33 437.881 2334.62 432.679C2332.96 427.422 2331.71 421.694 2330.88 415.496V409.935C2331.71 403.349 2332.96 397.373 2334.62 392.005C2336.33 386.582 2338.6 381.906 2341.42 377.977C2344.25 373.992 2347.68 370.921 2351.72 368.763C2355.81 366.604 2360.6 365.525 2366.08 365.525C2371.78 365.525 2376.78 366.604 2381.1 368.763C2385.47 370.921 2389.15 374.02 2392.14 378.06C2395.13 382.099 2397.37 386.914 2398.86 392.503C2400.36 398.092 2401.11 404.318 2401.11 411.18ZM2379.11 412.923V411.18C2379.11 407.195 2378.75 403.515 2378.03 400.14C2377.31 396.709 2376.2 393.72 2374.71 391.175C2373.21 388.574 2371.28 386.554 2368.9 385.115C2366.52 383.676 2363.64 382.957 2360.27 382.957C2356.89 382.957 2353.98 383.51 2351.55 384.617C2349.11 385.724 2347.12 387.301 2345.57 389.349C2344.02 391.396 2342.81 393.831 2341.92 396.653C2341.09 399.42 2340.54 402.492 2340.26 405.867V419.646C2340.76 423.742 2341.73 427.422 2343.17 430.687C2344.6 433.951 2346.71 436.552 2349.47 438.489C2352.3 440.426 2355.95 441.395 2360.43 441.395C2363.81 441.395 2366.68 440.647 2369.06 439.153C2371.44 437.659 2373.38 435.612 2374.88 433.011C2376.37 430.354 2377.45 427.311 2378.11 423.88C2378.78 420.449 2379.11 416.797 2379.11 412.923ZM2478.47 404.041V421.224H2432.4V404.041H2478.47ZM2439.29 367.186V457H2417.29V367.186H2439.29ZM2493.83 367.186V457H2471.75V367.186H2493.83ZM2535.91 425.706L2568.62 367.186H2590.61V457H2568.62V398.396L2535.91 457H2513.91V367.186H2535.91V425.706ZM2654.11 367.186V457H2632.12V367.186H2654.11ZM2683.33 367.186V384.285H2603.4V367.186H2683.33ZM2730.56 458.66C2723.76 458.66 2717.64 457.553 2712.22 455.34C2706.8 453.126 2702.17 450.055 2698.36 446.126C2694.59 442.142 2691.69 437.521 2689.64 432.264C2687.65 426.951 2686.65 421.251 2686.65 415.164V411.844C2686.65 404.926 2687.65 398.646 2689.64 393.001C2691.63 387.301 2694.46 382.404 2698.11 378.309C2701.76 374.214 2706.13 371.059 2711.22 368.846C2716.31 366.632 2721.93 365.525 2728.07 365.525C2734.44 365.525 2740.05 366.604 2744.92 368.763C2749.79 370.866 2753.86 373.854 2757.13 377.728C2760.39 381.601 2762.85 386.25 2764.51 391.673C2766.17 397.041 2767 402.99 2767 409.52V418.733H2696.61V403.626H2745.42V401.966C2745.31 398.479 2744.65 395.298 2743.43 392.42C2742.21 389.487 2740.33 387.163 2737.79 385.447C2735.24 383.676 2731.95 382.791 2727.91 382.791C2724.64 382.791 2721.79 383.51 2719.36 384.949C2716.98 386.333 2714.99 388.325 2713.38 390.926C2711.83 393.471 2710.67 396.515 2709.89 400.057C2709.12 403.598 2708.73 407.527 2708.73 411.844V415.164C2708.73 418.927 2709.23 422.413 2710.23 425.623C2711.28 428.833 2712.8 431.627 2714.79 434.007C2716.84 436.331 2719.27 438.157 2722.1 439.485C2724.97 440.758 2728.24 441.395 2731.89 441.395C2736.48 441.395 2740.64 440.509 2744.34 438.738C2748.11 436.912 2751.37 434.228 2754.14 430.687L2765.18 442.142C2763.3 444.909 2760.75 447.565 2757.54 450.11C2754.39 452.656 2750.57 454.731 2746.09 456.336C2741.6 457.885 2736.43 458.66 2730.56 458.66ZM2864.37 458.66C2857.57 458.66 2851.45 457.553 2846.03 455.34C2840.6 453.126 2835.98 450.055 2832.17 446.126C2828.4 442.142 2825.5 437.521 2823.45 432.264C2821.46 426.951 2820.46 421.251 2820.46 415.164V411.844C2820.46 404.926 2821.46 398.646 2823.45 393.001C2825.44 387.301 2828.26 382.404 2831.92 378.309C2835.57 374.214 2839.94 371.059 2845.03 368.846C2850.12 366.632 2855.74 365.525 2861.88 365.525C2868.25 365.525 2873.86 366.604 2878.73 368.763C2883.6 370.866 2887.67 373.854 2890.93 377.728C2894.2 381.601 2896.66 386.25 2898.32 391.673C2899.98 397.041 2900.81 402.99 2900.81 409.52V418.733H2830.42V403.626H2879.23V401.966C2879.12 398.479 2878.46 395.298 2877.24 392.42C2876.02 389.487 2874.14 387.163 2871.59 385.447C2869.05 383.676 2865.76 382.791 2861.72 382.791C2858.45 382.791 2855.6 383.51 2853.17 384.949C2850.79 386.333 2848.79 388.325 2847.19 390.926C2845.64 393.471 2844.48 396.515 2843.7 400.057C2842.93 403.598 2842.54 407.527 2842.54 411.844V415.164C2842.54 418.927 2843.04 422.413 2844.04 425.623C2845.09 428.833 2846.61 431.627 2848.6 434.007C2850.65 436.331 2853.08 438.157 2855.91 439.485C2858.78 440.758 2862.05 441.395 2865.7 441.395C2870.29 441.395 2874.44 440.509 2878.15 438.738C2881.91 436.912 2885.18 434.228 2887.95 430.687L2898.99 442.142C2897.1 444.909 2894.56 447.565 2891.35 450.11C2888.2 452.656 2884.38 454.731 2879.89 456.336C2875.41 457.885 2870.24 458.66 2864.37 458.66ZM2975.85 367.186V384.534H2937.58V457H2915.67V367.186H2975.85ZM2981.33 413.006V411.263C2981.33 404.677 2982.27 398.618 2984.15 393.084C2986.03 387.495 2988.77 382.653 2992.37 378.558C2995.97 374.463 3000.37 371.281 3005.57 369.012C3010.77 366.688 3016.69 365.525 3023.33 365.525C3030.08 365.525 3036.06 366.688 3041.26 369.012C3046.52 371.281 3050.95 374.463 3054.54 378.558C3058.14 382.653 3060.88 387.495 3062.76 393.084C3064.64 398.618 3065.58 404.677 3065.58 411.263V413.006C3065.58 419.536 3064.64 425.595 3062.76 431.185C3060.88 436.718 3058.14 441.561 3054.54 445.711C3050.95 449.806 3046.55 452.988 3041.34 455.257C3036.14 457.526 3030.19 458.66 3023.5 458.66C3016.86 458.66 3010.91 457.526 3005.65 455.257C3000.39 452.988 2995.97 449.806 2992.37 445.711C2988.77 441.561 2986.03 436.718 2984.15 431.185C2982.27 425.595 2981.33 419.536 2981.33 413.006ZM3003.24 411.263V413.006C3003.24 416.935 3003.63 420.615 3004.41 424.046C3005.18 427.477 3006.37 430.493 3007.98 433.094C3009.58 435.695 3011.66 437.742 3014.2 439.236C3016.8 440.675 3019.9 441.395 3023.5 441.395C3027.04 441.395 3030.08 440.675 3032.63 439.236C3035.17 437.742 3037.25 435.695 3038.85 433.094C3040.51 430.493 3041.73 427.477 3042.51 424.046C3043.28 420.615 3043.67 416.935 3043.67 413.006V411.263C3043.67 407.389 3043.28 403.764 3042.51 400.389C3041.73 396.958 3040.51 393.942 3038.85 391.341C3037.25 388.685 3035.15 386.609 3032.55 385.115C3030 383.566 3026.93 382.791 3023.33 382.791C3019.79 382.791 3016.75 383.566 3014.2 385.115C3011.66 386.609 3009.58 388.685 3007.98 391.341C3006.37 393.942 3005.18 396.958 3004.41 400.389C3003.63 403.764 3003.24 407.389 3003.24 411.263ZM3160.71 441.395C3163.81 441.395 3166.58 440.786 3169.01 439.568C3171.45 438.351 3173.38 436.635 3174.82 434.422C3176.32 432.208 3177.12 429.635 3177.23 426.702H3197.9C3197.79 432.789 3196.07 438.24 3192.75 443.055C3189.43 447.869 3185 451.688 3179.47 454.51C3173.99 457.277 3167.85 458.66 3161.04 458.66C3154.12 458.66 3148.09 457.498 3142.95 455.174C3137.8 452.85 3133.51 449.612 3130.08 445.462C3126.7 441.312 3124.16 436.497 3122.44 431.019C3120.78 425.54 3119.95 419.674 3119.95 413.421V410.765C3119.95 404.511 3120.78 398.646 3122.44 393.167C3124.16 387.688 3126.7 382.874 3130.08 378.724C3133.51 374.573 3137.8 371.336 3142.95 369.012C3148.09 366.688 3154.1 365.525 3160.96 365.525C3168.21 365.525 3174.57 366.937 3180.05 369.759C3185.58 372.581 3189.9 376.565 3193 381.712C3196.15 386.858 3197.79 392.918 3197.9 399.891H3177.23C3177.12 396.681 3176.4 393.803 3175.07 391.258C3173.74 388.712 3171.86 386.665 3169.43 385.115C3166.99 383.566 3164.03 382.791 3160.54 382.791C3156.84 382.791 3153.74 383.566 3151.25 385.115C3148.81 386.665 3146.9 388.795 3145.52 391.507C3144.19 394.163 3143.25 397.151 3142.7 400.472C3142.2 403.737 3141.95 407.168 3141.95 410.765V413.421C3141.95 417.073 3142.2 420.56 3142.7 423.88C3143.25 427.2 3144.19 430.188 3145.52 432.845C3146.9 435.446 3148.81 437.521 3151.25 439.07C3153.74 440.62 3156.89 441.395 3160.71 441.395ZM3261.98 437.908V396.487C3261.98 393.444 3261.45 390.815 3260.4 388.602C3259.35 386.388 3257.75 384.673 3255.59 383.455C3253.43 382.238 3250.69 381.629 3247.37 381.629C3244.44 381.629 3241.86 382.127 3239.65 383.123C3237.49 384.119 3235.83 385.53 3234.67 387.356C3233.51 389.127 3232.93 391.175 3232.93 393.499H3210.93C3210.93 389.791 3211.82 386.277 3213.59 382.957C3215.36 379.581 3217.87 376.593 3221.14 373.992C3224.46 371.336 3228.42 369.261 3233.01 367.767C3237.66 366.272 3242.86 365.525 3248.62 365.525C3255.42 365.525 3261.48 366.688 3266.79 369.012C3272.16 371.281 3276.37 374.712 3279.41 379.305C3282.51 383.898 3284.06 389.681 3284.06 396.653V435.833C3284.06 440.315 3284.34 444.161 3284.89 447.371C3285.5 450.525 3286.38 453.265 3287.55 455.589V457H3265.22C3264.17 454.731 3263.36 451.854 3262.81 448.367C3262.26 444.826 3261.98 441.339 3261.98 437.908ZM3265.05 402.298L3265.22 415.33H3251.35C3247.92 415.33 3244.91 415.69 3242.31 416.409C3239.71 417.073 3237.58 418.069 3235.92 419.397C3234.25 420.67 3233.01 422.22 3232.18 424.046C3231.35 425.817 3230.93 427.837 3230.93 430.105C3230.93 432.319 3231.43 434.311 3232.43 436.082C3233.48 437.853 3234.97 439.264 3236.91 440.315C3238.9 441.312 3241.23 441.81 3243.88 441.81C3247.76 441.81 3251.13 441.035 3254.01 439.485C3256.89 437.881 3259.13 435.944 3260.73 433.675C3262.34 431.406 3263.2 429.248 3263.31 427.2L3269.62 436.663C3268.84 438.932 3267.68 441.339 3266.13 443.885C3264.58 446.43 3262.59 448.81 3260.15 451.023C3257.72 453.237 3254.79 455.063 3251.35 456.502C3247.92 457.941 3243.94 458.66 3239.4 458.66C3233.59 458.66 3228.39 457.498 3223.8 455.174C3219.2 452.85 3215.58 449.668 3212.92 445.628C3210.27 441.588 3208.94 436.995 3208.94 431.849C3208.94 427.09 3209.82 422.884 3211.59 419.231C3213.36 415.579 3215.99 412.508 3219.48 410.018C3222.97 407.472 3227.28 405.563 3232.43 404.29C3237.63 402.962 3243.58 402.298 3250.28 402.298H3265.05ZM3357.69 431.102L3382.92 367.186H3401.27L3365.16 457H3350.3L3314.27 367.186H3332.7L3357.69 431.102ZM3327.31 367.186V457H3305.31V367.186H3327.31ZM3388.48 457V367.186H3410.48V457H3388.48ZM3428.41 413.006V411.263C3428.41 404.677 3429.35 398.618 3431.23 393.084C3433.11 387.495 3435.85 382.653 3439.45 378.558C3443.05 374.463 3447.45 371.281 3452.65 369.012C3457.85 366.688 3463.77 365.525 3470.41 365.525C3477.16 365.525 3483.14 366.688 3488.34 369.012C3493.6 371.281 3498.03 374.463 3501.62 378.558C3505.22 382.653 3507.96 387.495 3509.84 393.084C3511.72 398.618 3512.66 404.677 3512.66 411.263V413.006C3512.66 419.536 3511.72 425.595 3509.84 431.185C3507.96 436.718 3505.22 441.561 3501.62 445.711C3498.03 449.806 3493.63 452.988 3488.42 455.257C3483.22 457.526 3477.27 458.66 3470.58 458.66C3463.94 458.66 3457.99 457.526 3452.73 455.257C3447.47 452.988 3443.05 449.806 3439.45 445.711C3435.85 441.561 3433.11 436.718 3431.23 431.185C3429.35 425.595 3428.41 419.536 3428.41 413.006ZM3450.32 411.263V413.006C3450.32 416.935 3450.71 420.615 3451.49 424.046C3452.26 427.477 3453.45 430.493 3455.06 433.094C3456.66 435.695 3458.74 437.742 3461.28 439.236C3463.88 440.675 3466.98 441.395 3470.58 441.395C3474.12 441.395 3477.16 440.675 3479.71 439.236C3482.25 437.742 3484.33 435.695 3485.93 433.094C3487.59 430.493 3488.81 427.477 3489.59 424.046C3490.36 420.615 3490.75 416.935 3490.75 413.006V411.263C3490.75 407.389 3490.36 403.764 3489.59 400.389C3488.81 396.958 3487.59 393.942 3485.93 391.341C3484.33 388.685 3482.23 386.609 3479.63 385.115C3477.08 383.566 3474.01 382.791 3470.41 382.791C3466.87 382.791 3463.83 383.566 3461.28 385.115C3458.74 386.609 3456.66 388.685 3455.06 391.341C3453.45 393.942 3452.26 396.958 3451.49 400.389C3450.71 403.764 3450.32 407.389 3450.32 411.263ZM3565.46 441.395C3568.56 441.395 3571.32 440.786 3573.76 439.568C3576.19 438.351 3578.13 436.635 3579.57 434.422C3581.06 432.208 3581.86 429.635 3581.97 426.702H3602.64C3602.53 432.789 3600.82 438.24 3597.5 443.055C3594.18 447.869 3589.75 451.688 3584.22 454.51C3578.74 457.277 3572.59 458.66 3565.79 458.66C3558.87 458.66 3552.84 457.498 3547.69 455.174C3542.55 452.85 3538.26 449.612 3534.83 445.462C3531.45 441.312 3528.9 436.497 3527.19 431.019C3525.53 425.54 3524.7 419.674 3524.7 413.421V410.765C3524.7 404.511 3525.53 398.646 3527.19 393.167C3528.9 387.688 3531.45 382.874 3534.83 378.724C3538.26 374.573 3542.55 371.336 3547.69 369.012C3552.84 366.688 3558.84 365.525 3565.71 365.525C3572.95 365.525 3579.32 366.937 3584.8 369.759C3590.33 372.581 3594.65 376.565 3597.75 381.712C3600.9 386.858 3602.53 392.918 3602.64 399.891H3581.97C3581.86 396.681 3581.14 393.803 3579.82 391.258C3578.49 388.712 3576.61 386.665 3574.17 385.115C3571.74 383.566 3568.78 382.791 3565.29 382.791C3561.58 382.791 3558.48 383.566 3555.99 385.115C3553.56 386.665 3551.65 388.795 3550.27 391.507C3548.94 394.163 3548 397.151 3547.44 400.472C3546.95 403.737 3546.7 407.168 3546.7 410.765V413.421C3546.7 417.073 3546.95 420.56 3547.44 423.88C3548 427.2 3548.94 430.188 3550.27 432.845C3551.65 435.446 3553.56 437.521 3555.99 439.07C3558.48 440.62 3561.64 441.395 3565.46 441.395ZM3660.83 367.186V457H3638.83V367.186H3660.83ZM3690.05 367.186V384.285H3610.11V367.186H3690.05ZM3696.03 413.006V411.263C3696.03 404.677 3696.97 398.618 3698.85 393.084C3700.73 387.495 3703.47 382.653 3707.07 378.558C3710.66 374.463 3715.06 371.281 3720.27 369.012C3725.47 366.688 3731.39 365.525 3738.03 365.525C3744.78 365.525 3750.76 366.688 3755.96 369.012C3761.22 371.281 3765.64 374.463 3769.24 378.558C3772.84 382.653 3775.58 387.495 3777.46 393.084C3779.34 398.618 3780.28 404.677 3780.28 411.263V413.006C3780.28 419.536 3779.34 425.595 3777.46 431.185C3775.58 436.718 3772.84 441.561 3769.24 445.711C3765.64 449.806 3761.24 452.988 3756.04 455.257C3750.84 457.526 3744.89 458.66 3738.2 458.66C3731.55 458.66 3725.61 457.526 3720.35 455.257C3715.09 452.988 3710.66 449.806 3707.07 445.711C3703.47 441.561 3700.73 436.718 3698.85 431.185C3696.97 425.595 3696.03 419.536 3696.03 413.006ZM3717.94 411.263V413.006C3717.94 416.935 3718.33 420.615 3719.1 424.046C3719.88 427.477 3721.07 430.493 3722.67 433.094C3724.28 435.695 3726.35 437.742 3728.9 439.236C3731.5 440.675 3734.6 441.395 3738.2 441.395C3741.74 441.395 3744.78 440.675 3747.33 439.236C3749.87 437.742 3751.95 435.695 3753.55 433.094C3755.21 430.493 3756.43 427.477 3757.2 424.046C3757.98 420.615 3758.37 416.935 3758.37 413.006V411.263C3758.37 407.389 3757.98 403.764 3757.2 400.389C3756.43 396.958 3755.21 393.942 3753.55 391.341C3751.95 388.685 3749.84 386.609 3747.24 385.115C3744.7 383.566 3741.63 382.791 3738.03 382.791C3734.49 382.791 3731.44 383.566 3728.9 385.115C3726.35 386.609 3724.28 388.685 3722.67 391.341C3721.07 393.942 3719.88 396.958 3719.1 400.389C3718.33 403.764 3717.94 407.389 3717.94 411.263ZM3815.31 412.674H3837.8L3812.57 457H3790.08L3815.31 412.674ZM3830.58 367.186H3869.6V457H3847.68V384.285H3830.58C3827.1 384.285 3824.19 384.922 3821.87 386.194C3819.6 387.467 3817.91 389.1 3816.8 391.092C3815.7 393.029 3815.14 395.021 3815.14 397.068C3815.14 399.061 3815.67 400.997 3816.72 402.879C3817.77 404.76 3819.38 406.31 3821.54 407.527C3823.75 408.745 3826.52 409.354 3829.84 409.354H3855.49V424.793H3829.84C3824.14 424.793 3819.02 424.101 3814.48 422.718C3810 421.279 3806.15 419.287 3802.94 416.741C3799.79 414.196 3797.38 411.207 3795.72 407.776C3794.06 404.29 3793.23 400.499 3793.23 396.404C3793.23 392.199 3794.06 388.325 3795.72 384.783C3797.44 381.242 3799.9 378.143 3803.11 375.486C3806.37 372.83 3810.3 370.783 3814.89 369.344C3819.54 367.905 3824.77 367.186 3830.58 367.186ZM3934.59 367.186V457H3912.59V367.186H3934.59ZM3963.81 367.186V384.285H3883.87V367.186H3963.81ZM4011.04 458.66C4004.24 458.66 3998.12 457.553 3992.7 455.34C3987.27 453.126 3982.65 450.055 3978.83 446.126C3975.07 442.142 3972.17 437.521 3970.12 432.264C3968.13 426.951 3967.13 421.251 3967.13 415.164V411.844C3967.13 404.926 3968.13 398.646 3970.12 393.001C3972.11 387.301 3974.93 382.404 3978.59 378.309C3982.24 374.214 3986.61 371.059 3991.7 368.846C3996.79 366.632 4002.41 365.525 4008.55 365.525C4014.92 365.525 4020.53 366.604 4025.4 368.763C4030.27 370.866 4034.34 373.854 4037.6 377.728C4040.87 381.601 4043.33 386.25 4044.99 391.673C4046.65 397.041 4047.48 402.99 4047.48 409.52V418.733H3977.09V403.626H4025.9V401.966C4025.79 398.479 4025.13 395.298 4023.91 392.42C4022.69 389.487 4020.81 387.163 4018.26 385.447C4015.72 383.676 4012.43 382.791 4008.39 382.791C4005.12 382.791 4002.27 383.51 3999.84 384.949C3997.46 386.333 3995.46 388.325 3993.86 390.926C3992.31 393.471 3991.15 396.515 3990.37 400.057C3989.6 403.598 3989.21 407.527 3989.21 411.844V415.164C3989.21 418.927 3989.71 422.413 3990.71 425.623C3991.76 428.833 3993.28 431.627 3995.27 434.007C3997.32 436.331 3999.75 438.157 4002.58 439.485C4005.45 440.758 4008.72 441.395 4012.37 441.395C4016.96 441.395 4021.11 440.509 4024.82 438.738C4028.58 436.912 4031.85 434.228 4034.62 430.687L4045.66 442.142C4043.77 444.909 4041.23 447.565 4038.02 450.11C4034.87 452.656 4031.05 454.731 4026.56 456.336C4022.08 457.885 4016.91 458.66 4011.04 458.66ZM4122.52 367.186V384.534H4078.53V367.186H4122.52ZM4139.04 367.186V457H4117.13V367.186H4139.04ZM4073.05 367.186H4094.71L4092.31 412.01C4091.92 418.595 4091.23 424.378 4090.23 429.358C4089.24 434.284 4087.91 438.517 4086.25 442.059C4084.59 445.545 4082.57 448.395 4080.19 450.608C4077.81 452.822 4075.04 454.454 4071.89 455.506C4068.79 456.502 4065.3 457 4061.43 457H4054.7L4054.46 439.319L4057.61 439.07C4059.55 438.904 4061.21 438.379 4062.59 437.493C4064.03 436.608 4065.25 435.335 4066.24 433.675C4067.29 432.015 4068.15 429.884 4068.82 427.283C4069.53 424.627 4070.09 421.528 4070.48 417.986C4070.92 414.389 4071.22 410.239 4071.39 405.535L4073.05 367.186ZM4174.73 394.827H4200.96C4208.93 394.827 4215.71 396.155 4221.3 398.812C4226.95 401.412 4231.23 405.065 4234.17 409.769C4237.16 414.417 4238.65 419.812 4238.65 425.955C4238.65 430.382 4237.79 434.505 4236.08 438.323C4234.42 442.086 4231.98 445.379 4228.77 448.201C4225.56 450.968 4221.61 453.126 4216.9 454.676C4212.25 456.225 4206.94 457 4200.96 457H4160.62V367.186H4182.62V439.817H4200.96C4204.78 439.817 4207.83 439.181 4210.09 437.908C4212.42 436.58 4214.08 434.892 4215.08 432.845C4216.13 430.742 4216.65 428.501 4216.65 426.121C4216.65 423.686 4216.13 421.417 4215.08 419.314C4214.08 417.156 4212.42 415.413 4210.09 414.085C4207.83 412.757 4204.78 412.093 4200.96 412.093H4174.73V394.827ZM4314.77 404.041V421.224H4268.7V404.041H4314.77ZM4275.59 367.186V457H4253.59V367.186H4275.59ZM4330.12 367.186V457H4308.04V367.186H4330.12ZM4346.14 413.006V411.263C4346.14 404.677 4347.09 398.618 4348.97 393.084C4350.85 387.495 4353.59 382.653 4357.18 378.558C4360.78 374.463 4365.18 371.281 4370.38 369.012C4375.58 366.688 4381.51 365.525 4388.15 365.525C4394.9 365.525 4400.87 366.688 4406.08 369.012C4411.33 371.281 4415.76 374.463 4419.36 378.558C4422.95 382.653 4425.69 387.495 4427.58 393.084C4429.46 398.618 4430.4 404.677 4430.4 411.263V413.006C4430.4 419.536 4429.46 425.595 4427.58 431.185C4425.69 436.718 4422.95 441.561 4419.36 445.711C4415.76 449.806 4411.36 452.988 4406.16 455.257C4400.96 457.526 4395.01 458.66 4388.31 458.66C4381.67 458.66 4375.72 457.526 4370.47 455.257C4365.21 452.988 4360.78 449.806 4357.18 445.711C4353.59 441.561 4350.85 436.718 4348.97 431.185C4347.09 425.595 4346.14 419.536 4346.14 413.006ZM4368.06 411.263V413.006C4368.06 416.935 4368.45 420.615 4369.22 424.046C4370 427.477 4371.19 430.493 4372.79 433.094C4374.39 435.695 4376.47 437.742 4379.02 439.236C4381.62 440.675 4384.72 441.395 4388.31 441.395C4391.85 441.395 4394.9 440.675 4397.44 439.236C4399.99 437.742 4402.06 435.695 4403.67 433.094C4405.33 430.493 4406.55 427.477 4407.32 424.046C4408.1 420.615 4408.48 416.935 4408.48 413.006V411.263C4408.48 407.389 4408.1 403.764 4407.32 400.389C4406.55 396.958 4405.33 393.942 4403.67 391.341C4402.06 388.685 4399.96 386.609 4397.36 385.115C4394.81 383.566 4391.74 382.791 4388.15 382.791C4384.6 382.791 4381.56 383.566 4379.02 385.115C4376.47 386.609 4374.39 388.685 4372.79 391.341C4371.19 393.942 4370 396.958 4369.22 400.389C4368.45 403.764 4368.06 407.389 4368.06 411.263Z" fill="white"/>
<path d="M4834.19 371.953C4826.38 371.953 4819.32 370.684 4813 368.145C4806.75 365.54 4801.41 361.927 4796.98 357.305C4792.62 352.682 4789.27 347.246 4786.93 340.996C4784.58 334.746 4783.41 328.008 4783.41 320.781V316.875C4783.41 308.607 4784.61 301.12 4787.02 294.414C4789.43 287.708 4792.79 281.979 4797.08 277.227C4801.38 272.409 4806.46 268.73 4812.32 266.191C4818.18 263.652 4824.52 262.383 4831.36 262.383C4838.91 262.383 4845.52 263.652 4851.18 266.191C4856.85 268.73 4861.54 272.311 4865.25 276.934C4869.02 281.491 4871.82 286.927 4873.64 293.242C4875.53 299.557 4876.48 306.523 4876.48 314.141V324.199H4794.84V307.305H4853.23V305.449C4853.1 301.217 4852.26 297.246 4850.7 293.535C4849.2 289.824 4846.89 286.829 4843.76 284.551C4840.64 282.272 4836.47 281.133 4831.26 281.133C4827.36 281.133 4823.87 281.979 4820.81 283.672C4817.82 285.299 4815.31 287.676 4813.29 290.801C4811.27 293.926 4809.71 297.702 4808.61 302.129C4807.56 306.491 4807.04 311.406 4807.04 316.875V320.781C4807.04 325.404 4807.66 329.701 4808.9 333.672C4810.2 337.578 4812.09 340.996 4814.56 343.926C4817.04 346.855 4820.03 349.167 4823.55 350.859C4827.06 352.487 4831.07 353.301 4835.56 353.301C4841.22 353.301 4846.27 352.161 4850.7 349.883C4855.12 347.604 4858.96 344.382 4862.22 340.215L4874.62 352.227C4872.34 355.547 4869.38 358.737 4865.73 361.797C4862.09 364.792 4857.63 367.233 4852.36 369.121C4847.15 371.009 4841.09 371.953 4834.19 371.953ZM4918.47 284.453V370H4894.93V264.336H4917.39L4918.47 284.453ZM4950.79 263.652L4950.6 285.527C4949.17 285.267 4947.6 285.072 4945.91 284.941C4944.28 284.811 4942.65 284.746 4941.03 284.746C4936.99 284.746 4933.44 285.332 4930.38 286.504C4927.32 287.611 4924.75 289.238 4922.67 291.387C4920.65 293.47 4919.09 296.009 4917.98 299.004C4916.87 301.999 4916.22 305.352 4916.03 309.062L4910.66 309.453C4910.66 302.812 4911.31 296.66 4912.61 290.996C4913.91 285.332 4915.86 280.352 4918.47 276.055C4921.14 271.758 4924.46 268.405 4928.43 265.996C4932.47 263.587 4937.12 262.383 4942.39 262.383C4943.83 262.383 4945.36 262.513 4946.98 262.773C4948.68 263.034 4949.95 263.327 4950.79 263.652ZM5059.48 351.25V370H4964.17V353.887L5010.46 303.398C5015.54 297.669 5019.54 292.721 5022.47 288.555C5025.4 284.388 5027.45 280.645 5028.62 277.324C5029.86 273.939 5030.48 270.651 5030.48 267.461C5030.48 262.969 5029.63 259.03 5027.94 255.645C5026.31 252.194 5023.9 249.492 5020.71 247.539C5017.52 245.521 5013.65 244.512 5009.09 244.512C5003.82 244.512 4999.39 245.651 4995.81 247.93C4992.23 250.208 4989.53 253.366 4987.71 257.402C4985.88 261.374 4984.97 265.931 4984.97 271.074H4961.44C4961.44 262.806 4963.33 255.254 4967.1 248.418C4970.88 241.517 4976.35 236.048 4983.51 232.012C4990.67 227.91 4999.3 225.859 5009.39 225.859C5018.89 225.859 5026.96 227.454 5033.61 230.645C5040.25 233.835 5045.29 238.359 5048.74 244.219C5052.26 250.078 5054.02 257.012 5054.02 265.02C5054.02 269.447 5053.3 273.841 5051.87 278.203C5050.43 282.565 5048.38 286.927 5045.71 291.289C5043.11 295.586 5040.02 299.915 5036.44 304.277C5032.86 308.574 5028.92 312.936 5024.62 317.363L4993.86 351.25H5059.48ZM5170.52 286.992V310.234C5170.52 321.367 5169.41 330.872 5167.2 338.75C5165.05 346.562 5161.93 352.91 5157.82 357.793C5153.72 362.676 5148.81 366.257 5143.08 368.535C5137.41 370.814 5131.07 371.953 5124.04 371.953C5118.44 371.953 5113.23 371.237 5108.41 369.805C5103.66 368.372 5099.36 366.126 5095.52 363.066C5091.68 360.007 5088.39 356.068 5085.66 351.25C5082.99 346.367 5080.9 340.54 5079.41 333.77C5077.97 326.999 5077.26 319.154 5077.26 310.234V286.992C5077.26 275.794 5078.36 266.354 5080.58 258.672C5082.79 250.924 5085.95 244.642 5090.05 239.824C5094.15 234.941 5099.04 231.393 5104.7 229.18C5110.43 226.966 5116.81 225.859 5123.84 225.859C5129.5 225.859 5134.71 226.576 5139.46 228.008C5144.28 229.375 5148.58 231.556 5152.36 234.551C5156.2 237.546 5159.45 241.452 5162.12 246.27C5164.86 251.022 5166.94 256.784 5168.37 263.555C5169.8 270.26 5170.52 278.073 5170.52 286.992ZM5146.98 313.555V283.477C5146.98 277.812 5146.66 272.832 5146.01 268.535C5145.36 264.173 5144.38 260.495 5143.08 257.5C5141.84 254.44 5140.28 251.966 5138.39 250.078C5136.5 248.125 5134.35 246.725 5131.95 245.879C5129.54 244.967 5126.83 244.512 5123.84 244.512C5120.19 244.512 5116.94 245.228 5114.07 246.66C5111.21 248.027 5108.8 250.241 5106.85 253.301C5104.89 256.361 5103.4 260.397 5102.36 265.41C5101.38 270.358 5100.89 276.38 5100.89 283.477V313.555C5100.89 319.284 5101.22 324.329 5101.87 328.691C5102.52 333.053 5103.49 336.797 5104.8 339.922C5106.1 342.982 5107.66 345.521 5109.48 347.539C5111.37 349.492 5113.52 350.924 5115.93 351.836C5118.4 352.747 5121.11 353.203 5124.04 353.203C5127.75 353.203 5131.03 352.487 5133.9 351.055C5136.76 349.622 5139.17 347.344 5141.12 344.219C5143.08 341.029 5144.54 336.895 5145.52 331.816C5146.5 326.738 5146.98 320.651 5146.98 313.555ZM5255.77 227.324V370H5232.24V255.254L5197.38 267.07V247.637L5252.94 227.324H5255.77ZM5307.53 358.281C5307.53 354.635 5308.77 351.576 5311.24 349.102C5313.72 346.562 5317.07 345.293 5321.3 345.293C5325.6 345.293 5328.95 346.562 5331.36 349.102C5333.83 351.576 5335.07 354.635 5335.07 358.281C5335.07 361.927 5333.83 364.987 5331.36 367.461C5328.95 369.935 5325.6 371.172 5321.3 371.172C5317.07 371.172 5313.72 369.935 5311.24 367.461C5308.77 364.987 5307.53 361.927 5307.53 358.281Z" fill="#7666C4"/>
<path fill-rule="evenodd" clip-rule="evenodd" d="M620.5 300C620.5 197.825 537.675 115 435.5 115C333.325 115 250.5 197.825 250.5 300C250.5 402.175 333.325 485 435.5 485C537.675 485 620.5 402.175 620.5 300ZM435.5 207.5C440.407 207.5 445.112 209.449 448.581 212.919C452.051 216.388 454 221.093 454 226V318.5C454 323.407 452.051 328.112 448.581 331.581C445.112 335.051 440.407 337 435.5 337C430.593 337 425.888 335.051 422.419 331.581C418.949 328.112 417 323.407 417 318.5V226C417 221.093 418.949 216.388 422.419 212.919C425.888 209.449 430.593 207.5 435.5 207.5ZM417 374C417 369.093 418.949 364.388 422.419 360.919C425.888 357.449 430.593 355.5 435.5 355.5H435.648C440.555 355.5 445.26 357.449 448.729 360.919C452.199 364.388 454.148 369.093 454.148 374C454.148 378.907 452.199 383.612 448.729 387.081C445.26 390.551 440.555 392.5 435.648 392.5H435.5C430.593 392.5 425.888 390.551 422.419 387.081C418.949 383.612 417 378.907 417 374Z" fill="#E6E6E6"/>
</svg>
