<svg width="5601" height="600" viewBox="0 0 5601 600" fill="none" xmlns="http://www.w3.org/2000/svg">
<rect x="0.5" width="5600" height="600" rx="75" fill="#131313"/>
<path d="M1083.52 213.923H1052.39V195.993H1083.52C1088.61 195.993 1092.74 195.163 1095.89 193.503C1099.1 191.787 1101.45 189.463 1102.95 186.53C1104.44 183.542 1105.19 180.139 1105.19 176.32C1105.19 172.613 1104.44 169.154 1102.95 165.944C1101.45 162.735 1099.1 160.134 1095.89 158.142C1092.74 156.149 1088.61 155.153 1083.52 155.153H1059.87V258H1037.04V137.141H1083.52C1092.93 137.141 1100.95 138.828 1107.59 142.204C1114.29 145.524 1119.38 150.145 1122.87 156.066C1126.41 161.932 1128.18 168.628 1128.18 176.154C1128.18 183.957 1126.41 190.681 1122.87 196.325C1119.38 201.97 1114.29 206.314 1107.59 209.357C1100.95 212.401 1092.93 213.923 1083.52 213.923ZM1183.63 259.66C1176.82 259.66 1170.71 258.553 1165.29 256.34C1159.86 254.126 1155.24 251.055 1151.42 247.126C1147.66 243.142 1144.75 238.521 1142.71 233.264C1140.71 227.951 1139.72 222.251 1139.72 216.164V212.844C1139.72 205.926 1140.71 199.646 1142.71 194.001C1144.7 188.301 1147.52 183.404 1151.17 179.309C1154.83 175.214 1159.2 172.059 1164.29 169.846C1169.38 167.632 1175 166.525 1181.14 166.525C1187.5 166.525 1193.12 167.604 1197.99 169.763C1202.86 171.866 1206.93 174.854 1210.19 178.728C1213.46 182.601 1215.92 187.25 1217.58 192.673C1219.24 198.041 1220.07 203.99 1220.07 210.52V219.733H1149.68V204.626H1198.49V202.966C1198.38 199.479 1197.71 196.298 1196.5 193.42C1195.28 190.487 1193.4 188.163 1190.85 186.447C1188.31 184.676 1185.01 183.791 1180.97 183.791C1177.71 183.791 1174.86 184.51 1172.42 185.949C1170.04 187.333 1168.05 189.325 1166.45 191.926C1164.9 194.471 1163.74 197.515 1162.96 201.057C1162.19 204.598 1161.8 208.527 1161.8 212.844V216.164C1161.8 219.927 1162.3 223.413 1163.29 226.623C1164.34 229.833 1165.87 232.627 1167.86 235.007C1169.91 237.331 1172.34 239.157 1175.16 240.485C1178.04 241.758 1181.31 242.395 1184.96 242.395C1189.55 242.395 1193.7 241.509 1197.41 239.738C1201.17 237.912 1204.44 235.228 1207.2 231.687L1218.24 243.142C1216.36 245.909 1213.82 248.565 1210.61 251.11C1207.45 253.656 1203.63 255.731 1199.15 257.336C1194.67 258.885 1189.5 259.66 1183.63 259.66ZM1342.67 213.923V215.666C1342.67 222.085 1341.95 227.979 1340.51 233.347C1339.13 238.715 1337.03 243.363 1334.21 247.292C1331.44 251.221 1328.01 254.265 1323.91 256.423C1319.82 258.581 1315.09 259.66 1309.72 259.66C1304.9 259.66 1300.7 258.802 1297.1 257.087C1293.56 255.316 1290.57 252.854 1288.14 249.699C1285.76 246.49 1283.82 242.754 1282.33 238.493C1280.89 234.177 1279.81 229.501 1279.09 224.465V204.211C1279.81 198.788 1280.89 193.807 1282.33 189.27C1283.76 184.676 1285.7 180.692 1288.14 177.316C1290.57 173.885 1293.53 171.229 1297.02 169.348C1300.56 167.466 1304.74 166.525 1309.55 166.525C1313.92 166.525 1317.85 167.272 1321.34 168.767C1324.83 170.261 1327.9 172.419 1330.55 175.241C1333.21 178.008 1335.42 181.356 1337.19 185.285C1339.02 189.159 1340.38 193.531 1341.26 198.4C1342.2 203.215 1342.67 208.389 1342.67 213.923ZM1320.68 215.666V213.923C1320.68 210.658 1320.48 207.531 1320.09 204.543C1319.71 201.499 1319.1 198.732 1318.27 196.242C1317.44 193.752 1316.36 191.566 1315.03 189.685C1313.7 187.803 1312.1 186.364 1310.22 185.368C1308.34 184.317 1306.18 183.791 1303.74 183.791C1299.98 183.791 1296.88 184.483 1294.45 185.866C1292.07 187.25 1290.27 189.159 1289.05 191.594C1287.89 194.029 1287.2 196.879 1286.97 200.144V228.615C1287.25 231.382 1288 233.789 1289.22 235.837C1290.43 237.884 1292.23 239.489 1294.61 240.651C1297.05 241.813 1300.15 242.395 1303.91 242.395C1306.95 242.395 1309.53 241.73 1311.63 240.402C1313.79 239.019 1315.53 237.137 1316.86 234.758C1318.19 232.323 1319.15 229.501 1319.76 226.291C1320.37 223.026 1320.68 219.484 1320.68 215.666ZM1231.11 215.666V213.923C1231.11 208.389 1231.55 203.215 1232.44 198.4C1233.38 193.531 1234.76 189.159 1236.59 185.285C1238.42 181.356 1240.66 178.008 1243.31 175.241C1245.97 172.419 1249.04 170.261 1252.53 168.767C1256.01 167.272 1259.91 166.525 1264.23 166.525C1269.04 166.525 1273.2 167.466 1276.68 169.348C1280.17 171.229 1283.1 173.885 1285.48 177.316C1287.86 180.692 1289.77 184.676 1291.21 189.27C1292.65 193.807 1293.75 198.788 1294.53 204.211V223.635C1293.81 228.781 1292.7 233.568 1291.21 237.995C1289.77 242.367 1287.83 246.185 1285.4 249.45C1283.02 252.715 1280.08 255.233 1276.6 257.004C1273.11 258.775 1268.93 259.66 1264.06 259.66C1258.75 259.66 1254.05 258.581 1249.95 256.423C1245.86 254.265 1242.4 251.221 1239.58 247.292C1236.81 243.363 1234.71 238.715 1233.27 233.347C1231.83 227.979 1231.11 222.085 1231.11 215.666ZM1253.11 213.923V215.666C1253.11 219.484 1253.38 223.026 1253.94 226.291C1254.55 229.501 1255.49 232.323 1256.76 234.758C1258.09 237.137 1259.8 239.019 1261.91 240.402C1264.01 241.73 1266.58 242.395 1269.63 242.395C1273.44 242.395 1276.54 241.786 1278.92 240.568C1281.3 239.296 1283.1 237.58 1284.32 235.422C1285.59 233.208 1286.34 230.635 1286.56 227.702V200.144C1286.39 196.879 1285.7 194.029 1284.48 191.594C1283.27 189.159 1281.47 187.25 1279.09 185.866C1276.71 184.483 1273.61 183.791 1269.79 183.791C1266.75 183.791 1264.15 184.593 1261.99 186.198C1259.89 187.748 1258.17 189.906 1256.84 192.673C1255.57 195.44 1254.63 198.649 1254.02 202.302C1253.41 205.954 1253.11 209.828 1253.11 213.923ZM1275.6 292.531V130.5H1297.68V292.531H1275.6ZM1399.28 259.66C1392.48 259.66 1386.36 258.553 1380.94 256.34C1375.52 254.126 1370.9 251.055 1367.08 247.126C1363.31 243.142 1360.41 238.521 1358.36 233.264C1356.37 227.951 1355.37 222.251 1355.37 216.164V212.844C1355.37 205.926 1356.37 199.646 1358.36 194.001C1360.35 188.301 1363.18 183.404 1366.83 179.309C1370.48 175.214 1374.85 172.059 1379.94 169.846C1385.03 167.632 1390.65 166.525 1396.79 166.525C1403.16 166.525 1408.77 167.604 1413.64 169.763C1418.51 171.866 1422.58 174.854 1425.85 178.728C1429.11 182.601 1431.57 187.25 1433.23 192.673C1434.89 198.041 1435.72 203.99 1435.72 210.52V219.733H1365.33V204.626H1414.14V202.966C1414.03 199.479 1413.37 196.298 1412.15 193.42C1410.93 190.487 1409.05 188.163 1406.51 186.447C1403.96 184.676 1400.67 183.791 1396.63 183.791C1393.36 183.791 1390.51 184.51 1388.08 185.949C1385.7 187.333 1383.71 189.325 1382.1 191.926C1380.55 194.471 1379.39 197.515 1378.62 201.057C1377.84 204.598 1377.45 208.527 1377.45 212.844V216.164C1377.45 219.927 1377.95 223.413 1378.95 226.623C1380 229.833 1381.52 232.627 1383.51 235.007C1385.56 237.331 1388 239.157 1390.82 240.485C1393.69 241.758 1396.96 242.395 1400.61 242.395C1405.21 242.395 1409.36 241.509 1413.06 239.738C1416.83 237.912 1420.09 235.228 1422.86 231.687L1433.9 243.142C1432.02 245.909 1429.47 248.565 1426.26 251.11C1423.11 253.656 1419.29 255.731 1414.81 257.336C1410.32 258.885 1405.15 259.66 1399.28 259.66ZM1472.33 185.451V292.531H1450.33V168.186H1470.67L1472.33 185.451ZM1530.02 212.18V213.923C1530.02 220.453 1529.25 226.512 1527.7 232.102C1526.2 237.635 1523.99 242.478 1521.06 246.628C1518.12 250.723 1514.47 253.933 1510.1 256.257C1505.78 258.526 1500.8 259.66 1495.16 259.66C1489.62 259.66 1484.81 258.609 1480.71 256.506C1476.62 254.348 1473.16 251.304 1470.34 247.375C1467.52 243.446 1465.25 238.881 1463.53 233.679C1461.87 228.422 1460.63 222.694 1459.8 216.496V210.935C1460.63 204.349 1461.87 198.373 1463.53 193.005C1465.25 187.582 1467.52 182.906 1470.34 178.977C1473.16 174.992 1476.59 171.921 1480.63 169.763C1484.73 167.604 1489.51 166.525 1494.99 166.525C1500.69 166.525 1505.7 167.604 1510.02 169.763C1514.39 171.921 1518.07 175.02 1521.06 179.06C1524.04 183.099 1526.29 187.914 1527.78 193.503C1529.27 199.092 1530.02 205.318 1530.02 212.18ZM1508.02 213.923V212.18C1508.02 208.195 1507.66 204.515 1506.95 201.14C1506.23 197.709 1505.12 194.72 1503.62 192.175C1502.13 189.574 1500.19 187.554 1497.81 186.115C1495.43 184.676 1492.56 183.957 1489.18 183.957C1485.81 183.957 1482.9 184.51 1480.47 185.617C1478.03 186.724 1476.04 188.301 1474.49 190.349C1472.94 192.396 1471.72 194.831 1470.84 197.653C1470.01 200.42 1469.45 203.492 1469.18 206.867V220.646C1469.67 224.742 1470.64 228.422 1472.08 231.687C1473.52 234.951 1475.62 237.552 1478.39 239.489C1481.21 241.426 1484.87 242.395 1489.35 242.395C1492.72 242.395 1495.6 241.647 1497.98 240.153C1500.36 238.659 1502.3 236.612 1503.79 234.011C1505.29 231.354 1506.36 228.311 1507.03 224.88C1507.69 221.449 1508.02 217.797 1508.02 213.923ZM1595.51 238.908V197.487C1595.51 194.444 1594.99 191.815 1593.94 189.602C1592.89 187.388 1591.28 185.673 1589.12 184.455C1586.96 183.238 1584.23 182.629 1580.91 182.629C1577.97 182.629 1575.4 183.127 1573.19 184.123C1571.03 185.119 1569.37 186.53 1568.21 188.356C1567.04 190.127 1566.46 192.175 1566.46 194.499H1544.46C1544.46 190.791 1545.35 187.277 1547.12 183.957C1548.89 180.581 1551.41 177.593 1554.67 174.992C1558 172.336 1561.95 170.261 1566.54 168.767C1571.19 167.272 1576.4 166.525 1582.15 166.525C1588.96 166.525 1595.02 167.688 1600.33 170.012C1605.7 172.281 1609.9 175.712 1612.95 180.305C1616.05 184.898 1617.59 190.681 1617.59 197.653V236.833C1617.59 241.315 1617.87 245.161 1618.42 248.371C1619.03 251.525 1619.92 254.265 1621.08 256.589V258H1598.75C1597.7 255.731 1596.9 252.854 1596.34 249.367C1595.79 245.826 1595.51 242.339 1595.51 238.908ZM1598.59 203.298L1598.75 216.33H1584.89C1581.46 216.33 1578.44 216.69 1575.84 217.409C1573.24 218.073 1571.11 219.069 1569.45 220.397C1567.79 221.67 1566.54 223.22 1565.71 225.046C1564.88 226.817 1564.47 228.837 1564.47 231.105C1564.47 233.319 1564.97 235.311 1565.96 237.082C1567.02 238.853 1568.51 240.264 1570.45 241.315C1572.44 242.312 1574.76 242.81 1577.42 242.81C1581.29 242.81 1584.67 242.035 1587.55 240.485C1590.42 238.881 1592.66 236.944 1594.27 234.675C1595.87 232.406 1596.73 230.248 1596.84 228.2L1603.15 237.663C1602.38 239.932 1601.21 242.339 1599.67 244.885C1598.12 247.43 1596.12 249.81 1593.69 252.023C1591.25 254.237 1588.32 256.063 1584.89 257.502C1581.46 258.941 1577.47 259.66 1572.94 259.66C1567.13 259.66 1561.92 258.498 1557.33 256.174C1552.74 253.85 1549.11 250.668 1546.46 246.628C1543.8 242.588 1542.47 237.995 1542.47 232.849C1542.47 228.09 1543.36 223.884 1545.13 220.231C1546.9 216.579 1549.53 213.508 1553.01 211.018C1556.5 208.472 1560.82 206.563 1565.96 205.29C1571.17 203.962 1577.11 203.298 1583.81 203.298H1598.59ZM1697.7 168.186V185.534H1653.7V168.186H1697.7ZM1714.22 168.186V258H1692.3V168.186H1714.22ZM1648.22 168.186H1669.89L1667.48 213.01C1667.1 219.595 1666.4 225.378 1665.41 230.358C1664.41 235.284 1663.08 239.517 1661.42 243.059C1659.76 246.545 1657.74 249.395 1655.36 251.608C1652.98 253.822 1650.22 255.454 1647.06 256.506C1643.96 257.502 1640.48 258 1636.6 258H1629.88L1629.63 240.319L1632.79 240.07C1634.72 239.904 1636.38 239.379 1637.77 238.493C1639.2 237.608 1640.42 236.335 1641.42 234.675C1642.47 233.015 1643.33 230.884 1643.99 228.283C1644.71 225.627 1645.26 222.528 1645.65 218.986C1646.09 215.389 1646.4 211.239 1646.56 206.535L1648.22 168.186ZM1749.91 195.827H1776.14C1784.11 195.827 1790.89 197.155 1796.48 199.812C1802.12 202.412 1806.41 206.065 1809.34 210.769C1812.33 215.417 1813.83 220.812 1813.83 226.955C1813.83 231.382 1812.97 235.505 1811.25 239.323C1809.59 243.086 1807.16 246.379 1803.95 249.201C1800.74 251.968 1796.78 254.126 1792.08 255.676C1787.43 257.225 1782.12 258 1776.14 258H1735.8V168.186H1757.79V240.817H1776.14C1779.96 240.817 1783 240.181 1785.27 238.908C1787.59 237.58 1789.25 235.892 1790.25 233.845C1791.3 231.742 1791.83 229.501 1791.83 227.121C1791.83 224.686 1791.3 222.417 1790.25 220.314C1789.25 218.156 1787.59 216.413 1785.27 215.085C1783 213.757 1779.96 213.093 1776.14 213.093H1749.91V195.827ZM1889.94 205.041V222.224H1843.87V205.041H1889.94ZM1850.76 168.186V258H1828.77V168.186H1850.76ZM1905.3 168.186V258H1883.22V168.186H1905.3ZM1974.69 238.908V197.487C1974.69 194.444 1974.17 191.815 1973.12 189.602C1972.07 187.388 1970.46 185.673 1968.3 184.455C1966.14 183.238 1963.41 182.629 1960.08 182.629C1957.15 182.629 1954.58 183.127 1952.37 184.123C1950.21 185.119 1948.55 186.53 1947.38 188.356C1946.22 190.127 1945.64 192.175 1945.64 194.499H1923.64C1923.64 190.791 1924.53 187.277 1926.3 183.957C1928.07 180.581 1930.59 177.593 1933.85 174.992C1937.17 172.336 1941.13 170.261 1945.72 168.767C1950.37 167.272 1955.57 166.525 1961.33 166.525C1968.14 166.525 1974.2 167.688 1979.51 170.012C1984.88 172.281 1989.08 175.712 1992.13 180.305C1995.22 184.898 1996.77 190.681 1996.77 197.653V236.833C1996.77 241.315 1997.05 245.161 1997.6 248.371C1998.21 251.525 1999.1 254.265 2000.26 256.589V258H1977.93C1976.88 255.731 1976.08 252.854 1975.52 249.367C1974.97 245.826 1974.69 242.339 1974.69 238.908ZM1977.77 203.298L1977.93 216.33H1964.07C1960.64 216.33 1957.62 216.69 1955.02 217.409C1952.42 218.073 1950.29 219.069 1948.63 220.397C1946.97 221.67 1945.72 223.22 1944.89 225.046C1944.06 226.817 1943.65 228.837 1943.65 231.105C1943.65 233.319 1944.15 235.311 1945.14 237.082C1946.19 238.853 1947.69 240.264 1949.63 241.315C1951.62 242.312 1953.94 242.81 1956.6 242.81C1960.47 242.81 1963.85 242.035 1966.73 240.485C1969.6 238.881 1971.84 236.944 1973.45 234.675C1975.05 232.406 1975.91 230.248 1976.02 228.2L1982.33 237.663C1981.56 239.932 1980.39 242.339 1978.84 244.885C1977.3 247.43 1975.3 249.81 1972.87 252.023C1970.43 254.237 1967.5 256.063 1964.07 257.502C1960.64 258.941 1956.65 259.66 1952.12 259.66C1946.31 259.66 1941.1 258.498 1936.51 256.174C1931.92 253.85 1928.29 250.668 1925.64 246.628C1922.98 242.588 1921.65 237.995 1921.65 232.849C1921.65 228.09 1922.54 223.884 1924.31 220.231C1926.08 216.579 1928.71 213.508 1932.19 211.018C1935.68 208.472 1940 206.563 1945.14 205.29C1950.35 203.962 1956.29 203.298 1962.99 203.298H1977.77ZM2035.62 213.674H2058.12L2032.88 258H2010.39L2035.62 213.674ZM2050.9 168.186H2089.91V258H2068V185.285H2050.9C2047.41 185.285 2044.5 185.922 2042.18 187.194C2039.91 188.467 2038.22 190.1 2037.12 192.092C2036.01 194.029 2035.46 196.021 2035.46 198.068C2035.46 200.061 2035.98 201.997 2037.03 203.879C2038.08 205.76 2039.69 207.31 2041.85 208.527C2044.06 209.745 2046.83 210.354 2050.15 210.354H2075.8V225.793H2050.15C2044.45 225.793 2039.33 225.101 2034.79 223.718C2030.31 222.279 2026.46 220.287 2023.25 217.741C2020.1 215.196 2017.69 212.207 2016.03 208.776C2014.37 205.29 2013.54 201.499 2013.54 197.404C2013.54 193.199 2014.37 189.325 2016.03 185.783C2017.75 182.242 2020.21 179.143 2023.42 176.486C2026.68 173.83 2030.61 171.783 2035.21 170.344C2039.86 168.905 2045.08 168.186 2050.9 168.186ZM2213.92 168.186V185.534H2170.01V168.186H2213.92ZM2175.82 168.186V258H2153.83V168.186H2175.82ZM2230.52 168.186V258H2208.44V168.186H2230.52ZM2272.36 185.451V292.531H2250.36V168.186H2270.7L2272.36 185.451ZM2330.05 212.18V213.923C2330.05 220.453 2329.28 226.512 2327.73 232.102C2326.23 237.635 2324.02 242.478 2321.09 246.628C2318.15 250.723 2314.5 253.933 2310.13 256.257C2305.81 258.526 2300.83 259.66 2295.19 259.66C2289.65 259.66 2284.84 258.609 2280.74 256.506C2276.65 254.348 2273.19 251.304 2270.37 247.375C2267.55 243.446 2265.28 238.881 2263.56 233.679C2261.9 228.422 2260.66 222.694 2259.83 216.496V210.935C2260.66 204.349 2261.9 198.373 2263.56 193.005C2265.28 187.582 2267.55 182.906 2270.37 178.977C2273.19 174.992 2276.62 171.921 2280.66 169.763C2284.76 167.604 2289.54 166.525 2295.02 166.525C2300.72 166.525 2305.73 167.604 2310.05 169.763C2314.42 171.921 2318.1 175.02 2321.09 179.06C2324.07 183.099 2326.32 187.914 2327.81 193.503C2329.3 199.092 2330.05 205.318 2330.05 212.18ZM2308.05 213.923V212.18C2308.05 208.195 2307.69 204.515 2306.97 201.14C2306.26 197.709 2305.15 194.72 2303.65 192.175C2302.16 189.574 2300.22 187.554 2297.84 186.115C2295.46 184.676 2292.59 183.957 2289.21 183.957C2285.84 183.957 2282.93 184.51 2280.5 185.617C2278.06 186.724 2276.07 188.301 2274.52 190.349C2272.97 192.396 2271.75 194.831 2270.87 197.653C2270.04 200.42 2269.48 203.492 2269.21 206.867V220.646C2269.7 224.742 2270.67 228.422 2272.11 231.687C2273.55 234.951 2275.65 237.552 2278.42 239.489C2281.24 241.426 2284.89 242.395 2289.38 242.395C2292.75 242.395 2295.63 241.647 2298.01 240.153C2300.39 238.659 2302.33 236.612 2303.82 234.011C2305.31 231.354 2306.39 228.311 2307.06 224.88C2307.72 221.449 2308.05 217.797 2308.05 213.923ZM2342.17 214.006V212.263C2342.17 205.677 2343.11 199.618 2344.99 194.084C2346.87 188.495 2349.61 183.653 2353.21 179.558C2356.81 175.463 2361.21 172.281 2366.41 170.012C2371.61 167.688 2377.53 166.525 2384.17 166.525C2390.92 166.525 2396.9 167.688 2402.1 170.012C2407.36 172.281 2411.79 175.463 2415.38 179.558C2418.98 183.653 2421.72 188.495 2423.6 194.084C2425.48 199.618 2426.42 205.677 2426.42 212.263V214.006C2426.42 220.536 2425.48 226.595 2423.6 232.185C2421.72 237.718 2418.98 242.561 2415.38 246.711C2411.79 250.806 2407.39 253.988 2402.18 256.257C2396.98 258.526 2391.03 259.66 2384.34 259.66C2377.7 259.66 2371.75 258.526 2366.49 256.257C2361.23 253.988 2356.81 250.806 2353.21 246.711C2349.61 242.561 2346.87 237.718 2344.99 232.185C2343.11 226.595 2342.17 220.536 2342.17 214.006ZM2364.08 212.263V214.006C2364.08 217.935 2364.47 221.615 2365.25 225.046C2366.02 228.477 2367.21 231.493 2368.82 234.094C2370.42 236.695 2372.5 238.742 2375.04 240.236C2377.64 241.675 2380.74 242.395 2384.34 242.395C2387.88 242.395 2390.92 241.675 2393.47 240.236C2396.01 238.742 2398.09 236.695 2399.69 234.094C2401.35 231.493 2402.57 228.477 2403.35 225.046C2404.12 221.615 2404.51 217.935 2404.51 214.006V212.263C2404.51 208.389 2404.12 204.764 2403.35 201.389C2402.57 197.958 2401.35 194.942 2399.69 192.341C2398.09 189.685 2395.99 187.609 2393.39 186.115C2390.84 184.566 2387.77 183.791 2384.17 183.791C2380.63 183.791 2377.59 184.566 2375.04 186.115C2372.5 187.609 2370.42 189.685 2368.82 192.341C2367.21 194.942 2366.02 197.958 2365.25 201.389C2364.47 204.764 2364.08 208.389 2364.08 212.263ZM2502.71 168.186V185.534H2464.44V258H2442.53V168.186H2502.71ZM2535.66 185.451V292.531H2513.66V168.186H2534L2535.66 185.451ZM2593.35 212.18V213.923C2593.35 220.453 2592.58 226.512 2591.03 232.102C2589.53 237.635 2587.32 242.478 2584.39 246.628C2581.45 250.723 2577.8 253.933 2573.43 256.257C2569.11 258.526 2564.13 259.66 2558.49 259.66C2552.95 259.66 2548.14 258.609 2544.04 256.506C2539.95 254.348 2536.49 251.304 2533.67 247.375C2530.85 243.446 2528.58 238.881 2526.86 233.679C2525.2 228.422 2523.96 222.694 2523.13 216.496V210.935C2523.96 204.349 2525.2 198.373 2526.86 193.005C2528.58 187.582 2530.85 182.906 2533.67 178.977C2536.49 174.992 2539.92 171.921 2543.96 169.763C2548.06 167.604 2552.84 166.525 2558.32 166.525C2564.02 166.525 2569.03 167.604 2573.35 169.763C2577.72 171.921 2581.4 175.02 2584.39 179.06C2587.38 183.099 2589.62 187.914 2591.11 193.503C2592.6 199.092 2593.35 205.318 2593.35 212.18ZM2571.35 213.923V212.18C2571.35 208.195 2570.99 204.515 2570.28 201.14C2569.56 197.709 2568.45 194.72 2566.96 192.175C2565.46 189.574 2563.52 187.554 2561.14 186.115C2558.76 184.676 2555.89 183.957 2552.51 183.957C2549.14 183.957 2546.23 184.51 2543.8 185.617C2541.36 186.724 2539.37 188.301 2537.82 190.349C2536.27 192.396 2535.05 194.831 2534.17 197.653C2533.34 200.42 2532.78 203.492 2532.51 206.867V220.646C2533 224.742 2533.97 228.422 2535.41 231.687C2536.85 234.951 2538.95 237.552 2541.72 239.489C2544.54 241.426 2548.2 242.395 2552.68 242.395C2556.05 242.395 2558.93 241.647 2561.31 240.153C2563.69 238.659 2565.63 236.612 2567.12 234.011C2568.62 231.354 2569.69 228.311 2570.36 224.88C2571.02 221.449 2571.35 217.797 2571.35 213.923ZM2658.84 238.908V197.487C2658.84 194.444 2658.32 191.815 2657.27 189.602C2656.22 187.388 2654.61 185.673 2652.45 184.455C2650.29 183.238 2647.56 182.629 2644.24 182.629C2641.3 182.629 2638.73 183.127 2636.52 184.123C2634.36 185.119 2632.7 186.53 2631.54 188.356C2630.37 190.127 2629.79 192.175 2629.79 194.499H2607.79C2607.79 190.791 2608.68 187.277 2610.45 183.957C2612.22 180.581 2614.74 177.593 2618 174.992C2621.33 172.336 2625.28 170.261 2629.88 168.767C2634.52 167.272 2639.73 166.525 2645.48 166.525C2652.29 166.525 2658.35 167.688 2663.66 170.012C2669.03 172.281 2673.23 175.712 2676.28 180.305C2679.38 184.898 2680.92 190.681 2680.92 197.653V236.833C2680.92 241.315 2681.2 245.161 2681.75 248.371C2682.36 251.525 2683.25 254.265 2684.41 256.589V258H2662.08C2661.03 255.731 2660.23 252.854 2659.67 249.367C2659.12 245.826 2658.84 242.339 2658.84 238.908ZM2661.92 203.298L2662.08 216.33H2648.22C2644.79 216.33 2641.77 216.69 2639.17 217.409C2636.57 218.073 2634.44 219.069 2632.78 220.397C2631.12 221.67 2629.88 223.22 2629.04 225.046C2628.21 226.817 2627.8 228.837 2627.8 231.105C2627.8 233.319 2628.3 235.311 2629.29 237.082C2630.35 238.853 2631.84 240.264 2633.78 241.315C2635.77 242.312 2638.09 242.81 2640.75 242.81C2644.62 242.81 2648 242.035 2650.88 240.485C2653.75 238.881 2655.99 236.944 2657.6 234.675C2659.2 232.406 2660.06 230.248 2660.17 228.2L2666.48 237.663C2665.71 239.932 2664.54 242.339 2663 244.885C2661.45 247.43 2659.45 249.81 2657.02 252.023C2654.58 254.237 2651.65 256.063 2648.22 257.502C2644.79 258.941 2640.8 259.66 2636.27 259.66C2630.46 259.66 2625.25 258.498 2620.66 256.174C2616.07 253.85 2612.44 250.668 2609.79 246.628C2607.13 242.588 2605.8 237.995 2605.8 232.849C2605.8 228.09 2606.69 223.884 2608.46 220.231C2610.23 216.579 2612.86 213.508 2616.34 211.018C2619.83 208.472 2624.15 206.563 2629.29 205.29C2634.5 203.962 2640.44 203.298 2647.14 203.298H2661.92ZM2754.55 232.102L2779.79 168.186H2798.13L2762.02 258H2747.17L2711.14 168.186H2729.57L2754.55 232.102ZM2724.17 168.186V258H2702.17V168.186H2724.17ZM2785.35 258V168.186H2807.35V258H2785.35ZM2883.05 232.102L2908.28 168.186H2926.63L2890.52 258H2875.66L2839.64 168.186H2858.06L2883.05 232.102ZM2852.67 168.186V258H2830.67V168.186H2852.67ZM2913.84 258V168.186H2935.84V258H2913.84ZM3007.15 238.908V197.487C3007.15 194.444 3006.62 191.815 3005.57 189.602C3004.52 187.388 3002.91 185.673 3000.75 184.455C2998.6 183.238 2995.86 182.629 2992.54 182.629C2989.6 182.629 2987.03 183.127 2984.82 184.123C2982.66 185.119 2981 186.53 2979.84 188.356C2978.67 190.127 2978.09 192.175 2978.09 194.499H2956.1C2956.1 190.791 2956.98 187.277 2958.75 183.957C2960.52 180.581 2963.04 177.593 2966.31 174.992C2969.63 172.336 2973.58 170.261 2978.18 168.767C2982.82 167.272 2988.03 166.525 2993.78 166.525C3000.59 166.525 3006.65 167.688 3011.96 170.012C3017.33 172.281 3021.53 175.712 3024.58 180.305C3027.68 184.898 3029.23 190.681 3029.23 197.653V236.833C3029.23 241.315 3029.5 245.161 3030.06 248.371C3030.66 251.525 3031.55 254.265 3032.71 256.589V258H3010.38C3009.33 255.731 3008.53 252.854 3007.98 249.367C3007.42 245.826 3007.15 242.339 3007.15 238.908ZM3010.22 203.298L3010.38 216.33H2996.52C2993.09 216.33 2990.07 216.69 2987.47 217.409C2984.87 218.073 2982.74 219.069 2981.08 220.397C2979.42 221.67 2978.18 223.22 2977.35 225.046C2976.52 226.817 2976.1 228.837 2976.1 231.105C2976.1 233.319 2976.6 235.311 2977.59 237.082C2978.65 238.853 2980.14 240.264 2982.08 241.315C2984.07 242.312 2986.39 242.81 2989.05 242.81C2992.92 242.81 2996.3 242.035 2999.18 240.485C3002.05 238.881 3004.3 236.944 3005.9 234.675C3007.51 232.406 3008.36 230.248 3008.47 228.2L3014.78 237.663C3014.01 239.932 3012.85 242.339 3011.3 244.885C3009.75 247.43 3007.75 249.81 3005.32 252.023C3002.88 254.237 2999.95 256.063 2996.52 257.502C2993.09 258.941 2989.11 259.66 2984.57 259.66C2978.76 259.66 2973.56 258.498 2968.96 256.174C2964.37 253.85 2960.74 250.668 2958.09 246.628C2955.43 242.588 2954.1 237.995 2954.1 232.849C2954.1 228.09 2954.99 223.884 2956.76 220.231C2958.53 216.579 2961.16 213.508 2964.65 211.018C2968.13 208.472 2972.45 206.563 2977.59 205.29C2982.8 203.962 2988.75 203.298 2995.44 203.298H3010.22ZM3135.48 219.982H3107L3106.84 205.124H3130.25C3133.73 205.124 3136.58 204.764 3138.8 204.045C3141.01 203.326 3142.64 202.246 3143.69 200.808C3144.8 199.369 3145.35 197.626 3145.35 195.578C3145.35 193.807 3145.02 192.285 3144.36 191.013C3143.69 189.685 3142.7 188.605 3141.37 187.775C3140.1 186.945 3138.46 186.337 3136.47 185.949C3134.53 185.507 3132.27 185.285 3129.67 185.285H3114.81V258H3092.81V168.186H3129.67C3135.48 168.186 3140.71 168.711 3145.35 169.763C3150 170.759 3153.96 172.281 3157.22 174.328C3160.49 176.376 3162.98 178.977 3164.69 182.131C3166.47 185.23 3167.35 188.882 3167.35 193.088C3167.35 195.855 3166.74 198.456 3165.52 200.891C3164.31 203.326 3162.51 205.484 3160.13 207.365C3157.75 209.247 3154.82 210.796 3151.33 212.014C3147.84 213.176 3143.86 213.895 3139.38 214.172L3135.48 219.982ZM3135.48 258H3101.11L3109.25 240.9H3135.48C3138.69 240.9 3141.34 240.513 3143.44 239.738C3145.55 238.908 3147.1 237.718 3148.09 236.169C3149.14 234.619 3149.67 232.738 3149.67 230.524C3149.67 228.366 3149.17 226.512 3148.18 224.963C3147.24 223.358 3145.71 222.141 3143.61 221.311C3141.56 220.425 3138.85 219.982 3135.48 219.982H3112.81L3112.98 205.124H3139.29L3145.1 211.018C3151.08 211.405 3156.03 212.622 3159.96 214.67C3163.89 216.662 3166.82 219.208 3168.76 222.307C3170.7 225.35 3171.67 228.698 3171.67 232.351C3171.67 236.612 3170.86 240.347 3169.26 243.557C3167.65 246.766 3165.3 249.45 3162.2 251.608C3159.11 253.711 3155.31 255.316 3150.83 256.423C3146.35 257.474 3141.23 258 3135.48 258ZM3209.52 185.451V292.531H3187.52V168.186H3207.86L3209.52 185.451ZM3267.21 212.18V213.923C3267.21 220.453 3266.43 226.512 3264.88 232.102C3263.39 237.635 3261.18 242.478 3258.24 246.628C3255.31 250.723 3251.66 253.933 3247.29 256.257C3242.97 258.526 3237.99 259.66 3232.35 259.66C3226.81 259.66 3222 258.609 3217.9 256.506C3213.81 254.348 3210.35 251.304 3207.53 247.375C3204.7 243.446 3202.44 238.881 3200.72 233.679C3199.06 228.422 3197.81 222.694 3196.98 216.496V210.935C3197.81 204.349 3199.06 198.373 3200.72 193.005C3202.44 187.582 3204.7 182.906 3207.53 178.977C3210.35 174.992 3213.78 171.921 3217.82 169.763C3221.91 167.604 3226.7 166.525 3232.18 166.525C3237.88 166.525 3242.89 167.604 3247.2 169.763C3251.58 171.921 3255.26 175.02 3258.24 179.06C3261.23 183.099 3263.47 187.914 3264.97 193.503C3266.46 199.092 3267.21 205.318 3267.21 212.18ZM3245.21 213.923V212.18C3245.21 208.195 3244.85 204.515 3244.13 201.14C3243.41 197.709 3242.31 194.72 3240.81 192.175C3239.32 189.574 3237.38 187.554 3235 186.115C3232.62 184.676 3229.74 183.957 3226.37 183.957C3222.99 183.957 3220.09 184.51 3217.65 185.617C3215.22 186.724 3213.23 188.301 3211.68 190.349C3210.13 192.396 3208.91 194.831 3208.02 197.653C3207.19 200.42 3206.64 203.492 3206.36 206.867V220.646C3206.86 224.742 3207.83 228.422 3209.27 231.687C3210.71 234.951 3212.81 237.552 3215.58 239.489C3218.4 241.426 3222.05 242.395 3226.54 242.395C3229.91 242.395 3232.79 241.647 3235.17 240.153C3237.55 238.659 3239.48 236.612 3240.98 234.011C3242.47 231.354 3243.55 228.311 3244.22 224.88C3244.88 221.449 3245.21 217.797 3245.21 213.923ZM3323.57 259.66C3316.76 259.66 3310.65 258.553 3305.23 256.34C3299.8 254.126 3295.18 251.055 3291.36 247.126C3287.6 243.142 3284.7 238.521 3282.65 233.264C3280.66 227.951 3279.66 222.251 3279.66 216.164V212.844C3279.66 205.926 3280.66 199.646 3282.65 194.001C3284.64 188.301 3287.46 183.404 3291.12 179.309C3294.77 175.214 3299.14 172.059 3304.23 169.846C3309.32 167.632 3314.94 166.525 3321.08 166.525C3327.44 166.525 3333.06 167.604 3337.93 169.763C3342.8 171.866 3346.87 174.854 3350.13 178.728C3353.4 182.601 3355.86 187.25 3357.52 192.673C3359.18 198.041 3360.01 203.99 3360.01 210.52V219.733H3289.62V204.626H3338.43V202.966C3338.32 199.479 3337.65 196.298 3336.44 193.42C3335.22 190.487 3333.34 188.163 3330.79 186.447C3328.25 184.676 3324.95 183.791 3320.92 183.791C3317.65 183.791 3314.8 184.51 3312.37 185.949C3309.99 187.333 3307.99 189.325 3306.39 191.926C3304.84 194.471 3303.68 197.515 3302.9 201.057C3302.13 204.598 3301.74 208.527 3301.74 212.844V216.164C3301.74 219.927 3302.24 223.413 3303.23 226.623C3304.29 229.833 3305.81 232.627 3307.8 235.007C3309.85 237.331 3312.28 239.157 3315.1 240.485C3317.98 241.758 3321.25 242.395 3324.9 242.395C3329.49 242.395 3333.64 241.509 3337.35 239.738C3341.11 237.912 3344.38 235.228 3347.15 231.687L3358.19 243.142C3356.3 245.909 3353.76 248.565 3350.55 251.11C3347.39 253.656 3343.58 255.731 3339.09 257.336C3334.61 258.885 3329.44 259.66 3323.57 259.66ZM3428.58 232.102L3453.81 168.186H3472.16L3436.05 258H3421.19L3385.16 168.186H3403.59L3428.58 232.102ZM3398.2 168.186V258H3376.2V168.186H3398.2ZM3459.37 258V168.186H3481.37V258H3459.37ZM3543.54 259.66C3536.74 259.66 3530.62 258.553 3525.2 256.34C3519.77 254.126 3515.15 251.055 3511.33 247.126C3507.57 243.142 3504.67 238.521 3502.62 233.264C3500.63 227.951 3499.63 222.251 3499.63 216.164V212.844C3499.63 205.926 3500.63 199.646 3502.62 194.001C3504.61 188.301 3507.43 183.404 3511.09 179.309C3514.74 175.214 3519.11 172.059 3524.2 169.846C3529.29 167.632 3534.91 166.525 3541.05 166.525C3547.42 166.525 3553.03 167.604 3557.9 169.763C3562.77 171.866 3566.84 174.854 3570.1 178.728C3573.37 182.601 3575.83 187.25 3577.49 192.673C3579.15 198.041 3579.98 203.99 3579.98 210.52V219.733H3509.59V204.626H3558.4V202.966C3558.29 199.479 3557.63 196.298 3556.41 193.42C3555.19 190.487 3553.31 188.163 3550.76 186.447C3548.22 184.676 3544.93 183.791 3540.89 183.791C3537.62 183.791 3534.77 184.51 3532.34 185.949C3529.96 187.333 3527.96 189.325 3526.36 191.926C3524.81 194.471 3523.65 197.515 3522.87 201.057C3522.1 204.598 3521.71 208.527 3521.71 212.844V216.164C3521.71 219.927 3522.21 223.413 3523.21 226.623C3524.26 229.833 3525.78 232.627 3527.77 235.007C3529.82 237.331 3532.25 239.157 3535.08 240.485C3537.95 241.758 3541.22 242.395 3544.87 242.395C3549.46 242.395 3553.61 241.509 3557.32 239.738C3561.08 237.912 3564.35 235.228 3567.12 231.687L3578.16 243.142C3576.27 245.909 3573.73 248.565 3570.52 251.11C3567.37 253.656 3563.55 255.731 3559.06 257.336C3554.58 258.885 3549.41 259.66 3543.54 259.66ZM3656.02 205.041V222.224H3609.95V205.041H3656.02ZM3616.84 168.186V258H3594.84V168.186H3616.84ZM3671.37 168.186V258H3649.29V168.186H3671.37ZM3752.64 205.041V222.224H3706.57V205.041H3752.64ZM3713.46 168.186V258H3691.46V168.186H3713.46ZM3768 168.186V258H3745.92V168.186H3768ZM3784.02 214.006V212.263C3784.02 205.677 3784.96 199.618 3786.84 194.084C3788.72 188.495 3791.46 183.653 3795.06 179.558C3798.65 175.463 3803.05 172.281 3808.25 170.012C3813.46 167.688 3819.38 166.525 3826.02 166.525C3832.77 166.525 3838.75 167.688 3843.95 170.012C3849.2 172.281 3853.63 175.463 3857.23 179.558C3860.83 183.653 3863.56 188.495 3865.45 194.084C3867.33 199.618 3868.27 205.677 3868.27 212.263V214.006C3868.27 220.536 3867.33 226.595 3865.45 232.185C3863.56 237.718 3860.83 242.561 3857.23 246.711C3853.63 250.806 3849.23 253.988 3844.03 256.257C3838.83 258.526 3832.88 259.66 3826.18 259.66C3819.54 259.66 3813.59 258.526 3808.34 256.257C3803.08 253.988 3798.65 250.806 3795.06 246.711C3791.46 242.561 3788.72 237.718 3786.84 232.185C3784.96 226.595 3784.02 220.536 3784.02 214.006ZM3805.93 212.263V214.006C3805.93 217.935 3806.32 221.615 3807.09 225.046C3807.87 228.477 3809.06 231.493 3810.66 234.094C3812.27 236.695 3814.34 238.742 3816.89 240.236C3819.49 241.675 3822.59 242.395 3826.18 242.395C3829.73 242.395 3832.77 241.675 3835.31 240.236C3837.86 238.742 3839.94 236.695 3841.54 234.094C3843.2 231.493 3844.42 228.477 3845.19 225.046C3845.97 221.615 3846.35 217.935 3846.35 214.006V212.263C3846.35 208.389 3845.97 204.764 3845.19 201.389C3844.42 197.958 3843.2 194.942 3841.54 192.341C3839.94 189.685 3837.83 187.609 3835.23 186.115C3832.69 184.566 3829.61 183.791 3826.02 183.791C3822.48 183.791 3819.43 184.566 3816.89 186.115C3814.34 187.609 3812.27 189.685 3810.66 192.341C3809.06 194.942 3807.87 197.958 3807.09 201.389C3806.32 204.764 3805.93 208.389 3805.93 212.263ZM1096.72 404.041V421.224H1050.65V404.041H1096.72ZM1057.54 367.186V457H1035.54V367.186H1057.54ZM1112.08 367.186V457H1090V367.186H1112.08ZM1172.34 458.66C1165.53 458.66 1159.42 457.553 1154 455.34C1148.57 453.126 1143.95 450.055 1140.13 446.126C1136.37 442.142 1133.47 437.521 1131.42 432.264C1129.43 426.951 1128.43 421.251 1128.43 415.164V411.844C1128.43 404.926 1129.43 398.646 1131.42 393.001C1133.41 387.301 1136.23 382.404 1139.88 378.309C1143.54 374.214 1147.91 371.059 1153 368.846C1158.09 366.632 1163.71 365.525 1169.85 365.525C1176.21 365.525 1181.83 366.604 1186.7 368.763C1191.57 370.866 1195.64 373.854 1198.9 377.728C1202.17 381.601 1204.63 386.25 1206.29 391.673C1207.95 397.041 1208.78 402.99 1208.78 409.52V418.733H1138.39V403.626H1187.2V401.966C1187.09 398.479 1186.42 395.298 1185.21 392.42C1183.99 389.487 1182.11 387.163 1179.56 385.447C1177.02 383.676 1173.72 382.791 1169.68 382.791C1166.42 382.791 1163.57 383.51 1161.13 384.949C1158.76 386.333 1156.76 388.325 1155.16 390.926C1153.61 393.471 1152.45 396.515 1151.67 400.057C1150.9 403.598 1150.51 407.527 1150.51 411.844V415.164C1150.51 418.927 1151.01 422.413 1152 425.623C1153.06 428.833 1154.58 431.627 1156.57 434.007C1158.62 436.331 1161.05 438.157 1163.87 439.485C1166.75 440.758 1170.02 441.395 1173.67 441.395C1178.26 441.395 1182.41 440.509 1186.12 438.738C1189.88 436.912 1193.15 434.228 1195.92 430.687L1206.96 442.142C1205.07 444.909 1202.53 447.565 1199.32 450.11C1196.16 452.656 1192.35 454.731 1187.86 456.336C1183.38 457.885 1178.21 458.66 1172.34 458.66ZM1239.66 367.186H1261.57L1260.74 398.064C1260.47 407.417 1259.36 415.496 1257.42 422.303C1255.54 429.054 1253.02 434.726 1249.87 439.319C1246.77 443.912 1243.23 447.62 1239.25 450.442C1235.32 453.265 1231.19 455.451 1226.88 457H1221.65L1221.56 439.9L1224.14 439.734C1226.74 436.967 1228.92 434.256 1230.7 431.6C1232.52 428.888 1233.99 425.983 1235.09 422.884C1236.2 419.785 1237.03 416.243 1237.58 412.259C1238.19 408.219 1238.58 403.488 1238.75 398.064L1239.66 367.186ZM1245.55 367.186H1303.74V457H1281.83V385.198H1245.55V367.186ZM1216.67 439.734H1316.28V483.895H1294.36V457H1239V483.895H1216.58L1216.67 439.734ZM1325.82 413.006V411.263C1325.82 404.677 1326.76 398.618 1328.64 393.084C1330.53 387.495 1333.27 382.653 1336.86 378.558C1340.46 374.463 1344.86 371.281 1350.06 369.012C1355.26 366.688 1361.18 365.525 1367.82 365.525C1374.58 365.525 1380.55 366.688 1385.75 369.012C1391.01 371.281 1395.44 374.463 1399.04 378.558C1402.63 382.653 1405.37 387.495 1407.25 393.084C1409.13 398.618 1410.08 404.677 1410.08 411.263V413.006C1410.08 419.536 1409.13 425.595 1407.25 431.185C1405.37 436.718 1402.63 441.561 1399.04 445.711C1395.44 449.806 1391.04 452.988 1385.84 455.257C1380.64 457.526 1374.69 458.66 1367.99 458.66C1361.35 458.66 1355.4 457.526 1350.14 455.257C1344.89 452.988 1340.46 449.806 1336.86 445.711C1333.27 441.561 1330.53 436.718 1328.64 431.185C1326.76 425.595 1325.82 419.536 1325.82 413.006ZM1347.74 411.263V413.006C1347.74 416.935 1348.12 420.615 1348.9 424.046C1349.67 427.477 1350.86 430.493 1352.47 433.094C1354.07 435.695 1356.15 437.742 1358.69 439.236C1361.29 440.675 1364.39 441.395 1367.99 441.395C1371.53 441.395 1374.58 440.675 1377.12 439.236C1379.67 437.742 1381.74 435.695 1383.35 433.094C1385.01 430.493 1386.22 427.477 1387 424.046C1387.77 420.615 1388.16 416.935 1388.16 413.006V411.263C1388.16 407.389 1387.77 403.764 1387 400.389C1386.22 396.958 1385.01 393.942 1383.35 391.341C1381.74 388.685 1379.64 386.609 1377.04 385.115C1374.49 383.566 1371.42 382.791 1367.82 382.791C1364.28 382.791 1361.24 383.566 1358.69 385.115C1356.15 386.609 1354.07 388.685 1352.47 391.341C1350.86 393.942 1349.67 396.958 1348.9 400.389C1348.12 403.764 1347.74 407.389 1347.74 411.263ZM1462.87 441.395C1465.97 441.395 1468.73 440.786 1471.17 439.568C1473.6 438.351 1475.54 436.635 1476.98 434.422C1478.47 432.208 1479.28 429.635 1479.39 426.702H1500.06C1499.94 432.789 1498.23 438.24 1494.91 443.055C1491.59 447.869 1487.16 451.688 1481.63 454.51C1476.15 457.277 1470.01 458.66 1463.2 458.66C1456.28 458.66 1450.25 457.498 1445.1 455.174C1439.96 452.85 1435.67 449.612 1432.24 445.462C1428.86 441.312 1426.32 436.497 1424.6 431.019C1422.94 425.54 1422.11 419.674 1422.11 413.421V410.765C1422.11 404.511 1422.94 398.646 1424.6 393.167C1426.32 387.688 1428.86 382.874 1432.24 378.724C1435.67 374.573 1439.96 371.336 1445.1 369.012C1450.25 366.688 1456.26 365.525 1463.12 365.525C1470.37 365.525 1476.73 366.937 1482.21 369.759C1487.74 372.581 1492.06 376.565 1495.16 381.712C1498.31 386.858 1499.94 392.918 1500.06 399.891H1479.39C1479.28 396.681 1478.56 393.803 1477.23 391.258C1475.9 388.712 1474.02 386.665 1471.58 385.115C1469.15 383.566 1466.19 382.791 1462.7 382.791C1458.99 382.791 1455.9 383.566 1453.41 385.115C1450.97 386.665 1449.06 388.795 1447.68 391.507C1446.35 394.163 1445.41 397.151 1444.86 400.472C1444.36 403.737 1444.11 407.168 1444.11 410.765V413.421C1444.11 417.073 1444.36 420.56 1444.86 423.88C1445.41 427.2 1446.35 430.188 1447.68 432.845C1449.06 435.446 1450.97 437.521 1453.41 439.07C1455.9 440.62 1459.05 441.395 1462.87 441.395ZM1558.24 367.186V457H1536.25V367.186H1558.24ZM1587.46 367.186V384.285H1507.53V367.186H1587.46ZM1627.64 447.039L1651.71 367.186H1675.2L1639.18 470.613C1638.35 472.827 1637.27 475.234 1635.94 477.835C1634.67 480.436 1632.95 482.898 1630.79 485.223C1628.63 487.602 1625.92 489.539 1622.66 491.033C1619.45 492.527 1615.55 493.274 1610.95 493.274C1608.96 493.274 1607.19 493.136 1605.64 492.859C1604.09 492.583 1602.46 492.223 1600.74 491.78V475.345C1601.3 475.4 1601.93 475.428 1602.65 475.428C1603.43 475.483 1604.09 475.511 1604.65 475.511C1607.86 475.511 1610.51 475.123 1612.61 474.349C1614.72 473.629 1616.4 472.439 1617.68 470.779C1619.01 469.174 1620.11 467.072 1621 464.471L1627.64 447.039ZM1615.77 367.186L1636.11 433.343L1639.67 456.502L1624.57 459.241L1592.11 367.186H1615.77ZM1746.09 367.186V384.534H1702.18V367.186H1746.09ZM1707.99 367.186V457H1685.99V367.186H1707.99ZM1762.69 367.186V457H1740.61V367.186H1762.69ZM1843.96 404.041V421.224H1797.89V404.041H1843.96ZM1804.78 367.186V457H1782.78V367.186H1804.78ZM1859.31 367.186V457H1837.23V367.186H1859.31ZM1928.71 437.908V396.487C1928.71 393.444 1928.18 390.815 1927.13 388.602C1926.08 386.388 1924.47 384.673 1922.32 383.455C1920.16 382.238 1917.42 381.629 1914.1 381.629C1911.17 381.629 1908.59 382.127 1906.38 383.123C1904.22 384.119 1902.56 385.53 1901.4 387.356C1900.24 389.127 1899.66 391.175 1899.66 393.499H1877.66C1877.66 389.791 1878.54 386.277 1880.31 382.957C1882.09 379.581 1884.6 376.593 1887.87 373.992C1891.19 371.336 1895.15 369.261 1899.74 367.767C1904.39 366.272 1909.59 365.525 1915.34 365.525C1922.15 365.525 1928.21 366.688 1933.52 369.012C1938.89 371.281 1943.1 374.712 1946.14 379.305C1949.24 383.898 1950.79 389.681 1950.79 396.653V435.833C1950.79 440.315 1951.06 444.161 1951.62 447.371C1952.23 450.525 1953.11 453.265 1954.27 455.589V457H1931.95C1930.89 454.731 1930.09 451.854 1929.54 448.367C1928.98 444.826 1928.71 441.339 1928.71 437.908ZM1931.78 402.298L1931.95 415.33H1918.08C1914.65 415.33 1911.64 415.69 1909.04 416.409C1906.43 417.073 1904.3 418.069 1902.64 419.397C1900.98 420.67 1899.74 422.22 1898.91 424.046C1898.08 425.817 1897.66 427.837 1897.66 430.105C1897.66 432.319 1898.16 434.311 1899.16 436.082C1900.21 437.853 1901.7 439.264 1903.64 440.315C1905.63 441.312 1907.96 441.81 1910.61 441.81C1914.49 441.81 1917.86 441.035 1920.74 439.485C1923.62 437.881 1925.86 435.944 1927.46 433.675C1929.07 431.406 1929.93 429.248 1930.04 427.2L1936.34 436.663C1935.57 438.932 1934.41 441.339 1932.86 443.885C1931.31 446.43 1929.32 448.81 1926.88 451.023C1924.45 453.237 1921.51 455.063 1918.08 456.502C1914.65 457.941 1910.67 458.66 1906.13 458.66C1900.32 458.66 1895.12 457.498 1890.52 455.174C1885.93 452.85 1882.31 449.668 1879.65 445.628C1876.99 441.588 1875.67 436.995 1875.67 431.849C1875.67 427.09 1876.55 422.884 1878.32 419.231C1880.09 415.579 1882.72 412.508 1886.21 410.018C1889.69 407.472 1894.01 405.563 1899.16 404.29C1904.36 402.962 1910.31 402.298 1917 402.298H1931.78Z" fill="white"/>
<path d="M4834.19 371.953C4826.38 371.953 4819.32 370.684 4813 368.145C4806.75 365.54 4801.41 361.927 4796.98 357.305C4792.62 352.682 4789.27 347.246 4786.93 340.996C4784.58 334.746 4783.41 328.008 4783.41 320.781V316.875C4783.41 308.607 4784.61 301.12 4787.02 294.414C4789.43 287.708 4792.79 281.979 4797.08 277.227C4801.38 272.409 4806.46 268.73 4812.32 266.191C4818.18 263.652 4824.52 262.383 4831.36 262.383C4838.91 262.383 4845.52 263.652 4851.18 266.191C4856.85 268.73 4861.54 272.311 4865.25 276.934C4869.02 281.491 4871.82 286.927 4873.64 293.242C4875.53 299.557 4876.48 306.523 4876.48 314.141V324.199H4794.84V307.305H4853.23V305.449C4853.1 301.217 4852.26 297.246 4850.7 293.535C4849.2 289.824 4846.89 286.829 4843.76 284.551C4840.64 282.272 4836.47 281.133 4831.26 281.133C4827.36 281.133 4823.87 281.979 4820.81 283.672C4817.82 285.299 4815.31 287.676 4813.29 290.801C4811.27 293.926 4809.71 297.702 4808.61 302.129C4807.56 306.491 4807.04 311.406 4807.04 316.875V320.781C4807.04 325.404 4807.66 329.701 4808.9 333.672C4810.2 337.578 4812.09 340.996 4814.56 343.926C4817.04 346.855 4820.03 349.167 4823.55 350.859C4827.06 352.487 4831.07 353.301 4835.56 353.301C4841.22 353.301 4846.27 352.161 4850.7 349.883C4855.12 347.604 4858.96 344.382 4862.22 340.215L4874.62 352.227C4872.34 355.547 4869.38 358.737 4865.73 361.797C4862.09 364.792 4857.63 367.233 4852.36 369.121C4847.15 371.009 4841.09 371.953 4834.19 371.953ZM4918.47 284.453V370H4894.93V264.336H4917.39L4918.47 284.453ZM4950.79 263.652L4950.6 285.527C4949.17 285.267 4947.6 285.072 4945.91 284.941C4944.28 284.811 4942.65 284.746 4941.03 284.746C4936.99 284.746 4933.44 285.332 4930.38 286.504C4927.32 287.611 4924.75 289.238 4922.67 291.387C4920.65 293.47 4919.09 296.009 4917.98 299.004C4916.87 301.999 4916.22 305.352 4916.03 309.062L4910.66 309.453C4910.66 302.812 4911.31 296.66 4912.61 290.996C4913.91 285.332 4915.86 280.352 4918.47 276.055C4921.14 271.758 4924.46 268.405 4928.43 265.996C4932.47 263.587 4937.12 262.383 4942.39 262.383C4943.83 262.383 4945.36 262.513 4946.98 262.773C4948.68 263.034 4949.95 263.327 4950.79 263.652ZM5059.48 351.25V370H4964.17V353.887L5010.46 303.398C5015.54 297.669 5019.54 292.721 5022.47 288.555C5025.4 284.388 5027.45 280.645 5028.62 277.324C5029.86 273.939 5030.48 270.651 5030.48 267.461C5030.48 262.969 5029.63 259.03 5027.94 255.645C5026.31 252.194 5023.9 249.492 5020.71 247.539C5017.52 245.521 5013.65 244.512 5009.09 244.512C5003.82 244.512 4999.39 245.651 4995.81 247.93C4992.23 250.208 4989.53 253.366 4987.71 257.402C4985.88 261.374 4984.97 265.931 4984.97 271.074H4961.44C4961.44 262.806 4963.33 255.254 4967.1 248.418C4970.88 241.517 4976.35 236.048 4983.51 232.012C4990.67 227.91 4999.3 225.859 5009.39 225.859C5018.89 225.859 5026.96 227.454 5033.61 230.645C5040.25 233.835 5045.29 238.359 5048.74 244.219C5052.26 250.078 5054.02 257.012 5054.02 265.02C5054.02 269.447 5053.3 273.841 5051.87 278.203C5050.43 282.565 5048.38 286.927 5045.71 291.289C5043.11 295.586 5040.02 299.915 5036.44 304.277C5032.86 308.574 5028.92 312.936 5024.62 317.363L4993.86 351.25H5059.48ZM5170.52 286.992V310.234C5170.52 321.367 5169.41 330.872 5167.2 338.75C5165.05 346.562 5161.93 352.91 5157.82 357.793C5153.72 362.676 5148.81 366.257 5143.08 368.535C5137.41 370.814 5131.07 371.953 5124.04 371.953C5118.44 371.953 5113.23 371.237 5108.41 369.805C5103.66 368.372 5099.36 366.126 5095.52 363.066C5091.68 360.007 5088.39 356.068 5085.66 351.25C5082.99 346.367 5080.9 340.54 5079.41 333.77C5077.97 326.999 5077.26 319.154 5077.26 310.234V286.992C5077.26 275.794 5078.36 266.354 5080.58 258.672C5082.79 250.924 5085.95 244.642 5090.05 239.824C5094.15 234.941 5099.04 231.393 5104.7 229.18C5110.43 226.966 5116.81 225.859 5123.84 225.859C5129.5 225.859 5134.71 226.576 5139.46 228.008C5144.28 229.375 5148.58 231.556 5152.36 234.551C5156.2 237.546 5159.45 241.452 5162.12 246.27C5164.86 251.022 5166.94 256.784 5168.37 263.555C5169.8 270.26 5170.52 278.073 5170.52 286.992ZM5146.98 313.555V283.477C5146.98 277.812 5146.66 272.832 5146.01 268.535C5145.36 264.173 5144.38 260.495 5143.08 257.5C5141.84 254.44 5140.28 251.966 5138.39 250.078C5136.5 248.125 5134.35 246.725 5131.95 245.879C5129.54 244.967 5126.83 244.512 5123.84 244.512C5120.19 244.512 5116.94 245.228 5114.07 246.66C5111.21 248.027 5108.8 250.241 5106.85 253.301C5104.89 256.361 5103.4 260.397 5102.36 265.41C5101.38 270.358 5100.89 276.38 5100.89 283.477V313.555C5100.89 319.284 5101.22 324.329 5101.87 328.691C5102.52 333.053 5103.49 336.797 5104.8 339.922C5106.1 342.982 5107.66 345.521 5109.48 347.539C5111.37 349.492 5113.52 350.924 5115.93 351.836C5118.4 352.747 5121.11 353.203 5124.04 353.203C5127.75 353.203 5131.03 352.487 5133.9 351.055C5136.76 349.622 5139.17 347.344 5141.12 344.219C5143.08 341.029 5144.54 336.895 5145.52 331.816C5146.5 326.738 5146.98 320.651 5146.98 313.555ZM5255.77 227.324V370H5232.24V255.254L5197.38 267.07V247.637L5252.94 227.324H5255.77ZM5307.53 358.281C5307.53 354.635 5308.77 351.576 5311.24 349.102C5313.72 346.562 5317.07 345.293 5321.3 345.293C5325.6 345.293 5328.95 346.562 5331.36 349.102C5333.83 351.576 5335.07 354.635 5335.07 358.281C5335.07 361.927 5333.83 364.987 5331.36 367.461C5328.95 369.935 5325.6 371.172 5321.3 371.172C5317.07 371.172 5313.72 369.935 5311.24 367.461C5308.77 364.987 5307.53 361.927 5307.53 358.281Z" fill="#7666C4"/>
<path fill-rule="evenodd" clip-rule="evenodd" d="M620.5 300C620.5 197.825 537.675 115 435.5 115C333.325 115 250.5 197.825 250.5 300C250.5 402.175 333.325 485 435.5 485C537.675 485 620.5 402.175 620.5 300ZM435.5 207.5C440.407 207.5 445.112 209.449 448.581 212.919C452.051 216.388 454 221.093 454 226V318.5C454 323.407 452.051 328.112 448.581 331.581C445.112 335.051 440.407 337 435.5 337C430.593 337 425.888 335.051 422.419 331.581C418.949 328.112 417 323.407 417 318.5V226C417 221.093 418.949 216.388 422.419 212.919C425.888 209.449 430.593 207.5 435.5 207.5ZM417 374C417 369.093 418.949 364.388 422.419 360.919C425.888 357.449 430.593 355.5 435.5 355.5H435.648C440.555 355.5 445.26 357.449 448.729 360.919C452.199 364.388 454.148 369.093 454.148 374C454.148 378.907 452.199 383.612 448.729 387.081C445.26 390.551 440.555 392.5 435.648 392.5H435.5C430.593 392.5 425.888 390.551 422.419 387.081C418.949 383.612 417 378.907 417 374Z" fill="#E6E6E6"/>
</svg>
