<svg width="5601" height="600" viewBox="0 0 5601 600" fill="none" xmlns="http://www.w3.org/2000/svg">
<rect x="0.5" width="5600" height="600" rx="75" fill="#131313"/>
<path d="M1074.89 215.085L1105.1 137.141H1129.92L1088.25 235.339C1086.87 238.493 1085.29 241.537 1083.52 244.47C1081.75 247.403 1079.62 250.031 1077.13 252.355C1074.7 254.624 1071.74 256.423 1068.25 257.751C1064.82 259.079 1060.67 259.743 1055.8 259.743C1054.53 259.743 1053 259.688 1051.23 259.577C1049.46 259.522 1048.11 259.439 1047.17 259.328V241.398C1047.83 241.564 1048.91 241.675 1050.4 241.73C1051.95 241.786 1053.06 241.813 1053.72 241.813C1056.93 241.813 1059.48 241.315 1061.36 240.319C1063.3 239.268 1064.82 237.857 1065.92 236.086C1067.09 234.26 1068.11 232.185 1069 229.86L1074.89 215.085ZM1053.47 137.141L1082.44 200.476L1089.25 225.129L1071.9 225.627L1028.74 137.141H1053.47ZM1229.12 219.982H1200.65L1200.48 205.124H1223.89C1227.38 205.124 1230.22 204.764 1232.44 204.045C1234.65 203.326 1236.28 202.246 1237.34 200.808C1238.44 199.369 1239 197.626 1239 195.578C1239 193.807 1238.66 192.285 1238 191.013C1237.34 189.685 1236.34 188.605 1235.01 187.775C1233.74 186.945 1232.11 186.337 1230.11 185.949C1228.18 185.507 1225.91 185.285 1223.31 185.285H1208.45V258H1186.45V168.186H1223.31C1229.12 168.186 1234.35 168.711 1239 169.763C1243.64 170.759 1247.6 172.281 1250.87 174.328C1254.13 176.376 1256.62 178.977 1258.34 182.131C1260.11 185.23 1260.99 188.882 1260.99 193.088C1260.99 195.855 1260.38 198.456 1259.17 200.891C1257.95 203.326 1256.15 205.484 1253.77 207.365C1251.39 209.247 1248.46 210.796 1244.97 212.014C1241.49 213.176 1237.5 213.895 1233.02 214.172L1229.12 219.982ZM1229.12 258H1194.75L1202.89 240.9H1229.12C1232.33 240.9 1234.98 240.513 1237.09 239.738C1239.19 238.908 1240.74 237.718 1241.74 236.169C1242.79 234.619 1243.31 232.738 1243.31 230.524C1243.31 228.366 1242.81 226.512 1241.82 224.963C1240.88 223.358 1239.36 222.141 1237.25 221.311C1235.21 220.425 1232.49 219.982 1229.12 219.982H1206.46L1206.62 205.124H1232.94L1238.75 211.018C1244.72 211.405 1249.68 212.622 1253.61 214.67C1257.53 216.662 1260.47 219.208 1262.4 222.307C1264.34 225.35 1265.31 228.698 1265.31 232.351C1265.31 236.612 1264.51 240.347 1262.9 243.557C1261.3 246.766 1258.95 249.45 1255.85 251.608C1252.75 253.711 1248.96 255.316 1244.47 256.423C1239.99 257.474 1234.87 258 1229.12 258ZM1330.72 238.908V197.487C1330.72 194.444 1330.19 191.815 1329.14 189.602C1328.09 187.388 1326.49 185.673 1324.33 184.455C1322.17 183.238 1319.43 182.629 1316.11 182.629C1313.18 182.629 1310.6 183.127 1308.39 184.123C1306.23 185.119 1304.57 186.53 1303.41 188.356C1302.25 190.127 1301.67 192.175 1301.67 194.499H1279.67C1279.67 190.791 1280.56 187.277 1282.33 183.957C1284.1 180.581 1286.61 177.593 1289.88 174.992C1293.2 172.336 1297.16 170.261 1301.75 168.767C1306.4 167.272 1311.6 166.525 1317.36 166.525C1324.16 166.525 1330.22 167.688 1335.53 170.012C1340.9 172.281 1345.11 175.712 1348.15 180.305C1351.25 184.898 1352.8 190.681 1352.8 197.653V236.833C1352.8 241.315 1353.08 245.161 1353.63 248.371C1354.24 251.525 1355.12 254.265 1356.29 256.589V258H1333.96C1332.91 255.731 1332.1 252.854 1331.55 249.367C1331 245.826 1330.72 242.339 1330.72 238.908ZM1333.79 203.298L1333.96 216.33H1320.09C1316.66 216.33 1313.65 216.69 1311.05 217.409C1308.45 218.073 1306.32 219.069 1304.66 220.397C1303 221.67 1301.75 223.22 1300.92 225.046C1300.09 226.817 1299.67 228.837 1299.67 231.105C1299.67 233.319 1300.17 235.311 1301.17 237.082C1302.22 238.853 1303.71 240.264 1305.65 241.315C1307.64 242.312 1309.97 242.81 1312.62 242.81C1316.5 242.81 1319.87 242.035 1322.75 240.485C1325.63 238.881 1327.87 236.944 1329.47 234.675C1331.08 232.406 1331.94 230.248 1332.05 228.2L1338.36 237.663C1337.58 239.932 1336.42 242.339 1334.87 244.885C1333.32 247.43 1331.33 249.81 1328.89 252.023C1326.46 254.237 1323.53 256.063 1320.09 257.502C1316.66 258.941 1312.68 259.66 1308.14 259.66C1302.33 259.66 1297.13 258.498 1292.54 256.174C1287.94 253.85 1284.32 250.668 1281.66 246.628C1279.01 242.588 1277.68 237.995 1277.68 232.849C1277.68 228.09 1278.56 223.884 1280.33 220.231C1282.1 216.579 1284.73 213.508 1288.22 211.018C1291.71 208.472 1296.02 206.563 1301.17 205.29C1306.37 203.962 1312.32 203.298 1319.02 203.298H1333.79ZM1409.41 242.395C1412.51 242.395 1415.28 241.786 1417.71 240.568C1420.15 239.351 1422.08 237.635 1423.52 235.422C1425.02 233.208 1425.82 230.635 1425.93 227.702H1446.6C1446.49 233.789 1444.77 239.24 1441.45 244.055C1438.13 248.869 1433.7 252.688 1428.17 255.51C1422.69 258.277 1416.55 259.66 1409.74 259.66C1402.83 259.66 1396.79 258.498 1391.65 256.174C1386.5 253.85 1382.21 250.612 1378.78 246.462C1375.41 242.312 1372.86 237.497 1371.14 232.019C1369.48 226.54 1368.65 220.674 1368.65 214.421V211.765C1368.65 205.511 1369.48 199.646 1371.14 194.167C1372.86 188.688 1375.41 183.874 1378.78 179.724C1382.21 175.573 1386.5 172.336 1391.65 170.012C1396.79 167.688 1402.8 166.525 1409.66 166.525C1416.91 166.525 1423.27 167.937 1428.75 170.759C1434.29 173.581 1438.6 177.565 1441.7 182.712C1444.86 187.858 1446.49 193.918 1446.6 200.891H1425.93C1425.82 197.681 1425.1 194.803 1423.77 192.258C1422.44 189.712 1420.56 187.665 1418.13 186.115C1415.69 184.566 1412.73 183.791 1409.25 183.791C1405.54 183.791 1402.44 184.566 1399.95 186.115C1397.51 187.665 1395.6 189.795 1394.22 192.507C1392.89 195.163 1391.95 198.151 1391.4 201.472C1390.9 204.737 1390.65 208.168 1390.65 211.765V214.421C1390.65 218.073 1390.9 221.56 1391.4 224.88C1391.95 228.2 1392.89 231.188 1394.22 233.845C1395.6 236.446 1397.51 238.521 1399.95 240.07C1402.44 241.62 1405.59 242.395 1409.41 242.395ZM3338.43 238.244L3338.26 253.435C3338.26 259.356 3336.8 265.36 3333.86 271.447C3330.93 277.535 3327.14 282.57 3322.49 286.555L3310.87 280.163C3312.37 277.673 3313.75 275.155 3315.02 272.609C3316.35 270.064 3317.4 267.297 3318.18 264.309C3319.01 261.376 3319.42 258.083 3319.42 254.431V238.244H3338.43ZM1095.64 367.186V384.534H1051.73V367.186H1095.64ZM1057.54 367.186V457H1035.54V367.186H1057.54ZM1112.24 367.186V457H1090.16V367.186H1112.24ZM1128.26 413.006V411.263C1128.26 404.677 1129.2 398.618 1131.09 393.084C1132.97 387.495 1135.71 382.653 1139.3 378.558C1142.9 374.463 1147.3 371.281 1152.5 369.012C1157.7 366.688 1163.62 365.525 1170.27 365.525C1177.02 365.525 1182.99 366.688 1188.2 369.012C1193.45 371.281 1197.88 374.463 1201.48 378.558C1205.07 382.653 1207.81 387.495 1209.69 393.084C1211.58 398.618 1212.52 404.677 1212.52 411.263V413.006C1212.52 419.536 1211.58 425.595 1209.69 431.185C1207.81 436.718 1205.07 441.561 1201.48 445.711C1197.88 449.806 1193.48 452.988 1188.28 455.257C1183.08 457.526 1177.13 458.66 1170.43 458.66C1163.79 458.66 1157.84 457.526 1152.58 455.257C1147.33 452.988 1142.9 449.806 1139.3 445.711C1135.71 441.561 1132.97 436.718 1131.09 431.185C1129.2 425.595 1128.26 419.536 1128.26 413.006ZM1150.18 411.263V413.006C1150.18 416.935 1150.57 420.615 1151.34 424.046C1152.11 427.477 1153.3 430.493 1154.91 433.094C1156.51 435.695 1158.59 437.742 1161.13 439.236C1163.74 440.675 1166.83 441.395 1170.43 441.395C1173.97 441.395 1177.02 440.675 1179.56 439.236C1182.11 437.742 1184.18 435.695 1185.79 433.094C1187.45 430.493 1188.67 427.477 1189.44 424.046C1190.22 420.615 1190.6 416.935 1190.6 413.006V411.263C1190.6 407.389 1190.22 403.764 1189.44 400.389C1188.67 396.958 1187.45 393.942 1185.79 391.341C1184.18 388.685 1182.08 386.609 1179.48 385.115C1176.93 383.566 1173.86 382.791 1170.27 382.791C1166.72 382.791 1163.68 383.566 1161.13 385.115C1158.59 386.609 1156.51 388.685 1154.91 391.341C1153.3 393.942 1152.11 396.958 1151.34 400.389C1150.57 403.764 1150.18 407.389 1150.18 411.263ZM1257.26 421.971L1220.73 367.186H1247.79L1267.8 401.8H1285.15L1282.41 421.971H1257.26ZM1268.21 418.484L1246.47 457H1219.82L1250.95 407.029L1268.21 418.484ZM1298.93 367.186V457H1277.01V367.186H1298.93ZM1355.46 367.186L1318.85 421.971H1293.7L1290.96 401.8H1308.31L1328.31 367.186H1355.46ZM1329.64 457L1307.89 418.484L1325.74 407.029L1356.78 457H1329.64ZM1418.38 437.908V396.487C1418.38 393.444 1417.85 390.815 1416.8 388.602C1415.75 386.388 1414.14 384.673 1411.98 383.455C1409.83 382.238 1407.09 381.629 1403.77 381.629C1400.83 381.629 1398.26 382.127 1396.05 383.123C1393.89 384.119 1392.23 385.53 1391.07 387.356C1389.9 389.127 1389.32 391.175 1389.32 393.499H1367.33C1367.33 389.791 1368.21 386.277 1369.98 382.957C1371.75 379.581 1374.27 376.593 1377.54 373.992C1380.86 371.336 1384.81 369.261 1389.41 367.767C1394.05 366.272 1399.26 365.525 1405.01 365.525C1411.82 365.525 1417.88 366.688 1423.19 369.012C1428.56 371.281 1432.76 374.712 1435.81 379.305C1438.91 383.898 1440.46 389.681 1440.46 396.653V435.833C1440.46 440.315 1440.73 444.161 1441.29 447.371C1441.89 450.525 1442.78 453.265 1443.94 455.589V457H1421.61C1420.56 454.731 1419.76 451.854 1419.21 448.367C1418.65 444.826 1418.38 441.339 1418.38 437.908ZM1421.45 402.298L1421.61 415.33H1407.75C1404.32 415.33 1401.3 415.69 1398.7 416.409C1396.1 417.073 1393.97 418.069 1392.31 419.397C1390.65 420.67 1389.41 422.22 1388.58 424.046C1387.75 425.817 1387.33 427.837 1387.33 430.105C1387.33 432.319 1387.83 434.311 1388.83 436.082C1389.88 437.853 1391.37 439.264 1393.31 440.315C1395.3 441.312 1397.62 441.81 1400.28 441.81C1404.15 441.81 1407.53 441.035 1410.41 439.485C1413.28 437.881 1415.53 435.944 1417.13 433.675C1418.74 431.406 1419.59 429.248 1419.7 427.2L1426.01 436.663C1425.24 438.932 1424.08 441.339 1422.53 443.885C1420.98 446.43 1418.98 448.81 1416.55 451.023C1414.11 453.237 1411.18 455.063 1407.75 456.502C1404.32 457.941 1400.34 458.66 1395.8 458.66C1389.99 458.66 1384.79 457.498 1380.19 455.174C1375.6 452.85 1371.97 449.668 1369.32 445.628C1366.66 441.588 1365.33 436.995 1365.33 431.849C1365.33 427.09 1366.22 422.884 1367.99 419.231C1369.76 415.579 1372.39 412.508 1375.88 410.018C1379.36 407.472 1383.68 405.563 1388.83 404.29C1394.03 402.962 1399.98 402.298 1406.67 402.298H1421.45ZM1520.56 367.186V384.534H1476.56V367.186H1520.56ZM1537.08 367.186V457H1515.16V367.186H1537.08ZM1471.09 367.186H1492.75L1490.34 412.01C1489.96 418.595 1489.26 424.378 1488.27 429.358C1487.27 434.284 1485.94 438.517 1484.28 442.059C1482.62 445.545 1480.6 448.395 1478.22 450.608C1475.85 452.822 1473.08 454.454 1469.92 455.506C1466.82 456.502 1463.34 457 1459.46 457H1452.74L1452.49 439.319L1455.65 439.07C1457.58 438.904 1459.24 438.379 1460.63 437.493C1462.07 436.608 1463.28 435.335 1464.28 433.675C1465.33 432.015 1466.19 429.884 1466.85 427.283C1467.57 424.627 1468.13 421.528 1468.51 417.986C1468.96 414.389 1469.26 410.239 1469.43 405.535L1471.09 367.186ZM1583.48 447.039L1607.55 367.186H1631.04L1595.02 470.613C1594.19 472.827 1593.11 475.234 1591.78 477.835C1590.51 480.436 1588.79 482.898 1586.63 485.223C1584.47 487.602 1581.76 489.539 1578.5 491.033C1575.29 492.527 1571.39 493.274 1566.79 493.274C1564.8 493.274 1563.03 493.136 1561.48 492.859C1559.93 492.583 1558.3 492.223 1556.58 491.78V475.345C1557.14 475.4 1557.77 475.428 1558.49 475.428C1559.27 475.483 1559.93 475.511 1560.49 475.511C1563.69 475.511 1566.35 475.123 1568.45 474.349C1570.56 473.629 1572.24 472.439 1573.52 470.779C1574.85 469.174 1575.95 467.072 1576.84 464.471L1583.48 447.039ZM1571.61 367.186L1591.95 433.343L1595.51 456.502L1580.41 459.241L1547.95 367.186H1571.61ZM1663.83 425.706L1696.54 367.186H1718.53V457H1696.54V398.396L1663.83 457H1641.83V367.186H1663.83V425.706ZM1692.47 331.907H1708.41C1708.41 336.556 1707.27 340.678 1705 344.275C1702.73 347.872 1699.5 350.695 1695.29 352.742C1691.14 354.734 1686.21 355.73 1680.51 355.73C1671.94 355.73 1665.13 353.517 1660.09 349.09C1655.06 344.663 1652.54 338.935 1652.54 331.907H1668.48C1668.48 334.84 1669.39 337.469 1671.22 339.793C1673.04 342.117 1676.14 343.279 1680.51 343.279C1684.89 343.279 1687.96 342.117 1689.73 339.793C1691.55 337.469 1692.47 334.84 1692.47 331.907ZM1775.31 441.395C1778.41 441.395 1781.18 440.786 1783.61 439.568C1786.05 438.351 1787.98 436.635 1789.42 434.422C1790.92 432.208 1791.72 429.635 1791.83 426.702H1812.5C1812.39 432.789 1810.67 438.24 1807.35 443.055C1804.03 447.869 1799.6 451.688 1794.07 454.51C1788.59 457.277 1782.45 458.66 1775.64 458.66C1768.72 458.66 1762.69 457.498 1757.55 455.174C1752.4 452.85 1748.11 449.612 1744.68 445.462C1741.3 441.312 1738.76 436.497 1737.04 431.019C1735.38 425.54 1734.55 419.674 1734.55 413.421V410.765C1734.55 404.511 1735.38 398.646 1737.04 393.167C1738.76 387.688 1741.3 382.874 1744.68 378.724C1748.11 374.573 1752.4 371.336 1757.55 369.012C1762.69 366.688 1768.7 365.525 1775.56 365.525C1782.81 365.525 1789.17 366.937 1794.65 369.759C1800.18 372.581 1804.5 376.565 1807.6 381.712C1810.75 386.858 1812.39 392.918 1812.5 399.891H1791.83C1791.72 396.681 1791 393.803 1789.67 391.258C1788.34 388.712 1786.46 386.665 1784.03 385.115C1781.59 383.566 1778.63 382.791 1775.14 382.791C1771.44 382.791 1768.34 383.566 1765.85 385.115C1763.41 386.665 1761.5 388.795 1760.12 391.507C1758.79 394.163 1757.85 397.151 1757.3 400.472C1756.8 403.737 1756.55 407.168 1756.55 410.765V413.421C1756.55 417.073 1756.8 420.56 1757.3 423.88C1757.85 427.2 1758.79 430.188 1760.12 432.845C1761.5 435.446 1763.41 437.521 1765.85 439.07C1768.34 440.62 1771.49 441.395 1775.31 441.395ZM1870.69 367.186V457H1848.69V367.186H1870.69ZM1899.9 367.186V384.285H1819.97V367.186H1899.9ZM1960.92 437.908V396.487C1960.92 393.444 1960.39 390.815 1959.34 388.602C1958.29 386.388 1956.68 384.673 1954.52 383.455C1952.37 382.238 1949.63 381.629 1946.31 381.629C1943.37 381.629 1940.8 382.127 1938.59 383.123C1936.43 384.119 1934.77 385.53 1933.61 387.356C1932.44 389.127 1931.86 391.175 1931.86 393.499H1909.87C1909.87 389.791 1910.75 386.277 1912.52 382.957C1914.29 379.581 1916.81 376.593 1920.08 373.992C1923.4 371.336 1927.35 369.261 1931.95 367.767C1936.59 366.272 1941.8 365.525 1947.55 365.525C1954.36 365.525 1960.42 366.688 1965.73 369.012C1971.1 371.281 1975.3 374.712 1978.35 379.305C1981.45 383.898 1983 389.681 1983 396.653V435.833C1983 440.315 1983.27 444.161 1983.83 447.371C1984.43 450.525 1985.32 453.265 1986.48 455.589V457H1964.15C1963.1 454.731 1962.3 451.854 1961.75 448.367C1961.19 444.826 1960.92 441.339 1960.92 437.908ZM1963.99 402.298L1964.15 415.33H1950.29C1946.86 415.33 1943.84 415.69 1941.24 416.409C1938.64 417.073 1936.51 418.069 1934.85 419.397C1933.19 420.67 1931.95 422.22 1931.12 424.046C1930.29 425.817 1929.87 427.837 1929.87 430.105C1929.87 432.319 1930.37 434.311 1931.36 436.082C1932.42 437.853 1933.91 439.264 1935.85 440.315C1937.84 441.312 1940.16 441.81 1942.82 441.81C1946.69 441.81 1950.07 441.035 1952.95 439.485C1955.82 437.881 1958.07 435.944 1959.67 433.675C1961.27 431.406 1962.13 429.248 1962.24 427.2L1968.55 436.663C1967.78 438.932 1966.61 441.339 1965.07 443.885C1963.52 446.43 1961.52 448.81 1959.09 451.023C1956.65 453.237 1953.72 455.063 1950.29 456.502C1946.86 457.941 1942.87 458.66 1938.34 458.66C1932.53 458.66 1927.32 457.498 1922.73 455.174C1918.14 452.85 1914.51 449.668 1911.86 445.628C1909.2 441.588 1907.87 436.995 1907.87 431.849C1907.87 427.09 1908.76 422.884 1910.53 419.231C1912.3 415.579 1914.93 412.508 1918.42 410.018C1921.9 407.472 1926.22 405.563 1931.36 404.29C1936.57 402.962 1942.51 402.298 1949.21 402.298H1963.99ZM2105.35 367.186V384.534H2061.44V367.186H2105.35ZM2067.25 367.186V457H2045.25V367.186H2067.25ZM2121.95 367.186V457H2099.87V367.186H2121.95ZM2137.97 413.006V411.263C2137.97 404.677 2138.91 398.618 2140.79 393.084C2142.67 387.495 2145.41 382.653 2149.01 378.558C2152.61 374.463 2157.01 371.281 2162.21 369.012C2167.41 366.688 2173.33 365.525 2179.97 365.525C2186.72 365.525 2192.7 366.688 2197.9 369.012C2203.16 371.281 2207.59 374.463 2211.18 378.558C2214.78 382.653 2217.52 387.495 2219.4 393.084C2221.28 398.618 2222.22 404.677 2222.22 411.263V413.006C2222.22 419.536 2221.28 425.595 2219.4 431.185C2217.52 436.718 2214.78 441.561 2211.18 445.711C2207.59 449.806 2203.19 452.988 2197.99 455.257C2192.78 457.526 2186.83 458.66 2180.14 458.66C2173.5 458.66 2167.55 457.526 2162.29 455.257C2157.03 452.988 2152.61 449.806 2149.01 445.711C2145.41 441.561 2142.67 436.718 2140.79 431.185C2138.91 425.595 2137.97 419.536 2137.97 413.006ZM2159.88 411.263V413.006C2159.88 416.935 2160.27 420.615 2161.05 424.046C2161.82 427.477 2163.01 430.493 2164.62 433.094C2166.22 435.695 2168.3 437.742 2170.84 439.236C2173.44 440.675 2176.54 441.395 2180.14 441.395C2183.68 441.395 2186.72 440.675 2189.27 439.236C2191.82 437.742 2193.89 435.695 2195.5 433.094C2197.16 430.493 2198.37 427.477 2199.15 424.046C2199.92 420.615 2200.31 416.935 2200.31 413.006V411.263C2200.31 407.389 2199.92 403.764 2199.15 400.389C2198.37 396.958 2197.16 393.942 2195.5 391.341C2193.89 388.685 2191.79 386.609 2189.19 385.115C2186.64 383.566 2183.57 382.791 2179.97 382.791C2176.43 382.791 2173.39 383.566 2170.84 385.115C2168.3 386.609 2166.22 388.685 2164.62 391.341C2163.01 393.942 2161.82 396.958 2161.05 400.389C2160.27 403.764 2159.88 407.389 2159.88 411.263ZM2298.42 367.186V384.534H2254.51V367.186H2298.42ZM2260.32 367.186V457H2238.33V367.186H2260.32ZM2315.03 367.186V457H2292.95V367.186H2315.03ZM2331.05 413.006V411.263C2331.05 404.677 2331.99 398.618 2333.87 393.084C2335.75 387.495 2338.49 382.653 2342.09 378.558C2345.68 374.463 2350.08 371.281 2355.29 369.012C2360.49 366.688 2366.41 365.525 2373.05 365.525C2379.8 365.525 2385.78 366.688 2390.98 369.012C2396.24 371.281 2400.66 374.463 2404.26 378.558C2407.86 382.653 2410.6 387.495 2412.48 393.084C2414.36 398.618 2415.3 404.677 2415.3 411.263V413.006C2415.3 419.536 2414.36 425.595 2412.48 431.185C2410.6 436.718 2407.86 441.561 2404.26 445.711C2400.66 449.806 2396.26 452.988 2391.06 455.257C2385.86 457.526 2379.91 458.66 2373.21 458.66C2366.57 458.66 2360.63 457.526 2355.37 455.257C2350.11 452.988 2345.68 449.806 2342.09 445.711C2338.49 441.561 2335.75 436.718 2333.87 431.185C2331.99 425.595 2331.05 419.536 2331.05 413.006ZM2352.96 411.263V413.006C2352.96 416.935 2353.35 420.615 2354.12 424.046C2354.9 427.477 2356.09 430.493 2357.69 433.094C2359.3 435.695 2361.37 437.742 2363.92 439.236C2366.52 440.675 2369.62 441.395 2373.21 441.395C2376.76 441.395 2379.8 440.675 2382.35 439.236C2384.89 437.742 2386.97 435.695 2388.57 433.094C2390.23 430.493 2391.45 427.477 2392.22 424.046C2393 420.615 2393.39 416.935 2393.39 413.006V411.263C2393.39 407.389 2393 403.764 2392.22 400.389C2391.45 396.958 2390.23 393.942 2388.57 391.341C2386.97 388.685 2384.86 386.609 2382.26 385.115C2379.72 383.566 2376.65 382.791 2373.05 382.791C2369.51 382.791 2366.46 383.566 2363.92 385.115C2361.37 386.609 2359.3 388.685 2357.69 391.341C2356.09 393.942 2354.9 396.958 2354.12 400.389C2353.35 403.764 2352.96 407.389 2352.96 411.263ZM2490.26 367.186V384.534H2446.26V367.186H2490.26ZM2506.77 367.186V457H2484.86V367.186H2506.77ZM2440.78 367.186H2462.45L2460.04 412.01C2459.65 418.595 2458.96 424.378 2457.97 429.358C2456.97 434.284 2455.64 438.517 2453.98 442.059C2452.32 445.545 2450.3 448.395 2447.92 450.608C2445.54 452.822 2442.78 454.454 2439.62 455.506C2436.52 456.502 2433.04 457 2429.16 457H2422.44L2422.19 439.319L2425.34 439.07C2427.28 438.904 2428.94 438.379 2430.32 437.493C2431.76 436.608 2432.98 435.335 2433.98 433.675C2435.03 432.015 2435.89 429.884 2436.55 427.283C2437.27 424.627 2437.82 421.528 2438.21 417.986C2438.65 414.389 2438.96 410.239 2439.12 405.535L2440.78 367.186ZM2588.21 404.041V421.224H2542.14V404.041H2588.21ZM2549.03 367.186V457H2527.03V367.186H2549.03ZM2603.56 367.186V457H2581.48V367.186H2603.56ZM2645.65 425.706L2678.35 367.186H2700.35V457H2678.35V398.396L2645.65 457H2623.65V367.186H2645.65V425.706ZM2763.85 367.186V457H2741.85V367.186H2763.85ZM2793.07 367.186V384.285H2713.13V367.186H2793.07ZM2840.3 458.66C2833.49 458.66 2827.38 457.553 2821.96 455.34C2816.53 453.126 2811.91 450.055 2808.09 446.126C2804.33 442.142 2801.42 437.521 2799.38 432.264C2797.38 426.951 2796.39 421.251 2796.39 415.164V411.844C2796.39 404.926 2797.38 398.646 2799.38 393.001C2801.37 387.301 2804.19 382.404 2807.84 378.309C2811.5 374.214 2815.87 371.059 2820.96 368.846C2826.05 366.632 2831.67 365.525 2837.81 365.525C2844.17 365.525 2849.79 366.604 2854.66 368.763C2859.53 370.866 2863.6 373.854 2866.86 377.728C2870.13 381.601 2872.59 386.25 2874.25 391.673C2875.91 397.041 2876.74 402.99 2876.74 409.52V418.733H2806.35V403.626H2855.16V401.966C2855.05 398.479 2854.38 395.298 2853.17 392.42C2851.95 389.487 2850.07 387.163 2847.52 385.447C2844.98 383.676 2841.68 382.791 2837.64 382.791C2834.38 382.791 2831.53 383.51 2829.09 384.949C2826.71 386.333 2824.72 388.325 2823.12 390.926C2821.57 393.471 2820.41 396.515 2819.63 400.057C2818.86 403.598 2818.47 407.527 2818.47 411.844V415.164C2818.47 418.927 2818.97 422.413 2819.96 425.623C2821.01 428.833 2822.54 431.627 2824.53 434.007C2826.58 436.331 2829.01 438.157 2831.83 439.485C2834.71 440.758 2837.98 441.395 2841.63 441.395C2846.22 441.395 2850.37 440.509 2854.08 438.738C2857.84 436.912 2861.11 434.228 2863.87 430.687L2874.91 442.142C2873.03 444.909 2870.49 447.565 2867.28 450.11C2864.12 452.656 2860.3 454.731 2855.82 456.336C2851.34 457.885 2846.17 458.66 2840.3 458.66ZM2957.17 367.186V457H2935.26V367.186H2957.17ZM3015.7 367.186L2976.1 422.303H2952.78L2950.04 402.215H2966.22L2988.05 367.186H3015.7ZM2989.38 457L2964.81 418.484L2983.07 407.029L3018.52 457H2989.38ZM3021.34 413.006V411.263C3021.34 404.677 3022.28 398.618 3024.16 393.084C3026.04 387.495 3028.78 382.653 3032.38 378.558C3035.98 374.463 3040.38 371.281 3045.58 369.012C3050.78 366.688 3056.7 365.525 3063.34 365.525C3070.09 365.525 3076.07 366.688 3081.27 369.012C3086.53 371.281 3090.96 374.463 3094.55 378.558C3098.15 382.653 3100.89 387.495 3102.77 393.084C3104.65 398.618 3105.59 404.677 3105.59 411.263V413.006C3105.59 419.536 3104.65 425.595 3102.77 431.185C3100.89 436.718 3098.15 441.561 3094.55 445.711C3090.96 449.806 3086.56 452.988 3081.35 455.257C3076.15 457.526 3070.2 458.66 3063.51 458.66C3056.87 458.66 3050.92 457.526 3045.66 455.257C3040.4 452.988 3035.98 449.806 3032.38 445.711C3028.78 441.561 3026.04 436.718 3024.16 431.185C3022.28 425.595 3021.34 419.536 3021.34 413.006ZM3043.25 411.263V413.006C3043.25 416.935 3043.64 420.615 3044.42 424.046C3045.19 427.477 3046.38 430.493 3047.99 433.094C3049.59 435.695 3051.67 437.742 3054.21 439.236C3056.81 440.675 3059.91 441.395 3063.51 441.395C3067.05 441.395 3070.09 440.675 3072.64 439.236C3075.18 437.742 3077.26 435.695 3078.86 433.094C3080.52 430.493 3081.74 427.477 3082.52 424.046C3083.29 420.615 3083.68 416.935 3083.68 413.006V411.263C3083.68 407.389 3083.29 403.764 3082.52 400.389C3081.74 396.958 3080.52 393.942 3078.86 391.341C3077.26 388.685 3075.16 386.609 3072.56 385.115C3070.01 383.566 3066.94 382.791 3063.34 382.791C3059.8 382.791 3056.76 383.566 3054.21 385.115C3051.67 386.609 3049.59 388.685 3047.99 391.341C3046.38 393.942 3045.19 396.958 3044.42 400.389C3043.64 403.764 3043.25 407.389 3043.25 411.263ZM3121.7 367.186H3143.69V439.734H3170.34V367.186H3192.42V439.734H3219.06V367.186H3240.98V457H3121.7V367.186ZM3301.82 458.66C3295.02 458.66 3288.9 457.553 3283.48 455.34C3278.06 453.126 3273.43 450.055 3269.62 446.126C3265.85 442.142 3262.95 437.521 3260.9 432.264C3258.91 426.951 3257.91 421.251 3257.91 415.164V411.844C3257.91 404.926 3258.91 398.646 3260.9 393.001C3262.89 387.301 3265.71 382.404 3269.37 378.309C3273.02 374.214 3277.39 371.059 3282.48 368.846C3287.57 366.632 3293.19 365.525 3299.33 365.525C3305.7 365.525 3311.31 366.604 3316.18 368.763C3321.05 370.866 3325.12 373.854 3328.39 377.728C3331.65 381.601 3334.11 386.25 3335.77 391.673C3337.43 397.041 3338.26 402.99 3338.26 409.52V418.733H3267.87V403.626H3316.68V401.966C3316.57 398.479 3315.91 395.298 3314.69 392.42C3313.47 389.487 3311.59 387.163 3309.04 385.447C3306.5 383.676 3303.21 382.791 3299.17 382.791C3295.9 382.791 3293.05 383.51 3290.62 384.949C3288.24 386.333 3286.25 388.325 3284.64 390.926C3283.09 393.471 3281.93 396.515 3281.15 400.057C3280.38 403.598 3279.99 407.527 3279.99 411.844V415.164C3279.99 418.927 3280.49 422.413 3281.49 425.623C3282.54 428.833 3284.06 431.627 3286.05 434.007C3288.1 436.331 3290.53 438.157 3293.36 439.485C3296.23 440.758 3299.5 441.395 3303.15 441.395C3307.74 441.395 3311.89 440.509 3315.6 438.738C3319.37 436.912 3322.63 434.228 3325.4 430.687L3336.44 442.142C3334.56 444.909 3332.01 447.565 3328.8 450.11C3325.65 452.656 3321.83 454.731 3317.35 456.336C3312.86 457.885 3307.69 458.66 3301.82 458.66ZM3413.3 367.186V384.534H3369.31V367.186H3413.3ZM3429.82 367.186V457H3407.91V367.186H3429.82ZM3363.83 367.186H3385.5L3383.09 412.01C3382.7 418.595 3382.01 424.378 3381.01 429.358C3380.02 434.284 3378.69 438.517 3377.03 442.059C3375.37 445.545 3373.35 448.395 3370.97 450.608C3368.59 452.822 3365.82 454.454 3362.67 455.506C3359.57 456.502 3356.08 457 3352.21 457H3345.49L3345.24 439.319L3348.39 439.07C3350.33 438.904 3351.99 438.379 3353.37 437.493C3354.81 436.608 3356.03 435.335 3357.02 433.675C3358.07 432.015 3358.93 429.884 3359.6 427.283C3360.32 424.627 3360.87 421.528 3361.26 417.986C3361.7 414.389 3362 410.239 3362.17 405.535L3363.83 367.186ZM3490.25 458.66C3483.44 458.66 3477.33 457.553 3471.91 455.34C3466.48 453.126 3461.86 450.055 3458.04 446.126C3454.28 442.142 3451.38 437.521 3449.33 432.264C3447.34 426.951 3446.34 421.251 3446.34 415.164V411.844C3446.34 404.926 3447.34 398.646 3449.33 393.001C3451.32 387.301 3454.14 382.404 3457.79 378.309C3461.45 374.214 3465.82 371.059 3470.91 368.846C3476 366.632 3481.62 365.525 3487.76 365.525C3494.12 365.525 3499.74 366.604 3504.61 368.763C3509.48 370.866 3513.55 373.854 3516.81 377.728C3520.08 381.601 3522.54 386.25 3524.2 391.673C3525.86 397.041 3526.69 402.99 3526.69 409.52V418.733H3456.3V403.626H3505.11V401.966C3505 398.479 3504.33 395.298 3503.12 392.42C3501.9 389.487 3500.02 387.163 3497.47 385.447C3494.93 383.676 3491.63 382.791 3487.59 382.791C3484.33 382.791 3481.48 383.51 3479.04 384.949C3476.67 386.333 3474.67 388.325 3473.07 390.926C3471.52 393.471 3470.36 396.515 3469.58 400.057C3468.81 403.598 3468.42 407.527 3468.42 411.844V415.164C3468.42 418.927 3468.92 422.413 3469.91 425.623C3470.97 428.833 3472.49 431.627 3474.48 434.007C3476.53 436.331 3478.96 438.157 3481.78 439.485C3484.66 440.758 3487.93 441.395 3491.58 441.395C3496.17 441.395 3500.32 440.509 3504.03 438.738C3507.79 436.912 3511.06 434.228 3513.83 430.687L3524.87 442.142C3522.98 444.909 3520.44 447.565 3517.23 450.11C3514.07 452.656 3510.26 454.731 3505.77 456.336C3501.29 457.885 3496.12 458.66 3490.25 458.66ZM3564.79 367.186V457H3542.88V367.186H3564.79ZM3623.31 367.186L3583.72 422.303H3560.39L3557.65 402.215H3573.84L3595.67 367.186H3623.31ZM3597 457L3572.43 418.484L3590.69 407.029L3626.13 457H3597ZM3661.16 336.141L3658.76 420.726H3640.25L3637.84 336.141H3661.16ZM3637.17 446.79C3637.17 443.525 3638.28 440.786 3640.5 438.572C3642.76 436.303 3645.81 435.169 3649.63 435.169C3653.44 435.169 3656.46 436.303 3658.67 438.572C3660.94 440.786 3662.08 443.525 3662.08 446.79C3662.08 450 3660.94 452.711 3658.67 454.925C3656.46 457.138 3653.44 458.245 3649.63 458.245C3645.81 458.245 3642.76 457.138 3640.5 454.925C3638.28 452.711 3637.17 450 3637.17 446.79Z" fill="white"/>
<path d="M1564.88 205.041V222.224H1518.82V205.041H1564.88ZM1525.71 168.186V258H1503.71V168.186H1525.71ZM1580.24 168.186V258H1558.16V168.186H1580.24ZM1640.5 259.66C1633.7 259.66 1627.58 258.553 1622.16 256.34C1616.74 254.126 1612.12 251.055 1608.3 247.126C1604.53 243.142 1601.63 238.521 1599.58 233.264C1597.59 227.951 1596.59 222.251 1596.59 216.164V212.844C1596.59 205.926 1597.59 199.646 1599.58 194.001C1601.57 188.301 1604.4 183.404 1608.05 179.309C1611.7 175.214 1616.07 172.059 1621.16 169.846C1626.26 167.632 1631.87 166.525 1638.01 166.525C1644.38 166.525 1650 167.604 1654.87 169.763C1659.74 171.866 1663.8 174.854 1667.07 178.728C1670.33 182.601 1672.79 187.25 1674.46 192.673C1676.12 198.041 1676.95 203.99 1676.95 210.52V219.733H1606.55V204.626H1655.36V202.966C1655.25 199.479 1654.59 196.298 1653.37 193.42C1652.15 190.487 1650.27 188.163 1647.73 186.447C1645.18 184.676 1641.89 183.791 1637.85 183.791C1634.58 183.791 1631.73 184.51 1629.3 185.949C1626.92 187.333 1624.93 189.325 1623.32 191.926C1621.77 194.471 1620.61 197.515 1619.84 201.057C1619.06 204.598 1618.67 208.527 1618.67 212.844V216.164C1618.67 219.927 1619.17 223.413 1620.17 226.623C1621.22 229.833 1622.74 232.627 1624.73 235.007C1626.78 237.331 1629.22 239.157 1632.04 240.485C1634.92 241.758 1638.18 242.395 1641.83 242.395C1646.43 242.395 1650.58 241.509 1654.28 239.738C1658.05 237.912 1661.31 235.228 1664.08 231.687L1675.12 243.142C1673.24 245.909 1670.69 248.565 1667.48 251.11C1664.33 253.656 1660.51 255.731 1656.03 257.336C1651.54 258.885 1646.37 259.66 1640.5 259.66ZM1707.82 168.186H1729.74L1728.91 199.064C1728.63 208.417 1727.52 216.496 1725.59 223.303C1723.71 230.054 1721.19 235.726 1718.03 240.319C1714.94 244.912 1711.39 248.62 1707.41 251.442C1703.48 254.265 1699.36 256.451 1695.04 258H1689.81L1689.73 240.9L1692.3 240.734C1694.9 237.967 1697.09 235.256 1698.86 232.6C1700.69 229.888 1702.15 226.983 1703.26 223.884C1704.37 220.785 1705.2 217.243 1705.75 213.259C1706.36 209.219 1706.75 204.488 1706.91 199.064L1707.82 168.186ZM1713.72 168.186H1771.91V258H1749.99V186.198H1713.72V168.186ZM1684.83 240.734H1784.44V284.895H1762.53V258H1707.16V284.895H1684.75L1684.83 240.734ZM1793.99 214.006V212.263C1793.99 205.677 1794.93 199.618 1796.81 194.084C1798.69 188.495 1801.43 183.653 1805.03 179.558C1808.62 175.463 1813.02 172.281 1818.22 170.012C1823.43 167.688 1829.35 166.525 1835.99 166.525C1842.74 166.525 1848.72 167.688 1853.92 170.012C1859.18 172.281 1863.6 175.463 1867.2 179.558C1870.8 183.653 1873.54 188.495 1875.42 194.084C1877.3 199.618 1878.24 205.677 1878.24 212.263V214.006C1878.24 220.536 1877.3 226.595 1875.42 232.185C1873.54 237.718 1870.8 242.561 1867.2 246.711C1863.6 250.806 1859.2 253.988 1854 256.257C1848.8 258.526 1842.85 259.66 1836.15 259.66C1829.51 259.66 1823.56 258.526 1818.31 256.257C1813.05 253.988 1808.62 250.806 1805.03 246.711C1801.43 242.561 1798.69 237.718 1796.81 232.185C1794.93 226.595 1793.99 220.536 1793.99 214.006ZM1815.9 212.263V214.006C1815.9 217.935 1816.29 221.615 1817.06 225.046C1817.84 228.477 1819.03 231.493 1820.63 234.094C1822.24 236.695 1824.31 238.742 1826.86 240.236C1829.46 241.675 1832.56 242.395 1836.15 242.395C1839.7 242.395 1842.74 241.675 1845.29 240.236C1847.83 238.742 1849.91 236.695 1851.51 234.094C1853.17 231.493 1854.39 228.477 1855.16 225.046C1855.94 221.615 1856.33 217.935 1856.33 214.006V212.263C1856.33 208.389 1855.94 204.764 1855.16 201.389C1854.39 197.958 1853.17 194.942 1851.51 192.341C1849.91 189.685 1847.8 187.609 1845.2 186.115C1842.66 184.566 1839.59 183.791 1835.99 183.791C1832.45 183.791 1829.4 184.566 1826.86 186.115C1824.31 187.609 1822.24 189.685 1820.63 192.341C1819.03 194.942 1817.84 197.958 1817.06 201.389C1816.29 204.764 1815.9 208.389 1815.9 212.263ZM1931.03 242.395C1934.13 242.395 1936.9 241.786 1939.33 240.568C1941.77 239.351 1943.7 237.635 1945.14 235.422C1946.64 233.208 1947.44 230.635 1947.55 227.702H1968.22C1968.11 233.789 1966.39 239.24 1963.07 244.055C1959.75 248.869 1955.33 252.688 1949.79 255.51C1944.31 258.277 1938.17 259.66 1931.36 259.66C1924.45 259.66 1918.42 258.498 1913.27 256.174C1908.12 253.85 1903.83 250.612 1900.4 246.462C1897.03 242.312 1894.48 237.497 1892.77 232.019C1891.11 226.54 1890.28 220.674 1890.28 214.421V211.765C1890.28 205.511 1891.11 199.646 1892.77 194.167C1894.48 188.688 1897.03 183.874 1900.4 179.724C1903.83 175.573 1908.12 172.336 1913.27 170.012C1918.42 167.688 1924.42 166.525 1931.28 166.525C1938.53 166.525 1944.89 167.937 1950.37 170.759C1955.91 173.581 1960.22 177.565 1963.32 182.712C1966.48 187.858 1968.11 193.918 1968.22 200.891H1947.55C1947.44 197.681 1946.72 194.803 1945.39 192.258C1944.06 189.712 1942.18 187.665 1939.75 186.115C1937.31 184.566 1934.35 183.791 1930.87 183.791C1927.16 183.791 1924.06 184.566 1921.57 186.115C1919.13 187.665 1917.23 189.795 1915.84 192.507C1914.51 195.163 1913.57 198.151 1913.02 201.472C1912.52 204.737 1912.27 208.168 1912.27 211.765V214.421C1912.27 218.073 1912.52 221.56 1913.02 224.88C1913.57 228.2 1914.51 231.188 1915.84 233.845C1917.23 236.446 1919.13 238.521 1921.57 240.07C1924.06 241.62 1927.21 242.395 1931.03 242.395ZM2026.41 168.186V258H2004.41V168.186H2026.41ZM2055.63 168.186V185.285H1975.69V168.186H2055.63ZM2116.64 238.908V197.487C2116.64 194.444 2116.11 191.815 2115.06 189.602C2114.01 187.388 2112.4 185.673 2110.25 184.455C2108.09 183.238 2105.35 182.629 2102.03 182.629C2099.1 182.629 2096.52 183.127 2094.31 184.123C2092.15 185.119 2090.49 186.53 2089.33 188.356C2088.17 190.127 2087.58 192.175 2087.58 194.499H2065.59C2065.59 190.791 2066.47 187.277 2068.24 183.957C2070.01 180.581 2072.53 177.593 2075.8 174.992C2079.12 172.336 2083.07 170.261 2087.67 168.767C2092.32 167.272 2097.52 166.525 2103.27 166.525C2110.08 166.525 2116.14 167.688 2121.45 170.012C2126.82 172.281 2131.03 175.712 2134.07 180.305C2137.17 184.898 2138.72 190.681 2138.72 197.653V236.833C2138.72 241.315 2138.99 245.161 2139.55 248.371C2140.16 251.525 2141.04 254.265 2142.2 256.589V258H2119.88C2118.82 255.731 2118.02 252.854 2117.47 249.367C2116.91 245.826 2116.64 242.339 2116.64 238.908ZM2119.71 203.298L2119.88 216.33H2106.01C2102.58 216.33 2099.57 216.69 2096.96 217.409C2094.36 218.073 2092.23 219.069 2090.57 220.397C2088.91 221.67 2087.67 223.22 2086.84 225.046C2086.01 226.817 2085.59 228.837 2085.59 231.105C2085.59 233.319 2086.09 235.311 2087.09 237.082C2088.14 238.853 2089.63 240.264 2091.57 241.315C2093.56 242.312 2095.89 242.81 2098.54 242.81C2102.42 242.81 2105.79 242.035 2108.67 240.485C2111.55 238.881 2113.79 236.944 2115.39 234.675C2117 232.406 2117.86 230.248 2117.97 228.2L2124.27 237.663C2123.5 239.932 2122.34 242.339 2120.79 244.885C2119.24 247.43 2117.25 249.81 2114.81 252.023C2112.38 254.237 2109.44 256.063 2106.01 257.502C2102.58 258.941 2098.6 259.66 2094.06 259.66C2088.25 259.66 2083.05 258.498 2078.45 256.174C2073.86 253.85 2070.24 250.668 2067.58 246.628C2064.92 242.588 2063.6 237.995 2063.6 232.849C2063.6 228.09 2064.48 223.884 2066.25 220.231C2068.02 216.579 2070.65 213.508 2074.14 211.018C2077.62 208.472 2081.94 206.563 2087.09 205.29C2092.29 203.962 2098.24 203.298 2104.93 203.298H2119.71ZM2200.72 168.186V258H2178.73V168.186H2200.72ZM2229.94 168.186V185.285H2150.01V168.186H2229.94ZM2235.92 214.006V212.263C2235.92 205.677 2236.86 199.618 2238.74 194.084C2240.62 188.495 2243.36 183.653 2246.96 179.558C2250.56 175.463 2254.96 172.281 2260.16 170.012C2265.36 167.688 2271.28 166.525 2277.92 166.525C2284.67 166.525 2290.65 167.688 2295.85 170.012C2301.11 172.281 2305.54 175.463 2309.13 179.558C2312.73 183.653 2315.47 188.495 2317.35 194.084C2319.23 199.618 2320.17 205.677 2320.17 212.263V214.006C2320.17 220.536 2319.23 226.595 2317.35 232.185C2315.47 237.718 2312.73 242.561 2309.13 246.711C2305.54 250.806 2301.14 253.988 2295.93 256.257C2290.73 258.526 2284.78 259.66 2278.09 259.66C2271.45 259.66 2265.5 258.526 2260.24 256.257C2254.98 253.988 2250.56 250.806 2246.96 246.711C2243.36 242.561 2240.62 237.718 2238.74 232.185C2236.86 226.595 2235.92 220.536 2235.92 214.006ZM2257.83 212.263V214.006C2257.83 217.935 2258.22 221.615 2259 225.046C2259.77 228.477 2260.96 231.493 2262.57 234.094C2264.17 236.695 2266.25 238.742 2268.79 240.236C2271.39 241.675 2274.49 242.395 2278.09 242.395C2281.63 242.395 2284.67 241.675 2287.22 240.236C2289.76 238.742 2291.84 236.695 2293.44 234.094C2295.1 231.493 2296.32 228.477 2297.1 225.046C2297.87 221.615 2298.26 217.935 2298.26 214.006V212.263C2298.26 208.389 2297.87 204.764 2297.1 201.389C2296.32 197.958 2295.1 194.942 2293.44 192.341C2291.84 189.685 2289.74 187.609 2287.14 186.115C2284.59 184.566 2281.52 183.791 2277.92 183.791C2274.38 183.791 2271.34 184.566 2268.79 186.115C2266.25 187.609 2264.17 189.685 2262.57 192.341C2260.96 194.942 2259.77 197.958 2259 201.389C2258.22 204.764 2257.83 208.389 2257.83 212.263ZM2409.99 168.186V258H2387.99V168.186H2409.99ZM2400.03 207.282V224.548C2397.92 225.544 2395.38 226.485 2392.39 227.37C2389.46 228.2 2386.36 228.864 2383.09 229.362C2379.88 229.86 2376.76 230.109 2373.71 230.109C2365.47 230.109 2358.36 228.892 2352.38 226.457C2346.46 224.022 2341.89 220.287 2338.68 215.251C2335.47 210.16 2333.87 203.658 2333.87 195.744V168.103H2355.78V195.744C2355.78 200.005 2356.42 203.381 2357.69 205.871C2358.97 208.361 2360.93 210.132 2363.59 211.184C2366.24 212.235 2369.62 212.761 2373.71 212.761C2376.87 212.761 2379.88 212.539 2382.76 212.097C2385.64 211.599 2388.49 210.962 2391.31 210.188C2394.19 209.357 2397.09 208.389 2400.03 207.282ZM2491.25 205.041V222.224H2445.18V205.041H2491.25ZM2452.07 168.186V258H2430.08V168.186H2452.07ZM2506.61 168.186V258H2484.53V168.186H2506.61ZM2522.63 214.006V212.263C2522.63 205.677 2523.57 199.618 2525.45 194.084C2527.33 188.495 2530.07 183.653 2533.67 179.558C2537.27 175.463 2541.67 172.281 2546.87 170.012C2552.07 167.688 2557.99 166.525 2564.63 166.525C2571.38 166.525 2577.36 167.688 2582.56 170.012C2587.82 172.281 2592.24 175.463 2595.84 179.558C2599.44 183.653 2602.18 188.495 2604.06 194.084C2605.94 199.618 2606.88 205.677 2606.88 212.263V214.006C2606.88 220.536 2605.94 226.595 2604.06 232.185C2602.18 237.718 2599.44 242.561 2595.84 246.711C2592.24 250.806 2587.85 253.988 2582.64 256.257C2577.44 258.526 2571.49 259.66 2564.8 259.66C2558.16 259.66 2552.21 258.526 2546.95 256.257C2541.69 253.988 2537.27 250.806 2533.67 246.711C2530.07 242.561 2527.33 237.718 2525.45 232.185C2523.57 226.595 2522.63 220.536 2522.63 214.006ZM2544.54 212.263V214.006C2544.54 217.935 2544.93 221.615 2545.71 225.046C2546.48 228.477 2547.67 231.493 2549.27 234.094C2550.88 236.695 2552.95 238.742 2555.5 240.236C2558.1 241.675 2561.2 242.395 2564.8 242.395C2568.34 242.395 2571.38 241.675 2573.93 240.236C2576.47 238.742 2578.55 236.695 2580.15 234.094C2581.81 231.493 2583.03 228.477 2583.81 225.046C2584.58 221.615 2584.97 217.935 2584.97 214.006V212.263C2584.97 208.389 2584.58 204.764 2583.81 201.389C2583.03 197.958 2581.81 194.942 2580.15 192.341C2578.55 189.685 2576.45 187.609 2573.84 186.115C2571.3 184.566 2568.23 183.791 2564.63 183.791C2561.09 183.791 2558.05 184.566 2555.5 186.115C2552.95 187.609 2550.88 189.685 2549.27 192.341C2547.67 194.942 2546.48 197.958 2545.71 201.389C2544.93 204.764 2544.54 208.389 2544.54 212.263ZM2702.01 242.395C2705.11 242.395 2707.87 241.786 2710.31 240.568C2712.74 239.351 2714.68 237.635 2716.12 235.422C2717.61 233.208 2718.42 230.635 2718.53 227.702H2739.2C2739.09 233.789 2737.37 239.24 2734.05 244.055C2730.73 248.869 2726.3 252.688 2720.77 255.51C2715.29 258.277 2709.15 259.66 2702.34 259.66C2695.42 259.66 2689.39 258.498 2684.25 256.174C2679.1 253.85 2674.81 250.612 2671.38 246.462C2668 242.312 2665.46 237.497 2663.74 232.019C2662.08 226.54 2661.25 220.674 2661.25 214.421V211.765C2661.25 205.511 2662.08 199.646 2663.74 194.167C2665.46 188.688 2668 183.874 2671.38 179.724C2674.81 175.573 2679.1 172.336 2684.25 170.012C2689.39 167.688 2695.4 166.525 2702.26 166.525C2709.51 166.525 2715.87 167.937 2721.35 170.759C2726.88 173.581 2731.2 177.565 2734.3 182.712C2737.45 187.858 2739.09 193.918 2739.2 200.891H2718.53C2718.42 197.681 2717.7 194.803 2716.37 192.258C2715.04 189.712 2713.16 187.665 2710.72 186.115C2708.29 184.566 2705.33 183.791 2701.84 183.791C2698.14 183.791 2695.04 184.566 2692.55 186.115C2690.11 187.665 2688.2 189.795 2686.82 192.507C2685.49 195.163 2684.55 198.151 2684 201.472C2683.5 204.737 2683.25 208.168 2683.25 211.765V214.421C2683.25 218.073 2683.5 221.56 2684 224.88C2684.55 228.2 2685.49 231.188 2686.82 233.845C2688.2 236.446 2690.11 238.521 2692.55 240.07C2695.04 241.62 2698.19 242.395 2702.01 242.395ZM2775.72 185.451V292.531H2753.72V168.186H2774.06L2775.72 185.451ZM2833.41 212.18V213.923C2833.41 220.453 2832.64 226.512 2831.09 232.102C2829.59 237.635 2827.38 242.478 2824.45 246.628C2821.51 250.723 2817.86 253.933 2813.49 256.257C2809.17 258.526 2804.19 259.66 2798.55 259.66C2793.01 259.66 2788.2 258.609 2784.1 256.506C2780.01 254.348 2776.55 251.304 2773.73 247.375C2770.91 243.446 2768.64 238.881 2766.92 233.679C2765.26 228.422 2764.02 222.694 2763.19 216.496V210.935C2764.02 204.349 2765.26 198.373 2766.92 193.005C2768.64 187.582 2770.91 182.906 2773.73 178.977C2776.55 174.992 2779.98 171.921 2784.02 169.763C2788.12 167.604 2792.9 166.525 2798.38 166.525C2804.08 166.525 2809.09 167.604 2813.41 169.763C2817.78 171.921 2821.46 175.02 2824.45 179.06C2827.43 183.099 2829.67 187.914 2831.17 193.503C2832.66 199.092 2833.41 205.318 2833.41 212.18ZM2811.41 213.923V212.18C2811.41 208.195 2811.05 204.515 2810.33 201.14C2809.61 197.709 2808.51 194.72 2807.01 192.175C2805.52 189.574 2803.58 187.554 2801.2 186.115C2798.82 184.676 2795.95 183.957 2792.57 183.957C2789.19 183.957 2786.29 184.51 2783.85 185.617C2781.42 186.724 2779.43 188.301 2777.88 190.349C2776.33 192.396 2775.11 194.831 2774.23 197.653C2773.4 200.42 2772.84 203.492 2772.57 206.867V220.646C2773.06 224.742 2774.03 228.422 2775.47 231.687C2776.91 234.951 2779.01 237.552 2781.78 239.489C2784.6 241.426 2788.25 242.395 2792.74 242.395C2796.11 242.395 2798.99 241.647 2801.37 240.153C2803.75 238.659 2805.69 236.612 2807.18 234.011C2808.67 231.354 2809.75 228.311 2810.42 224.88C2811.08 221.449 2811.41 217.797 2811.41 213.923ZM2889.77 259.66C2882.97 259.66 2876.85 258.553 2871.43 256.34C2866 254.126 2861.38 251.055 2857.57 247.126C2853.8 243.142 2850.9 238.521 2848.85 233.264C2846.86 227.951 2845.86 222.251 2845.86 216.164V212.844C2845.86 205.926 2846.86 199.646 2848.85 194.001C2850.84 188.301 2853.66 183.404 2857.32 179.309C2860.97 175.214 2865.34 172.059 2870.43 169.846C2875.52 167.632 2881.14 166.525 2887.28 166.525C2893.65 166.525 2899.26 167.604 2904.13 169.763C2909 171.866 2913.07 174.854 2916.33 178.728C2919.6 182.601 2922.06 187.25 2923.72 192.673C2925.38 198.041 2926.21 203.99 2926.21 210.52V219.733H2855.82V204.626H2904.63V202.966C2904.52 199.479 2903.86 196.298 2902.64 193.42C2901.42 190.487 2899.54 188.163 2896.99 186.447C2894.45 184.676 2891.16 183.791 2887.12 183.791C2883.85 183.791 2881 184.51 2878.57 185.949C2876.19 187.333 2874.19 189.325 2872.59 191.926C2871.04 194.471 2869.88 197.515 2869.1 201.057C2868.33 204.598 2867.94 208.527 2867.94 212.844V216.164C2867.94 219.927 2868.44 223.413 2869.44 226.623C2870.49 229.833 2872.01 232.627 2874 235.007C2876.05 237.331 2878.48 239.157 2881.31 240.485C2884.18 241.758 2887.45 242.395 2891.1 242.395C2895.69 242.395 2899.84 241.509 2903.55 239.738C2907.31 237.912 2910.58 235.228 2913.35 231.687L2924.39 243.142C2922.51 245.909 2919.96 248.565 2916.75 251.11C2913.6 253.656 2909.78 255.731 2905.29 257.336C2900.81 258.885 2895.64 259.66 2889.77 259.66ZM2957.09 168.186H2979.01L2978.18 199.064C2977.9 208.417 2976.79 216.496 2974.86 223.303C2972.97 230.054 2970.46 235.726 2967.3 240.319C2964.2 244.912 2960.66 248.62 2956.68 251.442C2952.75 254.265 2948.62 256.451 2944.31 258H2939.08L2939 240.9L2941.57 240.734C2944.17 237.967 2946.36 235.256 2948.13 232.6C2949.95 229.888 2951.42 226.983 2952.53 223.884C2953.63 220.785 2954.46 217.243 2955.02 213.259C2955.63 209.219 2956.01 204.488 2956.18 199.064L2957.09 168.186ZM2962.99 168.186H3021.17V258H2999.26V186.198H2962.99V168.186ZM2934.1 240.734H3033.71V284.895H3011.79V258H2956.43V284.895H2934.02L2934.1 240.734ZM3084.01 242.395C3087.11 242.395 3089.88 241.786 3092.31 240.568C3094.75 239.351 3096.68 237.635 3098.12 235.422C3099.62 233.208 3100.42 230.635 3100.53 227.702H3121.2C3121.09 233.789 3119.37 239.24 3116.05 244.055C3112.73 248.869 3108.3 252.688 3102.77 255.51C3097.29 258.277 3091.15 259.66 3084.34 259.66C3077.43 259.66 3071.39 258.498 3066.25 256.174C3061.1 253.85 3056.81 250.612 3053.38 246.462C3050.01 242.312 3047.46 237.497 3045.74 232.019C3044.08 226.54 3043.25 220.674 3043.25 214.421V211.765C3043.25 205.511 3044.08 199.646 3045.74 194.167C3047.46 188.688 3050.01 183.874 3053.38 179.724C3056.81 175.573 3061.1 172.336 3066.25 170.012C3071.39 167.688 3077.4 166.525 3084.26 166.525C3091.51 166.525 3097.87 167.937 3103.35 170.759C3108.89 173.581 3113.2 177.565 3116.3 182.712C3119.46 187.858 3121.09 193.918 3121.2 200.891H3100.53C3100.42 197.681 3099.7 194.803 3098.37 192.258C3097.04 189.712 3095.16 187.665 3092.73 186.115C3090.29 184.566 3087.33 183.791 3083.84 183.791C3080.14 183.791 3077.04 184.566 3074.55 186.115C3072.11 187.665 3070.2 189.795 3068.82 192.507C3067.49 195.163 3066.55 198.151 3066 201.472C3065.5 204.737 3065.25 208.168 3065.25 211.765V214.421C3065.25 218.073 3065.5 221.56 3066 224.88C3066.55 228.2 3067.49 231.188 3068.82 233.845C3070.2 236.446 3072.11 238.521 3074.55 240.07C3077.04 241.62 3080.19 242.395 3084.01 242.395ZM3179.39 168.186V258H3157.39V168.186H3179.39ZM3208.61 168.186V185.285H3128.67V168.186H3208.61ZM3265.63 219.982H3237.16L3236.99 205.124H3260.4C3263.89 205.124 3266.74 204.764 3268.95 204.045C3271.17 203.326 3272.8 202.246 3273.85 200.808C3274.96 199.369 3275.51 197.626 3275.51 195.578C3275.51 193.807 3275.18 192.285 3274.51 191.013C3273.85 189.685 3272.85 188.605 3271.53 187.775C3270.25 186.945 3268.62 186.337 3266.63 185.949C3264.69 185.507 3262.42 185.285 3259.82 185.285H3244.96V258H3222.97V168.186H3259.82C3265.63 168.186 3270.86 168.711 3275.51 169.763C3280.16 170.759 3284.11 172.281 3287.38 174.328C3290.64 176.376 3293.14 178.977 3294.85 182.131C3296.62 185.23 3297.51 188.882 3297.51 193.088C3297.51 195.855 3296.9 198.456 3295.68 200.891C3294.46 203.326 3292.66 205.484 3290.29 207.365C3287.91 209.247 3284.97 210.796 3281.49 212.014C3278 213.176 3274.02 213.895 3269.53 214.172L3265.63 219.982ZM3265.63 258H3231.27L3239.4 240.9H3265.63C3268.84 240.9 3271.5 240.513 3273.6 239.738C3275.7 238.908 3277.25 237.718 3278.25 236.169C3279.3 234.619 3279.83 232.738 3279.83 230.524C3279.83 228.366 3279.33 226.512 3278.33 224.963C3277.39 223.358 3275.87 222.141 3273.77 221.311C3271.72 220.425 3269.01 219.982 3265.63 219.982H3242.97L3243.14 205.124H3269.45L3275.26 211.018C3281.24 211.405 3286.19 212.622 3290.12 214.67C3294.05 216.662 3296.98 219.208 3298.92 222.307C3300.85 225.35 3301.82 228.698 3301.82 232.351C3301.82 236.612 3301.02 240.347 3299.42 243.557C3297.81 246.766 3295.46 249.45 3292.36 251.608C3289.26 253.711 3285.47 255.316 3280.99 256.423C3276.51 257.474 3271.39 258 3265.63 258Z" fill="#7372D9"/>
<rect x="4100.5" y="145" width="1250" height="310" rx="150" fill="#7666C4" fill-opacity="0.8"/>
<path d="M4394.74 237.141V358H4369.84V256.647H4321.28V358H4296.37V237.141H4394.74ZM4411.17 314.006V312.263C4411.17 305.677 4412.11 299.618 4414 294.084C4415.88 288.495 4418.62 283.653 4422.21 279.558C4425.81 275.463 4430.24 272.281 4435.5 270.012C4440.75 267.688 4446.78 266.525 4453.59 266.525C4460.4 266.525 4466.46 267.688 4471.77 270.012C4477.08 272.281 4481.54 275.463 4485.13 279.558C4488.79 283.653 4491.55 288.495 4493.43 294.084C4495.32 299.618 4496.26 305.677 4496.26 312.263V314.006C4496.26 320.536 4495.32 326.595 4493.43 332.185C4491.55 337.718 4488.79 342.561 4485.13 346.711C4481.54 350.806 4477.11 353.988 4471.85 356.257C4466.6 358.526 4460.56 359.66 4453.76 359.66C4446.95 359.66 4440.89 358.526 4435.58 356.257C4430.32 353.988 4425.87 350.806 4422.21 346.711C4418.62 342.561 4415.88 337.718 4414 332.185C4412.11 326.595 4411.17 320.536 4411.17 314.006ZM4435.08 312.263V314.006C4435.08 317.769 4435.41 321.283 4436.08 324.548C4436.74 327.813 4437.79 330.69 4439.23 333.181C4440.72 335.616 4442.66 337.525 4445.04 338.908C4447.42 340.292 4450.33 340.983 4453.76 340.983C4457.08 340.983 4459.93 340.292 4462.31 338.908C4464.69 337.525 4466.6 335.616 4468.03 333.181C4469.47 330.69 4470.52 327.813 4471.19 324.548C4471.91 321.283 4472.27 317.769 4472.27 314.006V312.263C4472.27 308.61 4471.91 305.179 4471.19 301.97C4470.52 298.705 4469.45 295.827 4467.95 293.337C4466.51 290.791 4464.6 288.799 4462.22 287.36C4459.84 285.922 4456.97 285.202 4453.59 285.202C4450.22 285.202 4447.34 285.922 4444.96 287.36C4442.63 288.799 4440.72 290.791 4439.23 293.337C4437.79 295.827 4436.74 298.705 4436.08 301.97C4435.41 305.179 4435.08 308.61 4435.08 312.263ZM4571.38 268.186V286.945H4527.88V268.186H4571.38ZM4534.77 268.186V358H4510.87V268.186H4534.77ZM4588.81 268.186V358H4564.82V268.186H4588.81ZM4603.42 314.006V312.263C4603.42 305.677 4604.36 299.618 4606.24 294.084C4608.12 288.495 4610.86 283.653 4614.46 279.558C4618.06 275.463 4622.48 272.281 4627.74 270.012C4633 267.688 4639.03 266.525 4645.84 266.525C4652.64 266.525 4658.7 267.688 4664.02 270.012C4669.33 272.281 4673.78 275.463 4677.38 279.558C4681.03 283.653 4683.8 288.495 4685.68 294.084C4687.56 299.618 4688.5 305.677 4688.5 312.263V314.006C4688.5 320.536 4687.56 326.595 4685.68 332.185C4683.8 337.718 4681.03 342.561 4677.38 346.711C4673.78 350.806 4669.36 353.988 4664.1 356.257C4658.84 358.526 4652.81 359.66 4646 359.66C4639.2 359.66 4633.14 358.526 4627.82 356.257C4622.57 353.988 4618.11 350.806 4614.46 346.711C4610.86 342.561 4608.12 337.718 4606.24 332.185C4604.36 326.595 4603.42 320.536 4603.42 314.006ZM4627.33 312.263V314.006C4627.33 317.769 4627.66 321.283 4628.32 324.548C4628.99 327.813 4630.04 330.69 4631.48 333.181C4632.97 335.616 4634.91 337.525 4637.29 338.908C4639.67 340.292 4642.57 340.983 4646 340.983C4649.32 340.983 4652.17 340.292 4654.55 338.908C4656.93 337.525 4658.84 335.616 4660.28 333.181C4661.72 330.69 4662.77 327.813 4663.43 324.548C4664.15 321.283 4664.51 317.769 4664.51 314.006V312.263C4664.51 308.61 4664.15 305.179 4663.43 301.97C4662.77 298.705 4661.69 295.827 4660.2 293.337C4658.76 290.791 4656.85 288.799 4654.47 287.36C4652.09 285.922 4649.21 285.202 4645.84 285.202C4642.46 285.202 4639.58 285.922 4637.2 287.36C4634.88 288.799 4632.97 290.791 4631.48 293.337C4630.04 295.827 4628.99 298.705 4628.32 301.97C4627.66 305.179 4627.33 308.61 4627.33 312.263ZM4762.3 268.186V286.945H4718.14V268.186H4762.3ZM4779.81 268.186V358H4755.91V268.186H4779.81ZM4712.16 268.186H4735.65L4733.24 313.508C4732.91 319.982 4732.22 325.682 4731.17 330.607C4730.12 335.533 4728.71 339.738 4726.94 343.225C4725.22 346.711 4723.14 349.561 4720.71 351.774C4718.33 353.933 4715.54 355.51 4712.33 356.506C4709.17 357.502 4705.69 358 4701.87 358H4694.56L4694.31 339.157L4697.38 338.825C4699.16 338.659 4700.71 338.161 4702.03 337.331C4703.42 336.446 4704.58 335.201 4705.52 333.596C4706.52 331.936 4707.35 329.86 4708.01 327.37C4708.67 324.825 4709.2 321.836 4709.59 318.405C4710.03 314.974 4710.33 311.018 4710.5 306.535L4712.16 268.186ZM4859.83 304.46V323.054H4814.18V304.46H4859.83ZM4822.15 268.186V358H4798.24V268.186H4822.15ZM4876.02 268.186V358H4852.03V268.186H4876.02ZM4918.43 324.631L4948.57 268.186H4972.47V358H4948.57V301.472L4918.43 358H4894.53V268.186H4918.43V324.631ZM5036.64 268.186V358H5012.65V268.186H5036.64ZM5065.52 268.186V286.696H4984.18V268.186H5065.52ZM5094.25 294.831H5120.31C5128.5 294.831 5135.47 296.187 5141.23 298.898C5147.04 301.555 5151.47 305.262 5154.51 310.021C5157.61 314.781 5159.16 320.287 5159.16 326.54C5159.16 331.078 5158.27 335.284 5156.5 339.157C5154.79 342.976 5152.27 346.296 5148.95 349.118C5145.63 351.94 5141.56 354.126 5136.75 355.676C5131.93 357.225 5126.45 358 5120.31 358H5079.3V268.186H5103.29V339.406H5120.31C5123.91 339.406 5126.78 338.825 5128.94 337.663C5131.16 336.446 5132.76 334.868 5133.76 332.932C5134.81 330.995 5135.33 328.892 5135.33 326.623C5135.33 324.243 5134.81 322.085 5133.76 320.148C5132.76 318.156 5131.16 316.551 5128.94 315.334C5126.78 314.117 5123.91 313.508 5120.31 313.508H5094.25V294.831Z" fill="white"/>
<path fill-rule="evenodd" clip-rule="evenodd" d="M620.5 300C620.5 197.825 537.675 115 435.5 115C333.325 115 250.5 197.825 250.5 300C250.5 402.175 333.325 485 435.5 485C537.675 485 620.5 402.175 620.5 300ZM435.5 207.5C440.407 207.5 445.112 209.449 448.581 212.919C452.051 216.388 454 221.093 454 226V318.5C454 323.407 452.051 328.112 448.581 331.581C445.112 335.051 440.407 337 435.5 337C430.593 337 425.888 335.051 422.419 331.581C418.949 328.112 417 323.407 417 318.5V226C417 221.093 418.949 216.388 422.419 212.919C425.888 209.449 430.593 207.5 435.5 207.5ZM417 374C417 369.093 418.949 364.388 422.419 360.919C425.888 357.449 430.593 355.5 435.5 355.5H435.648C440.555 355.5 445.26 357.449 448.729 360.919C452.199 364.388 454.148 369.093 454.148 374C454.148 378.907 452.199 383.612 448.729 387.081C445.26 390.551 440.555 392.5 435.648 392.5H435.5C430.593 392.5 425.888 390.551 422.419 387.081C418.949 383.612 417 378.907 417 374Z" fill="#E6E6E6"/>
</svg>
