<svg width="5601" height="600" viewBox="0 0 5601 600" fill="none" xmlns="http://www.w3.org/2000/svg">
<rect x="0.5" width="5600" height="600" rx="75" fill="#131313"/>
<path d="M1117.22 187.028V204.958H1053.64V187.028H1117.22ZM1059.87 137.141V258H1037.04V137.141H1059.87ZM1134.16 137.141V258H1111.33V137.141H1134.16ZM1205.21 238.908V197.487C1205.21 194.444 1204.69 191.815 1203.63 189.602C1202.58 187.388 1200.98 185.673 1198.82 184.455C1196.66 183.238 1193.92 182.629 1190.6 182.629C1187.67 182.629 1185.1 183.127 1182.88 184.123C1180.72 185.119 1179.06 186.53 1177.9 188.356C1176.74 190.127 1176.16 192.175 1176.16 194.499H1154.16C1154.16 190.791 1155.05 187.277 1156.82 183.957C1158.59 180.581 1161.11 177.593 1164.37 174.992C1167.69 172.336 1171.65 170.261 1176.24 168.767C1180.89 167.272 1186.09 166.525 1191.85 166.525C1198.65 166.525 1204.71 167.688 1210.03 170.012C1215.39 172.281 1219.6 175.712 1222.64 180.305C1225.74 184.898 1227.29 190.681 1227.29 197.653V236.833C1227.29 241.315 1227.57 245.161 1228.12 248.371C1228.73 251.525 1229.62 254.265 1230.78 256.589V258H1208.45C1207.4 255.731 1206.6 252.854 1206.04 249.367C1205.49 245.826 1205.21 242.339 1205.21 238.908ZM1208.28 203.298L1208.45 216.33H1194.59C1191.16 216.33 1188.14 216.69 1185.54 217.409C1182.94 218.073 1180.81 219.069 1179.15 220.397C1177.49 221.67 1176.24 223.22 1175.41 225.046C1174.58 226.817 1174.17 228.837 1174.17 231.105C1174.17 233.319 1174.67 235.311 1175.66 237.082C1176.71 238.853 1178.21 240.264 1180.14 241.315C1182.14 242.312 1184.46 242.81 1187.12 242.81C1190.99 242.81 1194.37 242.035 1197.24 240.485C1200.12 238.881 1202.36 236.944 1203.97 234.675C1205.57 232.406 1206.43 230.248 1206.54 228.2L1212.85 237.663C1212.07 239.932 1210.91 242.339 1209.36 244.885C1207.81 247.43 1205.82 249.81 1203.39 252.023C1200.95 254.237 1198.02 256.063 1194.59 257.502C1191.16 258.941 1187.17 259.66 1182.63 259.66C1176.82 259.66 1171.62 258.498 1167.03 256.174C1162.44 253.85 1158.81 250.668 1156.15 246.628C1153.5 242.588 1152.17 237.995 1152.17 232.849C1152.17 228.09 1153.06 223.884 1154.83 220.231C1156.6 216.579 1159.23 213.508 1162.71 211.018C1166.2 208.472 1170.51 206.563 1175.66 205.29C1180.86 203.962 1186.81 203.298 1193.51 203.298H1208.28ZM1333.54 219.982H1305.07L1304.9 205.124H1328.31C1331.8 205.124 1334.65 204.764 1336.86 204.045C1339.08 203.326 1340.71 202.246 1341.76 200.808C1342.87 199.369 1343.42 197.626 1343.42 195.578C1343.42 193.807 1343.09 192.285 1342.42 191.013C1341.76 189.685 1340.76 188.605 1339.44 187.775C1338.16 186.945 1336.53 186.337 1334.54 185.949C1332.6 185.507 1330.33 185.285 1327.73 185.285H1312.87V258H1290.88V168.186H1327.73C1333.54 168.186 1338.77 168.711 1343.42 169.763C1348.07 170.759 1352.03 172.281 1355.29 174.328C1358.56 176.376 1361.05 178.977 1362.76 182.131C1364.53 185.23 1365.42 188.882 1365.42 193.088C1365.42 195.855 1364.81 198.456 1363.59 200.891C1362.37 203.326 1360.57 205.484 1358.2 207.365C1355.82 209.247 1352.88 210.796 1349.4 212.014C1345.91 213.176 1341.93 213.895 1337.44 214.172L1333.54 219.982ZM1333.54 258H1299.18L1307.31 240.9H1333.54C1336.75 240.9 1339.41 240.513 1341.51 239.738C1343.61 238.908 1345.16 237.718 1346.16 236.169C1347.21 234.619 1347.74 232.738 1347.74 230.524C1347.74 228.366 1347.24 226.512 1346.24 224.963C1345.3 223.358 1343.78 222.141 1341.68 221.311C1339.63 220.425 1336.92 219.982 1333.54 219.982H1310.88L1311.05 205.124H1337.36L1343.17 211.018C1349.15 211.405 1354.1 212.622 1358.03 214.67C1361.96 216.662 1364.89 219.208 1366.83 222.307C1368.76 225.35 1369.73 228.698 1369.73 232.351C1369.73 236.612 1368.93 240.347 1367.33 243.557C1365.72 246.766 1363.37 249.45 1360.27 251.608C1357.17 253.711 1353.38 255.316 1348.9 256.423C1344.42 257.474 1339.3 258 1333.54 258ZM1435.14 238.908V197.487C1435.14 194.444 1434.62 191.815 1433.57 189.602C1432.51 187.388 1430.91 185.673 1428.75 184.455C1426.59 183.238 1423.85 182.629 1420.53 182.629C1417.6 182.629 1415.03 183.127 1412.81 184.123C1410.66 185.119 1409 186.53 1407.83 188.356C1406.67 190.127 1406.09 192.175 1406.09 194.499H1384.09C1384.09 190.791 1384.98 187.277 1386.75 183.957C1388.52 180.581 1391.04 177.593 1394.3 174.992C1397.62 172.336 1401.58 170.261 1406.17 168.767C1410.82 167.272 1416.02 166.525 1421.78 166.525C1428.59 166.525 1434.65 167.688 1439.96 170.012C1445.33 172.281 1449.53 175.712 1452.58 180.305C1455.67 184.898 1457.22 190.681 1457.22 197.653V236.833C1457.22 241.315 1457.5 245.161 1458.05 248.371C1458.66 251.525 1459.55 254.265 1460.71 256.589V258H1438.38C1437.33 255.731 1436.53 252.854 1435.97 249.367C1435.42 245.826 1435.14 242.339 1435.14 238.908ZM1438.21 203.298L1438.38 216.33H1424.52C1421.09 216.33 1418.07 216.69 1415.47 217.409C1412.87 218.073 1410.74 219.069 1409.08 220.397C1407.42 221.67 1406.17 223.22 1405.34 225.046C1404.51 226.817 1404.1 228.837 1404.1 231.105C1404.1 233.319 1404.6 235.311 1405.59 237.082C1406.64 238.853 1408.14 240.264 1410.08 241.315C1412.07 242.312 1414.39 242.81 1417.05 242.81C1420.92 242.81 1424.3 242.035 1427.17 240.485C1430.05 238.881 1432.29 236.944 1433.9 234.675C1435.5 232.406 1436.36 230.248 1436.47 228.2L1442.78 237.663C1442.01 239.932 1440.84 242.339 1439.29 244.885C1437.74 247.43 1435.75 249.81 1433.32 252.023C1430.88 254.237 1427.95 256.063 1424.52 257.502C1421.09 258.941 1417.1 259.66 1412.57 259.66C1406.75 259.66 1401.55 258.498 1396.96 256.174C1392.37 253.85 1388.74 250.668 1386.09 246.628C1383.43 242.588 1382.1 237.995 1382.1 232.849C1382.1 228.09 1382.99 223.884 1384.76 220.231C1386.53 216.579 1389.16 213.508 1392.64 211.018C1396.13 208.472 1400.45 206.563 1405.59 205.29C1410.79 203.962 1416.74 203.298 1423.44 203.298H1438.21ZM1477.15 168.186H1499.14V240.734H1525.79V168.186H1547.87V240.734H1574.51V168.186H1596.43V258H1477.15V168.186ZM1657.27 259.66C1650.47 259.66 1644.35 258.553 1638.93 256.34C1633.5 254.126 1628.88 251.055 1625.07 247.126C1621.3 243.142 1618.4 238.521 1616.35 233.264C1614.36 227.951 1613.36 222.251 1613.36 216.164V212.844C1613.36 205.926 1614.36 199.646 1616.35 194.001C1618.34 188.301 1621.16 183.404 1624.82 179.309C1628.47 175.214 1632.84 172.059 1637.93 169.846C1643.02 167.632 1648.64 166.525 1654.78 166.525C1661.15 166.525 1666.76 167.604 1671.63 169.763C1676.5 171.866 1680.57 174.854 1683.83 178.728C1687.1 182.601 1689.56 187.25 1691.22 192.673C1692.88 198.041 1693.71 203.99 1693.71 210.52V219.733H1623.32V204.626H1672.13V202.966C1672.02 199.479 1671.36 196.298 1670.14 193.42C1668.92 190.487 1667.04 188.163 1664.49 186.447C1661.95 184.676 1658.66 183.791 1654.62 183.791C1651.35 183.791 1648.5 184.51 1646.07 185.949C1643.69 187.333 1641.69 189.325 1640.09 191.926C1638.54 194.471 1637.38 197.515 1636.6 201.057C1635.83 204.598 1635.44 208.527 1635.44 212.844V216.164C1635.44 219.927 1635.94 223.413 1636.94 226.623C1637.99 229.833 1639.51 232.627 1641.5 235.007C1643.55 237.331 1645.98 239.157 1648.81 240.485C1651.68 241.758 1654.95 242.395 1658.6 242.395C1663.19 242.395 1667.34 241.509 1671.05 239.738C1674.81 237.912 1678.08 235.228 1680.85 231.687L1691.89 243.142C1690.01 245.909 1687.46 248.565 1684.25 251.11C1681.1 253.656 1677.28 255.731 1672.79 257.336C1668.31 258.885 1663.14 259.66 1657.27 259.66ZM1762.28 232.102L1787.51 168.186H1805.86L1769.75 258H1754.89L1718.86 168.186H1737.29L1762.28 232.102ZM1731.9 168.186V258H1709.9V168.186H1731.9ZM1793.07 258V168.186H1815.07V258H1793.07ZM1934.85 128.757H1952.61C1952.61 133.461 1952.01 137.417 1950.79 140.627C1949.57 143.781 1947.69 146.438 1945.14 148.596C1942.6 150.699 1939.33 152.442 1935.35 153.825C1931.36 155.209 1926.61 156.426 1921.07 157.478C1916.42 158.418 1912.33 159.968 1908.79 162.126C1905.24 164.284 1902.28 167.245 1899.9 171.008C1897.58 174.771 1895.89 179.558 1894.84 185.368C1893.79 191.179 1893.46 198.179 1893.84 206.369V211.184L1876.66 213.176V208.361C1876.66 197.681 1877.63 188.384 1879.57 180.471C1881.5 172.502 1884.24 165.806 1887.79 160.383C1891.33 154.904 1895.56 150.56 1900.49 147.351C1905.47 144.086 1911.03 141.789 1917.17 140.461C1921.26 139.631 1924.61 138.773 1927.21 137.888C1929.87 137.002 1931.81 135.868 1933.02 134.484C1934.24 133.046 1934.85 131.136 1934.85 128.757ZM1922.57 173.249C1928.6 173.249 1933.94 174.3 1938.59 176.403C1943.29 178.451 1947.25 181.356 1950.46 185.119C1953.67 188.827 1956.1 193.226 1957.76 198.317C1959.48 203.353 1960.33 208.859 1960.33 214.836V216.579C1960.33 222.777 1959.39 228.505 1957.51 233.762C1955.69 239.019 1953 243.584 1949.46 247.458C1945.92 251.332 1941.55 254.348 1936.34 256.506C1931.14 258.664 1925.19 259.743 1918.5 259.743C1911.86 259.743 1905.94 258.609 1900.73 256.34C1895.53 254.016 1891.13 250.806 1887.54 246.711C1883.94 242.616 1881.23 237.801 1879.4 232.268C1877.58 226.678 1876.66 220.591 1876.66 214.006V212.263C1876.61 211.156 1876.97 210.104 1877.74 209.108C1878.52 208.112 1879.43 207.006 1880.48 205.788C1881.59 204.571 1882.58 203.104 1883.47 201.389C1886.51 195.523 1889.94 190.487 1893.76 186.281C1897.64 182.076 1901.95 178.866 1906.71 176.652C1911.47 174.383 1916.75 173.249 1922.57 173.249ZM1918.33 190.515C1913.63 190.515 1909.81 191.649 1906.88 193.918C1904 196.132 1901.9 199.092 1900.57 202.8C1899.24 206.452 1898.58 210.464 1898.58 214.836V216.579C1898.58 220.121 1898.94 223.469 1899.66 226.623C1900.43 229.722 1901.59 232.461 1903.14 234.841C1904.69 237.22 1906.74 239.102 1909.28 240.485C1911.83 241.813 1914.9 242.478 1918.5 242.478C1922.1 242.478 1925.14 241.813 1927.63 240.485C1930.17 239.102 1932.22 237.22 1933.77 234.841C1935.32 232.461 1936.46 229.722 1937.17 226.623C1937.95 223.469 1938.34 220.121 1938.34 216.579V214.836C1938.34 211.571 1937.95 208.472 1937.17 205.539C1936.46 202.606 1935.32 200.033 1933.77 197.819C1932.22 195.55 1930.15 193.78 1927.55 192.507C1925 191.179 1921.93 190.515 1918.33 190.515ZM2025 238.908V197.487C2025 194.444 2024.47 191.815 2023.42 189.602C2022.37 187.388 2020.76 185.673 2018.61 184.455C2016.45 183.238 2013.71 182.629 2010.39 182.629C2007.45 182.629 2004.88 183.127 2002.67 184.123C2000.51 185.119 1998.85 186.53 1997.69 188.356C1996.53 190.127 1995.94 192.175 1995.94 194.499H1973.95C1973.95 190.791 1974.83 187.277 1976.6 183.957C1978.37 180.581 1980.89 177.593 1984.16 174.992C1987.48 172.336 1991.43 170.261 1996.03 168.767C2000.68 167.272 2005.88 166.525 2011.63 166.525C2018.44 166.525 2024.5 167.688 2029.81 170.012C2035.18 172.281 2039.39 175.712 2042.43 180.305C2045.53 184.898 2047.08 190.681 2047.08 197.653V236.833C2047.08 241.315 2047.35 245.161 2047.91 248.371C2048.52 251.525 2049.4 254.265 2050.56 256.589V258H2028.23C2027.18 255.731 2026.38 252.854 2025.83 249.367C2025.27 245.826 2025 242.339 2025 238.908ZM2028.07 203.298L2028.23 216.33H2014.37C2010.94 216.33 2007.93 216.69 2005.32 217.409C2002.72 218.073 2000.59 219.069 1998.93 220.397C1997.27 221.67 1996.03 223.22 1995.2 225.046C1994.37 226.817 1993.95 228.837 1993.95 231.105C1993.95 233.319 1994.45 235.311 1995.45 237.082C1996.5 238.853 1997.99 240.264 1999.93 241.315C2001.92 242.312 2004.25 242.81 2006.9 242.81C2010.78 242.81 2014.15 242.035 2017.03 240.485C2019.91 238.881 2022.15 236.944 2023.75 234.675C2025.36 232.406 2026.21 230.248 2026.33 228.2L2032.63 237.663C2031.86 239.932 2030.7 242.339 2029.15 244.885C2027.6 247.43 2025.61 249.81 2023.17 252.023C2020.74 254.237 2017.8 256.063 2014.37 257.502C2010.94 258.941 2006.96 259.66 2002.42 259.66C1996.61 259.66 1991.41 258.498 1986.81 256.174C1982.22 253.85 1978.6 250.668 1975.94 246.628C1973.28 242.588 1971.96 237.995 1971.96 232.849C1971.96 228.09 1972.84 223.884 1974.61 220.231C1976.38 216.579 1979.01 213.508 1982.5 211.018C1985.98 208.472 1990.3 206.563 1995.45 205.29C2000.65 203.962 2006.6 203.298 2013.29 203.298H2028.07ZM2127.18 168.186V185.534H2083.19V168.186H2127.18ZM2143.7 168.186V258H2121.78V168.186H2143.7ZM2077.71 168.186H2099.37L2096.96 213.01C2096.58 219.595 2095.89 225.378 2094.89 230.358C2093.89 235.284 2092.57 239.517 2090.91 243.059C2089.25 246.545 2087.23 249.395 2084.85 251.608C2082.47 253.822 2079.7 255.454 2076.54 256.506C2073.45 257.502 2069.96 258 2066.09 258H2059.36L2059.11 240.319L2062.27 240.07C2064.2 239.904 2065.86 239.379 2067.25 238.493C2068.69 237.608 2069.9 236.335 2070.9 234.675C2071.95 233.015 2072.81 230.884 2073.47 228.283C2074.19 225.627 2074.75 222.528 2075.13 218.986C2075.58 215.389 2075.88 211.239 2076.05 206.535L2077.71 168.186ZM2213.26 238.908V197.487C2213.26 194.444 2212.73 191.815 2211.68 189.602C2210.63 187.388 2209.03 185.673 2206.87 184.455C2204.71 183.238 2201.97 182.629 2198.65 182.629C2195.72 182.629 2193.14 183.127 2190.93 184.123C2188.77 185.119 2187.11 186.53 2185.95 188.356C2184.79 190.127 2184.21 192.175 2184.21 194.499H2162.21C2162.21 190.791 2163.09 187.277 2164.87 183.957C2166.64 180.581 2169.15 177.593 2172.42 174.992C2175.74 172.336 2179.7 170.261 2184.29 168.767C2188.94 167.272 2194.14 166.525 2199.89 166.525C2206.7 166.525 2212.76 167.688 2218.07 170.012C2223.44 172.281 2227.65 175.712 2230.69 180.305C2233.79 184.898 2235.34 190.681 2235.34 197.653V236.833C2235.34 241.315 2235.62 245.161 2236.17 248.371C2236.78 251.525 2237.66 254.265 2238.83 256.589V258H2216.5C2215.44 255.731 2214.64 252.854 2214.09 249.367C2213.54 245.826 2213.26 242.339 2213.26 238.908ZM2216.33 203.298L2216.5 216.33H2202.63C2199.2 216.33 2196.19 216.69 2193.59 217.409C2190.99 218.073 2188.85 219.069 2187.19 220.397C2185.53 221.67 2184.29 223.22 2183.46 225.046C2182.63 226.817 2182.21 228.837 2182.21 231.105C2182.21 233.319 2182.71 235.311 2183.71 237.082C2184.76 238.853 2186.25 240.264 2188.19 241.315C2190.18 242.312 2192.51 242.81 2195.16 242.81C2199.04 242.81 2202.41 242.035 2205.29 240.485C2208.17 238.881 2210.41 236.944 2212.01 234.675C2213.62 232.406 2214.48 230.248 2214.59 228.2L2220.9 237.663C2220.12 239.932 2218.96 242.339 2217.41 244.885C2215.86 247.43 2213.87 249.81 2211.43 252.023C2209 254.237 2206.06 256.063 2202.63 257.502C2199.2 258.941 2195.22 259.66 2190.68 259.66C2184.87 259.66 2179.67 258.498 2175.08 256.174C2170.48 253.85 2166.86 250.668 2164.2 246.628C2161.54 242.588 2160.22 237.995 2160.22 232.849C2160.22 228.09 2161.1 223.884 2162.87 220.231C2164.64 216.579 2167.27 213.508 2170.76 211.018C2174.25 208.472 2178.56 206.563 2183.71 205.29C2188.91 203.962 2194.86 203.298 2201.55 203.298H2216.33ZM2316.44 205.041V222.224H2270.37V205.041H2316.44ZM2277.26 168.186V258H2255.26V168.186H2277.26ZM2331.79 168.186V258H2309.71V168.186H2331.79ZM2388.57 242.395C2391.67 242.395 2394.44 241.786 2396.87 240.568C2399.31 239.351 2401.24 237.635 2402.68 235.422C2404.18 233.208 2404.98 230.635 2405.09 227.702H2425.76C2425.65 233.789 2423.93 239.24 2420.61 244.055C2417.29 248.869 2412.86 252.688 2407.33 255.51C2401.85 258.277 2395.71 259.66 2388.9 259.66C2381.99 259.66 2375.95 258.498 2370.81 256.174C2365.66 253.85 2361.37 250.612 2357.94 246.462C2354.57 242.312 2352.02 237.497 2350.3 232.019C2348.64 226.54 2347.81 220.674 2347.81 214.421V211.765C2347.81 205.511 2348.64 199.646 2350.3 194.167C2352.02 188.688 2354.57 183.874 2357.94 179.724C2361.37 175.573 2365.66 172.336 2370.81 170.012C2375.95 167.688 2381.96 166.525 2388.82 166.525C2396.07 166.525 2402.43 167.937 2407.91 170.759C2413.45 173.581 2417.76 177.565 2420.86 182.712C2424.02 187.858 2425.65 193.918 2425.76 200.891H2405.09C2404.98 197.681 2404.26 194.803 2402.93 192.258C2401.6 189.712 2399.72 187.665 2397.29 186.115C2394.85 184.566 2391.89 183.791 2388.41 183.791C2384.7 183.791 2381.6 184.566 2379.11 186.115C2376.67 187.665 2374.76 189.795 2373.38 192.507C2372.05 195.163 2371.11 198.151 2370.56 201.472C2370.06 204.737 2369.81 208.168 2369.81 211.765V214.421C2369.81 218.073 2370.06 221.56 2370.56 224.88C2371.11 228.2 2372.05 231.188 2373.38 233.845C2374.76 236.446 2376.67 238.521 2379.11 240.07C2381.6 241.62 2384.75 242.395 2388.57 242.395ZM2480.71 259.66C2473.9 259.66 2467.79 258.553 2462.37 256.34C2456.94 254.126 2452.32 251.055 2448.5 247.126C2444.74 243.142 2441.83 238.521 2439.79 233.264C2437.79 227.951 2436.8 222.251 2436.8 216.164V212.844C2436.8 205.926 2437.79 199.646 2439.79 194.001C2441.78 188.301 2444.6 183.404 2448.25 179.309C2451.91 175.214 2456.28 172.059 2461.37 169.846C2466.46 167.632 2472.08 166.525 2478.22 166.525C2484.58 166.525 2490.2 167.604 2495.07 169.763C2499.94 171.866 2504.01 174.854 2507.27 178.728C2510.54 182.601 2513 187.25 2514.66 192.673C2516.32 198.041 2517.15 203.99 2517.15 210.52V219.733H2446.76V204.626H2495.57V202.966C2495.46 199.479 2494.79 196.298 2493.58 193.42C2492.36 190.487 2490.48 188.163 2487.93 186.447C2485.39 184.676 2482.09 183.791 2478.05 183.791C2474.79 183.791 2471.94 184.51 2469.5 185.949C2467.12 187.333 2465.13 189.325 2463.53 191.926C2461.98 194.471 2460.82 197.515 2460.04 201.057C2459.27 204.598 2458.88 208.527 2458.88 212.844V216.164C2458.88 219.927 2459.38 223.413 2460.37 226.623C2461.42 229.833 2462.95 232.627 2464.94 235.007C2466.99 237.331 2469.42 239.157 2472.24 240.485C2475.12 241.758 2478.39 242.395 2482.04 242.395C2486.63 242.395 2490.78 241.509 2494.49 239.738C2498.25 237.912 2501.52 235.228 2504.28 231.687L2515.32 243.142C2513.44 245.909 2510.9 248.565 2507.69 251.11C2504.53 253.656 2500.71 255.731 2496.23 257.336C2491.75 258.885 2486.58 259.66 2480.71 259.66ZM2635.52 205.041V222.224H2589.45V205.041H2635.52ZM2596.34 168.186V258H2574.34V168.186H2596.34ZM2650.88 168.186V258H2628.8V168.186H2650.88ZM2711.14 259.66C2704.33 259.66 2698.22 258.553 2692.79 256.34C2687.37 254.126 2682.75 251.055 2678.93 247.126C2675.17 243.142 2672.26 238.521 2670.22 233.264C2668.22 227.951 2667.23 222.251 2667.23 216.164V212.844C2667.23 205.926 2668.22 199.646 2670.22 194.001C2672.21 188.301 2675.03 183.404 2678.68 179.309C2682.34 175.214 2686.71 172.059 2691.8 169.846C2696.89 167.632 2702.51 166.525 2708.65 166.525C2715.01 166.525 2720.63 167.604 2725.5 169.763C2730.37 171.866 2734.44 174.854 2737.7 178.728C2740.97 182.601 2743.43 187.25 2745.09 192.673C2746.75 198.041 2747.58 203.99 2747.58 210.52V219.733H2677.19V204.626H2726V202.966C2725.89 199.479 2725.22 196.298 2724.01 193.42C2722.79 190.487 2720.91 188.163 2718.36 186.447C2715.82 184.676 2712.52 183.791 2708.48 183.791C2705.22 183.791 2702.37 184.51 2699.93 185.949C2697.55 187.333 2695.56 189.325 2693.96 191.926C2692.41 194.471 2691.25 197.515 2690.47 201.057C2689.7 204.598 2689.31 208.527 2689.31 212.844V216.164C2689.31 219.927 2689.81 223.413 2690.8 226.623C2691.85 229.833 2693.38 232.627 2695.37 235.007C2697.42 237.331 2699.85 239.157 2702.67 240.485C2705.55 241.758 2708.82 242.395 2712.47 242.395C2717.06 242.395 2721.21 241.509 2724.92 239.738C2728.68 237.912 2731.95 235.228 2734.71 231.687L2745.75 243.142C2743.87 245.909 2741.33 248.565 2738.12 251.11C2734.96 253.656 2731.14 255.731 2726.66 257.336C2722.18 258.885 2717.01 259.66 2711.14 259.66ZM2778.46 168.186H2800.37L2799.54 199.064C2799.27 208.417 2798.16 216.496 2796.22 223.303C2794.34 230.054 2791.82 235.726 2788.67 240.319C2785.57 244.912 2782.03 248.62 2778.04 251.442C2774.11 254.265 2769.99 256.451 2765.68 258H2760.45L2760.36 240.9L2762.94 240.734C2765.54 237.967 2767.72 235.256 2769.49 232.6C2771.32 229.888 2772.79 226.983 2773.89 223.884C2775 220.785 2775.83 217.243 2776.38 213.259C2776.99 209.219 2777.38 204.488 2777.55 199.064L2778.46 168.186ZM2784.35 168.186H2842.54V258H2820.63V186.198H2784.35V168.186ZM2755.47 240.734H2855.08V284.895H2833.16V258H2777.79V284.895H2755.38L2755.47 240.734ZM2864.62 214.006V212.263C2864.62 205.677 2865.56 199.618 2867.44 194.084C2869.32 188.495 2872.06 183.653 2875.66 179.558C2879.26 175.463 2883.66 172.281 2888.86 170.012C2894.06 167.688 2899.98 166.525 2906.62 166.525C2913.37 166.525 2919.35 167.688 2924.55 170.012C2929.81 172.281 2934.24 175.463 2937.83 179.558C2941.43 183.653 2944.17 188.495 2946.05 194.084C2947.93 199.618 2948.87 205.677 2948.87 212.263V214.006C2948.87 220.536 2947.93 226.595 2946.05 232.185C2944.17 237.718 2941.43 242.561 2937.83 246.711C2934.24 250.806 2929.84 253.988 2924.64 256.257C2919.43 258.526 2913.49 259.66 2906.79 259.66C2900.15 259.66 2894.2 258.526 2888.94 256.257C2883.69 253.988 2879.26 250.806 2875.66 246.711C2872.06 242.561 2869.32 237.718 2867.44 232.185C2865.56 226.595 2864.62 220.536 2864.62 214.006ZM2886.54 212.263V214.006C2886.54 217.935 2886.92 221.615 2887.7 225.046C2888.47 228.477 2889.66 231.493 2891.27 234.094C2892.87 236.695 2894.95 238.742 2897.49 240.236C2900.09 241.675 2903.19 242.395 2906.79 242.395C2910.33 242.395 2913.37 241.675 2915.92 240.236C2918.47 238.742 2920.54 236.695 2922.15 234.094C2923.81 231.493 2925.02 228.477 2925.8 225.046C2926.57 221.615 2926.96 217.935 2926.96 214.006V212.263C2926.96 208.389 2926.57 204.764 2925.8 201.389C2925.02 197.958 2923.81 194.942 2922.15 192.341C2920.54 189.685 2918.44 187.609 2915.84 186.115C2913.29 184.566 2910.22 183.791 2906.62 183.791C2903.08 183.791 2900.04 184.566 2897.49 186.115C2894.95 187.609 2892.87 189.685 2891.27 192.341C2889.66 194.942 2888.47 197.958 2887.7 201.389C2886.92 204.764 2886.54 208.389 2886.54 212.263ZM3001.67 242.395C3004.77 242.395 3007.53 241.786 3009.97 240.568C3012.4 239.351 3014.34 237.635 3015.78 235.422C3017.27 233.208 3018.07 230.635 3018.19 227.702H3038.85C3038.74 233.789 3037.03 239.24 3033.71 244.055C3030.39 248.869 3025.96 252.688 3020.43 255.51C3014.95 258.277 3008.81 259.66 3002 259.66C2995.08 259.66 2989.05 258.498 2983.9 256.174C2978.76 253.85 2974.47 250.612 2971.04 246.462C2967.66 242.312 2965.12 237.497 2963.4 232.019C2961.74 226.54 2960.91 220.674 2960.91 214.421V211.765C2960.91 205.511 2961.74 199.646 2963.4 194.167C2965.12 188.688 2967.66 183.874 2971.04 179.724C2974.47 175.573 2978.76 172.336 2983.9 170.012C2989.05 167.688 2995.05 166.525 3001.92 166.525C3009.17 166.525 3015.53 167.937 3021.01 170.759C3026.54 173.581 3030.86 177.565 3033.96 182.712C3037.11 187.858 3038.74 193.918 3038.85 200.891H3018.19C3018.07 197.681 3017.36 194.803 3016.03 192.258C3014.7 189.712 3012.82 187.665 3010.38 186.115C3007.95 184.566 3004.99 183.791 3001.5 183.791C2997.79 183.791 2994.69 184.566 2992.2 186.115C2989.77 187.665 2987.86 189.795 2986.48 192.507C2985.15 195.163 2984.21 198.151 2983.65 201.472C2983.16 204.737 2982.91 208.168 2982.91 211.765V214.421C2982.91 218.073 2983.16 221.56 2983.65 224.88C2984.21 228.2 2985.15 231.188 2986.48 233.845C2987.86 236.446 2989.77 238.521 2992.2 240.07C2994.69 241.62 2997.85 242.395 3001.67 242.395ZM3097.04 168.186V258H3075.05V168.186H3097.04ZM3126.26 168.186V185.285H3046.33V168.186H3126.26ZM3187.27 238.908V197.487C3187.27 194.444 3186.75 191.815 3185.7 189.602C3184.64 187.388 3183.04 185.673 3180.88 184.455C3178.72 183.238 3175.98 182.629 3172.66 182.629C3169.73 182.629 3167.16 183.127 3164.94 184.123C3162.79 185.119 3161.12 186.53 3159.96 188.356C3158.8 190.127 3158.22 192.175 3158.22 194.499H3136.22C3136.22 190.791 3137.11 187.277 3138.88 183.957C3140.65 180.581 3143.17 177.593 3146.43 174.992C3149.75 172.336 3153.71 170.261 3158.3 168.767C3162.95 167.272 3168.15 166.525 3173.91 166.525C3180.71 166.525 3186.77 167.688 3192.09 170.012C3197.45 172.281 3201.66 175.712 3204.7 180.305C3207.8 184.898 3209.35 190.681 3209.35 197.653V236.833C3209.35 241.315 3209.63 245.161 3210.18 248.371C3210.79 251.525 3211.68 254.265 3212.84 256.589V258H3190.51C3189.46 255.731 3188.66 252.854 3188.1 249.367C3187.55 245.826 3187.27 242.339 3187.27 238.908ZM3190.34 203.298L3190.51 216.33H3176.65C3173.22 216.33 3170.2 216.69 3167.6 217.409C3165 218.073 3162.87 219.069 3161.21 220.397C3159.55 221.67 3158.3 223.22 3157.47 225.046C3156.64 226.817 3156.23 228.837 3156.23 231.105C3156.23 233.319 3156.73 235.311 3157.72 237.082C3158.77 238.853 3160.27 240.264 3162.2 241.315C3164.2 242.312 3166.52 242.81 3169.18 242.81C3173.05 242.81 3176.43 242.035 3179.3 240.485C3182.18 238.881 3184.42 236.944 3186.03 234.675C3187.63 232.406 3188.49 230.248 3188.6 228.2L3194.91 237.663C3194.13 239.932 3192.97 242.339 3191.42 244.885C3189.87 247.43 3187.88 249.81 3185.45 252.023C3183.01 254.237 3180.08 256.063 3176.65 257.502C3173.22 258.941 3169.23 259.66 3164.69 259.66C3158.88 259.66 3153.68 258.498 3149.09 256.174C3144.5 253.85 3140.87 250.668 3138.21 246.628C3135.56 242.588 3134.23 237.995 3134.23 232.849C3134.23 228.09 3135.12 223.884 3136.89 220.231C3138.66 216.579 3141.29 213.508 3144.77 211.018C3148.26 208.472 3152.58 206.563 3157.72 205.29C3162.92 203.962 3168.87 203.298 3175.57 203.298H3190.34ZM3271.36 168.186V258H3249.36V168.186H3271.36ZM3300.58 168.186V185.285H3220.64V168.186H3300.58ZM3306.55 214.006V212.263C3306.55 205.677 3307.5 199.618 3309.38 194.084C3311.26 188.495 3314 183.653 3317.59 179.558C3321.19 175.463 3325.59 172.281 3330.79 170.012C3335.99 167.688 3341.92 166.525 3348.56 166.525C3355.31 166.525 3361.28 167.688 3366.49 170.012C3371.74 172.281 3376.17 175.463 3379.77 179.558C3383.36 183.653 3386.1 188.495 3387.99 194.084C3389.87 199.618 3390.81 205.677 3390.81 212.263V214.006C3390.81 220.536 3389.87 226.595 3387.99 232.185C3386.1 237.718 3383.36 242.561 3379.77 246.711C3376.17 250.806 3371.77 253.988 3366.57 256.257C3361.37 258.526 3355.42 259.66 3348.72 259.66C3342.08 259.66 3336.13 258.526 3330.88 256.257C3325.62 253.988 3321.19 250.806 3317.59 246.711C3314 242.561 3311.26 237.718 3309.38 232.185C3307.5 226.595 3306.55 220.536 3306.55 214.006ZM3328.47 212.263V214.006C3328.47 217.935 3328.86 221.615 3329.63 225.046C3330.41 228.477 3331.6 231.493 3333.2 234.094C3334.81 236.695 3336.88 238.742 3339.43 240.236C3342.03 241.675 3345.13 242.395 3348.72 242.395C3352.26 242.395 3355.31 241.675 3357.85 240.236C3360.4 238.742 3362.47 236.695 3364.08 234.094C3365.74 231.493 3366.96 228.477 3367.73 225.046C3368.51 221.615 3368.89 217.935 3368.89 214.006V212.263C3368.89 208.389 3368.51 204.764 3367.73 201.389C3366.96 197.958 3365.74 194.942 3364.08 192.341C3362.47 189.685 3360.37 187.609 3357.77 186.115C3355.22 184.566 3352.15 183.791 3348.56 183.791C3345.01 183.791 3341.97 184.566 3339.43 186.115C3336.88 187.609 3334.81 189.685 3333.2 192.341C3331.6 194.942 3330.41 197.958 3329.63 201.389C3328.86 204.764 3328.47 208.389 3328.47 212.263ZM3480.62 168.186V258H3458.62V168.186H3480.62ZM3470.66 207.282V224.548C3468.56 225.544 3466.01 226.485 3463.02 227.37C3460.09 228.2 3456.99 228.864 3453.73 229.362C3450.52 229.86 3447.39 230.109 3444.35 230.109C3436.1 230.109 3428.99 228.892 3423.01 226.457C3417.09 224.022 3412.53 220.287 3409.32 215.251C3406.11 210.16 3404.5 203.658 3404.5 195.744V168.103H3426.42V195.744C3426.42 200.005 3427.05 203.381 3428.33 205.871C3429.6 208.361 3431.56 210.132 3434.22 211.184C3436.88 212.235 3440.25 212.761 3444.35 212.761C3447.5 212.761 3450.52 212.539 3453.4 212.097C3456.27 211.599 3459.12 210.962 3461.95 210.188C3464.82 209.357 3467.73 208.389 3470.66 207.282ZM3561.89 205.041V222.224H3515.82V205.041H3561.89ZM3522.71 168.186V258H3500.71V168.186H3522.71ZM3577.24 168.186V258H3555.16V168.186H3577.24ZM3593.26 214.006V212.263C3593.26 205.677 3594.2 199.618 3596.09 194.084C3597.97 188.495 3600.71 183.653 3604.3 179.558C3607.9 175.463 3612.3 172.281 3617.5 170.012C3622.7 167.688 3628.62 166.525 3635.27 166.525C3642.02 166.525 3647.99 167.688 3653.2 170.012C3658.45 172.281 3662.88 175.463 3666.48 179.558C3670.07 183.653 3672.81 188.495 3674.69 194.084C3676.58 199.618 3677.52 205.677 3677.52 212.263V214.006C3677.52 220.536 3676.58 226.595 3674.69 232.185C3672.81 237.718 3670.07 242.561 3666.48 246.711C3662.88 250.806 3658.48 253.988 3653.28 256.257C3648.08 258.526 3642.13 259.66 3635.43 259.66C3628.79 259.66 3622.84 258.526 3617.58 256.257C3612.33 253.988 3607.9 250.806 3604.3 246.711C3600.71 242.561 3597.97 237.718 3596.09 232.185C3594.2 226.595 3593.26 220.536 3593.26 214.006ZM3615.18 212.263V214.006C3615.18 217.935 3615.57 221.615 3616.34 225.046C3617.11 228.477 3618.3 231.493 3619.91 234.094C3621.51 236.695 3623.59 238.742 3626.13 240.236C3628.74 241.675 3631.83 242.395 3635.43 242.395C3638.97 242.395 3642.02 241.675 3644.56 240.236C3647.11 238.742 3649.18 236.695 3650.79 234.094C3652.45 231.493 3653.67 228.477 3654.44 225.046C3655.22 221.615 3655.6 217.935 3655.6 214.006V212.263C3655.6 208.389 3655.22 204.764 3654.44 201.389C3653.67 197.958 3652.45 194.942 3650.79 192.341C3649.18 189.685 3647.08 187.609 3644.48 186.115C3641.93 184.566 3638.86 183.791 3635.27 183.791C3631.72 183.791 3628.68 184.566 3626.13 186.115C3623.59 187.609 3621.51 189.685 3619.91 192.341C3618.3 194.942 3617.11 197.958 3616.34 201.389C3615.57 204.764 3615.18 208.389 3615.18 212.263ZM1072.23 441.395C1075.33 441.395 1078.1 440.786 1080.53 439.568C1082.97 438.351 1084.91 436.635 1086.34 434.422C1087.84 432.208 1088.64 429.635 1088.75 426.702H1109.42C1109.31 432.789 1107.59 438.24 1104.27 443.055C1100.95 447.869 1096.53 451.688 1090.99 454.51C1085.51 457.277 1079.37 458.66 1072.57 458.66C1065.65 458.66 1059.62 457.498 1054.47 455.174C1049.32 452.85 1045.03 449.612 1041.6 445.462C1038.23 441.312 1035.68 436.497 1033.97 431.019C1032.31 425.54 1031.48 419.674 1031.48 413.421V410.765C1031.48 404.511 1032.31 398.646 1033.97 393.167C1035.68 387.688 1038.23 382.874 1041.6 378.724C1045.03 374.573 1049.32 371.336 1054.47 369.012C1059.62 366.688 1065.62 365.525 1072.48 365.525C1079.73 365.525 1086.1 366.937 1091.57 369.759C1097.11 372.581 1101.42 376.565 1104.52 381.712C1107.68 386.858 1109.31 392.918 1109.42 399.891H1088.75C1088.64 396.681 1087.92 393.803 1086.59 391.258C1085.27 388.712 1083.38 386.665 1080.95 385.115C1078.51 383.566 1075.55 382.791 1072.07 382.791C1068.36 382.791 1065.26 383.566 1062.77 385.115C1060.34 386.665 1058.43 388.795 1057.04 391.507C1055.71 394.163 1054.77 397.151 1054.22 400.472C1053.72 403.737 1053.47 407.168 1053.47 410.765V413.421C1053.47 417.073 1053.72 420.56 1054.22 423.88C1054.77 427.2 1055.71 430.188 1057.04 432.845C1058.43 435.446 1060.34 437.521 1062.77 439.07C1065.26 440.62 1068.42 441.395 1072.23 441.395ZM1145.94 384.451V491.531H1123.95V367.186H1144.28L1145.94 384.451ZM1203.63 411.18V412.923C1203.63 419.453 1202.86 425.512 1201.31 431.102C1199.82 436.635 1197.6 441.478 1194.67 445.628C1191.74 449.723 1188.08 452.933 1183.71 455.257C1179.4 457.526 1174.42 458.66 1168.77 458.66C1163.24 458.66 1158.42 457.609 1154.33 455.506C1150.23 453.348 1146.77 450.304 1143.95 446.375C1141.13 442.446 1138.86 437.881 1137.15 432.679C1135.49 427.422 1134.24 421.694 1133.41 415.496V409.935C1134.24 403.349 1135.49 397.373 1137.15 392.005C1138.86 386.582 1141.13 381.906 1143.95 377.977C1146.77 373.992 1150.21 370.921 1154.25 368.763C1158.34 366.604 1163.13 365.525 1168.61 365.525C1174.31 365.525 1179.31 366.604 1183.63 368.763C1188 370.921 1191.68 374.02 1194.67 378.06C1197.66 382.099 1199.9 386.914 1201.39 392.503C1202.89 398.092 1203.63 404.318 1203.63 411.18ZM1181.64 412.923V411.18C1181.64 407.195 1181.28 403.515 1180.56 400.14C1179.84 396.709 1178.73 393.72 1177.24 391.175C1175.74 388.574 1173.81 386.554 1171.43 385.115C1169.05 383.676 1166.17 382.957 1162.79 382.957C1159.42 382.957 1156.51 383.51 1154.08 384.617C1151.64 385.724 1149.65 387.301 1148.1 389.349C1146.55 391.396 1145.34 393.831 1144.45 396.653C1143.62 399.42 1143.07 402.492 1142.79 405.867V419.646C1143.29 423.742 1144.26 427.422 1145.7 430.687C1147.13 433.951 1149.24 436.552 1152 438.489C1154.83 440.426 1158.48 441.395 1162.96 441.395C1166.34 441.395 1169.21 440.647 1171.59 439.153C1173.97 437.659 1175.91 435.612 1177.4 433.011C1178.9 430.354 1179.98 427.311 1180.64 423.88C1181.31 420.449 1181.64 416.797 1181.64 412.923ZM1260 458.66C1253.19 458.66 1247.08 457.553 1241.65 455.34C1236.23 453.126 1231.61 450.055 1227.79 446.126C1224.03 442.142 1221.12 437.521 1219.07 432.264C1217.08 426.951 1216.09 421.251 1216.09 415.164V411.844C1216.09 404.926 1217.08 398.646 1219.07 393.001C1221.07 387.301 1223.89 382.404 1227.54 378.309C1231.19 374.214 1235.57 371.059 1240.66 368.846C1245.75 366.632 1251.36 365.525 1257.51 365.525C1263.87 365.525 1269.49 366.604 1274.36 368.763C1279.23 370.866 1283.29 373.854 1286.56 377.728C1289.82 381.601 1292.29 386.25 1293.95 391.673C1295.61 397.041 1296.44 402.99 1296.44 409.52V418.733H1226.05V403.626H1274.86V401.966C1274.74 398.479 1274.08 395.298 1272.86 392.42C1271.65 389.487 1269.76 387.163 1267.22 385.447C1264.67 383.676 1261.38 382.791 1257.34 382.791C1254.08 382.791 1251.23 383.51 1248.79 384.949C1246.41 386.333 1244.42 388.325 1242.81 390.926C1241.26 393.471 1240.1 396.515 1239.33 400.057C1238.55 403.598 1238.17 407.527 1238.17 411.844V415.164C1238.17 418.927 1238.66 422.413 1239.66 425.623C1240.71 428.833 1242.23 431.627 1244.23 434.007C1246.27 436.331 1248.71 438.157 1251.53 439.485C1254.41 440.758 1257.67 441.395 1261.33 441.395C1265.92 441.395 1270.07 440.509 1273.78 438.738C1277.54 436.912 1280.8 434.228 1283.57 430.687L1294.61 442.142C1292.73 444.909 1290.18 447.565 1286.97 450.11C1283.82 452.656 1280 454.731 1275.52 456.336C1271.04 457.885 1265.86 458.66 1260 458.66ZM1327.32 367.186H1349.23L1348.4 398.064C1348.12 407.417 1347.02 415.496 1345.08 422.303C1343.2 429.054 1340.68 434.726 1337.53 439.319C1334.43 443.912 1330.89 447.62 1326.9 450.442C1322.97 453.265 1318.85 455.451 1314.53 457H1309.3L1309.22 439.9L1311.79 439.734C1314.39 436.967 1316.58 434.256 1318.35 431.6C1320.18 428.888 1321.64 425.983 1322.75 422.884C1323.86 419.785 1324.69 416.243 1325.24 412.259C1325.85 408.219 1326.24 403.488 1326.4 398.064L1327.32 367.186ZM1333.21 367.186H1391.4V457H1369.48V385.198H1333.21V367.186ZM1304.32 439.734H1403.93V483.895H1382.02V457H1326.65V483.895H1304.24L1304.32 439.734ZM1454.24 441.395C1457.33 441.395 1460.1 440.786 1462.54 439.568C1464.97 438.351 1466.91 436.635 1468.35 434.422C1469.84 432.208 1470.64 429.635 1470.75 426.702H1491.42C1491.31 432.789 1489.6 438.24 1486.28 443.055C1482.96 447.869 1478.53 451.688 1473 454.51C1467.52 457.277 1461.37 458.66 1454.57 458.66C1447.65 458.66 1441.62 457.498 1436.47 455.174C1431.33 452.85 1427.04 449.612 1423.61 445.462C1420.23 441.312 1417.68 436.497 1415.97 431.019C1414.31 425.54 1413.48 419.674 1413.48 413.421V410.765C1413.48 404.511 1414.31 398.646 1415.97 393.167C1417.68 387.688 1420.23 382.874 1423.61 378.724C1427.04 374.573 1431.33 371.336 1436.47 369.012C1441.62 366.688 1447.62 365.525 1454.48 365.525C1461.73 365.525 1468.1 366.937 1473.58 369.759C1479.11 372.581 1483.43 376.565 1486.53 381.712C1489.68 386.858 1491.31 392.918 1491.42 399.891H1470.75C1470.64 396.681 1469.92 393.803 1468.6 391.258C1467.27 388.712 1465.39 386.665 1462.95 385.115C1460.52 383.566 1457.56 382.791 1454.07 382.791C1450.36 382.791 1447.26 383.566 1444.77 385.115C1442.34 386.665 1440.43 388.795 1439.04 391.507C1437.72 394.163 1436.78 397.151 1436.22 400.472C1435.72 403.737 1435.48 407.168 1435.48 410.765V413.421C1435.48 417.073 1435.72 420.56 1436.22 423.88C1436.78 427.2 1437.72 430.188 1439.04 432.845C1440.43 435.446 1442.34 437.521 1444.77 439.07C1447.26 440.62 1450.42 441.395 1454.24 441.395ZM1549.61 367.186V457H1527.61V367.186H1549.61ZM1578.83 367.186V384.285H1498.89V367.186H1578.83ZM1635.86 418.982H1607.38L1607.22 404.124H1630.63C1634.11 404.124 1636.96 403.764 1639.18 403.045C1641.39 402.326 1643.02 401.246 1644.07 399.808C1645.18 398.369 1645.73 396.626 1645.73 394.578C1645.73 392.807 1645.4 391.285 1644.74 390.013C1644.07 388.685 1643.08 387.605 1641.75 386.775C1640.48 385.945 1638.84 385.337 1636.85 384.949C1634.92 384.507 1632.65 384.285 1630.05 384.285H1615.19V457H1593.19V367.186H1630.05C1635.86 367.186 1641.09 367.711 1645.73 368.763C1650.38 369.759 1654.34 371.281 1657.6 373.328C1660.87 375.376 1663.36 377.977 1665.08 381.131C1666.85 384.23 1667.73 387.882 1667.73 392.088C1667.73 394.855 1667.12 397.456 1665.91 399.891C1664.69 402.326 1662.89 404.484 1660.51 406.365C1658.13 408.247 1655.2 409.796 1651.71 411.014C1648.22 412.176 1644.24 412.895 1639.76 413.172L1635.86 418.982ZM1635.86 457H1601.49L1609.63 439.9H1635.86C1639.07 439.9 1641.72 439.513 1643.83 438.738C1645.93 437.908 1647.48 436.718 1648.47 435.169C1649.53 433.619 1650.05 431.738 1650.05 429.524C1650.05 427.366 1649.55 425.512 1648.56 423.963C1647.62 422.358 1646.09 421.141 1643.99 420.311C1641.94 419.425 1639.23 418.982 1635.86 418.982H1613.2L1613.36 404.124H1639.67L1645.49 410.018C1651.46 410.405 1656.41 411.622 1660.34 413.67C1664.27 415.662 1667.21 418.208 1669.14 421.307C1671.08 424.35 1672.05 427.698 1672.05 431.351C1672.05 435.612 1671.25 439.347 1669.64 442.557C1668.04 445.766 1665.68 448.45 1662.58 450.608C1659.49 452.711 1655.7 454.316 1651.21 455.423C1646.73 456.474 1641.61 457 1635.86 457ZM1746.51 367.186H1768.42L1767.59 398.064C1767.31 407.417 1766.21 415.496 1764.27 422.303C1762.39 429.054 1759.87 434.726 1756.72 439.319C1753.62 443.912 1750.08 447.62 1746.09 450.442C1742.16 453.265 1738.04 455.451 1733.72 457H1728.49L1728.41 439.9L1730.98 439.734C1733.58 436.967 1735.77 434.256 1737.54 431.6C1739.37 428.888 1740.83 425.983 1741.94 422.884C1743.05 419.785 1743.88 416.243 1744.43 412.259C1745.04 408.219 1745.43 403.488 1745.59 398.064L1746.51 367.186ZM1752.4 367.186H1810.59V457H1788.67V385.198H1752.4V367.186ZM1723.51 439.734H1823.12V483.895H1801.21V457H1745.84V483.895H1723.43L1723.51 439.734ZM1896.92 367.186V384.534H1852.92V367.186H1896.92ZM1913.43 367.186V457H1891.52V367.186H1913.43ZM1847.44 367.186H1869.11L1866.7 412.01C1866.31 418.595 1865.62 424.378 1864.63 429.358C1863.63 434.284 1862.3 438.517 1860.64 442.059C1858.98 445.545 1856.96 448.395 1854.58 450.608C1852.2 452.822 1849.44 454.454 1846.28 455.506C1843.18 456.502 1839.7 457 1835.82 457H1829.1L1828.85 439.319L1832 439.07C1833.94 438.904 1835.6 438.379 1836.98 437.493C1838.42 436.608 1839.64 435.335 1840.64 433.675C1841.69 432.015 1842.55 429.884 1843.21 427.283C1843.93 424.627 1844.48 421.528 1844.87 417.986C1845.31 414.389 1845.62 410.239 1845.78 405.535L1847.44 367.186ZM1952.61 412.674H1975.11L1949.88 457H1927.38L1952.61 412.674ZM1967.89 367.186H2006.9V457H1984.99V384.285H1967.89C1964.4 384.285 1961.5 384.922 1959.17 386.194C1956.9 387.467 1955.22 389.1 1954.11 391.092C1953 393.029 1952.45 395.021 1952.45 397.068C1952.45 399.061 1952.97 400.997 1954.03 402.879C1955.08 404.76 1956.68 406.31 1958.84 407.527C1961.05 408.745 1963.82 409.354 1967.14 409.354H1992.79V424.793H1967.14C1961.44 424.793 1956.32 424.101 1951.78 422.718C1947.3 421.279 1943.46 419.287 1940.25 416.741C1937.09 414.196 1934.68 411.207 1933.02 407.776C1931.36 404.29 1930.53 400.499 1930.53 396.404C1930.53 392.199 1931.36 388.325 1933.02 384.783C1934.74 381.242 1937.2 378.143 1940.41 375.486C1943.68 372.83 1947.61 370.783 1952.2 369.344C1956.85 367.905 1962.08 367.186 1967.89 367.186ZM2114.81 418.982H2086.34L2086.17 404.124H2109.58C2113.07 404.124 2115.92 403.764 2118.13 403.045C2120.35 402.326 2121.98 401.246 2123.03 399.808C2124.14 398.369 2124.69 396.626 2124.69 394.578C2124.69 392.807 2124.36 391.285 2123.69 390.013C2123.03 388.685 2122.03 387.605 2120.71 386.775C2119.43 385.945 2117.8 385.337 2115.81 384.949C2113.87 384.507 2111.6 384.285 2109 384.285H2094.14V457H2072.15V367.186H2109C2114.81 367.186 2120.04 367.711 2124.69 368.763C2129.34 369.759 2133.29 371.281 2136.56 373.328C2139.82 375.376 2142.31 377.977 2144.03 381.131C2145.8 384.23 2146.69 387.882 2146.69 392.088C2146.69 394.855 2146.08 397.456 2144.86 399.891C2143.64 402.326 2141.84 404.484 2139.46 406.365C2137.09 408.247 2134.15 409.796 2130.67 411.014C2127.18 412.176 2123.2 412.895 2118.71 413.172L2114.81 418.982ZM2114.81 457H2080.45L2088.58 439.9H2114.81C2118.02 439.9 2120.68 439.513 2122.78 438.738C2124.88 437.908 2126.43 436.718 2127.43 435.169C2128.48 433.619 2129.01 431.738 2129.01 429.524C2129.01 427.366 2128.51 425.512 2127.51 423.963C2126.57 422.358 2125.05 421.141 2122.95 420.311C2120.9 419.425 2118.19 418.982 2114.81 418.982H2092.15L2092.32 404.124H2118.63L2124.44 410.018C2130.42 410.405 2135.37 411.622 2139.3 413.67C2143.23 415.662 2146.16 418.208 2148.1 421.307C2150.03 424.35 2151 427.698 2151 431.351C2151 435.612 2150.2 439.347 2148.6 442.557C2146.99 445.766 2144.64 448.45 2141.54 450.608C2138.44 452.711 2134.65 454.316 2130.17 455.423C2125.69 456.474 2120.57 457 2114.81 457ZM2182.55 394.827H2208.78C2216.75 394.827 2223.52 396.155 2229.11 398.812C2234.76 401.412 2239.05 405.065 2241.98 409.769C2244.97 414.417 2246.46 419.812 2246.46 425.955C2246.46 430.382 2245.6 434.505 2243.89 438.323C2242.23 442.086 2239.79 445.379 2236.58 448.201C2233.37 450.968 2229.42 453.126 2224.71 454.676C2220.07 456.225 2214.75 457 2208.78 457H2168.43V367.186H2190.43V439.817H2208.78C2212.59 439.817 2215.64 439.181 2217.91 437.908C2220.23 436.58 2221.89 434.892 2222.89 432.845C2223.94 430.742 2224.46 428.501 2224.46 426.121C2224.46 423.686 2223.94 421.417 2222.89 419.314C2221.89 417.156 2220.23 415.413 2217.91 414.085C2215.64 412.757 2212.59 412.093 2208.78 412.093H2182.55V394.827ZM2283.32 367.186V457H2261.32V367.186H2283.32ZM2349.89 418.982H2321.42L2321.25 404.124H2344.66C2348.15 404.124 2351 403.764 2353.21 403.045C2355.42 402.326 2357.06 401.246 2358.11 399.808C2359.21 398.369 2359.77 396.626 2359.77 394.578C2359.77 392.807 2359.44 391.285 2358.77 390.013C2358.11 388.685 2357.11 387.605 2355.78 386.775C2354.51 385.945 2352.88 385.337 2350.89 384.949C2348.95 384.507 2346.68 384.285 2344.08 384.285H2329.22V457H2307.22V367.186H2344.08C2349.89 367.186 2355.12 367.711 2359.77 368.763C2364.42 369.759 2368.37 371.281 2371.64 373.328C2374.9 375.376 2377.39 377.977 2379.11 381.131C2380.88 384.23 2381.76 387.882 2381.76 392.088C2381.76 394.855 2381.16 397.456 2379.94 399.891C2378.72 402.326 2376.92 404.484 2374.54 406.365C2372.16 408.247 2369.23 409.796 2365.74 411.014C2362.26 412.176 2358.27 412.895 2353.79 413.172L2349.89 418.982ZM2349.89 457H2315.52L2323.66 439.9H2349.89C2353.1 439.9 2355.76 439.513 2357.86 438.738C2359.96 437.908 2361.51 436.718 2362.51 435.169C2363.56 433.619 2364.08 431.738 2364.08 429.524C2364.08 427.366 2363.59 425.512 2362.59 423.963C2361.65 422.358 2360.13 421.141 2358.02 420.311C2355.98 419.425 2353.27 418.982 2349.89 418.982H2327.23L2327.39 404.124H2353.71L2359.52 410.018C2365.5 410.405 2370.45 411.622 2374.38 413.67C2378.31 415.662 2381.24 418.208 2383.18 421.307C2385.11 424.35 2386.08 427.698 2386.08 431.351C2386.08 435.612 2385.28 439.347 2383.67 442.557C2382.07 445.766 2379.72 448.45 2376.62 450.608C2373.52 452.711 2369.73 454.316 2365.25 455.423C2360.76 456.474 2355.64 457 2349.89 457ZM2398.12 413.006V411.263C2398.12 404.677 2399.06 398.618 2400.94 393.084C2402.82 387.495 2405.56 382.653 2409.16 378.558C2412.75 374.463 2417.15 371.281 2422.36 369.012C2427.56 366.688 2433.48 365.525 2440.12 365.525C2446.87 365.525 2452.85 366.688 2458.05 369.012C2463.31 371.281 2467.73 374.463 2471.33 378.558C2474.93 382.653 2477.67 387.495 2479.55 393.084C2481.43 398.618 2482.37 404.677 2482.37 411.263V413.006C2482.37 419.536 2481.43 425.595 2479.55 431.185C2477.67 436.718 2474.93 441.561 2471.33 445.711C2467.73 449.806 2463.33 452.988 2458.13 455.257C2452.93 457.526 2446.98 458.66 2440.29 458.66C2433.64 458.66 2427.7 457.526 2422.44 455.257C2417.18 452.988 2412.75 449.806 2409.16 445.711C2405.56 441.561 2402.82 436.718 2400.94 431.185C2399.06 425.595 2398.12 419.536 2398.12 413.006ZM2420.03 411.263V413.006C2420.03 416.935 2420.42 420.615 2421.19 424.046C2421.97 427.477 2423.16 430.493 2424.76 433.094C2426.37 435.695 2428.44 437.742 2430.99 439.236C2433.59 440.675 2436.69 441.395 2440.29 441.395C2443.83 441.395 2446.87 440.675 2449.42 439.236C2451.96 437.742 2454.04 435.695 2455.64 433.094C2457.3 430.493 2458.52 427.477 2459.29 424.046C2460.07 420.615 2460.46 416.935 2460.46 413.006V411.263C2460.46 407.389 2460.07 403.764 2459.29 400.389C2458.52 396.958 2457.3 393.942 2455.64 391.341C2454.04 388.685 2451.93 386.609 2449.33 385.115C2446.79 383.566 2443.72 382.791 2440.12 382.791C2436.58 382.791 2433.53 383.566 2430.99 385.115C2428.44 386.609 2426.37 388.685 2424.76 391.341C2423.16 393.942 2421.97 396.958 2421.19 400.389C2420.42 403.764 2420.03 407.389 2420.03 411.263ZM2508.52 367.186H2530.43L2529.6 398.064C2529.32 407.417 2528.22 415.496 2526.28 422.303C2524.4 429.054 2521.88 434.726 2518.73 439.319C2515.63 443.912 2512.09 447.62 2508.1 450.442C2504.17 453.265 2500.05 455.451 2495.73 457H2490.5L2490.42 439.9L2493 439.734C2495.6 436.967 2497.78 434.256 2499.55 431.6C2501.38 428.888 2502.85 425.983 2503.95 422.884C2505.06 419.785 2505.89 416.243 2506.44 412.259C2507.05 408.219 2507.44 403.488 2507.6 398.064L2508.52 367.186ZM2514.41 367.186H2572.6V457H2550.69V385.198H2514.41V367.186ZM2485.52 439.734H2585.13V483.895H2563.22V457H2507.85V483.895H2485.44L2485.52 439.734ZM2648.05 437.908V396.487C2648.05 393.444 2647.53 390.815 2646.48 388.602C2645.43 386.388 2643.82 384.673 2641.66 383.455C2639.5 382.238 2636.76 381.629 2633.44 381.629C2630.51 381.629 2627.94 382.127 2625.72 383.123C2623.57 384.119 2621.91 385.53 2620.74 387.356C2619.58 389.127 2619 391.175 2619 393.499H2597C2597 389.791 2597.89 386.277 2599.66 382.957C2601.43 379.581 2603.95 376.593 2607.21 373.992C2610.53 371.336 2614.49 369.261 2619.08 367.767C2623.73 366.272 2628.93 365.525 2634.69 365.525C2641.5 365.525 2647.56 366.688 2652.87 369.012C2658.24 371.281 2662.44 374.712 2665.49 379.305C2668.58 383.898 2670.13 389.681 2670.13 396.653V435.833C2670.13 440.315 2670.41 444.161 2670.96 447.371C2671.57 450.525 2672.46 453.265 2673.62 455.589V457H2651.29C2650.24 454.731 2649.44 451.854 2648.88 448.367C2648.33 444.826 2648.05 441.339 2648.05 437.908ZM2651.12 402.298L2651.29 415.33H2637.43C2634 415.33 2630.98 415.69 2628.38 416.409C2625.78 417.073 2623.65 418.069 2621.99 419.397C2620.33 420.67 2619.08 422.22 2618.25 424.046C2617.42 425.817 2617.01 427.837 2617.01 430.105C2617.01 432.319 2617.51 434.311 2618.5 436.082C2619.55 437.853 2621.05 439.264 2622.99 440.315C2624.98 441.312 2627.3 441.81 2629.96 441.81C2633.83 441.81 2637.21 441.035 2640.08 439.485C2642.96 437.881 2645.2 435.944 2646.81 433.675C2648.41 431.406 2649.27 429.248 2649.38 427.2L2655.69 436.663C2654.92 438.932 2653.75 441.339 2652.2 443.885C2650.65 446.43 2648.66 448.81 2646.23 451.023C2643.79 453.237 2640.86 455.063 2637.43 456.502C2634 457.941 2630.01 458.66 2625.48 458.66C2619.67 458.66 2614.46 457.498 2609.87 455.174C2605.28 452.85 2601.65 449.668 2599 445.628C2596.34 441.588 2595.01 436.995 2595.01 431.849C2595.01 427.09 2595.9 422.884 2597.67 419.231C2599.44 415.579 2602.07 412.508 2605.55 410.018C2609.04 407.472 2613.36 405.563 2618.5 404.29C2623.7 402.962 2629.65 402.298 2636.35 402.298H2651.12ZM2714.88 336.141L2712.47 420.726H2693.96L2691.55 336.141H2714.88ZM2690.89 446.79C2690.89 443.525 2691.99 440.786 2694.21 438.572C2696.47 436.303 2699.52 435.169 2703.34 435.169C2707.16 435.169 2710.17 436.303 2712.38 438.572C2714.65 440.786 2715.79 443.525 2715.79 446.79C2715.79 450 2714.65 452.711 2712.38 454.925C2710.17 457.138 2707.16 458.245 2703.34 458.245C2699.52 458.245 2696.47 457.138 2694.21 454.925C2691.99 452.711 2690.89 450 2690.89 446.79Z" fill="white"/>
<path d="M4834.19 371.953C4826.38 371.953 4819.32 370.684 4813 368.145C4806.75 365.54 4801.41 361.927 4796.98 357.305C4792.62 352.682 4789.27 347.246 4786.93 340.996C4784.58 334.746 4783.41 328.008 4783.41 320.781V316.875C4783.41 308.607 4784.61 301.12 4787.02 294.414C4789.43 287.708 4792.79 281.979 4797.08 277.227C4801.38 272.409 4806.46 268.73 4812.32 266.191C4818.18 263.652 4824.52 262.383 4831.36 262.383C4838.91 262.383 4845.52 263.652 4851.18 266.191C4856.85 268.73 4861.54 272.311 4865.25 276.934C4869.02 281.491 4871.82 286.927 4873.64 293.242C4875.53 299.557 4876.48 306.523 4876.48 314.141V324.199H4794.84V307.305H4853.23V305.449C4853.1 301.217 4852.26 297.246 4850.7 293.535C4849.2 289.824 4846.89 286.829 4843.76 284.551C4840.64 282.272 4836.47 281.133 4831.26 281.133C4827.36 281.133 4823.87 281.979 4820.81 283.672C4817.82 285.299 4815.31 287.676 4813.29 290.801C4811.27 293.926 4809.71 297.702 4808.61 302.129C4807.56 306.491 4807.04 311.406 4807.04 316.875V320.781C4807.04 325.404 4807.66 329.701 4808.9 333.672C4810.2 337.578 4812.09 340.996 4814.56 343.926C4817.04 346.855 4820.03 349.167 4823.55 350.859C4827.06 352.487 4831.07 353.301 4835.56 353.301C4841.22 353.301 4846.27 352.161 4850.7 349.883C4855.12 347.604 4858.96 344.382 4862.22 340.215L4874.62 352.227C4872.34 355.547 4869.38 358.737 4865.73 361.797C4862.09 364.792 4857.63 367.233 4852.36 369.121C4847.15 371.009 4841.09 371.953 4834.19 371.953ZM4918.47 284.453V370H4894.93V264.336H4917.39L4918.47 284.453ZM4950.79 263.652L4950.6 285.527C4949.17 285.267 4947.6 285.072 4945.91 284.941C4944.28 284.811 4942.65 284.746 4941.03 284.746C4936.99 284.746 4933.44 285.332 4930.38 286.504C4927.32 287.611 4924.75 289.238 4922.67 291.387C4920.65 293.47 4919.09 296.009 4917.98 299.004C4916.87 301.999 4916.22 305.352 4916.03 309.062L4910.66 309.453C4910.66 302.812 4911.31 296.66 4912.61 290.996C4913.91 285.332 4915.86 280.352 4918.47 276.055C4921.14 271.758 4924.46 268.405 4928.43 265.996C4932.47 263.587 4937.12 262.383 4942.39 262.383C4943.83 262.383 4945.36 262.513 4946.98 262.773C4948.68 263.034 4949.95 263.327 4950.79 263.652ZM5028.43 227.324V370H5004.89V255.254L4970.03 267.07V247.637L5025.6 227.324H5028.43ZM5170.52 286.992V310.234C5170.52 321.367 5169.41 330.872 5167.2 338.75C5165.05 346.562 5161.93 352.91 5157.82 357.793C5153.72 362.676 5148.81 366.257 5143.08 368.535C5137.41 370.814 5131.07 371.953 5124.04 371.953C5118.44 371.953 5113.23 371.237 5108.41 369.805C5103.66 368.372 5099.36 366.126 5095.52 363.066C5091.68 360.007 5088.39 356.068 5085.66 351.25C5082.99 346.367 5080.9 340.54 5079.41 333.77C5077.97 326.999 5077.26 319.154 5077.26 310.234V286.992C5077.26 275.794 5078.36 266.354 5080.58 258.672C5082.79 250.924 5085.95 244.642 5090.05 239.824C5094.15 234.941 5099.04 231.393 5104.7 229.18C5110.43 226.966 5116.81 225.859 5123.84 225.859C5129.5 225.859 5134.71 226.576 5139.46 228.008C5144.28 229.375 5148.58 231.556 5152.36 234.551C5156.2 237.546 5159.45 241.452 5162.12 246.27C5164.86 251.022 5166.94 256.784 5168.37 263.555C5169.8 270.26 5170.52 278.073 5170.52 286.992ZM5146.98 313.555V283.477C5146.98 277.812 5146.66 272.832 5146.01 268.535C5145.36 264.173 5144.38 260.495 5143.08 257.5C5141.84 254.44 5140.28 251.966 5138.39 250.078C5136.5 248.125 5134.35 246.725 5131.95 245.879C5129.54 244.967 5126.83 244.512 5123.84 244.512C5120.19 244.512 5116.94 245.228 5114.07 246.66C5111.21 248.027 5108.8 250.241 5106.85 253.301C5104.89 256.361 5103.4 260.397 5102.36 265.41C5101.38 270.358 5100.89 276.38 5100.89 283.477V313.555C5100.89 319.284 5101.22 324.329 5101.87 328.691C5102.52 333.053 5103.49 336.797 5104.8 339.922C5106.1 342.982 5107.66 345.521 5109.48 347.539C5111.37 349.492 5113.52 350.924 5115.93 351.836C5118.4 352.747 5121.11 353.203 5124.04 353.203C5127.75 353.203 5131.03 352.487 5133.9 351.055C5136.76 349.622 5139.17 347.344 5141.12 344.219C5143.08 341.029 5144.54 336.895 5145.52 331.816C5146.5 326.738 5146.98 320.651 5146.98 313.555ZM5284.48 331.23C5284.48 340.085 5282.43 347.539 5278.33 353.594C5274.23 359.648 5268.63 364.238 5261.54 367.363C5254.5 370.423 5246.56 371.953 5237.71 371.953C5228.85 371.953 5220.88 370.423 5213.78 367.363C5206.68 364.238 5201.09 359.648 5196.98 353.594C5192.88 347.539 5190.83 340.085 5190.83 331.23C5190.83 325.371 5191.97 320.065 5194.25 315.312C5196.53 310.495 5199.75 306.361 5203.92 302.91C5208.15 299.395 5213.1 296.693 5218.76 294.805C5224.49 292.917 5230.74 291.973 5237.51 291.973C5246.5 291.973 5254.54 293.633 5261.63 296.953C5268.73 300.273 5274.3 304.863 5278.33 310.723C5282.43 316.582 5284.48 323.418 5284.48 331.23ZM5260.85 330.059C5260.85 325.306 5259.88 321.139 5257.92 317.559C5255.97 313.978 5253.23 311.211 5249.72 309.258C5246.2 307.305 5242.13 306.328 5237.51 306.328C5232.82 306.328 5228.76 307.305 5225.3 309.258C5221.85 311.211 5219.15 313.978 5217.2 317.559C5215.31 321.139 5214.37 325.306 5214.37 330.059C5214.37 334.876 5215.31 339.043 5217.2 342.559C5219.09 346.009 5221.79 348.646 5225.3 350.469C5228.82 352.292 5232.95 353.203 5237.71 353.203C5242.46 353.203 5246.56 352.292 5250.01 350.469C5253.46 348.646 5256.13 346.009 5258.02 342.559C5259.91 339.043 5260.85 334.876 5260.85 330.059ZM5281.26 265.215C5281.26 272.311 5279.37 278.626 5275.6 284.16C5271.89 289.694 5266.74 294.056 5260.17 297.246C5253.59 300.371 5246.11 301.934 5237.71 301.934C5229.24 301.934 5221.69 300.371 5215.05 297.246C5208.48 294.056 5203.3 289.694 5199.52 284.16C5195.81 278.626 5193.96 272.311 5193.96 265.215C5193.96 256.751 5195.81 249.622 5199.52 243.828C5203.3 237.969 5208.48 233.509 5215.05 230.449C5221.63 227.389 5229.15 225.859 5237.61 225.859C5246.07 225.859 5253.59 227.389 5260.17 230.449C5266.74 233.509 5271.89 237.969 5275.6 243.828C5279.37 249.622 5281.26 256.751 5281.26 265.215ZM5257.73 265.996C5257.73 261.764 5256.88 258.053 5255.19 254.863C5253.56 251.608 5251.25 249.069 5248.25 247.246C5245.26 245.423 5241.71 244.512 5237.61 244.512C5233.51 244.512 5229.96 245.391 5226.96 247.148C5223.97 248.906 5221.66 251.38 5220.03 254.57C5218.4 257.76 5217.59 261.569 5217.59 265.996C5217.59 270.358 5218.4 274.167 5220.03 277.422C5221.66 280.612 5223.97 283.118 5226.96 284.941C5230.02 286.764 5233.61 287.676 5237.71 287.676C5241.81 287.676 5245.36 286.764 5248.35 284.941C5251.35 283.118 5253.66 280.612 5255.29 277.422C5256.91 274.167 5257.73 270.358 5257.73 265.996ZM5307.53 358.281C5307.53 354.635 5308.77 351.576 5311.24 349.102C5313.72 346.562 5317.07 345.293 5321.3 345.293C5325.6 345.293 5328.95 346.562 5331.36 349.102C5333.83 351.576 5335.07 354.635 5335.07 358.281C5335.07 361.927 5333.83 364.987 5331.36 367.461C5328.95 369.935 5325.6 371.172 5321.3 371.172C5317.07 371.172 5313.72 369.935 5311.24 367.461C5308.77 364.987 5307.53 361.927 5307.53 358.281Z" fill="#7666C4"/>
<path fill-rule="evenodd" clip-rule="evenodd" d="M620.5 300C620.5 197.825 537.675 115 435.5 115C333.325 115 250.5 197.825 250.5 300C250.5 402.175 333.325 485 435.5 485C537.675 485 620.5 402.175 620.5 300ZM435.5 207.5C440.407 207.5 445.112 209.449 448.581 212.919C452.051 216.388 454 221.093 454 226V318.5C454 323.407 452.051 328.112 448.581 331.581C445.112 335.051 440.407 337 435.5 337C430.593 337 425.888 335.051 422.419 331.581C418.949 328.112 417 323.407 417 318.5V226C417 221.093 418.949 216.388 422.419 212.919C425.888 209.449 430.593 207.5 435.5 207.5ZM417 374C417 369.093 418.949 364.388 422.419 360.919C425.888 357.449 430.593 355.5 435.5 355.5H435.648C440.555 355.5 445.26 357.449 448.729 360.919C452.199 364.388 454.148 369.093 454.148 374C454.148 378.907 452.199 383.612 448.729 387.081C445.26 390.551 440.555 392.5 435.648 392.5H435.5C430.593 392.5 425.888 390.551 422.419 387.081C418.949 383.612 417 378.907 417 374Z" fill="#E6E6E6"/>
</svg>
