<svg width="1351" height="1447" viewBox="0 0 1351 1447" fill="none" xmlns="http://www.w3.org/2000/svg">
<path d="M140.571 89.9231C95.5208 89.9231 59 126.444 59 171.494V610.66C59 655.71 95.5207 692.231 140.571 692.231H185.762C230.813 692.231 265.99 654.183 284.441 613.084C316.544 541.574 390.327 489.731 475.667 489.731H562.896C631.891 489.731 669.726 570.06 625.785 623.253L590.25 666.269C435.896 851.829 317.156 1061.06 244.378 1287.08C228.057 1337.77 267.054 1388 320.302 1388H810.762C855.813 1388 892.123 1351.46 894.318 1306.46C907.372 1038.84 984.835 777.859 1126.71 546.846L1280.84 283.433C1297.82 254.415 1295.26 217.952 1274.38 191.596L1193.85 89.8936C1169.9 59.6504 1128.03 50.3203 1093.51 67.5302L1090.25 69.1538C928.792 147.038 746.5 162.615 574.625 115.885C506.917 95.1154 444.417 89.9231 376.708 89.9231H140.571Z" stroke="#202020" stroke-width="116.822" stroke-miterlimit="10" stroke-linecap="round" stroke-linejoin="round"/>
</svg>
